# Blender 5.2.1 LTS
# www.blender.org
mtllib SM_LT_TraderHub_Workbench.mtl
o SM_LT_TraderHub_Workbench_EXPORT
v 217.500000 192.500000 97.000000
v 217.500000 197.500000 102.000000
v 212.500000 192.500000 102.000000
v 217.500000 197.500000 110.000000
v 217.500000 192.500000 115.000000
v 212.500000 192.500000 110.000000
v 217.500000 47.500000 97.000000
v 212.500000 47.500000 102.000000
v 217.500000 42.500000 102.000000
v 217.500000 47.500000 115.000000
v 217.500000 42.500000 110.000000
v 212.500000 47.500000 110.000000
v 392.500000 192.500000 97.000000
v 397.500000 192.500000 102.000000
v 392.500000 197.500000 102.000000
v 392.500000 192.500000 115.000000
v 392.500000 197.500000 110.000000
v 397.500000 192.500000 110.000000
v 392.500000 47.500000 97.000000
v 392.500000 42.500000 102.000000
v 397.500000 47.500000 102.000000
v 392.500000 47.500000 115.000000
v 397.500000 47.500000 110.000000
v 392.500000 42.500000 110.000000
v 227.223785 181.000000 0.240463
v 227.328476 184.000000 3.238632
v 224.330307 181.000000 3.343338
v 230.678833 184.000000 99.180161
v 230.783539 181.000000 102.178329
v 227.680664 181.000000 99.284851
v 227.223785 169.000000 0.240463
v 224.330307 169.000000 3.343338
v 227.328476 166.000000 3.238632
v 230.783539 169.000000 102.178329
v 230.678833 166.000000 99.180161
v 227.680664 169.000000 99.284851
v 239.216461 181.000000 -0.178329
v 242.319336 181.000000 2.715149
v 239.321167 184.000000 2.819839
v 242.776215 181.000000 101.759537
v 242.671524 184.000000 98.761368
v 245.669693 181.000000 98.656662
v 239.216461 169.000000 -0.178329
v 239.321167 166.000000 2.819839
v 242.319336 169.000000 2.715149
v 242.776215 169.000000 101.759537
v 245.669693 169.000000 98.656662
v 242.671524 166.000000 98.761368
v 227.223785 71.000000 0.240463
v 227.328476 74.000000 3.238632
v 224.330307 71.000000 3.343338
v 230.678833 74.000000 99.180161
v 230.783539 71.000000 102.178329
v 227.680664 71.000000 99.284851
v 227.223785 59.000000 0.240463
v 224.330307 59.000000 3.343338
v 227.328476 56.000000 3.238632
v 230.783539 59.000000 102.178329
v 230.678833 56.000000 99.180161
v 227.680664 59.000000 99.284851
v 239.216461 71.000000 -0.178329
v 242.319336 71.000000 2.715149
v 239.321167 74.000000 2.819839
v 242.776215 71.000000 101.759537
v 242.671524 74.000000 98.761368
v 245.669693 71.000000 98.656662
v 239.216461 59.000000 -0.178329
v 239.321167 56.000000 2.819839
v 242.319336 59.000000 2.715149
v 242.776215 59.000000 101.759537
v 245.669693 59.000000 98.656662
v 242.671524 56.000000 98.761368
v 370.783539 181.000000 -0.178329
v 370.678833 184.000000 2.819839
v 367.680664 181.000000 2.715149
v 367.328491 184.000000 98.761368
v 367.223785 181.000000 101.759537
v 364.330322 181.000000 98.656662
v 370.783539 169.000000 -0.178329
v 367.680664 169.000000 2.715149
v 370.678833 166.000000 2.819839
v 367.223785 169.000000 101.759537
v 367.328491 166.000000 98.761368
v 364.330322 169.000000 98.656662
v 382.776215 181.000000 0.240463
v 385.669678 181.000000 3.343338
v 382.671509 184.000000 3.238632
v 379.216461 181.000000 102.178329
v 379.321167 184.000000 99.180161
v 382.319336 181.000000 99.284851
v 382.776215 169.000000 0.240463
v 382.671509 166.000000 3.238632
v 385.669678 169.000000 3.343338
v 379.216461 169.000000 102.178329
v 382.319336 169.000000 99.284851
v 379.321167 166.000000 99.180161
v 370.783539 71.000000 -0.178329
v 370.678833 74.000000 2.819839
v 367.680664 71.000000 2.715149
v 367.328491 74.000000 98.761368
v 367.223785 71.000000 101.759537
v 364.330322 71.000000 98.656662
v 370.783539 59.000000 -0.178329
v 367.680664 59.000000 2.715149
v 370.678833 56.000000 2.819839
v 367.223785 59.000000 101.759537
v 367.328491 56.000000 98.761368
v 364.330322 59.000000 98.656662
v 382.776215 71.000000 0.240463
v 385.669678 71.000000 3.343338
v 382.671509 74.000000 3.238632
v 379.216461 71.000000 102.178329
v 379.321167 74.000000 99.180161
v 382.319336 71.000000 99.284851
v 382.776215 59.000000 0.240463
v 382.671509 56.000000 3.238632
v 385.669678 59.000000 3.343338
v 379.216461 59.000000 102.178329
v 382.319336 59.000000 99.284851
v 379.321167 56.000000 99.180161
v 253.000000 151.000000 119.158134
v 281.000000 151.000000 118.454140
v 309.000000 151.000000 118.454140
v 337.000000 151.000000 119.158134
v 253.000000 127.000000 118.486053
v 281.000000 127.000000 117.782051
v 309.000000 127.000000 117.782051
v 337.000000 127.000000 118.486053
v 253.000000 103.000000 116.681152
v 281.000000 103.000000 115.977150
v 309.000000 103.000000 115.977150
v 337.000000 103.000000 116.681152
v 252.883286 150.980759 117.963982
v 280.984924 150.980698 117.254387
v 309.015076 150.980698 117.254387
v 337.116730 150.980759 117.963982
v 252.883530 127.061584 117.293304
v 280.984924 127.061813 116.583740
v 309.015076 127.061813 116.583740
v 337.116486 127.061584 117.293304
v 252.883774 103.052040 115.487930
v 280.984924 103.052345 114.778389
v 309.015076 103.052345 114.778389
v 337.116211 103.052040 115.487930
v 224.899323 174.367188 121.947128
v 225.489197 174.964539 121.810318
v 225.589905 174.402634 122.435120
v 252.942017 174.964111 117.116699
v 253.000000 174.402634 117.748772
v 280.992493 174.964020 116.411430
v 281.000000 174.402634 117.044769
v 309.007507 174.964020 116.411430
v 309.000000 174.402634 117.044769
v 337.057983 174.964111 117.116699
v 337.000000 174.402634 117.748772
v 364.510803 174.964539 121.810318
v 365.100677 174.367188 121.947128
v 364.410095 174.402634 122.435112
v 225.589905 151.000000 123.844482
v 224.899063 150.990555 123.354973
v 365.100952 150.990555 123.354973
v 364.410095 151.000000 123.844482
v 225.589905 127.000000 123.172401
v 224.899246 127.030319 122.683975
v 365.100739 127.030319 122.683975
v 364.410095 127.000000 123.172401
v 225.589905 103.000000 121.367500
v 224.899200 103.025841 120.878746
v 365.100800 103.025841 120.878746
v 364.410095 103.000000 121.367500
v 224.899155 79.605606 120.592308
v 225.589905 79.598396 121.081284
v 225.489029 79.007217 120.484138
v 253.000000 79.598396 116.394936
v 252.941788 79.007301 115.790497
v 281.000000 79.598396 115.690933
v 280.992493 79.007317 115.085220
v 309.000000 79.598396 115.690933
v 309.007507 79.007317 115.085220
v 337.000000 79.598396 116.394936
v 337.058197 79.007301 115.790497
v 365.100830 79.605606 120.592308
v 364.510956 79.007217 120.484138
v 364.410095 79.598396 121.081284
v 224.898788 174.367004 121.944084
v 225.388016 174.331512 121.254463
v 225.488678 174.964340 121.807281
v 252.884018 174.330841 116.556580
v 252.942017 174.964096 117.116669
v 280.984955 174.330505 115.847061
v 280.992462 174.963852 116.408424
v 309.015045 174.330505 115.847061
v 309.007538 174.963852 116.408424
v 337.115997 174.330841 116.556580
v 337.057983 174.964096 117.116669
v 364.511322 174.964340 121.807289
v 364.611969 174.331512 121.254463
v 365.101196 174.367004 121.944084
v 224.898727 150.990524 123.353012
v 225.387695 150.981079 122.661858
v 364.612305 150.981079 122.661858
v 365.101257 150.990524 123.353012
v 224.898788 127.030457 122.681213
v 225.387939 127.060791 121.991142
v 364.612061 127.060791 121.991142
v 365.101227 127.030457 122.681213
v 224.898758 103.025948 120.876228
v 225.387863 103.051796 120.185829
v 364.612152 103.051796 120.185829
v 365.101257 103.025948 120.876228
v 224.898636 79.605637 120.589226
v 225.488510 79.007248 120.481110
v 225.387695 79.612862 119.898605
v 252.941788 79.007301 115.790482
v 252.883575 79.612999 115.200699
v 280.992432 79.007355 115.082199
v 280.984924 79.613068 114.491135
v 309.007568 79.007355 115.082199
v 309.015076 79.613068 114.491135
v 337.058228 79.007301 115.790482
v 337.116425 79.612999 115.200699
v 365.101379 79.605637 120.589226
v 364.612305 79.612862 119.898605
v 364.511475 79.007248 120.481110
v 239.460571 149.151672 123.728981
v 240.354996 150.940536 123.728981
v 240.894424 151.788849 122.000000
v 240.539429 150.848328 120.271019
v 239.645004 149.059464 120.271019
v 239.105576 148.211151 122.000000
v 253.943710 139.719238 125.005791
v 254.833069 141.510620 125.005455
v 255.369400 142.360489 123.276268
v 255.016373 141.418976 121.547417
v 254.127014 139.627594 121.547752
v 253.590683 138.777725 123.276939
v 270.025818 134.026764 125.747040
v 269.969269 136.025742 125.716660
v 269.943451 136.998962 123.969620
v 269.974182 135.973236 122.252960
v 270.030731 133.974258 122.283340
v 270.056549 133.001038 124.030380
v 288.077240 141.588821 124.930374
v 287.382416 143.464203 124.917404
v 286.951538 144.359009 123.181412
v 287.215485 143.378433 121.458389
v 287.910309 141.503052 121.471359
v 288.341187 140.608246 123.207352
v 304.915131 147.060623 123.763626
v 305.273560 149.027023 123.694221
v 305.358398 149.966400 121.930595
v 305.084869 148.939377 120.236374
v 304.726440 146.972977 120.305779
v 304.641602 146.033600 122.069405
v 323.811737 131.924713 123.256516
v 325.271057 133.288498 123.154053
v 325.934723 133.911041 121.373047
v 325.139069 133.169800 119.694504
v 323.679749 131.806015 119.796967
v 323.016083 131.183472 121.577972
v 339.262634 109.459404 123.778770
v 340.775574 110.763557 123.677933
v 341.512939 111.304153 121.899162
v 340.737366 110.540596 120.221230
v 339.224426 109.236443 120.322067
v 338.487061 108.695847 122.100838
v 349.179565 100.280693 124.635773
v 350.521637 101.759079 124.520775
v 351.221130 102.338303 122.738861
v 350.578552 101.439140 121.071945
v 349.236481 99.960754 121.186943
v 348.536987 99.381531 122.968857
v 359.300507 91.420776 125.781914
v 360.642578 92.899170 125.666916
v 361.342072 93.478394 123.885002
v 360.699493 92.579224 122.218086
v 359.357422 91.100822 122.333084
v 358.657928 90.521606 124.114998
v 240.000000 146.841171 123.500000
v 239.239151 146.247208 124.300003
v 240.760849 146.247208 124.300003
v 240.000000 146.841171 128.500000
v 240.760849 146.247208 127.699997
v 239.239151 146.247208 127.699997
v 241.856720 147.444458 123.500000
v 241.590302 146.516724 124.300003
v 242.821365 147.411148 124.300003
v 241.856720 147.444458 128.500000
v 242.821365 147.411148 127.699997
v 241.590302 146.516724 127.699997
v 243.004227 149.023865 123.500000
v 243.334000 148.116714 124.300003
v 243.804230 149.563934 124.300003
v 243.004227 149.023865 128.500000
v 243.804230 149.563934 127.699997
v 243.334000 148.116714 127.699997
v 243.004227 150.976135 123.500000
v 243.804230 150.436066 124.300003
v 243.334000 151.883286 124.300003
v 243.004227 150.976135 128.500000
v 243.334000 151.883286 127.699997
v 243.804230 150.436066 127.699997
v 241.856720 152.555542 123.500000
v 242.821365 152.588852 124.300003
v 241.590302 153.483276 124.300003
v 241.856720 152.555542 128.500000
v 241.590302 153.483276 127.699997
v 242.821365 152.588852 127.699997
v 240.000000 153.158829 123.500000
v 240.760849 153.752777 124.300003
v 239.239151 153.752777 124.300003
v 240.000000 153.158829 128.500000
v 239.239151 153.752777 127.699997
v 240.760849 153.752777 127.699997
v 238.143280 152.555542 123.500000
v 238.409698 153.483276 124.300003
v 237.178635 152.588852 124.300003
v 238.143280 152.555542 128.500000
v 237.178619 152.588852 127.699997
v 238.409698 153.483276 127.699997
v 236.995773 150.976135 123.500000
v 236.666000 151.883286 124.300003
v 236.195770 150.436066 124.300003
v 236.995773 150.976135 128.500000
v 236.195770 150.436066 127.699997
v 236.666000 151.883286 127.699997
v 236.995773 149.023865 123.500000
v 236.195770 149.563934 124.300003
v 236.666000 148.116714 124.300003
v 236.995773 149.023865 128.500000
v 236.666000 148.116714 127.699997
v 236.195770 149.563934 127.699997
v 238.143280 147.444458 123.500000
v 237.178619 147.411148 124.300003
v 238.409698 146.516724 124.300003
v 238.143280 147.444458 128.500000
v 238.409698 146.516724 127.699997
v 237.178635 147.411148 127.699997
v 305.000000 144.841171 123.500000
v 304.239166 144.247208 124.300003
v 305.760834 144.247208 124.300003
v 305.000000 144.841171 128.500000
v 305.760834 144.247208 127.699997
v 304.239166 144.247208 127.699997
v 306.856720 145.444458 123.500000
v 306.590302 144.516724 124.300003
v 307.821381 145.411148 124.300003
v 306.856720 145.444458 128.500000
v 307.821381 145.411148 127.699997
v 306.590302 144.516724 127.699997
v 308.004211 147.023865 123.500000
v 308.333984 146.116714 124.300003
v 308.804230 147.563934 124.300003
v 308.004211 147.023865 128.500000
v 308.804230 147.563934 127.699997
v 308.333984 146.116714 127.699997
v 308.004211 148.976135 123.500000
v 308.804230 148.436066 124.300003
v 308.333984 149.883286 124.300003
v 308.004211 148.976135 128.500000
v 308.333984 149.883286 127.699997
v 308.804230 148.436066 127.699997
v 306.856720 150.555542 123.500000
v 307.821381 150.588852 124.300003
v 306.590302 151.483276 124.300003
v 306.856720 150.555542 128.500000
v 306.590302 151.483276 127.699997
v 307.821381 150.588852 127.699997
v 305.000000 151.158829 123.500000
v 305.760834 151.752792 124.300003
v 304.239166 151.752792 124.300003
v 305.000000 151.158829 128.500000
v 304.239166 151.752792 127.699997
v 305.760834 151.752792 127.699997
v 303.143280 150.555542 123.500000
v 303.409698 151.483276 124.300003
v 302.178619 150.588852 124.300003
v 303.143280 150.555542 128.500000
v 302.178619 150.588852 127.699997
v 303.409698 151.483276 127.699997
v 301.995789 148.976135 123.500000
v 301.666016 149.883286 124.300003
v 301.195770 148.436066 124.300003
v 301.995789 148.976135 128.500000
v 301.195770 148.436066 127.699997
v 301.666016 149.883286 127.699997
v 301.995789 147.023865 123.500000
v 301.195770 147.563934 124.300003
v 301.666016 146.116714 124.300003
v 301.995789 147.023865 128.500000
v 301.666016 146.116714 127.699997
v 301.195770 147.563934 127.699997
v 303.143280 145.444458 123.500000
v 302.178619 145.411148 124.300003
v 303.409698 144.516724 124.300003
v 303.143280 145.444458 128.500000
v 303.409698 144.516724 127.699997
v 302.178619 145.411148 127.699997
v 360.000000 88.841171 123.500000
v 359.239166 88.247215 124.300003
v 360.760834 88.247215 124.300003
v 360.000000 88.841171 128.500000
v 360.760834 88.247215 127.699997
v 359.239166 88.247215 127.699997
v 361.856720 89.444450 123.500000
v 361.590302 88.516716 124.300003
v 362.821381 89.411148 124.300003
v 361.856720 89.444450 128.500000
v 362.821381 89.411148 127.699997
v 361.590302 88.516716 127.699997
v 363.004211 91.023865 123.500000
v 363.333984 90.116714 124.300003
v 363.804230 91.563934 124.300003
v 363.004211 91.023865 128.500000
v 363.804230 91.563934 127.699997
v 363.333984 90.116714 127.699997
v 363.004211 92.976135 123.500000
v 363.804230 92.436066 124.300003
v 363.333984 93.883286 124.300003
v 363.004211 92.976135 128.500000
v 363.333984 93.883286 127.699997
v 363.804230 92.436066 127.699997
v 361.856720 94.555550 123.500000
v 362.821381 94.588852 124.300003
v 361.590302 95.483284 124.300003
v 361.856720 94.555550 128.500000
v 361.590302 95.483284 127.699997
v 362.821381 94.588852 127.699997
v 360.000000 95.158829 123.500000
v 360.760834 95.752785 124.300003
v 359.239166 95.752785 124.300003
v 360.000000 95.158829 128.500000
v 359.239166 95.752785 127.699997
v 360.760834 95.752785 127.699997
v 358.143280 94.555550 123.500000
v 358.409698 95.483284 124.300003
v 357.178619 94.588852 124.300003
v 358.143280 94.555550 128.500000
v 357.178619 94.588852 127.699997
v 358.409698 95.483284 127.699997
v 356.995789 92.976135 123.500000
v 356.666016 93.883286 124.300003
v 356.195770 92.436066 124.300003
v 356.995789 92.976135 128.500000
v 356.195770 92.436066 127.699997
v 356.666016 93.883286 127.699997
v 356.995789 91.023865 123.500000
v 356.195770 91.563934 124.300003
v 356.666016 90.116714 124.300003
v 356.995789 91.023865 128.500000
v 356.666016 90.116714 127.699997
v 356.195770 91.563934 127.699997
v 358.143280 89.444450 123.500000
v 357.178619 89.411148 124.300003
v 358.409698 88.516716 124.300003
v 358.143280 89.444450 128.500000
v 358.409698 88.516716 127.699997
v 357.178619 89.411148 127.699997
v 235.000000 37.070557 128.000000
v 233.068146 35.517639 130.000000
v 236.931854 35.517639 130.000000
v 235.000000 37.070557 138.000000
v 236.931854 35.517639 136.000000
v 233.068146 35.517639 136.000000
v 243.964722 39.472641 128.000000
v 245.000000 37.679489 130.000000
v 243.964722 39.472641 138.000000
v 245.000000 37.679489 136.000000
v 250.527359 46.035278 128.000000
v 252.320511 45.000000 130.000000
v 250.527359 46.035278 138.000000
v 252.320511 45.000000 136.000000
v 252.929443 55.000000 128.000000
v 254.482361 53.068146 130.000000
v 254.482361 56.931850 130.000000
v 252.929443 55.000000 138.000000
v 254.482361 56.931850 136.000000
v 254.482361 53.068146 136.000000
v 250.527359 63.964725 128.000000
v 252.320511 65.000000 130.000000
v 250.527359 63.964725 138.000000
v 252.320511 65.000000 136.000000
v 243.964722 70.527359 128.000000
v 245.000000 72.320511 130.000000
v 243.964722 70.527359 138.000000
v 245.000000 72.320511 136.000000
v 235.000000 72.929443 128.000000
v 236.931854 74.482361 130.000000
v 233.068146 74.482361 130.000000
v 235.000000 72.929443 138.000000
v 233.068146 74.482361 136.000000
v 236.931854 74.482361 136.000000
v 226.035278 70.527359 128.000000
v 225.000000 72.320511 130.000000
v 226.035278 70.527359 138.000000
v 225.000000 72.320511 136.000000
v 219.472641 63.964725 128.000000
v 217.679489 65.000000 130.000000
v 219.472641 63.964725 138.000000
v 217.679489 65.000000 136.000000
v 217.070557 55.000000 128.000000
v 215.517639 56.931850 130.000000
v 215.517639 53.068146 130.000000
v 217.070557 55.000000 138.000000
v 215.517639 53.068146 136.000000
v 215.517639 56.931850 136.000000
v 219.472641 46.035278 128.000000
v 217.679489 45.000000 130.000000
v 219.472641 46.035278 138.000000
v 217.679489 45.000000 136.000000
v 226.035278 39.472641 128.000000
v 225.000000 37.679489 130.000000
v 226.035278 39.472641 138.000000
v 225.000000 37.679489 136.000000
v 235.000000 43.105827 137.000000
v 235.000000 40.000000 140.000000
v 235.000000 43.105827 183.000000
v 235.000000 40.000000 180.000000
v 240.947083 44.699341 137.000000
v 242.500000 42.009621 140.000000
v 240.947083 44.699341 183.000000
v 242.500000 42.009621 180.000000
v 245.300659 49.052917 137.000000
v 247.990387 47.500000 140.000000
v 245.300659 49.052917 183.000000
v 247.990387 47.500000 180.000000
v 246.894165 55.000000 137.000000
v 250.000000 55.000000 140.000000
v 246.894165 55.000000 183.000000
v 250.000000 55.000000 180.000000
v 245.300659 60.947086 137.000000
v 247.990387 62.500000 140.000000
v 245.300659 60.947086 183.000000
v 247.990387 62.500000 180.000000
v 240.947083 65.300659 137.000000
v 242.500000 67.990379 140.000000
v 240.947083 65.300659 183.000000
v 242.500000 67.990379 180.000000
v 235.000000 66.894173 137.000000
v 235.000000 70.000000 140.000000
v 235.000000 66.894173 183.000000
v 235.000000 70.000000 180.000000
v 229.052917 65.300659 137.000000
v 227.500000 67.990379 140.000000
v 229.052917 65.300659 183.000000
v 227.500000 67.990379 180.000000
v 224.699341 60.947086 137.000000
v 222.009613 62.500000 140.000000
v 224.699341 60.947086 183.000000
v 222.009613 62.500000 180.000000
v 223.105835 55.000000 137.000000
v 220.000000 55.000000 140.000000
v 223.105835 55.000000 183.000000
v 220.000000 55.000000 180.000000
v 224.699341 49.052917 137.000000
v 222.009613 47.500000 140.000000
v 224.699341 49.052917 183.000000
v 222.009613 47.500000 180.000000
v 229.052917 44.699341 137.000000
v 227.500000 42.009621 140.000000
v 229.052917 44.699341 183.000000
v 227.500000 42.009621 180.000000
v 235.000000 37.070557 183.000000
v 235.000000 35.000000 185.000000
v 235.000000 37.070557 195.000000
v 235.000000 35.000000 193.000000
v 243.964722 39.472641 183.000000
v 245.000000 37.679489 185.000000
v 243.964722 39.472641 195.000000
v 245.000000 37.679489 193.000000
v 250.527359 46.035278 183.000000
v 252.320511 45.000000 185.000000
v 250.527359 46.035278 195.000000
v 252.320511 45.000000 193.000000
v 252.929443 55.000000 183.000000
v 255.000000 55.000000 185.000000
v 252.929443 55.000000 195.000000
v 255.000000 55.000000 193.000000
v 250.527359 63.964725 183.000000
v 252.320511 65.000000 185.000000
v 250.527359 63.964725 195.000000
v 252.320511 65.000000 193.000000
v 243.964722 70.527359 183.000000
v 245.000000 72.320511 185.000000
v 243.964722 70.527359 195.000000
v 245.000000 72.320511 193.000000
v 235.000000 72.929443 183.000000
v 235.000000 75.000000 185.000000
v 235.000000 72.929443 195.000000
v 235.000000 75.000000 193.000000
v 226.035278 70.527359 183.000000
v 225.000000 72.320511 185.000000
v 226.035278 70.527359 195.000000
v 225.000000 72.320511 193.000000
v 219.472641 63.964725 183.000000
v 217.679489 65.000000 185.000000
v 219.472641 63.964725 195.000000
v 217.679489 65.000000 193.000000
v 217.070557 55.000000 183.000000
v 215.000000 55.000000 185.000000
v 217.070557 55.000000 195.000000
v 215.000000 55.000000 193.000000
v 219.472641 46.035278 183.000000
v 217.679489 45.000000 185.000000
v 219.472641 46.035278 195.000000
v 217.679489 45.000000 193.000000
v 226.035278 39.472641 183.000000
v 225.000000 37.679489 185.000000
v 226.035278 39.472641 195.000000
v 225.000000 37.679489 193.000000
v 251.000000 56.000000 133.000000
v 251.000000 57.000000 134.000000
v 250.000000 56.000000 134.000000
v 251.000000 57.000000 188.000000
v 251.000000 56.000000 189.000000
v 250.000000 56.000000 188.000000
v 251.000000 54.000000 133.000000
v 250.000000 54.000000 134.000000
v 251.000000 53.000000 134.000000
v 251.000000 54.000000 189.000000
v 251.000000 53.000000 188.000000
v 250.000000 54.000000 188.000000
v 253.000000 56.000000 133.000000
v 254.000000 56.000000 134.000000
v 253.000000 57.000000 134.000000
v 253.000000 56.000000 189.000000
v 253.000000 57.000000 188.000000
v 254.000000 56.000000 188.000000
v 253.000000 54.000000 133.000000
v 253.000000 53.000000 134.000000
v 254.000000 54.000000 134.000000
v 253.000000 54.000000 189.000000
v 254.000000 54.000000 188.000000
v 253.000000 53.000000 188.000000
v 234.000000 39.000000 133.000000
v 234.000000 40.000000 134.000000
v 233.000000 39.000000 134.000000
v 234.000000 40.000000 188.000000
v 234.000000 39.000000 189.000000
v 233.000000 39.000000 188.000000
v 234.000000 37.000000 133.000000
v 233.000000 37.000000 134.000000
v 234.000000 36.000000 134.000000
v 234.000000 37.000000 189.000000
v 234.000000 36.000000 188.000000
v 233.000000 37.000000 188.000000
v 236.000000 39.000000 133.000000
v 237.000000 39.000000 134.000000
v 236.000000 40.000000 134.000000
v 236.000000 39.000000 189.000000
v 236.000000 40.000000 188.000000
v 237.000000 39.000000 188.000000
v 236.000000 37.000000 133.000000
v 236.000000 36.000000 134.000000
v 237.000000 37.000000 134.000000
v 236.000000 37.000000 189.000000
v 237.000000 37.000000 188.000000
v 236.000000 36.000000 188.000000
v 217.000000 56.000000 133.000000
v 217.000000 57.000000 134.000000
v 216.000000 56.000000 134.000000
v 217.000000 57.000000 188.000000
v 217.000000 56.000000 189.000000
v 216.000000 56.000000 188.000000
v 217.000000 54.000000 133.000000
v 216.000000 54.000000 134.000000
v 217.000000 53.000000 134.000000
v 217.000000 54.000000 189.000000
v 217.000000 53.000000 188.000000
v 216.000000 54.000000 188.000000
v 219.000000 56.000000 133.000000
v 220.000000 56.000000 134.000000
v 219.000000 57.000000 134.000000
v 219.000000 56.000000 189.000000
v 219.000000 57.000000 188.000000
v 220.000000 56.000000 188.000000
v 219.000000 54.000000 133.000000
v 219.000000 53.000000 134.000000
v 220.000000 54.000000 134.000000
v 219.000000 54.000000 189.000000
v 220.000000 54.000000 188.000000
v 219.000000 53.000000 188.000000
v 234.000000 73.000000 133.000000
v 234.000000 74.000000 134.000000
v 233.000000 73.000000 134.000000
v 234.000000 74.000000 188.000000
v 234.000000 73.000000 189.000000
v 233.000000 73.000000 188.000000
v 234.000000 71.000000 133.000000
v 233.000000 71.000000 134.000000
v 234.000000 70.000000 134.000000
v 234.000000 71.000000 189.000000
v 234.000000 70.000000 188.000000
v 233.000000 71.000000 188.000000
v 236.000000 73.000000 133.000000
v 237.000000 73.000000 134.000000
v 236.000000 74.000000 134.000000
v 236.000000 73.000000 189.000000
v 236.000000 74.000000 188.000000
v 237.000000 73.000000 188.000000
v 236.000000 71.000000 133.000000
v 236.000000 70.000000 134.000000
v 237.000000 71.000000 134.000000
v 236.000000 71.000000 189.000000
v 237.000000 71.000000 188.000000
v 236.000000 70.000000 188.000000
v 214.535248 53.500000 190.821579
v 214.535248 56.500000 190.821579
v 217.000000 58.000000 190.000000
v 219.464752 56.500000 189.178421
v 219.464752 53.500000 189.178421
v 217.000000 52.000000 190.000000
v 216.709503 53.500000 204.192337
v 216.709503 56.500000 204.192337
v 219.166580 58.000000 203.348068
v 221.623657 56.500000 202.503799
v 221.623657 53.500000 202.503799
v 219.166580 52.000000 203.348068
v 223.326599 53.500000 215.987396
v 223.326599 56.500000 215.987396
v 225.000000 58.000000 214.000000
v 226.673401 56.500000 212.012604
v 226.673401 53.500000 212.012604
v 225.000000 52.000000 214.000000
v 235.000000 53.500000 220.022247
v 235.000000 56.500000 220.022247
v 235.000000 58.000000 217.424164
v 235.000000 56.500000 214.826080
v 235.000000 53.500000 214.826080
v 235.000000 52.000000 217.424164
v 246.673401 53.500000 215.987396
v 246.673401 56.500000 215.987396
v 245.000000 58.000000 214.000000
v 243.326599 56.500000 212.012604
v 243.326599 53.500000 212.012604
v 245.000000 52.000000 214.000000
v 253.290497 53.500000 204.192337
v 253.290497 56.500000 204.192337
v 250.833420 58.000000 203.348068
v 248.376343 56.500000 202.503799
v 248.376343 53.500000 202.503799
v 250.833420 52.000000 203.348068
v 255.464752 53.500000 190.821579
v 255.464752 56.500000 190.821579
v 253.000000 58.000000 190.000000
v 250.535248 56.500000 189.178421
v 250.535248 53.500000 189.178421
v 253.000000 52.000000 190.000000
vn -0.5774 0.5774 -0.5774
vn -0.5774 0.5774 0.5774
vn -0.5774 -0.5774 -0.5774
vn -0.5774 -0.5774 0.5774
vn 0.5774 0.5774 -0.5774
vn 0.5774 0.5774 0.5774
vn 0.5774 -0.5774 -0.5774
vn 0.5774 -0.5774 0.5774
vn -0.7071 -0.0000 -0.7071
vn -0.7071 0.7071 -0.0000
vn -0.7071 -0.0000 0.7071
vn -0.7071 -0.7071 -0.0000
vn -0.0000 -0.7071 -0.7071
vn -0.0000 -0.7071 0.7071
vn 0.7071 -0.7071 -0.0000
vn 0.7071 -0.0000 -0.7071
vn 0.7071 -0.0000 0.7071
vn 0.7071 0.7071 -0.0000
vn -0.0000 0.7071 -0.7071
vn -0.0000 0.7071 0.7071
vn -0.0000 -0.0000 -1.0000
vn -1.0000 -0.0000 -0.0000
vn -0.0000 1.0000 -0.0000
vn -0.0000 -0.0000 1.0000
vn -0.0000 -1.0000 -0.0000
vn 1.0000 -0.0000 -0.0000
vn -0.5971 0.5774 -0.5568
vn -0.5569 0.5773 0.5971
vn -0.5971 -0.5774 -0.5569
vn -0.5568 -0.5773 0.5972
vn 0.5569 0.5774 -0.5971
vn 0.5971 0.5774 0.5568
vn 0.5568 -0.5773 -0.5972
vn 0.5971 -0.5773 0.5569
vn -0.7314 -0.0000 -0.6820
vn -0.7067 0.7071 0.0247
vn -0.6820 -0.0000 0.7314
vn -0.7067 -0.7071 0.0247
vn -0.0247 -0.7071 -0.7067
vn 0.0247 -0.7071 0.7067
vn 0.7067 -0.7071 -0.0247
vn 0.6820 -0.0000 -0.7314
vn 0.7314 -0.0000 0.6820
vn 0.7067 0.7071 -0.0247
vn -0.0247 0.7071 -0.7067
vn 0.0247 0.7071 0.7067
vn -0.0349 -0.0000 -0.9994
vn -0.9994 -0.0000 0.0349
vn 0.0349 -0.0000 0.9994
vn 0.9994 -0.0000 -0.0349
vn -0.5569 0.5773 0.5972
vn -0.5971 -0.5774 -0.5568
vn -0.5569 -0.5773 0.5971
vn 0.5568 0.5773 -0.5971
vn 0.5568 -0.5773 -0.5971
vn 0.5971 -0.5774 0.5568
vn -0.5568 0.5774 -0.5971
vn -0.5971 0.5773 0.5568
vn -0.5568 -0.5773 -0.5972
vn -0.5971 -0.5774 0.5568
vn 0.5972 0.5773 -0.5569
vn 0.5568 0.5774 0.5971
vn 0.5972 -0.5773 -0.5569
vn 0.5568 -0.5773 0.5972
vn -0.6820 -0.0000 -0.7314
vn -0.7067 0.7071 -0.0247
vn -0.7314 -0.0000 0.6820
vn -0.7067 -0.7071 -0.0247
vn 0.0247 -0.7071 -0.7067
vn -0.0247 -0.7071 0.7067
vn 0.7067 -0.7071 0.0247
vn 0.7314 -0.0000 -0.6820
vn 0.6820 -0.0000 0.7314
vn 0.7067 0.7071 0.0247
vn 0.0247 0.7071 -0.7067
vn -0.0247 0.7071 0.7067
vn 0.0349 -0.0000 -0.9994
vn -0.9994 -0.0000 -0.0349
vn -0.0349 -0.0000 0.9994
vn 0.9994 -0.0000 0.0349
vn -0.5972 0.5773 0.5568
vn -0.5568 -0.5774 -0.5971
vn 0.5972 0.5773 -0.5568
vn 0.5568 0.5773 0.5971
vn 0.5972 -0.5773 -0.5568
vn 0.5568 -0.5773 0.5971
vn 0.0251 -0.0280 0.9993
vn -0.0000 -0.0280 0.9996
vn -0.0251 -0.0280 0.9993
vn 0.0251 -0.0750 0.9969
vn -0.0000 -0.0750 0.9972
vn -0.0251 -0.0750 0.9969
vn -0.0252 0.0280 -0.9993
vn -0.0000 0.0280 -0.9996
vn 0.0252 0.0280 -0.9993
vn -0.0252 0.0750 -0.9969
vn -0.0000 0.0750 -0.9972
vn 0.0252 0.0750 -0.9969
vn -0.4761 0.6143 0.6292
vn 0.4762 0.6143 0.6292
vn -0.4726 -0.5850 0.6591
vn 0.4726 -0.5851 0.6590
vn -0.6697 0.5461 -0.5032
vn 0.6697 0.5461 -0.5032
vn -0.6671 -0.5712 -0.4783
vn 0.6671 -0.5712 -0.4784
vn -0.5779 0.0491 0.8146
vn 0.1119 0.7480 0.6542
vn 0.0167 0.7483 0.6632
vn -0.0000 0.7483 0.6633
vn -0.0167 0.7483 0.6632
vn -0.1119 0.7480 0.6542
vn 0.5781 0.0491 0.8145
vn -0.5778 -0.0228 0.8159
vn 0.5779 -0.0228 0.8158
vn -0.5781 -0.0612 0.8137
vn 0.5781 -0.0612 0.8137
vn -0.5778 -0.0100 0.8161
vn 0.1177 -0.7156 0.6885
vn 0.0176 -0.7157 0.6982
vn -0.0000 -0.7157 0.6984
vn -0.0176 -0.7157 0.6982
vn 0.5778 -0.0100 0.8161
vn -0.1177 -0.7156 0.6885
vn -0.8161 -0.0348 -0.5769
vn -0.1260 0.6637 -0.7373
vn -0.0189 0.6634 -0.7481
vn -0.0000 0.6633 -0.7484
vn 0.0189 0.6634 -0.7481
vn 0.1260 0.6637 -0.7373
vn 0.8160 -0.0348 -0.5771
vn -0.8161 0.0162 -0.5776
vn 0.8161 0.0162 -0.5778
vn -0.8160 0.0433 -0.5765
vn 0.8160 0.0433 -0.5764
vn -0.8161 0.0071 -0.5779
vn -0.1205 -0.6985 -0.7054
vn -0.0181 -0.6984 -0.7155
vn -0.0000 -0.6984 -0.7157
vn 0.0181 -0.6984 -0.7155
vn 0.8161 0.0071 -0.5779
vn 0.1205 -0.6985 -0.7054
vn -0.7007 0.7094 0.0753
vn 0.6989 0.7106 0.0815
vn -0.6945 -0.7107 0.1118
vn 0.6981 -0.7066 0.1156
vn -0.9855 0.0109 0.1695
vn 0.1682 0.0593 0.9840
vn -0.0973 0.9953 -0.0000
vn 0.0251 0.0601 0.9979
vn -0.0083 0.6600 -0.7512
vn -0.0000 0.0601 0.9982
vn -0.0000 0.9983 -0.0579
vn -0.0251 0.0601 0.9979
vn 0.0083 0.6585 -0.7526
vn -0.1682 0.0593 0.9840
vn 0.1066 0.9943 -0.0000
vn 0.9879 0.0080 0.1552
vn 0.1685 -0.0276 0.9853
vn -0.9856 -0.0045 0.1691
vn -0.1685 -0.0276 0.9853
vn 0.9846 -0.0050 0.1747
vn 0.1681 -0.0739 0.9830
vn -0.9847 -0.0132 0.1740
vn -0.1681 -0.0739 0.9830
vn 0.9845 -0.0124 0.1750
vn 0.1685 -0.0121 0.9856
vn -0.9850 -0.0018 0.1728
vn -0.1685 -0.0121 0.9856
vn 0.9845 -0.0019 0.1753
vn -0.0017 -0.9999 -0.0114
vn 0.0251 -0.0122 0.9996
vn -0.0000 -0.0122 0.9999
vn -0.0000 -0.9999 -0.0115
vn -0.0251 -0.0122 0.9996
vn 0.0003 -0.9999 -0.0115
vn 0.0017 -0.9999 -0.0120
vn -0.1681 -0.0593 -0.9840
vn -0.0252 -0.0601 -0.9979
vn -0.0000 -0.0602 -0.9982
vn 0.0252 -0.0601 -0.9979
vn 0.1681 -0.0593 -0.9840
vn -0.1684 0.0276 -0.9853
vn 0.1684 0.0276 -0.9853
vn -0.1680 0.0739 -0.9830
vn 0.1680 0.0739 -0.9830
vn -0.1684 0.0121 -0.9856
vn 0.1684 0.0121 -0.9856
vn -0.0252 0.0122 -0.9996
vn -0.0000 0.0123 -0.9999
vn 0.0252 0.0123 -0.9996
vn -0.5450 -0.8384 -0.0116
vn -0.2775 -0.4484 0.8497
vn -0.3178 -0.3698 0.8731
vn 0.1638 0.4439 0.8810
vn 0.2333 0.4732 0.8495
vn 0.4481 0.8940 0.0050
vn 0.5456 0.8380 0.0024
vn 0.3432 0.4127 -0.8437
vn 0.2593 0.4006 -0.8788
vn -0.1993 -0.4255 -0.8827
vn -0.1896 -0.4968 -0.8469
vn -0.4432 -0.8964 0.0050
vn 0.0151 -0.5590 0.8291
vn -0.0124 0.4095 0.9122
vn -0.0281 0.9996 -0.0001
vn -0.0101 0.3898 -0.9209
vn 0.0177 -0.5950 -0.8035
vn 0.0284 -0.9993 0.0253
vn 0.3522 -0.9358 0.0105
vn 0.2141 -0.4365 0.8739
vn -0.1361 0.5002 0.8551
vn -0.3476 0.9377 -0.0028
vn -0.2204 0.4608 -0.8597
vn 0.1313 -0.4824 -0.8661
vn -0.1780 -0.9835 0.0321
vn -0.0145 -0.3354 0.9420
vn 0.1520 0.6079 0.7794
vn 0.1808 0.9828 -0.0363
vn 0.0645 0.5654 -0.8223
vn -0.1154 -0.3814 -0.9172
vn -0.3073 -0.2856 0.9078
vn 0.4225 0.3954 0.8155
vn 0.7280 0.6834 -0.0550
vn 0.3555 0.3351 -0.8725
vn -0.3724 -0.3442 -0.8619
vn -0.7331 -0.6785 0.0468
vn -0.3911 -0.2902 0.8734
vn 0.3702 0.3675 0.8532
vn 0.7561 0.6517 -0.0599
vn 0.3453 0.2494 -0.9047
vn -0.4040 -0.3945 -0.8253
vn -0.7569 -0.6521 0.0421
vn -0.6712 -0.7394 0.0538
vn -0.3529 -0.2933 0.8885
vn 0.3201 0.4488 0.8343
vn 0.6708 0.7391 -0.0612
vn 0.3466 0.2861 -0.8933
vn -0.3225 -0.4506 -0.8325
vn -0.6614 -0.7475 0.0622
vn -0.3493 -0.2835 0.8931
vn 0.3100 0.4616 0.8312
vn 0.6612 0.7482 -0.0548
vn 0.3554 0.2911 -0.8882
vn -0.3079 -0.4595 -0.8331
vn -0.0000 -0.4645 -0.8856
vn 0.1654 -0.9211 -0.3524
vn -0.1654 -0.9211 -0.3524
vn -0.0000 -0.4645 0.8856
vn -0.1654 -0.9211 0.3524
vn 0.1654 -0.9211 0.3524
vn 0.2730 -0.3758 -0.8856
vn 0.6752 -0.6480 -0.3524
vn 0.4077 -0.8424 -0.3524
vn 0.2730 -0.3758 0.8856
vn 0.4077 -0.8424 0.3524
vn 0.6752 -0.6480 0.3524
vn 0.4418 -0.1435 -0.8856
vn 0.9271 -0.1274 -0.3524
vn 0.8249 -0.4419 -0.3524
vn 0.4418 -0.1435 0.8856
vn 0.8249 -0.4419 0.3524
vn 0.9271 -0.1274 0.3524
vn 0.4418 0.1435 -0.8856
vn 0.8249 0.4419 -0.3524
vn 0.9271 0.1274 -0.3524
vn 0.4418 0.1435 0.8856
vn 0.9271 0.1274 0.3524
vn 0.8250 0.4419 0.3524
vn 0.2730 0.3758 -0.8856
vn 0.4076 0.8424 -0.3524
vn 0.6752 0.6480 -0.3524
vn 0.2730 0.3758 0.8856
vn 0.6752 0.6480 0.3524
vn 0.4077 0.8424 0.3524
vn -0.0000 0.4645 -0.8856
vn -0.1654 0.9211 -0.3524
vn 0.1653 0.9211 -0.3524
vn -0.0000 0.4645 0.8856
vn 0.1654 0.9211 0.3524
vn -0.1653 0.9211 0.3524
vn -0.2730 0.3758 -0.8856
vn -0.6752 0.6480 -0.3524
vn -0.4077 0.8424 -0.3524
vn -0.2730 0.3758 0.8856
vn -0.4077 0.8424 0.3524
vn -0.6752 0.6480 0.3524
vn -0.4418 0.1435 -0.8856
vn -0.9271 0.1274 -0.3524
vn -0.8249 0.4419 -0.3524
vn -0.4418 0.1435 0.8856
vn -0.8250 0.4419 0.3524
vn -0.9271 0.1274 0.3524
vn -0.4418 -0.1435 -0.8856
vn -0.8250 -0.4419 -0.3524
vn -0.9271 -0.1274 -0.3524
vn -0.4418 -0.1435 0.8856
vn -0.9271 -0.1274 0.3524
vn -0.8249 -0.4419 0.3524
vn -0.2730 -0.3758 -0.8856
vn -0.4077 -0.8424 -0.3524
vn -0.6752 -0.6480 -0.3524
vn -0.2730 -0.3758 0.8856
vn -0.6752 -0.6480 0.3524
vn -0.4077 -0.8424 0.3524
vn 0.8250 -0.4419 0.3524
vn 0.8250 0.4419 -0.3524
vn 0.4077 0.8424 -0.3524
vn 0.1654 0.9211 -0.3524
vn -0.1654 0.9211 0.3524
vn 0.1653 -0.9211 -0.3524
vn 0.4076 -0.8424 -0.3524
vn 0.8250 -0.4419 -0.3524
vn 0.4076 0.8424 0.3524
vn -0.1653 0.9211 -0.3524
vn -0.4076 0.8424 -0.3524
vn -0.8250 0.4419 -0.3524
vn -0.8249 0.4419 0.3524
vn -0.8249 -0.4419 -0.3524
vn -0.8250 -0.4419 0.3524
vn -0.4076 -0.8424 0.3524
vn -0.0000 -0.4531 -0.8915
vn 0.1385 -0.9239 -0.3566
vn -0.1385 -0.9239 -0.3566
vn -0.0000 -0.4531 0.8915
vn -0.1385 -0.9239 0.3566
vn 0.1385 -0.9239 0.3566
vn 0.4531 -0.0000 -0.8915
vn 0.9239 0.1385 -0.3566
vn 0.9239 -0.1385 -0.3566
vn 0.4531 -0.0000 0.8915
vn 0.9239 -0.1385 0.3566
vn 0.9239 0.1385 0.3566
vn -0.0000 0.4531 -0.8915
vn -0.1385 0.9239 -0.3566
vn 0.1385 0.9239 -0.3566
vn -0.0000 0.4531 0.8915
vn 0.1385 0.9239 0.3566
vn -0.1385 0.9239 0.3566
vn -0.4531 -0.0000 -0.8915
vn -0.9239 -0.1385 -0.3566
vn -0.9239 0.1385 -0.3566
vn -0.4531 -0.0000 0.8915
vn -0.9239 0.1385 0.3566
vn -0.9239 -0.1385 0.3566
vn 0.2129 -0.3687 -0.9048
vn 0.4647 -0.8048 -0.3692
vn 0.2129 -0.3687 0.9049
vn 0.4647 -0.8048 0.3692
vn 0.8048 -0.4647 -0.3692
vn 0.8048 -0.4647 0.3692
vn 0.3687 -0.2129 -0.9049
vn 0.3687 -0.2129 0.9048
vn 0.3687 0.2129 -0.9049
vn 0.8048 0.4647 -0.3692
vn 0.3687 0.2129 0.9048
vn 0.8048 0.4647 0.3692
vn 0.2129 0.3687 -0.9048
vn 0.4647 0.8048 -0.3693
vn 0.2129 0.3687 0.9049
vn 0.4647 0.8048 0.3692
vn -0.2129 0.3687 -0.9048
vn -0.4647 0.8048 -0.3692
vn -0.2129 0.3687 0.9049
vn -0.4647 0.8048 0.3692
vn -0.3687 0.2129 -0.9049
vn -0.8048 0.4647 -0.3692
vn -0.3687 0.2129 0.9048
vn -0.8048 0.4647 0.3692
vn -0.3687 -0.2129 -0.9049
vn -0.8048 -0.4647 -0.3692
vn -0.3687 -0.2129 0.9048
vn -0.8048 -0.4647 0.3692
vn -0.2129 -0.3687 -0.9048
vn -0.4647 -0.8048 -0.3692
vn -0.2129 -0.3687 0.9049
vn -0.4647 -0.8048 0.3692
vn -0.0000 -0.9293 -0.3693
vn 0.4647 -0.8048 -0.3693
vn -0.0000 -0.9293 0.3693
vn 0.4647 -0.8048 0.3693
vn 0.8048 -0.4647 -0.3693
vn 0.8048 -0.4647 0.3693
vn 0.4257 -0.0000 -0.9048
vn 0.9293 -0.0000 -0.3693
vn 0.4257 -0.0000 0.9049
vn 0.9293 -0.0000 0.3693
vn 0.8048 0.4647 -0.3693
vn 0.8048 0.4647 0.3693
vn 0.4647 0.8048 0.3693
vn -0.0000 0.9293 -0.3693
vn -0.0000 0.9293 0.3693
vn -0.0000 0.4257 -0.9049
vn -0.4647 0.8048 -0.3693
vn -0.4647 0.8048 0.3693
vn -0.8048 0.4647 -0.3693
vn -0.8048 0.4647 0.3693
vn -0.9293 -0.0000 -0.3693
vn -0.9293 -0.0000 0.3693
vn -0.4257 -0.0000 -0.9048
vn -0.8048 -0.4647 -0.3693
vn -0.8048 -0.4647 0.3693
vn -0.4647 -0.8048 -0.3693
vn -0.4647 -0.8048 0.3693
vn -0.0000 -0.4257 0.9048
vn -0.0000 -0.4257 -0.9049
vn -0.0000 -0.9293 -0.3692
vn -0.0000 -0.9293 0.3692
vn 0.3687 -0.2129 -0.9048
vn 0.9293 -0.0000 -0.3692
vn 0.9293 -0.0000 0.3692
vn 0.3687 0.2129 -0.9048
vn 0.4647 0.8048 -0.3692
vn -0.0000 0.9293 -0.3692
vn -0.0000 0.9293 0.3692
vn -0.3687 0.2129 -0.9048
vn -0.9293 -0.0000 -0.3692
vn -0.9293 -0.0000 0.3692
vn -0.8440 -0.5184 0.1372
vn -0.0497 -0.9986 0.0184
vn -0.8302 -0.4767 0.2889
vn -0.8302 0.4767 0.2889
vn -0.8440 0.5184 0.1372
vn -0.0497 0.9986 0.0184
vn 0.0511 0.9987 -0.0082
vn 0.8074 0.5239 -0.2713
vn 0.8690 0.4743 -0.1408
vn 0.8074 -0.5239 -0.2713
vn 0.8690 -0.4743 -0.1408
vn 0.0511 -0.9987 -0.0082
vn -0.0731 -0.9933 0.0891
vn -0.5707 -0.4564 0.6826
vn -0.5707 0.4564 0.6826
vn -0.0731 0.9933 0.0891
vn 0.5353 0.5603 -0.6320
vn 0.5353 -0.5603 -0.6320
vn -0.0000 -0.4592 0.8883
vn -0.0000 0.4592 0.8883
vn -0.0000 0.9946 0.1034
vn -0.0000 0.5500 -0.8352
vn -0.0000 -0.5500 -0.8352
vn -0.0000 -0.9946 0.1034
vn 0.0731 -0.9933 0.0891
vn 0.5707 -0.4564 0.6826
vn 0.5707 0.4564 0.6826
vn 0.0731 0.9933 0.0891
vn -0.5353 0.5603 -0.6320
vn -0.5353 -0.5603 -0.6320
vn 0.8302 -0.4767 0.2889
vn 0.8302 0.4767 0.2889
vn 0.0497 0.9986 0.0184
vn -0.8074 0.5239 -0.2713
vn -0.8074 -0.5239 -0.2713
vn 0.0497 -0.9986 0.0184
vn 0.8440 -0.5184 0.1372
vn 0.8440 0.5184 0.1372
vn -0.0511 0.9987 -0.0082
vn -0.8690 0.4743 -0.1408
vn -0.8690 -0.4743 -0.1408
vn -0.0511 -0.9987 -0.0082
vn -0.5781 0.0491 0.8145
vn 0.1119 0.7477 0.6545
vn 0.0167 0.7484 0.6631
vn -0.0000 0.7484 0.6633
vn -0.0167 0.7484 0.6631
vn -0.1119 0.7477 0.6545
vn 0.5779 0.0491 0.8146
vn -0.5779 -0.0228 0.8158
vn 0.5778 -0.0228 0.8159
vn -0.8160 -0.0348 -0.5771
vn -0.1259 0.6639 -0.7371
vn -0.0189 0.6633 -0.7481
vn -0.0000 0.6633 -0.7483
vn 0.0189 0.6633 -0.7481
vn 0.1259 0.6639 -0.7371
vn 0.8161 -0.0348 -0.5769
vn -0.8161 0.0162 -0.5777
vn 0.8161 0.0162 -0.5776
vn -0.8160 0.0433 -0.5764
vn 0.8159 0.0434 -0.5765
vn -0.7016 0.7082 0.0788
vn 0.7034 0.7068 0.0754
vn -0.6985 -0.7070 0.1104
vn 0.6936 -0.7112 0.1146
vn -0.9852 0.0101 0.1714
vn -0.0108 0.9977 -0.0669
vn -0.0014 0.9989 -0.0462
vn -0.0000 0.9984 -0.0571
vn 0.0014 0.9989 -0.0470
vn 0.0108 0.9976 -0.0682
vn 0.9859 0.0111 0.1671
vn -0.9866 -0.0044 0.1630
vn 0.9882 -0.0054 0.1532
vn -0.9867 -0.0126 0.1621
vn 0.9841 -0.0157 0.1772
vn -0.9861 -0.0021 0.1659
vn 0.9839 -0.0021 0.1787
vn -0.0003 -0.9999 -0.0101
vn -0.0000 -0.9999 -0.0130
vn -0.0000 -0.9902 -0.1398
vn -0.0252 0.0123 -0.9996
vn 0.0252 0.0122 -0.9996
vn -0.0000 0.4257 0.9048
vn -0.4257 -0.0000 0.9049
vt 0.131757 0.741935
vt 0.125000 0.741935
vt 0.131757 0.750000
vt 0.555556 0.000000
vt 0.555556 0.008065
vt 0.625000 0.008065
vt 0.131757 0.508065
vt 0.131757 0.500000
vt 0.125000 0.508065
vt 0.625000 0.246876
vt 0.555556 0.241935
vt 0.555555 0.255068
vt 0.368243 0.741935
vt 0.406344 0.753378
vt 0.427083 0.741935
vt 0.628378 0.749346
vt 0.555556 0.743952
vt 0.555555 0.756757
vt 0.368243 0.508065
vt 0.427083 0.508065
vt 0.406344 0.496622
vt 0.628378 0.500654
vt 0.555556 0.493243
vt 0.555556 0.506048
vt 0.444444 0.008065
vt 0.444444 0.000000
vt 0.444444 0.256757
vt 0.625000 0.993243
vt 0.444444 0.241935
vt 0.444444 0.993243
vt 0.868243 0.508065
vt 0.166667 0.708333
vt 0.125000 0.708333
vt 0.166667 0.750000
vt 0.617647 0.000000
vt 0.617647 0.041667
vt 0.625000 0.041667
vt 0.166667 0.541667
vt 0.166667 0.500000
vt 0.125000 0.541667
vt 0.625000 0.236111
vt 0.617647 0.208333
vt 0.617647 0.281250
vt 0.333333 0.708333
vt 0.357843 0.770833
vt 0.380515 0.708333
vt 0.645833 0.750000
vt 0.617647 0.718750
vt 0.617647 0.791667
vt 0.333333 0.541667
vt 0.380515 0.541667
vt 0.357843 0.479167
vt 0.645833 0.500000
vt 0.617647 0.458333
vt 0.617647 0.531250
vt 0.382353 0.000000
vt 0.382353 0.291667
vt 0.617647 0.958333
vt 0.625000 0.958333
vt 0.382353 0.208333
vt 0.382353 0.041667
vt 0.382353 0.958333
vt 0.833333 0.541667
vt 0.617647 0.281250
vt 0.380515 0.708333
vt 0.380515 0.541667
vt 0.357843 0.479167
vt 0.617647 0.531250
vt 0.000000 0.000000
vt 0.000000 0.833333
vt 0.125000 1.000000
vt 0.000000 1.000000
vt 0.125000 0.166667
vt 0.000000 0.166667
vt 0.125000 0.333333
vt 0.000000 0.333333
vt 0.000000 0.500000
vt 0.125000 0.500000
vt 0.000000 0.666667
vt 0.125000 0.666667
vt 0.125000 0.833333
vt 0.250000 1.000000
vt 0.125000 0.000000
vt 0.250000 0.166667
vt 0.250000 0.333333
vt 0.250000 0.500000
vt 0.250000 0.666667
vt 0.250000 0.833333
vt 0.375000 0.833333
vt 0.375000 1.000000
vt 0.375000 0.000000
vt 0.375000 0.166667
vt 0.375000 0.333333
vt 0.375000 0.500000
vt 0.375000 0.666667
vt 0.500000 0.833333
vt 0.500000 1.000000
vt 0.500000 0.000000
vt 0.500000 0.166667
vt 0.500000 0.333333
vt 0.500000 0.500000
vt 0.500000 0.666667
vt 0.625000 1.000000
vt 0.625000 0.166667
vt 0.625000 0.333333
vt 0.625000 0.500000
vt 0.625000 0.666667
vt 0.625000 0.833333
vt 0.750000 1.000000
vt 0.625000 0.000000
vt 0.750000 0.166667
vt 0.750000 0.333333
vt 0.750000 0.500000
vt 0.750000 0.666667
vt 0.750000 0.833333
vt 0.875000 0.833333
vt 0.875000 1.000000
vt 0.875000 0.000000
vt 0.875000 0.166667
vt 0.875000 0.333333
vt 0.875000 0.500000
vt 0.875000 0.666667
vt 1.000000 0.833333
vt 1.000000 1.000000
vt 1.000000 0.000000
vt 1.000000 0.166667
vt 1.000000 0.333333
vt 1.000000 0.500000
vt 1.000000 0.666667
vt 0.750000 0.439530
vt 0.795651 0.475167
vt 0.704349 0.475167
vt 0.250000 0.439530
vt 0.204349 0.475167
vt 0.295651 0.475167
vt 0.861403 0.403333
vt 0.919282 0.405331
vt 0.845418 0.458997
vt 0.361403 0.403333
vt 0.345418 0.458997
vt 0.419282 0.405331
vt 0.930253 0.308568
vt 0.978253 0.276164
vt 0.950040 0.362997
vt 0.430254 0.308568
vt 0.450040 0.362997
vt 0.478254 0.276164
vt 0.930253 0.191432
vt 0.950040 0.137003
vt 0.978253 0.223836
vt 0.430254 0.191432
vt 0.478254 0.223836
vt 0.450040 0.137003
vt 0.861403 0.096667
vt 0.845418 0.041003
vt 0.919282 0.094669
vt 0.361403 0.096667
vt 0.419282 0.094669
vt 0.345418 0.041003
vt 0.750000 0.060470
vt 0.704349 0.024833
vt 0.795651 0.024833
vt 0.250000 0.060470
vt 0.295651 0.024833
vt 0.204349 0.024833
vt 0.638597 0.096667
vt 0.580718 0.094669
vt 0.654582 0.041003
vt 0.138597 0.096667
vt 0.154582 0.041003
vt 0.080718 0.094669
vt 0.569746 0.191432
vt 0.521746 0.223836
vt 0.549960 0.137003
vt 0.069746 0.191432
vt 0.049960 0.137003
vt 0.021746 0.223836
vt 0.569746 0.308568
vt 0.549960 0.362997
vt 0.521746 0.276164
vt 0.069746 0.308568
vt 0.021746 0.276164
vt 0.049960 0.362997
vt 0.638597 0.403333
vt 0.654582 0.458997
vt 0.580718 0.405331
vt 0.138597 0.403333
vt 0.080718 0.405331
vt 0.154582 0.458997
vt -0.000000 0.580000
vt 0.032361 0.920000
vt 0.032361 0.580000
vt 0.932361 0.920000
vt 0.867639 0.580000
vt 0.867639 0.920000
vt 0.832361 0.920000
vt 0.767639 0.580000
vt 0.767639 0.920000
vt 0.732361 0.920000
vt 0.667639 0.580000
vt 0.667639 0.920000
vt 0.632361 0.920000
vt 0.567639 0.580000
vt 0.567639 0.920000
vt 0.532361 0.920000
vt 0.467639 0.580000
vt 0.467639 0.920000
vt 0.432361 0.920000
vt 0.367639 0.580000
vt 0.367639 0.920000
vt 0.332361 0.920000
vt 0.267639 0.580000
vt 0.267639 0.920000
vt 0.232361 0.920000
vt 0.167639 0.580000
vt 0.167639 0.920000
vt 0.132361 0.920000
vt 0.067639 0.580000
vt 0.067639 0.920000
vt 0.932361 0.580000
vt 0.967639 0.920000
vt 0.967639 0.580000
vt 0.832361 0.580000
vt 0.732361 0.580000
vt 0.632361 0.580000
vt 0.532361 0.580000
vt 0.432361 0.580000
vt 0.332361 0.580000
vt 0.232361 0.580000
vt 0.132361 0.580000
vt 0.750000 0.465153
vt 0.773182 0.483788
vt 0.726818 0.483788
vt 0.250000 0.465153
vt 0.226818 0.483788
vt 0.273182 0.483788
vt 0.965153 0.250000
vt 0.983788 0.226818
vt 0.983788 0.273182
vt 0.465153 0.250000
vt 0.483788 0.273182
vt 0.483788 0.226818
vt 0.750000 0.034847
vt 0.726818 0.016212
vt 0.773182 0.016212
vt 0.250000 0.034847
vt 0.273182 0.016212
vt 0.226818 0.016212
vt 0.534847 0.250000
vt 0.516212 0.273182
vt 0.516212 0.226818
vt 0.034847 0.250000
vt 0.016212 0.226818
vt 0.016212 0.273182
vt 0.857577 0.436328
vt 0.870000 0.457846
vt 0.357577 0.436328
vt 0.370000 0.457846
vt 0.000000 0.600000
vt 0.016099 0.900000
vt 0.016099 0.600000
vt 0.957846 0.370000
vt 0.457846 0.370000
vt 0.936328 0.357577
vt 0.436328 0.357577
vt 0.766099 0.900000
vt 0.733901 0.600000
vt 0.733901 0.900000
vt 0.936328 0.142423
vt 0.957846 0.130000
vt 0.436328 0.142423
vt 0.457846 0.130000
vt 0.857577 0.063672
vt 0.870000 0.042154
vt 0.357577 0.063672
vt 0.370000 0.042154
vt 0.516099 0.900000
vt 0.483901 0.600000
vt 0.483901 0.900000
vt 0.642423 0.063672
vt 0.630000 0.042154
vt 0.142423 0.063672
vt 0.130000 0.042154
vt 0.563672 0.142423
vt 0.542154 0.130000
vt 0.063672 0.142423
vt 0.042154 0.130000
vt 0.266099 0.900000
vt 0.233901 0.600000
vt 0.233901 0.900000
vt 0.563672 0.357577
vt 0.542154 0.370000
vt 0.063672 0.357577
vt 0.042154 0.370000
vt 0.642423 0.436328
vt 0.630000 0.457846
vt 0.142423 0.436328
vt 0.130000 0.457846
vt 0.916667 0.600000
vt 0.983901 0.900000
vt 0.983901 0.600000
vt 0.083333 0.900000
vt 0.083333 0.600000
vt 0.833333 0.600000
vt 0.916667 0.900000
vt 0.766099 0.600000
vt 0.833333 0.900000
vt 0.666667 0.600000
vt 0.583333 0.600000
vt 0.666667 0.900000
vt 0.516099 0.600000
vt 0.583333 0.900000
vt 0.416667 0.600000
vt 0.333333 0.600000
vt 0.416667 0.900000
vt 0.266099 0.600000
vt 0.333333 0.900000
vt 0.166667 0.600000
vt 0.166667 0.900000
vt 0.750000 0.490000
vt 0.845153 0.414810
vt 0.345153 0.414811
vt 0.250000 0.490000
vt 0.914811 0.345153
vt 0.414810 0.345153
vt 0.940307 0.250000
vt 0.990000 0.250000
vt 0.440307 0.250000
vt 0.490000 0.250000
vt 0.914811 0.154847
vt 0.957846 0.130000
vt 0.414811 0.154847
vt 0.457846 0.130000
vt 0.845153 0.085190
vt 0.750000 0.010000
vt 0.250000 0.010000
vt 0.345153 0.085190
vt 0.750000 0.059693
vt 0.154847 0.085190
vt 0.130000 0.042154
vt 0.585190 0.154847
vt 0.542154 0.130000
vt 0.085190 0.154847
vt 0.042154 0.130000
vt 0.510000 0.250000
vt 0.010000 0.250000
vt 0.559693 0.250000
vt 0.085190 0.345153
vt 0.585190 0.345153
vt 0.154847 0.414811
vt 0.130000 0.457846
vt 0.654847 0.414810
vt 0.916667 0.532609
vt 1.000000 0.967391
vt 1.000000 0.532609
vt 0.000000 0.532609
vt 0.083333 0.967391
vt 0.083333 0.532609
vt 0.250000 0.440307
vt 0.833333 0.532609
vt 0.916667 0.967391
vt 0.750000 0.532609
vt 0.833333 0.967391
vt 0.666667 0.532609
vt 0.750000 0.967391
vt 0.583333 0.532609
vt 0.666667 0.967391
vt 0.500000 0.532609
vt 0.583333 0.967391
vt 0.416667 0.532609
vt 0.500000 0.967391
vt 0.333333 0.532609
vt 0.416667 0.967391
vt 0.250000 0.532609
vt 0.333333 0.967391
vt 0.166667 0.532609
vt 0.250000 0.967391
vt 0.166667 0.967391
vt 0.750000 0.490000
vt 0.250000 0.490000
vt 0.490000 0.250000
vt 0.750000 0.010000
vt 0.250000 0.010000
vt 0.010000 0.250000
vt 0.534847 0.250000
vt 0.916667 0.583333
vt 1.000000 0.916667
vt 1.000000 0.583333
vt 0.000000 0.583333
vt 0.083333 0.916667
vt 0.083333 0.583333
vt 0.833333 0.583333
vt 0.916667 0.916667
vt 0.750000 0.583333
vt 0.833333 0.916667
vt 0.666667 0.583333
vt 0.750000 0.916667
vt 0.583333 0.583333
vt 0.666667 0.916667
vt 0.500000 0.583333
vt 0.583333 0.916667
vt 0.416667 0.583333
vt 0.500000 0.916667
vt 0.333333 0.583333
vt 0.416667 0.916667
vt 0.250000 0.583333
vt 0.333333 0.916667
vt 0.166667 0.583333
vt 0.250000 0.916667
vt 0.166667 0.916667
vt 0.187500 0.687500
vt 0.125000 0.687500
vt 0.187500 0.750000
vt 0.620536 0.000000
vt 0.620536 0.062500
vt 0.625000 0.062500
vt 0.187500 0.562500
vt 0.187500 0.500000
vt 0.125000 0.562500
vt 0.625000 0.229167
vt 0.620536 0.187500
vt 0.620536 0.296875
vt 0.312500 0.687500
vt 0.345982 0.781250
vt 0.378348 0.687500
vt 0.656250 0.750000
vt 0.620536 0.703125
vt 0.620536 0.812500
vt 0.312500 0.562500
vt 0.378348 0.562500
vt 0.345982 0.468750
vt 0.656250 0.500000
vt 0.620536 0.437500
vt 0.620536 0.546875
vt 0.379464 0.062500
vt 0.379464 0.000000
vt 0.379464 0.312500
vt 0.625000 0.937500
vt 0.379464 0.187500
vt 0.379464 0.937500
vt 0.812500 0.562500
vt 0.620536 0.296875
vt 0.620536 0.546875
vt 0.166667 0.833333
vt 0.166667 1.000000
vt 0.166667 0.166667
vt 0.166667 0.333333
vt 0.166667 0.500000
vt 0.166667 0.666667
vt 0.333333 0.833333
vt 0.333333 1.000000
vt 0.166667 0.000000
vt 0.333333 0.166667
vt 0.333333 0.333333
vt 0.333333 0.500000
vt 0.333333 0.666667
vt 0.333333 0.000000
vt 0.666667 0.833333
vt 0.666667 1.000000
vt 0.666667 0.166667
vt 0.666667 0.333333
vt 0.666667 0.500000
vt 0.666667 0.666667
vt 0.833333 1.000000
vt 0.666667 0.000000
vt 0.833333 0.166667
vt 0.833333 0.333333
vt 0.833333 0.500000
vt 0.833333 0.666667
vt 0.833333 0.833333
vt 0.833333 0.000000
vt 0.555556 0.993243
vt 0.868243 0.741935
vt 0.833333 0.708333
vt 0.250000 0.000000
vt 0.750000 0.000000
vt -0.000000 0.920000
vt 0.000000 0.900000
vt 0.750000 0.440307
vt 0.250000 0.059693
vt 0.654847 0.085190
vt 0.059693 0.250000
vt 0.000000 0.967391
vt 0.965153 0.250000
vt 0.750000 0.034847
vt 0.250000 0.034847
vt 0.034847 0.250000
vt 0.000000 0.916667
vt 0.620536 0.937500
vt 0.812500 0.687500
s 0
usemtl DarkWood
f 1/1/1 3/2/1 2/3/1
f 4/4/2 6/5/2 5/6/2
f 7/7/3 9/8/3 8/9/3
f 10/10/4 12/11/4 11/12/4
f 13/13/5 15/14/5 14/15/5
f 16/16/6 18/17/6 17/18/6
f 19/19/7 21/20/7 20/21/7
f 22/22/8 24/23/8 23/24/8
f 8/9/9 1/1/9 7/7/9
f 3/25/10 4/4/10 2/26/10
f 6/5/11 10/10/11 5/6/11
f 12/11/12 9/27/12 11/12/12
f 20/21/13 7/7/13 19/19/13
f 11/12/14 22/22/14 10/10/14
f 24/23/15 21/20/15 23/24/15
f 14/15/16 19/19/16 13/13/16
f 23/24/17 16/16/17 22/22/17
f 18/17/18 15/14/18 17/18/18
f 2/3/19 13/13/19 1/1/19
f 17/18/20 5/28/20 16/16/20
f 1/1/21 19/19/21 7/7/21
f 8/29/22 6/5/22 3/25/22
f 2/30/23 17/18/23 15/14/23
f 16/16/24 10/31/24 22/22/24
f 20/21/25 11/12/25 9/27/25
f 14/15/26 23/24/26 21/20/26
f 8/9/9 3/2/9 1/1/9
f 3/25/10 6/5/10 4/4/10
f 6/5/11 12/11/11 10/10/11
f 12/11/12 8/29/12 9/27/12
f 20/21/13 9/8/13 7/7/13
f 11/12/14 24/23/14 22/22/14
f 24/23/15 20/21/15 21/20/15
f 14/15/16 21/20/16 19/19/16
f 23/24/17 18/17/17 16/16/17
f 18/17/18 14/15/18 15/14/18
f 2/3/19 15/14/19 13/13/19
f 17/18/20 4/472/20 5/28/20
f 1/1/21 13/13/21 19/19/21
f 8/29/22 12/11/22 6/5/22
f 2/30/23 4/472/23 17/18/23
f 16/16/24 5/473/24 10/31/24
f 20/21/25 24/23/25 11/12/25
f 14/15/26 18/17/26 23/24/26
usemtl WeatheredCream
f 25/32/27 27/33/27 26/34/27
f 28/35/28 30/36/28 29/37/28
f 31/38/29 33/39/29 32/40/29
f 34/41/30 36/42/30 35/43/30
f 37/44/31 39/45/31 38/46/31
f 40/47/32 42/48/32 41/49/32
f 43/50/33 45/51/33 44/52/33
f 46/53/34 48/54/34 47/55/34
f 32/40/35 25/32/35 31/38/35
f 26/56/36 30/36/36 28/35/36
f 30/36/37 34/41/37 29/37/37
f 36/42/38 33/57/38 35/43/38
f 43/50/39 33/39/39 31/38/39
f 34/41/40 48/54/40 46/53/40
f 48/54/41 45/51/41 47/55/41
f 38/46/42 43/50/42 37/44/42
f 47/55/43 40/47/43 46/53/43
f 42/48/44 39/45/44 41/49/44
f 25/32/45 39/45/45 37/44/45
f 40/47/46 28/58/46 29/59/46
f 25/32/47 43/50/47 31/38/47
f 32/60/48 30/36/48 27/61/48
f 26/62/23 41/49/23 39/45/23
f 40/47/49 34/63/49 46/53/49
f 44/52/25 35/43/25 33/57/25
f 38/46/50 47/55/50 45/51/50
f 49/32/27 51/33/27 50/34/27
f 52/35/51 54/36/51 53/37/51
f 55/38/52 57/39/52 56/40/52
f 58/41/53 60/42/53 59/64/53
f 61/44/54 63/45/54 62/65/54
f 64/47/32 66/48/32 65/49/32
f 67/50/55 69/66/55 68/67/55
f 70/53/56 72/54/56 71/68/56
f 56/40/35 49/32/35 55/38/35
f 50/56/36 54/36/36 52/35/36
f 54/36/37 58/41/37 53/37/37
f 60/42/38 57/57/38 59/64/38
f 68/67/39 55/38/39 67/50/39
f 59/64/40 70/53/40 58/41/40
f 72/54/41 69/66/41 71/68/41
f 62/65/42 67/50/42 61/44/42
f 71/68/43 64/47/43 70/53/43
f 65/49/44 62/65/44 63/45/44
f 50/34/45 61/44/45 49/32/45
f 65/49/46 53/59/46 64/47/46
f 49/32/47 67/50/47 55/38/47
f 56/60/48 54/36/48 51/61/48
f 50/62/23 65/49/23 63/45/23
f 64/47/49 58/63/49 70/53/49
f 68/67/25 59/64/25 57/57/25
f 62/65/50 71/68/50 69/66/50
f 73/32/57 75/33/57 74/34/57
f 76/35/58 78/36/58 77/37/58
f 79/38/59 81/39/59 80/40/59
f 82/41/60 84/42/60 83/43/60
f 85/44/61 87/45/61 86/46/61
f 88/47/62 90/48/62 89/49/62
f 91/50/63 93/51/63 92/52/63
f 94/53/64 96/54/64 95/55/64
f 80/40/65 73/32/65 79/38/65
f 74/56/66 78/36/66 76/35/66
f 78/36/67 82/41/67 77/37/67
f 83/43/68 80/60/68 81/57/68
f 91/50/69 81/39/69 79/38/69
f 82/41/70 96/54/70 94/53/70
f 96/54/71 93/51/71 95/55/71
f 86/46/72 91/50/72 85/44/72
f 95/55/73 88/47/73 94/53/73
f 90/48/74 87/45/74 89/49/74
f 73/32/75 87/45/75 85/44/75
f 88/47/76 76/58/76 77/59/76
f 73/32/77 91/50/77 79/38/77
f 80/60/78 78/36/78 75/61/78
f 74/62/23 89/49/23 87/45/23
f 88/47/79 82/63/79 94/53/79
f 92/52/25 83/43/25 81/57/25
f 86/46/80 95/55/80 93/51/80
f 97/32/57 99/33/57 98/34/57
f 100/35/81 102/36/81 101/37/81
f 103/38/82 105/39/82 104/40/82
f 106/41/60 108/42/60 107/64/60
f 109/44/83 111/45/83 110/65/83
f 112/47/84 114/48/84 113/49/84
f 115/50/85 117/66/85 116/67/85
f 118/53/86 120/54/86 119/68/86
f 104/40/65 97/32/65 103/38/65
f 99/61/66 100/35/66 98/56/66
f 102/36/67 106/41/67 101/37/67
f 107/64/68 104/60/68 105/57/68
f 116/67/69 103/38/69 115/50/69
f 107/64/70 118/53/70 106/41/70
f 120/54/71 117/66/71 119/68/71
f 110/65/72 115/50/72 109/44/72
f 119/68/73 112/47/73 118/53/73
f 114/48/74 111/45/74 113/49/74
f 97/32/75 111/45/75 109/44/75
f 112/47/76 100/58/76 101/59/76
f 97/32/77 115/50/77 103/38/77
f 104/60/78 102/36/78 99/61/78
f 98/62/23 113/49/23 111/45/23
f 112/47/79 106/63/79 118/53/79
f 116/67/25 107/64/25 105/57/25
f 110/65/80 119/68/80 117/66/80
f 32/40/35 27/33/35 25/32/35
f 26/56/36 27/61/36 30/36/36
f 30/36/37 36/42/37 34/41/37
f 36/42/38 32/60/38 33/57/38
f 43/50/39 44/52/39 33/39/39
f 34/41/40 35/43/40 48/54/40
f 48/54/41 44/52/41 45/51/41
f 38/46/42 45/51/42 43/50/42
f 47/55/43 42/48/43 40/47/43
f 42/48/44 38/46/44 39/45/44
f 25/32/45 26/34/45 39/45/45
f 40/47/46 41/49/46 28/58/46
f 25/32/47 37/44/47 43/50/47
f 32/60/48 36/42/48 30/36/48
f 26/62/23 28/58/23 41/49/23
f 40/47/49 29/474/49 34/63/49
f 44/52/25 48/54/25 35/43/25
f 38/46/50 42/48/50 47/55/50
f 56/40/35 51/33/35 49/32/35
f 50/56/36 51/61/36 54/36/36
f 54/36/37 60/42/37 58/41/37
f 60/42/38 56/60/38 57/57/38
f 68/67/39 57/39/39 55/38/39
f 59/64/40 72/54/40 70/53/40
f 72/54/41 68/67/41 69/66/41
f 62/65/42 69/66/42 67/50/42
f 71/68/43 66/48/43 64/47/43
f 65/49/44 66/48/44 62/65/44
f 50/34/45 63/45/45 61/44/45
f 65/49/46 52/58/46 53/59/46
f 49/32/47 61/44/47 67/50/47
f 56/60/48 60/42/48 54/36/48
f 50/62/23 52/58/23 65/49/23
f 64/47/49 53/474/49 58/63/49
f 68/67/25 72/54/25 59/64/25
f 62/65/50 66/48/50 71/68/50
f 80/40/65 75/33/65 73/32/65
f 74/56/66 75/61/66 78/36/66
f 78/36/67 84/42/67 82/41/67
f 83/43/68 84/42/68 80/60/68
f 91/50/69 92/52/69 81/39/69
f 82/41/70 83/43/70 96/54/70
f 96/54/71 92/52/71 93/51/71
f 86/46/72 93/51/72 91/50/72
f 95/55/73 90/48/73 88/47/73
f 90/48/74 86/46/74 87/45/74
f 73/32/75 74/34/75 87/45/75
f 88/47/76 89/49/76 76/58/76
f 73/32/77 85/44/77 91/50/77
f 80/60/78 84/42/78 78/36/78
f 74/62/23 76/58/23 89/49/23
f 88/47/79 77/474/79 82/63/79
f 92/52/25 96/54/25 83/43/25
f 86/46/80 90/48/80 95/55/80
f 104/40/65 99/33/65 97/32/65
f 99/61/66 102/36/66 100/35/66
f 102/36/67 108/42/67 106/41/67
f 107/64/68 108/42/68 104/60/68
f 116/67/69 105/39/69 103/38/69
f 107/64/70 120/54/70 118/53/70
f 120/54/71 116/67/71 117/66/71
f 110/65/72 117/66/72 115/50/72
f 119/68/73 114/48/73 112/47/73
f 114/48/74 110/65/74 111/45/74
f 97/32/75 98/34/75 111/45/75
f 112/47/76 113/49/76 100/58/76
f 97/32/77 109/44/77 115/50/77
f 104/60/78 108/42/78 102/36/78
f 98/62/23 100/58/23 113/49/23
f 112/47/79 101/474/79 106/63/79
f 116/67/25 120/54/25 107/64/25
f 110/65/80 114/48/80 119/68/80
usemtl MapPaper
f 125/69/87 122/69/87 121/69/87
f 126/69/88 123/69/88 122/69/88
f 123/69/89 128/69/89 124/69/89
f 129/69/90 126/69/90 125/69/90
f 130/69/91 127/69/91 126/69/91
f 127/69/92 132/69/92 128/69/92
f 134/69/93 137/69/93 133/69/93
f 135/69/94 138/69/94 134/69/94
f 135/69/95 140/69/95 139/69/95
f 138/69/96 141/69/96 137/69/96
f 139/69/97 142/69/97 138/69/97
f 139/69/98 144/69/98 143/69/98
f 145/69/99 147/69/99 146/69/99
f 156/69/100 158/69/100 157/69/100
f 171/69/101 173/69/101 172/69/101
f 182/69/102 184/69/102 183/69/102
f 185/69/103 187/69/103 186/69/103
f 196/69/104 198/69/104 197/69/104
f 211/69/105 213/69/105 212/69/105
f 222/69/106 224/69/106 223/69/106
f 147/69/107 160/69/107 159/69/107
f 146/69/108 149/69/108 148/69/108
f 149/69/109 150/69/109 148/69/109
f 151/69/110 152/69/110 150/69/110
f 152/69/111 155/69/111 154/69/111
f 155/69/112 156/69/112 154/69/112
f 158/69/113 161/69/113 157/69/113
f 160/69/114 163/69/114 159/69/114
f 161/69/115 166/69/115 165/69/115
f 164/69/116 167/69/116 163/69/116
f 165/69/117 170/69/117 169/69/117
f 167/69/118 171/69/118 172/69/118
f 173/69/119 174/69/119 172/69/119
f 174/69/120 177/69/120 176/69/120
f 177/69/121 178/69/121 176/69/121
f 179/69/122 180/69/122 178/69/122
f 170/69/123 182/69/123 169/69/123
f 180/69/124 183/69/124 184/69/124
f 185/69/125 200/69/125 199/69/125
f 186/69/126 189/69/126 188/69/126
f 189/69/127 190/69/127 188/69/127
f 191/69/128 192/69/128 190/69/128
f 192/69/129 195/69/129 194/69/129
f 195/69/130 197/69/130 194/69/130
f 198/69/131 201/69/131 197/69/131
f 200/69/132 203/69/132 199/69/132
f 201/69/133 206/69/133 205/69/133
f 204/69/134 207/69/134 203/69/134
f 205/69/135 210/69/135 209/69/135
f 207/69/136 213/69/136 211/69/136
f 213/69/137 214/69/137 212/69/137
f 214/69/138 217/69/138 216/69/138
f 217/69/139 218/69/139 216/69/139
f 219/69/140 220/69/140 218/69/140
f 210/69/141 223/69/141 209/69/141
f 220/69/142 223/69/142 224/69/142
f 145/69/143 187/69/143 185/69/143
f 156/69/144 198/69/144 196/69/144
f 173/69/145 211/69/145 212/69/145
f 183/69/146 222/69/146 182/69/146
f 145/69/147 199/69/147 160/69/147
f 147/69/148 121/69/148 149/69/148
f 189/69/149 146/69/149 148/69/149
f 149/69/150 122/69/150 151/69/150
f 150/69/151 189/69/151 148/69/151
f 122/69/152 153/69/152 151/69/152
f 193/69/153 150/69/153 152/69/153
f 123/69/154 155/69/154 153/69/154
f 195/69/155 152/69/155 154/69/155
f 124/69/156 158/69/156 155/69/156
f 156/69/157 195/69/157 154/69/157
f 202/69/158 157/69/158 161/69/158
f 163/69/159 121/69/159 159/69/159
f 199/69/160 164/69/160 160/69/160
f 124/69/161 166/69/161 162/69/161
f 206/69/162 161/69/162 165/69/162
f 167/69/163 125/69/163 163/69/163
f 164/69/164 207/69/164 168/69/164
f 128/69/165 170/69/165 166/69/165
f 169/69/166 206/69/166 165/69/166
f 172/69/167 129/69/167 167/69/167
f 207/69/168 171/69/168 168/69/168
f 132/69/169 184/69/169 170/69/169
f 222/69/170 169/69/170 182/69/170
f 212/69/171 175/69/171 173/69/171
f 174/69/172 130/69/172 129/69/172
f 214/69/25 177/69/25 175/69/25
f 176/69/173 131/69/173 130/69/173
f 216/69/174 179/69/174 177/69/174
f 131/69/175 180/69/175 132/69/175
f 218/69/176 181/69/176 179/69/176
f 181/69/177 224/69/177 183/69/177
f 186/69/178 133/69/178 200/69/178
f 188/69/179 134/69/179 133/69/179
f 192/69/180 134/69/180 190/69/180
f 194/69/181 135/69/181 192/69/181
f 197/69/182 136/69/182 194/69/182
f 133/69/183 204/69/183 200/69/183
f 136/69/184 205/69/184 140/69/184
f 137/69/185 208/69/185 204/69/185
f 140/69/186 209/69/186 144/69/186
f 141/69/187 213/69/187 208/69/187
f 144/69/188 223/69/188 221/69/188
f 142/69/189 215/69/189 141/69/189
f 143/69/190 217/69/190 142/69/190
f 143/69/191 221/69/191 219/69/191
f 125/69/87 126/69/87 122/69/87
f 126/69/88 127/69/88 123/69/88
f 123/69/89 127/69/89 128/69/89
f 129/69/90 130/69/90 126/69/90
f 130/69/91 131/69/91 127/69/91
f 127/69/92 131/69/92 132/69/92
f 134/69/93 138/69/93 137/69/93
f 135/69/94 139/69/94 138/69/94
f 135/69/95 136/69/95 140/69/95
f 138/69/96 142/69/96 141/69/96
f 139/69/97 143/69/97 142/69/97
f 139/69/98 140/69/98 144/69/98
f 147/69/461 145/69/461 160/69/461
f 146/69/462 147/69/462 149/69/462
f 149/69/463 151/69/463 150/69/463
f 151/69/464 153/69/464 152/69/464
f 152/69/465 153/69/465 155/69/465
f 155/69/466 158/69/466 156/69/466
f 158/69/467 162/69/467 161/69/467
f 160/69/468 164/69/468 163/69/468
f 161/69/469 162/69/469 166/69/469
f 164/69/116 168/69/116 167/69/116
f 165/69/117 166/69/117 170/69/117
f 167/69/118 168/69/118 171/69/118
f 173/69/119 175/69/119 174/69/119
f 174/69/120 175/69/120 177/69/120
f 177/69/121 179/69/121 178/69/121
f 179/69/122 181/69/122 180/69/122
f 170/69/123 184/69/123 182/69/123
f 180/69/124 181/69/124 183/69/124
f 185/69/470 186/69/470 200/69/470
f 186/69/471 187/69/471 189/69/471
f 189/69/472 191/69/472 190/69/472
f 191/69/473 193/69/473 192/69/473
f 192/69/474 193/69/474 195/69/474
f 195/69/475 196/69/475 197/69/475
f 198/69/476 202/69/476 201/69/476
f 200/69/477 204/69/477 203/69/477
f 201/69/478 202/69/478 206/69/478
f 204/69/479 208/69/479 207/69/479
f 205/69/480 206/69/480 210/69/480
f 207/69/136 208/69/136 213/69/136
f 213/69/137 215/69/137 214/69/137
f 214/69/138 215/69/138 217/69/138
f 217/69/139 219/69/139 218/69/139
f 219/69/140 221/69/140 220/69/140
f 210/69/141 222/69/141 223/69/141
f 220/69/142 221/69/142 223/69/142
f 145/69/481 146/69/481 187/69/481
f 156/69/482 157/69/482 198/69/482
f 173/69/483 171/69/483 211/69/483
f 183/69/484 224/69/484 222/69/484
f 145/69/485 185/69/485 199/69/485
f 147/69/148 159/69/148 121/69/148
f 189/69/486 187/69/486 146/69/486
f 149/69/150 121/69/150 122/69/150
f 150/69/487 191/69/487 189/69/487
f 122/69/152 123/69/152 153/69/152
f 193/69/488 191/69/488 150/69/488
f 123/69/154 124/69/154 155/69/154
f 195/69/489 193/69/489 152/69/489
f 124/69/156 162/69/156 158/69/156
f 156/69/490 196/69/490 195/69/490
f 202/69/491 198/69/491 157/69/491
f 163/69/159 125/69/159 121/69/159
f 199/69/492 203/69/492 164/69/492
f 124/69/161 128/69/161 166/69/161
f 206/69/493 202/69/493 161/69/493
f 167/69/163 129/69/163 125/69/163
f 164/69/494 203/69/494 207/69/494
f 128/69/165 132/69/165 170/69/165
f 169/69/495 210/69/495 206/69/495
f 172/69/167 174/69/167 129/69/167
f 207/69/496 211/69/496 171/69/496
f 132/69/169 180/69/169 184/69/169
f 222/69/497 210/69/497 169/69/497
f 212/69/25 214/69/25 175/69/25
f 174/69/172 176/69/172 130/69/172
f 214/69/498 216/69/498 177/69/498
f 176/69/173 178/69/173 131/69/173
f 216/69/499 218/69/499 179/69/499
f 131/69/175 178/69/175 180/69/175
f 218/69/500 220/69/500 181/69/500
f 181/69/25 220/69/25 224/69/25
f 186/69/178 188/69/178 133/69/178
f 188/69/179 190/69/179 134/69/179
f 192/69/180 135/69/180 134/69/180
f 194/69/181 136/69/181 135/69/181
f 197/69/182 201/69/182 136/69/182
f 133/69/183 137/69/183 204/69/183
f 136/69/184 201/69/184 205/69/184
f 137/69/185 141/69/185 208/69/185
f 140/69/186 205/69/186 209/69/186
f 141/69/187 215/69/187 213/69/187
f 144/69/188 209/69/188 223/69/188
f 142/69/501 217/69/501 215/69/501
f 143/69/190 219/69/190 217/69/190
f 143/69/502 144/69/502 221/69/502
s 1
usemtl TealPaint
f 230/70/192 231/71/193 225/72/194
f 225/69/194 232/73/195 226/74/196
f 226/74/196 233/75/197 227/76/198
f 228/77/199 233/75/197 234/78/200
f 229/79/201 234/78/200 235/80/202
f 230/70/192 235/80/202 236/81/203
f 236/81/203 237/82/204 231/71/193
f 231/83/193 238/84/205 232/73/195
f 232/73/195 239/85/206 233/75/197
f 234/78/200 239/85/206 240/86/207
f 235/80/202 240/86/207 241/87/208
f 236/81/203 241/87/208 242/88/209
f 237/82/204 248/89/210 243/90/211
f 238/84/205 243/91/211 244/92/212
f 239/85/206 244/92/212 245/93/213
f 239/85/206 246/94/214 240/86/207
f 240/86/207 247/95/215 241/87/208
f 241/87/208 248/89/210 242/88/209
f 243/90/211 254/96/216 249/97/217
f 244/92/212 249/98/217 250/99/218
f 245/93/213 250/99/218 251/100/219
f 245/93/213 252/101/220 246/94/214
f 246/94/214 253/102/221 247/95/215
f 247/95/215 254/96/216 248/89/210
f 254/96/216 255/103/222 249/97/217
f 249/98/217 256/104/223 250/99/218
f 250/99/218 257/105/224 251/100/219
f 252/101/220 257/105/224 258/106/225
f 253/102/221 258/106/225 259/107/226
f 254/96/216 259/107/226 260/108/227
f 260/108/227 261/109/228 255/103/222
f 255/110/222 262/111/229 256/104/223
f 256/104/223 263/112/230 257/105/224
f 258/106/225 263/112/230 264/113/231
f 259/107/226 264/113/231 265/114/232
f 260/108/227 265/114/232 266/115/233
f 261/109/228 272/116/234 267/117/235
f 262/111/229 267/118/235 268/119/236
f 263/112/230 268/119/236 269/120/237
f 263/112/230 270/121/238 264/113/231
f 264/113/231 271/122/239 265/114/232
f 265/114/232 272/116/234 266/115/233
f 267/117/235 278/123/240 273/124/241
f 268/119/236 273/125/241 274/126/242
f 268/119/236 275/127/243 269/120/237
f 269/120/237 276/128/244 270/121/238
f 270/121/238 277/129/245 271/122/239
f 272/116/234 277/129/245 278/123/240
f 230/70/192 236/81/203 231/71/193
f 225/69/194 231/83/193 232/73/195
f 226/74/196 232/73/195 233/75/197
f 228/77/199 227/76/198 233/75/197
f 229/79/201 228/77/199 234/78/200
f 230/70/192 229/79/201 235/80/202
f 236/81/203 242/88/209 237/82/204
f 231/83/193 237/475/204 238/84/205
f 232/73/195 238/84/205 239/85/206
f 234/78/200 233/75/197 239/85/206
f 235/80/202 234/78/200 240/86/207
f 236/81/203 235/80/202 241/87/208
f 237/82/204 242/88/209 248/89/210
f 238/84/205 237/475/204 243/91/211
f 239/85/206 238/84/205 244/92/212
f 239/85/206 245/93/213 246/94/214
f 240/86/207 246/94/214 247/95/215
f 241/87/208 247/95/215 248/89/210
f 243/90/211 248/89/210 254/96/216
f 244/92/212 243/91/211 249/98/217
f 245/93/213 244/92/212 250/99/218
f 245/93/213 251/100/219 252/101/220
f 246/94/214 252/101/220 253/102/221
f 247/95/215 253/102/221 254/96/216
f 254/96/216 260/108/227 255/103/222
f 249/98/217 255/110/222 256/104/223
f 250/99/218 256/104/223 257/105/224
f 252/101/220 251/100/219 257/105/224
f 253/102/221 252/101/220 258/106/225
f 254/96/216 253/102/221 259/107/226
f 260/108/227 266/115/233 261/109/228
f 255/110/222 261/476/228 262/111/229
f 256/104/223 262/111/229 263/112/230
f 258/106/225 257/105/224 263/112/230
f 259/107/226 258/106/225 264/113/231
f 260/108/227 259/107/226 265/114/232
f 261/109/228 266/115/233 272/116/234
f 262/111/229 261/476/228 267/118/235
f 263/112/230 262/111/229 268/119/236
f 263/112/230 269/120/237 270/121/238
f 264/113/231 270/121/238 271/122/239
f 265/114/232 271/122/239 272/116/234
f 267/117/235 272/116/234 278/123/240
f 268/119/236 267/118/235 273/125/241
f 268/119/236 274/126/242 275/127/243
f 269/120/237 275/127/243 276/128/244
f 270/121/238 276/128/244 277/129/245
f 272/116/234 271/122/239 277/129/245
usemtl Brass
f 279/130/246 281/131/247 280/132/248
f 282/133/249 284/134/250 283/135/251
f 285/136/252 287/137/253 286/138/254
f 288/139/255 290/140/256 289/141/257
f 291/142/258 293/143/259 292/144/260
f 294/145/261 296/146/262 295/147/263
f 297/148/264 299/149/265 298/150/266
f 300/151/267 302/152/268 301/153/269
f 303/154/270 305/155/271 304/156/272
f 306/157/273 308/158/274 307/159/275
f 309/160/276 311/161/277 310/162/278
f 312/163/279 314/164/280 313/165/281
f 315/166/282 317/167/283 316/168/284
f 318/169/285 320/170/286 319/171/287
f 321/172/288 323/173/289 322/174/290
f 324/175/291 326/176/292 325/177/293
f 327/178/294 329/179/295 328/180/296
f 330/181/297 332/182/298 331/183/299
f 333/184/300 335/185/301 334/186/302
f 336/187/303 338/188/304 337/189/305
f 279/130/246 286/138/254 281/131/247
f 288/139/255 283/135/251 290/140/256
f 281/190/247 284/191/250 280/192/248
f 290/193/256 287/194/253 289/195/257
f 285/136/252 292/144/260 287/137/253
f 296/146/262 288/139/255 289/141/257
f 296/196/262 293/197/259 295/198/263
f 291/142/258 298/150/266 293/143/259
f 300/151/267 295/147/263 302/152/268
f 302/199/268 299/200/265 301/201/269
f 297/148/264 304/156/272 299/149/265
f 308/158/274 300/151/267 301/153/269
f 308/202/274 305/203/271 307/204/275
f 303/154/270 310/162/278 305/155/271
f 314/164/280 306/157/273 307/159/275
f 314/205/280 311/206/277 313/207/281
f 311/161/277 315/166/282 316/168/284
f 318/169/285 313/165/281 320/170/286
f 320/208/286 317/209/283 319/210/287
f 317/167/283 321/172/288 322/174/290
f 324/175/291 319/171/287 326/176/292
f 326/211/292 323/212/289 325/213/293
f 321/172/288 328/180/296 323/173/289
f 330/181/297 325/177/293 332/182/298
f 332/214/298 329/215/295 331/216/299
f 329/179/295 333/184/300 334/186/302
f 336/187/303 331/183/299 338/188/304
f 338/217/304 335/218/301 337/219/305
f 335/185/301 279/130/246 280/132/248
f 282/133/249 337/189/305 284/134/250
f 321/172/288 297/148/264 285/136/252
f 286/220/254 283/221/251 281/222/247
f 280/192/248 337/219/305 335/218/301
f 306/157/273 330/181/297 282/133/249
f 292/223/260 289/195/257 287/194/253
f 298/224/266 295/198/263 293/197/259
f 304/225/272 301/201/269 299/200/265
f 310/226/278 307/204/275 305/203/271
f 316/227/284 313/207/281 311/206/277
f 322/228/290 319/210/287 317/209/283
f 328/229/296 325/213/293 323/212/289
f 334/230/302 331/216/299 329/215/295
f 339/130/246 341/131/247 340/132/248
f 342/133/249 344/134/250 343/135/251
f 345/136/252 347/137/253 346/138/254
f 348/139/255 350/140/256 349/141/257
f 351/142/258 353/143/259 352/144/260
f 354/145/261 356/146/306 355/147/263
f 357/148/264 359/149/307 358/150/266
f 360/151/267 362/152/268 361/153/269
f 363/154/270 365/155/308 364/156/272
f 366/157/273 368/158/274 367/159/275
f 369/160/276 371/161/277 370/162/309
f 372/163/279 374/164/280 373/165/310
f 375/166/282 377/167/283 376/168/284
f 378/169/285 380/170/286 379/171/287
f 381/172/288 383/173/289 382/174/290
f 384/175/291 386/176/292 385/177/293
f 387/178/294 389/179/295 388/180/296
f 390/181/297 392/182/298 391/183/299
f 393/184/300 395/185/301 394/186/302
f 396/187/303 398/188/304 397/189/305
f 339/130/246 346/138/254 341/131/247
f 350/140/256 342/133/249 343/135/251
f 341/190/247 344/191/250 340/192/248
f 350/193/256 347/194/253 349/195/257
f 347/137/253 351/142/258 352/144/260
f 356/146/306 348/139/255 349/141/257
f 356/196/306 353/197/259 355/198/263
f 351/142/258 358/150/266 353/143/259
f 360/151/267 355/147/263 362/152/268
f 362/199/268 359/200/307 361/201/269
f 357/148/264 364/156/272 359/149/307
f 368/158/274 360/151/267 361/153/269
f 368/202/274 365/203/308 367/204/275
f 365/155/308 369/160/276 370/162/309
f 372/163/279 367/159/275 374/164/280
f 374/205/280 371/206/277 373/207/310
f 369/160/276 376/168/284 371/161/277
f 380/170/286 372/163/279 373/165/310
f 380/208/286 377/209/283 379/210/287
f 375/166/282 382/174/290 377/167/283
f 384/175/291 379/171/287 386/176/292
f 386/211/292 383/212/289 385/213/293
f 381/172/288 388/180/296 383/173/289
f 390/181/297 385/177/293 392/182/298
f 392/214/298 389/215/295 391/216/299
f 389/179/295 393/184/300 394/186/302
f 396/187/303 391/183/299 398/188/304
f 398/217/304 395/218/301 397/219/305
f 395/185/301 339/130/246 340/132/248
f 342/133/249 397/189/305 344/134/250
f 381/172/288 357/148/264 345/136/252
f 346/220/254 343/221/251 341/222/247
f 340/192/248 397/219/305 395/218/301
f 366/157/273 390/181/297 342/133/249
f 352/223/260 349/195/257 347/194/253
f 358/224/266 355/198/263 353/197/259
f 364/225/272 361/201/269 359/200/307
f 370/226/309 367/204/275 365/203/308
f 376/227/284 373/207/310 371/206/277
f 382/228/290 379/210/287 377/209/283
f 388/229/296 385/213/293 383/212/289
f 394/230/302 391/216/299 389/215/295
f 399/130/246 401/131/311 400/132/248
f 402/133/249 404/134/250 403/135/251
f 405/136/252 407/137/253 406/138/312
f 408/139/255 410/140/256 409/141/257
f 411/142/258 413/143/259 412/144/313
f 414/145/261 416/146/262 415/147/263
f 417/148/264 419/149/265 418/150/266
f 420/151/267 422/152/268 421/153/269
f 423/154/270 425/155/308 424/156/272
f 426/157/273 428/158/274 427/159/314
f 429/160/276 431/161/315 430/162/278
f 432/163/279 434/164/280 433/165/310
f 435/166/282 437/167/283 436/168/316
f 438/169/285 440/170/286 439/171/287
f 441/172/288 443/173/289 442/174/317
f 444/175/291 446/176/318 445/177/293
f 447/178/294 449/179/319 448/180/296
f 450/181/297 452/182/298 451/183/320
f 453/184/300 455/185/301 454/186/302
f 456/187/303 458/188/304 457/189/321
f 399/130/246 406/138/312 401/131/311
f 410/140/256 402/133/249 403/135/251
f 401/190/311 404/191/250 400/192/248
f 410/193/256 407/194/253 409/195/257
f 405/136/252 412/144/313 407/137/253
f 416/146/262 408/139/255 409/141/257
f 416/196/262 413/197/259 415/198/263
f 411/142/258 418/150/266 413/143/259
f 420/151/267 415/147/263 422/152/268
f 422/199/268 419/200/265 421/201/269
f 417/148/264 424/156/272 419/149/265
f 428/158/274 420/151/267 421/153/269
f 428/202/274 425/203/308 427/204/314
f 423/154/270 430/162/278 425/155/308
f 432/163/279 427/159/314 434/164/280
f 434/205/280 431/206/315 433/207/310
f 429/160/276 436/168/316 431/161/315
f 440/170/286 432/163/279 433/165/310
f 440/208/286 437/209/283 439/210/287
f 435/166/282 442/174/317 437/167/283
f 446/176/318 438/169/285 439/171/287
f 446/211/318 443/212/289 445/213/293
f 441/172/288 448/180/296 443/173/289
f 450/181/297 445/177/293 452/182/298
f 452/214/298 449/215/319 451/216/320
f 449/179/319 453/184/300 454/186/302
f 456/187/303 451/183/320 458/188/304
f 458/217/304 455/218/301 457/219/321
f 455/185/301 399/130/246 400/132/248
f 402/133/249 457/189/321 404/134/250
f 441/172/288 417/148/264 405/136/252
f 406/220/312 403/221/251 401/222/311
f 400/192/248 457/219/321 455/218/301
f 426/157/273 450/181/297 402/133/249
f 412/223/313 409/195/257 407/194/253
f 418/224/266 415/198/263 413/197/259
f 424/225/272 421/201/269 419/200/265
f 430/226/278 427/204/314 425/203/308
f 436/227/316 433/207/310 431/206/315
f 442/228/317 439/210/287 437/209/283
f 448/229/296 445/213/293 443/212/289
f 454/230/302 451/216/320 449/215/319
f 459/231/322 461/232/323 460/233/324
f 462/234/325 464/235/326 463/236/327
f 473/237/328 475/238/329 474/239/330
f 476/240/331 478/241/332 477/242/333
f 487/243/334 489/244/335 488/245/336
f 490/246/337 492/247/338 491/248/339
f 501/249/340 503/250/341 502/251/342
f 504/252/343 506/253/344 505/254/345
f 461/232/323 465/255/346 466/256/347
f 467/257/348 463/236/327 468/258/349
f 461/259/323 464/260/326 460/261/324
f 465/255/346 470/262/350 466/256/347
f 472/263/351 467/257/348 468/258/349
f 469/264/352 474/239/330 470/262/350
f 478/241/332 471/265/353 472/263/351
f 478/266/332 475/267/329 477/268/333
f 475/238/329 479/269/354 480/270/355
f 481/271/356 477/242/333 482/272/357
f 480/270/355 483/273/358 484/274/359
f 485/275/360 482/272/357 486/276/361
f 483/273/358 488/245/336 484/274/359
f 492/247/338 485/275/360 486/276/361
f 492/277/338 489/278/335 491/279/339
f 489/244/335 493/280/362 494/281/363
f 495/282/364 491/248/339 496/283/365
f 494/281/363 497/284/366 498/285/367
f 499/286/368 496/283/365 500/287/369
f 497/284/366 502/251/342 498/285/367
f 506/253/344 499/286/368 500/287/369
f 506/288/344 503/289/341 505/290/345
f 503/250/341 507/291/370 508/292/371
f 509/293/372 505/254/345 510/294/373
f 508/292/371 511/295/374 512/296/375
f 513/297/376 510/294/373 514/298/377
f 511/295/374 460/233/324 512/296/375
f 464/235/326 513/297/376 514/298/377
f 501/249/340 483/273/358 465/255/346
f 466/299/347 463/300/327 461/301/323
f 460/261/324 514/302/377 512/303/375
f 481/271/356 499/286/368 462/234/325
f 470/304/350 468/305/349 466/299/347
f 474/306/330 472/307/351 470/304/350
f 480/308/355 477/268/333 475/267/329
f 484/309/359 482/310/357 480/308/355
f 488/311/336 486/312/361 484/309/359
f 494/313/363 491/279/339 489/278/335
f 498/314/367 496/315/365 494/313/363
f 502/316/342 500/317/369 498/314/367
f 508/318/371 505/290/345 503/289/341
f 512/303/375 510/319/373 508/318/371
f 563/231/406 568/256/347 564/379/407
f 569/257/348 566/380/408 570/258/349
f 567/255/346 572/262/350 568/256/347
f 574/263/351 569/257/348 570/258/349
f 571/264/409 576/327/410 572/262/350
f 578/381/411 573/265/353 574/263/351
f 576/327/410 579/269/412 580/270/355
f 581/271/356 578/381/411 582/272/357
f 580/270/355 583/273/358 584/274/413
f 585/275/360 582/272/357 586/276/361
f 583/273/358 588/382/414 584/274/413
f 590/383/415 585/275/360 586/276/361
f 588/382/414 591/280/362 592/281/363
f 593/282/364 590/383/415 594/283/365
f 592/281/363 595/284/416 596/285/367
f 597/286/368 594/283/365 598/287/369
f 595/284/416 600/345/417 596/285/367
f 602/384/418 597/286/368 598/287/369
f 600/345/417 603/291/370 604/292/371
f 605/293/372 602/384/418 606/294/373
f 604/292/371 607/295/374 608/296/375
f 609/297/376 606/294/373 610/298/377
f 607/295/374 564/379/407 608/296/375
f 565/234/405 610/298/377 566/380/408
f 599/385/400 583/273/358 567/255/346
f 568/386/347 566/387/408 564/388/407
f 564/389/407 610/390/377 608/391/375
f 581/271/356 597/286/368 565/234/405
f 572/392/350 570/393/349 568/386/347
f 576/394/410 574/395/351 572/392/350
f 580/396/355 578/397/411 576/394/410
f 584/398/413 582/399/357 580/396/355
f 588/400/414 586/401/361 584/398/413
f 592/402/363 590/403/415 588/400/414
f 596/404/367 594/405/365 592/402/363
f 600/406/417 598/407/369 596/404/367
f 604/408/371 602/409/418 600/406/417
f 608/391/375 606/410/373 604/408/371
s 0
f 611/411/1 613/412/1 612/413/1
f 614/414/2 616/415/2 615/416/2
f 617/417/3 619/418/3 618/419/3
f 620/420/4 622/421/4 621/422/4
f 623/423/5 625/424/5 624/425/5
f 626/426/6 628/427/6 627/428/6
f 629/429/7 631/430/7 630/431/7
f 632/432/8 634/433/8 633/434/8
f 618/419/9 611/411/9 617/417/9
f 613/435/10 614/414/10 612/436/10
f 616/415/11 620/420/11 615/416/11
f 622/421/12 619/437/12 621/422/12
f 630/431/13 617/417/13 629/429/13
f 621/422/14 632/432/14 620/420/14
f 634/433/15 631/430/15 633/434/15
f 624/425/16 629/429/16 623/423/16
f 633/434/17 626/426/17 632/432/17
f 628/427/18 625/424/18 627/428/18
f 612/413/19 623/423/19 611/411/19
f 627/428/20 615/438/20 626/426/20
f 611/411/21 629/429/21 617/417/21
f 618/439/22 616/415/22 613/435/22
f 612/440/23 627/428/23 625/424/23
f 626/426/24 620/441/24 632/432/24
f 630/431/25 621/422/25 619/437/25
f 624/425/26 633/434/26 631/430/26
f 635/411/1 637/412/1 636/413/1
f 638/414/2 640/415/2 639/416/2
f 641/417/3 643/418/3 642/419/3
f 644/420/4 646/421/4 645/442/4
f 647/423/5 649/424/5 648/425/5
f 650/426/6 652/427/6 651/428/6
f 653/429/7 655/430/7 654/431/7
f 656/432/8 658/433/8 657/443/8
f 642/419/9 635/411/9 641/417/9
f 637/435/10 638/414/10 636/436/10
f 640/415/11 644/420/11 639/416/11
f 646/421/12 643/437/12 645/442/12
f 654/431/13 641/417/13 653/429/13
f 645/442/14 656/432/14 644/420/14
f 658/433/15 655/430/15 657/443/15
f 648/425/16 653/429/16 647/423/16
f 657/443/17 650/426/17 656/432/17
f 652/427/18 649/424/18 651/428/18
f 636/413/19 647/423/19 635/411/19
f 651/428/20 639/438/20 650/426/20
f 635/411/21 653/429/21 641/417/21
f 642/439/22 640/415/22 637/435/22
f 636/440/23 651/428/23 649/424/23
f 650/426/24 644/441/24 656/432/24
f 654/431/25 645/442/25 643/437/25
f 648/425/26 657/443/26 655/430/26
f 659/411/1 661/412/1 660/413/1
f 662/414/2 664/415/2 663/416/2
f 665/417/3 667/418/3 666/419/3
f 668/420/4 670/421/4 669/442/4
f 671/423/5 673/424/5 672/425/5
f 674/426/6 676/427/6 675/428/6
f 677/429/7 679/430/7 678/431/7
f 680/432/8 682/433/8 681/443/8
f 666/419/9 659/411/9 665/417/9
f 661/435/10 662/414/10 660/436/10
f 664/415/11 668/420/11 663/416/11
f 670/421/12 667/437/12 669/442/12
f 678/431/13 665/417/13 677/429/13
f 669/442/14 680/432/14 668/420/14
f 682/433/15 679/430/15 681/443/15
f 672/425/16 677/429/16 671/423/16
f 681/443/17 674/426/17 680/432/17
f 676/427/18 673/424/18 675/428/18
f 660/413/19 671/423/19 659/411/19
f 675/428/20 663/438/20 674/426/20
f 659/411/21 677/429/21 665/417/21
f 666/439/22 664/415/22 661/435/22
f 660/440/23 675/428/23 673/424/23
f 674/426/24 668/441/24 680/432/24
f 678/431/25 669/442/25 667/437/25
f 672/425/26 681/443/26 679/430/26
f 683/411/1 685/412/1 684/413/1
f 686/414/2 688/415/2 687/416/2
f 689/417/3 691/418/3 690/419/3
f 692/420/4 694/421/4 693/422/4
f 695/423/5 697/424/5 696/425/5
f 698/426/6 700/427/6 699/428/6
f 701/429/7 703/430/7 702/431/7
f 704/432/8 706/433/8 705/434/8
f 690/419/9 683/411/9 689/417/9
f 685/435/10 686/414/10 684/436/10
f 688/415/11 692/420/11 687/416/11
f 694/421/12 691/437/12 693/422/12
f 702/431/13 689/417/13 701/429/13
f 693/422/14 704/432/14 692/420/14
f 706/433/15 703/430/15 705/434/15
f 696/425/16 701/429/16 695/423/16
f 705/434/17 698/426/17 704/432/17
f 700/427/18 697/424/18 699/428/18
f 684/413/19 695/423/19 683/411/19
f 699/428/20 687/438/20 698/426/20
f 683/411/21 701/429/21 689/417/21
f 690/439/22 688/415/22 685/435/22
f 684/440/23 699/428/23 697/424/23
f 698/426/24 692/441/24 704/432/24
f 702/431/25 693/422/25 691/437/25
f 696/425/26 705/434/26 703/430/26
s 1
f 707/72/419 718/444/420 713/445/421
f 707/69/419 714/446/422 708/74/423
f 708/74/423 715/447/424 709/76/425
f 709/76/425 716/448/426 710/77/427
f 710/77/427 717/449/428 711/79/429
f 712/70/430 717/449/428 718/444/420
f 713/445/421 724/450/431 719/451/432
f 713/452/421 720/453/433 714/446/422
f 714/446/422 721/454/434 715/447/424
f 715/447/424 722/455/435 716/448/426
f 716/448/426 723/456/436 717/449/428
f 718/444/420 723/456/436 724/450/431
f 724/450/431 725/97/437 719/451/432
f 719/457/432 726/99/438 720/453/433
f 721/454/434 726/99/438 727/100/439
f 722/455/435 727/100/439 728/101/440
f 722/455/435 729/102/441 723/456/436
f 723/456/436 730/96/442 724/450/431
f 725/97/437 736/458/443 731/459/444
f 725/98/437 732/460/445 726/99/438
f 726/99/438 733/461/446 727/100/439
f 727/100/439 734/462/447 728/101/440
f 728/101/440 735/463/448 729/102/441
f 730/96/442 735/463/448 736/458/443
f 736/458/443 737/464/449 731/459/444
f 731/465/444 738/466/450 732/460/445
f 733/461/446 738/466/450 739/467/451
f 734/462/447 739/467/451 740/468/452
f 734/462/447 741/469/453 735/463/448
f 735/463/448 742/470/454 736/458/443
f 742/470/454 743/124/455 737/464/449
f 737/471/449 744/126/456 738/466/450
f 739/467/451 744/126/456 745/127/457
f 740/468/452 745/127/457 746/128/458
f 740/468/452 747/129/459 741/469/453
f 741/469/453 748/123/460 742/470/454
f 279/130/246 285/136/252 286/138/254
f 288/139/255 282/133/249 283/135/251
f 281/190/247 283/477/251 284/191/250
f 290/193/256 286/220/254 287/194/253
f 285/136/252 291/142/258 292/144/260
f 296/146/262 294/145/261 288/139/255
f 296/196/262 292/223/260 293/197/259
f 291/142/258 297/148/264 298/150/266
f 300/151/267 294/145/261 295/147/263
f 302/199/268 298/224/266 299/200/265
f 297/148/264 303/154/270 304/156/272
f 308/158/274 306/157/273 300/151/267
f 308/202/274 304/225/272 305/203/271
f 303/154/270 309/160/276 310/162/278
f 314/164/280 312/163/279 306/157/273
f 314/205/280 310/226/278 311/206/277
f 311/161/277 309/160/276 315/166/282
f 318/169/285 312/163/279 313/165/281
f 320/208/286 316/227/284 317/209/283
f 317/167/283 315/166/282 321/172/288
f 324/175/291 318/169/285 319/171/287
f 326/211/292 322/228/290 323/212/289
f 321/172/288 327/178/294 328/180/296
f 330/181/297 324/175/291 325/177/293
f 332/214/298 328/229/296 329/215/295
f 329/179/295 327/178/294 333/184/300
f 336/187/303 330/181/297 331/183/299
f 338/217/304 334/230/302 335/218/301
f 335/185/301 333/184/300 279/130/246
f 282/133/249 336/187/303 337/189/305
f 285/136/252 279/130/246 333/184/300
f 333/184/300 327/178/294 321/172/288
f 321/172/288 315/166/282 309/160/276
f 309/160/276 303/154/270 297/148/264
f 297/148/264 291/142/258 285/136/252
f 285/136/252 333/184/300 321/172/288
f 321/172/288 309/160/276 297/148/264
f 286/220/254 290/193/256 283/221/251
f 280/192/248 284/191/250 337/219/305
f 282/133/249 288/139/255 294/145/261
f 294/145/261 300/151/267 306/157/273
f 306/157/273 312/163/279 318/169/285
f 318/169/285 324/175/291 330/181/297
f 330/181/297 336/187/303 282/133/249
f 282/133/249 294/145/261 306/157/273
f 306/157/273 318/169/285 330/181/297
f 292/223/260 296/196/262 289/195/257
f 298/224/266 302/199/268 295/198/263
f 304/225/272 308/202/274 301/201/269
f 310/226/278 314/205/280 307/204/275
f 316/227/284 320/208/286 313/207/281
f 322/228/290 326/211/292 319/210/287
f 328/229/296 332/214/298 325/213/293
f 334/230/302 338/217/304 331/216/299
f 339/130/246 345/136/252 346/138/254
f 350/140/256 348/139/255 342/133/249
f 341/190/247 343/477/251 344/191/250
f 350/193/256 346/220/254 347/194/253
f 347/137/253 345/136/252 351/142/258
f 356/146/306 354/145/261 348/139/255
f 356/196/306 352/223/260 353/197/259
f 351/142/258 357/148/264 358/150/266
f 360/151/267 354/145/261 355/147/263
f 362/199/268 358/224/266 359/200/307
f 357/148/264 363/154/270 364/156/272
f 368/158/274 366/157/273 360/151/267
f 368/202/274 364/225/272 365/203/308
f 365/155/308 363/154/270 369/160/276
f 372/163/279 366/157/273 367/159/275
f 374/205/280 370/226/309 371/206/277
f 369/160/276 375/166/282 376/168/284
f 380/170/286 378/169/285 372/163/279
f 380/208/286 376/227/284 377/209/283
f 375/166/282 381/172/288 382/174/290
f 384/175/291 378/169/285 379/171/287
f 386/211/292 382/228/290 383/212/289
f 381/172/288 387/178/294 388/180/296
f 390/181/297 384/175/291 385/177/293
f 392/214/298 388/229/296 389/215/295
f 389/179/295 387/178/294 393/184/300
f 396/187/303 390/181/297 391/183/299
f 398/217/304 394/230/302 395/218/301
f 395/185/301 393/184/300 339/130/246
f 342/133/249 396/187/303 397/189/305
f 345/136/252 339/130/246 393/184/300
f 393/184/300 387/178/294 381/172/288
f 381/172/288 375/166/282 369/160/276
f 369/160/276 363/154/270 357/148/264
f 357/148/264 351/142/258 345/136/252
f 345/136/252 393/184/300 381/172/288
f 381/172/288 369/160/276 357/148/264
f 346/220/254 350/193/256 343/221/251
f 340/192/248 344/191/250 397/219/305
f 342/133/249 348/139/255 354/145/261
f 354/145/261 360/151/267 366/157/273
f 366/157/273 372/163/279 378/169/285
f 378/169/285 384/175/291 390/181/297
f 390/181/297 396/187/303 342/133/249
f 342/133/249 354/145/261 366/157/273
f 366/157/273 378/169/285 390/181/297
f 352/223/260 356/196/306 349/195/257
f 358/224/266 362/199/268 355/198/263
f 364/225/272 368/202/274 361/201/269
f 370/226/309 374/205/280 367/204/275
f 376/227/284 380/208/286 373/207/310
f 382/228/290 386/211/292 379/210/287
f 388/229/296 392/214/298 385/213/293
f 394/230/302 398/217/304 391/216/299
f 399/130/246 405/136/252 406/138/312
f 410/140/256 408/139/255 402/133/249
f 401/190/311 403/477/251 404/191/250
f 410/193/256 406/220/312 407/194/253
f 405/136/252 411/142/258 412/144/313
f 416/146/262 414/145/261 408/139/255
f 416/196/262 412/223/313 413/197/259
f 411/142/258 417/148/264 418/150/266
f 420/151/267 414/145/261 415/147/263
f 422/199/268 418/224/266 419/200/265
f 417/148/264 423/154/270 424/156/272
f 428/158/274 426/157/273 420/151/267
f 428/202/274 424/225/272 425/203/308
f 423/154/270 429/160/276 430/162/278
f 432/163/279 426/157/273 427/159/314
f 434/205/280 430/226/278 431/206/315
f 429/160/276 435/166/282 436/168/316
f 440/170/286 438/169/285 432/163/279
f 440/208/286 436/227/316 437/209/283
f 435/166/282 441/172/288 442/174/317
f 446/176/318 444/175/291 438/169/285
f 446/211/318 442/228/317 443/212/289
f 441/172/288 447/178/294 448/180/296
f 450/181/297 444/175/291 445/177/293
f 452/214/298 448/229/296 449/215/319
f 449/179/319 447/178/294 453/184/300
f 456/187/303 450/181/297 451/183/320
f 458/217/304 454/230/302 455/218/301
f 455/185/301 453/184/300 399/130/246
f 402/133/249 456/187/303 457/189/321
f 405/136/252 399/130/246 453/184/300
f 453/184/300 447/178/294 441/172/288
f 441/172/288 435/166/282 429/160/276
f 429/160/276 423/154/270 417/148/264
f 417/148/264 411/142/258 405/136/252
f 405/136/252 453/184/300 441/172/288
f 441/172/288 429/160/276 417/148/264
f 406/220/312 410/193/256 403/221/251
f 400/192/248 404/191/250 457/219/321
f 402/133/249 408/139/255 414/145/261
f 414/145/261 420/151/267 426/157/273
f 426/157/273 432/163/279 438/169/285
f 438/169/285 444/175/291 450/181/297
f 450/181/297 456/187/303 402/133/249
f 402/133/249 414/145/261 426/157/273
f 426/157/273 438/169/285 450/181/297
f 412/223/313 416/196/262 409/195/257
f 418/224/266 422/199/268 415/198/263
f 424/225/272 428/202/274 421/201/269
f 430/226/278 434/205/280 427/204/314
f 436/227/316 440/208/286 433/207/310
f 442/228/317 446/211/318 439/210/287
f 448/229/296 452/214/298 445/213/293
f 454/230/302 458/217/304 451/216/320
f 461/232/323 459/231/322 465/255/346
f 467/257/348 462/234/325 463/236/327
f 461/259/323 463/478/327 464/260/326
f 465/255/346 469/264/352 470/262/350
f 472/263/351 471/265/353 467/257/348
f 469/264/352 473/237/328 474/239/330
f 478/241/332 476/240/331 471/265/353
f 478/266/332 474/306/330 475/267/329
f 475/238/329 473/237/328 479/269/354
f 481/271/356 476/240/331 477/242/333
f 480/270/355 479/269/354 483/273/358
f 485/275/360 481/271/356 482/272/357
f 483/273/358 487/243/334 488/245/336
f 492/247/338 490/246/337 485/275/360
f 492/277/338 488/311/336 489/278/335
f 489/244/335 487/243/334 493/280/362
f 495/282/364 490/246/337 491/248/339
f 494/281/363 493/280/362 497/284/366
f 499/286/368 495/282/364 496/283/365
f 497/284/366 501/249/340 502/251/342
f 506/253/344 504/252/343 499/286/368
f 506/288/344 502/316/342 503/289/341
f 503/250/341 501/249/340 507/291/370
f 509/293/372 504/252/343 505/254/345
f 508/292/371 507/291/370 511/295/374
f 513/297/376 509/293/372 510/294/373
f 511/295/374 459/231/322 460/233/324
f 464/235/326 462/234/325 513/297/376
f 465/255/346 459/231/322 511/295/374
f 511/295/374 507/291/370 501/249/340
f 501/249/340 497/284/366 493/280/362
f 493/280/362 487/243/334 483/273/358
f 483/273/358 479/269/354 473/237/328
f 473/237/328 469/264/352 465/255/346
f 465/255/346 511/295/374 501/249/340
f 501/249/340 493/280/362 483/273/358
f 483/273/358 473/237/328 465/255/346
f 466/299/347 468/305/349 463/300/327
f 460/261/324 464/260/326 514/302/377
f 462/234/325 467/257/348 471/265/353
f 471/265/353 476/240/331 481/271/356
f 481/271/356 485/275/360 490/246/337
f 490/246/337 495/282/364 499/286/368
f 499/286/368 504/252/343 509/293/372
f 509/293/372 513/297/376 462/234/325
f 462/234/325 471/265/353 481/271/356
f 481/271/356 490/246/337 499/286/368
f 499/286/368 509/293/372 462/234/325
f 470/304/350 472/307/351 468/305/349
f 474/306/330 478/266/332 472/307/351
f 480/308/355 482/310/357 477/268/333
f 484/309/359 486/312/361 482/310/357
f 488/311/336 492/277/338 486/312/361
f 494/313/363 496/315/365 491/279/339
f 498/314/367 500/317/369 496/315/365
f 502/316/342 506/288/344 500/317/369
f 508/318/371 510/319/373 505/290/345
f 512/303/375 514/302/377 510/319/373
f 563/231/406 567/255/346 568/256/347
f 569/257/348 565/234/405 566/380/408
f 567/255/346 571/264/409 572/262/350
f 574/263/351 573/265/353 569/257/348
f 571/264/409 575/484/384 576/327/410
f 578/381/411 577/240/386 573/265/353
f 576/327/410 575/484/384 579/269/412
f 581/271/356 577/240/386 578/381/411
f 580/270/355 579/269/412 583/273/358
f 585/275/360 581/271/356 582/272/357
f 583/273/358 587/485/393 588/382/414
f 590/383/415 589/486/503 585/275/360
f 588/382/414 587/485/393 591/280/362
f 593/282/364 589/486/503 590/383/415
f 592/281/363 591/280/362 595/284/416
f 597/286/368 593/282/364 594/283/365
f 595/284/416 599/385/400 600/345/417
f 602/384/418 601/487/504 597/286/368
f 600/345/417 599/385/400 603/291/370
f 605/293/372 601/487/504 602/384/418
f 604/292/371 603/291/370 607/295/374
f 609/297/376 605/293/372 606/294/373
f 607/295/374 563/231/406 564/379/407
f 565/234/405 609/297/376 610/298/377
f 567/255/346 563/231/406 607/295/374
f 607/295/374 603/291/370 599/385/400
f 599/385/400 595/284/416 591/280/362
f 591/280/362 587/485/393 583/273/358
f 583/273/358 579/269/412 575/484/384
f 575/484/384 571/264/409 567/255/346
f 567/255/346 607/295/374 599/385/400
f 599/385/400 591/280/362 583/273/358
f 583/273/358 575/484/384 567/255/346
f 568/386/347 570/393/349 566/387/408
f 564/389/407 566/488/408 610/390/377
f 565/234/405 569/257/348 573/265/353
f 573/265/353 577/240/386 581/271/356
f 581/271/356 585/275/360 589/486/503
f 589/486/503 593/282/364 597/286/368
f 597/286/368 601/487/504 605/293/372
f 605/293/372 609/297/376 565/234/405
f 565/234/405 573/265/353 581/271/356
f 581/271/356 589/486/503 597/286/368
f 597/286/368 605/293/372 565/234/405
f 572/392/350 574/395/351 570/393/349
f 576/394/410 578/397/411 574/395/351
f 580/396/355 582/399/357 578/397/411
f 584/398/413 586/401/361 582/399/357
f 588/400/414 590/403/415 586/401/361
f 592/402/363 594/405/365 590/403/415
f 596/404/367 598/407/369 594/405/365
f 600/406/417 602/409/418 598/407/369
f 604/408/371 606/410/373 602/409/418
f 608/391/375 610/390/377 606/410/373
s 0
f 618/419/9 613/412/9 611/411/9
f 613/435/10 616/415/10 614/414/10
f 616/415/11 622/421/11 620/420/11
f 622/421/12 618/439/12 619/437/12
f 630/431/13 619/418/13 617/417/13
f 621/422/14 634/433/14 632/432/14
f 634/433/15 630/431/15 631/430/15
f 624/425/16 631/430/16 629/429/16
f 633/434/17 628/427/17 626/426/17
f 628/427/18 624/425/18 625/424/18
f 612/413/19 625/424/19 623/423/19
f 627/428/20 614/489/20 615/438/20
f 611/411/21 623/423/21 629/429/21
f 618/439/22 622/421/22 616/415/22
f 612/440/23 614/489/23 627/428/23
f 626/426/24 615/490/24 620/441/24
f 630/431/25 634/433/25 621/422/25
f 624/425/26 628/427/26 633/434/26
f 642/419/9 637/412/9 635/411/9
f 637/435/10 640/415/10 638/414/10
f 640/415/11 646/421/11 644/420/11
f 646/421/12 642/439/12 643/437/12
f 654/431/13 643/418/13 641/417/13
f 645/442/14 658/433/14 656/432/14
f 658/433/15 654/431/15 655/430/15
f 648/425/16 655/430/16 653/429/16
f 657/443/17 652/427/17 650/426/17
f 652/427/18 648/425/18 649/424/18
f 636/413/19 649/424/19 647/423/19
f 651/428/20 638/489/20 639/438/20
f 635/411/21 647/423/21 653/429/21
f 642/439/22 646/421/22 640/415/22
f 636/440/23 638/489/23 651/428/23
f 650/426/24 639/490/24 644/441/24
f 654/431/25 658/433/25 645/442/25
f 648/425/26 652/427/26 657/443/26
f 666/419/9 661/412/9 659/411/9
f 661/435/10 664/415/10 662/414/10
f 664/415/11 670/421/11 668/420/11
f 670/421/12 666/439/12 667/437/12
f 678/431/13 667/418/13 665/417/13
f 669/442/14 682/433/14 680/432/14
f 682/433/15 678/431/15 679/430/15
f 672/425/16 679/430/16 677/429/16
f 681/443/17 676/427/17 674/426/17
f 676/427/18 672/425/18 673/424/18
f 660/413/19 673/424/19 671/423/19
f 675/428/20 662/489/20 663/438/20
f 659/411/21 671/423/21 677/429/21
f 666/439/22 670/421/22 664/415/22
f 660/440/23 662/489/23 675/428/23
f 674/426/24 663/490/24 668/441/24
f 678/431/25 682/433/25 669/442/25
f 672/425/26 676/427/26 681/443/26
f 690/419/9 685/412/9 683/411/9
f 685/435/10 688/415/10 686/414/10
f 688/415/11 694/421/11 692/420/11
f 694/421/12 690/439/12 691/437/12
f 702/431/13 691/418/13 689/417/13
f 693/422/14 706/433/14 704/432/14
f 706/433/15 702/431/15 703/430/15
f 696/425/16 703/430/16 701/429/16
f 705/434/17 700/427/17 698/426/17
f 700/427/18 696/425/18 697/424/18
f 684/413/19 697/424/19 695/423/19
f 699/428/20 686/489/20 687/438/20
f 683/411/21 695/423/21 701/429/21
f 690/439/22 694/421/22 688/415/22
f 684/440/23 686/489/23 699/428/23
f 698/426/24 687/490/24 692/441/24
f 702/431/25 706/433/25 693/422/25
f 696/425/26 700/427/26 705/434/26
s 1
f 707/72/419 712/70/430 718/444/420
f 707/69/419 713/452/421 714/446/422
f 708/74/423 714/446/422 715/447/424
f 709/76/425 715/447/424 716/448/426
f 710/77/427 716/448/426 717/449/428
f 712/70/430 711/79/429 717/449/428
f 713/445/421 718/444/420 724/450/431
f 713/452/421 719/457/432 720/453/433
f 714/446/422 720/453/433 721/454/434
f 715/447/424 721/454/434 722/455/435
f 716/448/426 722/455/435 723/456/436
f 718/444/420 717/449/428 723/456/436
f 724/450/431 730/96/442 725/97/437
f 719/457/432 725/98/437 726/99/438
f 721/454/434 720/453/433 726/99/438
f 722/455/435 721/454/434 727/100/439
f 722/455/435 728/101/440 729/102/441
f 723/456/436 729/102/441 730/96/442
f 725/97/437 730/96/442 736/458/443
f 725/98/437 731/465/444 732/460/445
f 726/99/438 732/460/445 733/461/446
f 727/100/439 733/461/446 734/462/447
f 728/101/440 734/462/447 735/463/448
f 730/96/442 729/102/441 735/463/448
f 736/458/443 742/470/454 737/464/449
f 731/465/444 737/471/449 738/466/450
f 733/461/446 732/460/445 738/466/450
f 734/462/447 733/461/446 739/467/451
f 734/462/447 740/468/452 741/469/453
f 735/463/448 741/469/453 742/470/454
f 742/470/454 748/123/460 743/124/455
f 737/471/449 743/125/455 744/126/456
f 739/467/451 738/466/450 744/126/456
f 740/468/452 739/467/451 745/127/457
f 740/468/452 746/128/458 747/129/459
f 741/469/453 747/129/459 748/123/460
usemtl CreamCanvas
f 516/320/378 519/321/346 520/256/379
f 521/322/348 518/323/380 522/258/381
f 520/256/379 523/324/352 524/262/382
f 525/325/353 522/258/381 526/263/383
f 524/262/382 527/326/384 528/327/385
f 529/328/386 526/263/383 530/329/387
f 528/327/385 531/330/354 532/331/388
f 533/332/356 530/329/387 534/333/389
f 531/330/354 536/274/359 532/331/388
f 538/276/390 533/332/356 534/333/389
f 535/334/358 540/335/391 536/274/359
f 542/336/392 537/337/360 538/276/390
f 539/338/393 544/281/394 540/335/391
f 545/339/364 542/336/392 546/340/395
f 544/281/394 547/341/366 548/342/396
f 549/343/368 546/340/395 550/344/397
f 547/341/366 552/345/398 548/342/396
f 554/346/399 549/343/368 550/344/397
f 551/347/400 556/292/401 552/345/398
f 557/348/372 554/346/399 558/294/402
f 555/349/370 560/296/403 556/292/401
f 561/350/376 558/294/402 562/351/404
f 559/352/374 516/320/378 560/296/403
f 518/323/380 561/350/376 562/351/404
f 551/347/400 535/334/358 519/321/346
f 520/353/379 518/354/380 516/355/378
f 516/356/378 562/357/404 560/358/403
f 533/332/356 549/343/368 517/359/405
f 524/360/382 522/361/381 520/353/379
f 528/362/385 526/363/383 524/360/382
f 532/364/388 530/365/387 528/362/385
f 536/366/359 534/367/389 532/364/388
f 540/368/391 538/369/390 536/366/359
f 544/370/394 542/371/392 540/368/391
f 548/372/396 546/373/395 544/370/394
f 552/374/398 550/375/397 548/372/396
f 556/376/401 554/377/399 552/374/398
f 560/358/403 558/378/402 556/376/401
f 516/320/378 515/479/406 519/321/346
f 521/322/348 517/359/405 518/323/380
f 520/256/379 519/321/346 523/324/352
f 525/325/353 521/322/348 522/258/381
f 524/262/382 523/324/352 527/326/384
f 529/328/386 525/325/353 526/263/383
f 528/327/385 527/326/384 531/330/354
f 533/332/356 529/328/386 530/329/387
f 531/330/354 535/334/358 536/274/359
f 538/276/390 537/337/360 533/332/356
f 535/334/358 539/338/393 540/335/391
f 542/336/392 541/480/503 537/337/360
f 539/338/393 543/481/362 544/281/394
f 545/339/364 541/480/503 542/336/392
f 544/281/394 543/481/362 547/341/366
f 549/343/368 545/339/364 546/340/395
f 547/341/366 551/347/400 552/345/398
f 554/346/399 553/482/504 549/343/368
f 551/347/400 555/349/370 556/292/401
f 557/348/372 553/482/504 554/346/399
f 555/349/370 559/352/374 560/296/403
f 561/350/376 557/348/372 558/294/402
f 559/352/374 515/479/406 516/320/378
f 518/323/380 517/359/405 561/350/376
f 519/321/346 515/479/406 559/352/374
f 559/352/374 555/349/370 551/347/400
f 551/347/400 547/341/366 543/481/362
f 543/481/362 539/338/393 535/334/358
f 535/334/358 531/330/354 527/326/384
f 527/326/384 523/324/352 519/321/346
f 519/321/346 559/352/374 551/347/400
f 551/347/400 543/481/362 535/334/358
f 535/334/358 527/326/384 519/321/346
f 520/353/379 522/361/381 518/354/380
f 516/356/378 518/483/380 562/357/404
f 517/359/405 521/322/348 525/325/353
f 525/325/353 529/328/386 533/332/356
f 533/332/356 537/337/360 541/480/503
f 541/480/503 545/339/364 549/343/368
f 549/343/368 553/482/504 557/348/372
f 557/348/372 561/350/376 517/359/405
f 517/359/405 525/325/353 533/332/356
f 533/332/356 541/480/503 549/343/368
f 549/343/368 557/348/372 517/359/405
f 524/360/382 526/363/383 522/361/381
f 528/362/385 530/365/387 526/363/383
f 532/364/388 534/367/389 530/365/387
f 536/366/359 538/369/390 534/367/389
f 540/368/391 542/371/392 538/369/390
f 544/370/394 546/373/395 542/371/392
f 548/372/396 550/375/397 546/373/395
f 552/374/398 554/377/399 550/375/397
f 556/376/401 558/378/402 554/377/399
f 560/358/403 562/357/404 558/378/402
