# Blender 5.2.1 LTS
# www.blender.org
mtllib SM_LT_Parrot_Tail.mtl
o SM_LT_Parrot_Tail
v 4.782862 -1.000000 -6.291590
v -28.782867 3.150000 -11.708410
v 4.556395 -0.774860 -4.888268
v -28.805019 3.172024 -11.571129
v 4.352095 -0.121479 -3.622314
v -28.825005 3.235942 -11.447285
v 4.189962 0.896188 -2.617645
v -28.840866 3.335496 -11.349003
v 4.085867 2.178522 -1.972610
v -28.851051 3.460942 -11.285900
v 4.049997 3.600000 -1.750345
v -28.854561 3.600000 -11.264158
v 4.085867 5.021478 -1.972610
v -28.851051 3.739057 -11.285900
v 4.189962 6.303812 -2.617645
v -28.840866 3.864503 -11.349003
v 4.352095 7.321478 -3.622314
v -28.825005 3.964057 -11.447285
v 4.556395 7.974860 -4.888268
v -28.805019 4.027975 -11.571129
v 4.782862 8.199999 -6.291590
v -28.782867 4.050000 -11.708410
v 5.009329 7.974860 -7.694912
v -28.760712 4.027975 -11.845692
v 5.213629 7.321478 -8.960867
v -28.740723 3.964057 -11.969536
v 5.375761 6.303812 -9.965534
v -28.724865 3.864503 -12.067818
v 5.479856 5.021478 -10.610571
v -28.714684 3.739057 -12.130919
v 5.515726 3.600000 -10.832836
v -28.711174 3.600000 -12.152662
v 5.479856 2.178522 -10.610571
v -28.714684 3.460942 -12.130919
v 5.375761 0.896188 -9.965534
v -28.724865 3.335496 -12.067818
v 5.213629 -0.121479 -8.960867
v -28.740723 3.235942 -11.969536
v 5.009329 -0.774860 -7.694912
v -28.760712 3.172024 -11.845692
v 1.795634 -4.600000 -7.950909
v -29.795639 -0.450000 -13.049091
v 1.569166 -4.374860 -6.547586
v -29.817795 -0.427976 -12.911810
v 1.364867 -3.721478 -5.281631
v -29.837776 -0.364058 -12.787968
v 1.202735 -2.703812 -4.276964
v -29.853638 -0.264503 -12.689684
v 1.098639 -1.421478 -3.631927
v -29.863823 -0.139058 -12.626583
v 1.062770 -0.000000 -3.409664
v -29.867332 -0.000000 -12.604839
v 1.098639 1.421478 -3.631927
v -29.863823 0.139057 -12.626583
v 1.202735 2.703812 -4.276964
v -29.853638 0.264503 -12.689684
v 1.364867 3.721478 -5.281631
v -29.837776 0.364057 -12.787968
v 1.569166 4.374860 -6.547586
v -29.817795 0.427975 -12.911810
v 1.795634 4.599999 -7.950909
v -29.795639 0.450000 -13.049091
v 2.022101 4.374860 -9.354231
v -29.773483 0.427975 -13.186373
v 2.226400 3.721478 -10.620186
v -29.753498 0.364057 -13.310217
v 2.388534 2.703812 -11.624853
v -29.737637 0.264503 -13.408499
v 2.492629 1.421478 -12.269890
v -29.727455 0.139057 -13.471601
v 2.528498 -0.000000 -12.492153
v -29.723946 -0.000000 -13.493344
v 2.492629 -1.421478 -12.269890
v -29.727455 -0.139058 -13.471601
v 2.388534 -2.703812 -11.624853
v -29.737637 -0.264503 -13.408499
v 2.226400 -3.721478 -10.620186
v -29.753498 -0.364058 -13.310217
v 2.022101 -4.374860 -9.354231
v -29.773483 -0.427976 -13.186373
v -1.191594 -8.199999 -9.610226
v -30.808411 -4.050000 -14.389773
v -1.418061 -7.974860 -8.206905
v -30.830566 -4.027976 -14.252492
v -1.622360 -7.321478 -6.940950
v -30.850552 -3.964057 -14.128649
v -1.784493 -6.303813 -5.936281
v -30.866413 -3.864503 -14.030366
v -1.888589 -5.021478 -5.291246
v -30.876595 -3.739058 -13.967264
v -1.924458 -3.600000 -5.068981
v -30.880104 -3.600000 -13.945521
v -1.888589 -2.178522 -5.291246
v -30.876595 -3.460942 -13.967264
v -1.784493 -0.896188 -5.936281
v -30.866413 -3.335496 -14.030366
v -1.622360 0.121478 -6.940950
v -30.850552 -3.235942 -14.128649
v -1.418061 0.774860 -8.206905
v -30.830566 -3.172024 -14.252492
v -1.191594 1.000000 -9.610226
v -30.808411 -3.150000 -14.389773
v -0.965126 0.774860 -11.013550
v -30.786255 -3.172024 -14.527055
v -0.760827 0.121478 -12.279503
v -30.766273 -3.235942 -14.650898
v -0.598695 -0.896188 -13.284172
v -30.750412 -3.335496 -14.749181
v -0.494598 -2.178522 -13.929208
v -30.740227 -3.460942 -14.812283
v -0.458730 -3.600000 -14.151472
v -30.736717 -3.600000 -14.834025
v -0.494598 -5.021478 -13.929208
v -30.740227 -3.739058 -14.812283
v -0.598695 -6.303813 -13.284172
v -30.750412 -3.864503 -14.749181
v -0.760827 -7.321478 -12.279503
v -30.766273 -3.964057 -14.650898
v -0.965126 -7.974860 -11.013550
v -30.786255 -4.027976 -14.527055
vn 0.6200 -0.7782 0.1001
vn -0.7079 -0.6970 -0.1142
vn 0.5816 -0.7402 0.3375
vn -0.7423 -0.6628 0.0984
vn 0.5471 -0.6296 0.5516
vn -0.7732 -0.5639 0.2902
vn 0.5196 -0.4574 0.7216
vn -0.7978 -0.4097 0.4424
vn 0.5021 -0.2405 0.8307
vn -0.8135 -0.2154 0.5401
vn 0.4960 -0.0000 0.8683
vn -0.8190 -0.0000 0.5738
vn 0.5021 0.2405 0.8307
vn -0.8136 0.2154 0.5401
vn 0.5196 0.4574 0.7216
vn -0.7978 0.4097 0.4424
vn 0.5471 0.6296 0.5516
vn -0.7732 0.5638 0.2902
vn 0.5816 0.7401 0.3375
vn -0.7423 0.6628 0.0984
vn 0.6200 0.7782 0.1001
vn -0.7080 0.6970 -0.1142
vn 0.6583 0.7401 -0.1374
vn -0.6737 0.6628 -0.3269
vn 0.6929 0.6296 -0.3515
vn -0.6427 0.5639 -0.5187
vn 0.7203 0.4574 -0.5215
vn -0.6181 0.4097 -0.6709
vn 0.7379 0.2405 -0.6306
vn -0.6024 0.2154 -0.7686
vn 0.7439 -0.0000 -0.6682
vn -0.5969 -0.0000 -0.8023
vn 0.7379 -0.2405 -0.6306
vn -0.6023 -0.2154 -0.7686
vn 0.7203 -0.4574 -0.5215
vn -0.6181 -0.4097 -0.6709
vn 0.6929 -0.6296 -0.3515
vn -0.6427 -0.5639 -0.5187
vn 0.6583 -0.7401 -0.1374
vn -0.6737 -0.6628 -0.3269
vn 0.6171 -0.7805 0.0996
vn -0.7105 -0.6943 -0.1147
vn 0.5787 -0.7423 0.3377
vn -0.7448 -0.6602 0.0971
vn 0.5440 -0.6315 0.5525
vn -0.7755 -0.5617 0.2882
vn 0.5165 -0.4588 0.7230
vn -0.8000 -0.4081 0.4398
vn 0.4989 -0.2412 0.8324
vn -0.8157 -0.2145 0.5372
vn 0.4927 -0.0000 0.8702
vn -0.8212 -0.0000 0.5707
vn 0.4989 0.2412 0.8324
vn -0.8157 0.2145 0.5372
vn 0.5165 0.4588 0.7230
vn -0.8000 0.4081 0.4398
vn 0.5440 0.6315 0.5525
vn -0.7756 0.5617 0.2882
vn 0.5787 0.7423 0.3377
vn -0.7448 0.6602 0.0971
vn 0.6171 0.7805 0.0996
vn -0.7105 0.6942 -0.1147
vn 0.6555 0.7423 -0.1385
vn -0.6764 0.6603 -0.3265
vn 0.6902 0.6315 -0.3533
vn -0.6455 0.5617 -0.5175
vn 0.7177 0.4588 -0.5238
vn -0.6211 0.4080 -0.6692
vn 0.7354 0.2412 -0.6332
vn -0.6054 0.2145 -0.7665
vn 0.7415 -0.0000 -0.6710
vn -0.5999 -0.0000 -0.8000
vn 0.7354 -0.2412 -0.6333
vn -0.6053 -0.2145 -0.7665
vn 0.7177 -0.4588 -0.5238
vn -0.6211 -0.4080 -0.6692
vn 0.6902 -0.6315 -0.3533
vn -0.6455 -0.5617 -0.5175
vn 0.6555 -0.7423 -0.1385
vn -0.6764 -0.6603 -0.3265
vn 0.6139 -0.7831 0.0991
vn -0.7135 -0.6912 -0.1151
vn 0.5753 -0.7448 0.3380
vn -0.7476 -0.6572 0.0957
vn 0.5406 -0.6336 0.5535
vn -0.7782 -0.5592 0.2859
vn 0.5130 -0.4603 0.7246
vn -0.8026 -0.4063 0.4368
vn 0.4953 -0.2420 0.8344
vn -0.8182 -0.2136 0.5338
vn 0.4891 -0.0000 0.8722
vn -0.8236 -0.0000 0.5672
vn 0.4953 0.2420 0.8344
vn -0.8182 0.2136 0.5338
vn 0.5130 0.4603 0.7246
vn -0.8026 0.4063 0.4368
vn 0.5406 0.6336 0.5535
vn -0.7782 0.5592 0.2859
vn 0.5753 0.7448 0.3380
vn -0.7476 0.6573 0.0957
vn 0.6139 0.7831 0.0991
vn -0.7134 0.6912 -0.1151
vn 0.6525 0.7448 -0.1398
vn -0.6794 0.6573 -0.3260
vn 0.6873 0.6336 -0.3554
vn -0.6487 0.5592 -0.5162
vn 0.7148 0.4603 -0.5264
vn -0.6244 0.4063 -0.6672
vn 0.7326 0.2420 -0.6362
vn -0.6087 0.2136 -0.7641
vn 0.7387 -0.0000 -0.6741
vn -0.6034 -0.0000 -0.7975
vn 0.7326 -0.2420 -0.6362
vn -0.6087 -0.2136 -0.7641
vn 0.7148 -0.4603 -0.5264
vn -0.6244 -0.4063 -0.6672
vn 0.6873 -0.6336 -0.3554
vn -0.6487 -0.5592 -0.5162
vn 0.6525 -0.7448 -0.1398
vn -0.6794 -0.6573 -0.3260
vt 0.950000 0.500000
vt 1.000000 1.000000
vt 1.000000 0.500000
vt 0.900000 0.500000
vt 0.950000 1.000000
vt 0.850000 0.500000
vt 0.900000 1.000000
vt 0.800000 1.000000
vt 0.850000 1.000000
vt 0.800000 0.500000
vt 0.750000 1.000000
vt 0.750000 0.500000
vt 0.700000 1.000000
vt 0.650000 0.500000
vt 0.700000 0.500000
vt 0.600000 0.500000
vt 0.650000 1.000000
vt 0.550000 1.000000
vt 0.600000 1.000000
vt 0.550000 0.500000
vt 0.500000 1.000000
vt 0.450000 0.500000
vt 0.500000 0.500000
vt 0.400000 1.000000
vt 0.450000 1.000000
vt 0.350000 0.500000
vt 0.400000 0.500000
vt 0.300000 0.500000
vt 0.350000 1.000000
vt 0.250000 0.500000
vt 0.300000 1.000000
vt 0.200000 0.500000
vt 0.250000 1.000000
vt 0.150000 0.500000
vt 0.200000 1.000000
vt 0.100000 1.000000
vt 0.150000 1.000000
vt 0.391068 0.055836
vt 0.021746 0.324164
vt 0.250000 0.490000
vt 0.050000 0.500000
vt 0.100000 0.500000
vt -0.000000 1.000000
vt 0.050000 1.000000
vt 0.555836 0.108932
vt 0.990000 0.250000
vt 0.824164 0.478254
vt -0.000000 0.500000
vt 0.324164 0.478254
vt 0.391068 0.444164
vt 0.444164 0.391068
vt 0.478254 0.324164
vt 0.490000 0.250000
vt 0.478254 0.175836
vt 0.444164 0.108932
vt 0.324164 0.021746
vt 0.250000 0.010000
vt 0.175836 0.021746
vt 0.108932 0.055836
vt 0.055836 0.108932
vt 0.021746 0.175836
vt 0.010000 0.250000
vt 0.055836 0.391068
vt 0.108932 0.444164
vt 0.175836 0.478254
vt 0.750000 0.490000
vt 0.675836 0.478254
vt 0.608932 0.444164
vt 0.555836 0.391068
vt 0.521746 0.324164
vt 0.510000 0.250000
vt 0.521746 0.175836
vt 0.608932 0.055836
vt 0.675836 0.021746
vt 0.750000 0.010000
vt 0.824164 0.021746
vt 0.891068 0.055836
vt 0.944164 0.108932
vt 0.978254 0.175836
vt 0.978254 0.324164
vt 0.944164 0.391068
vt 0.891068 0.444164
s 1
usemtl WingBlue
f 3/1/3 2/2/2 1/3/1
f 5/4/5 4/5/4 3/1/3
f 7/6/7 6/7/6 5/4/5
f 7/6/7 10/8/10 8/9/8
f 9/10/9 12/11/12 10/8/10
f 11/12/11 14/13/14 12/11/12
f 15/14/15 14/13/14 13/15/13
f 17/16/17 16/17/16 15/14/15
f 17/16/17 20/18/20 18/19/18
f 19/20/19 22/21/22 20/18/20
f 23/22/23 22/21/22 21/23/21
f 23/22/23 26/24/26 24/25/24
f 27/26/27 26/24/26 25/27/25
f 29/28/29 28/29/28 27/26/27
f 31/30/31 30/31/30 29/28/29
f 33/32/33 32/33/32 31/30/31
f 35/34/35 34/35/34 33/32/33
f 35/34/35 38/36/38 36/37/36
f 18/38/18 34/39/34 2/40/2
f 39/41/39 38/36/38 37/42/37
f 39/41/39 2/43/2 40/44/40
f 27/45/27 11/46/11 3/47/3
f 81/3/81 84/5/84 82/2/82
f 85/4/85 84/5/84 83/1/83
f 85/4/85 88/9/88 86/7/86
f 89/10/89 88/9/88 87/6/87
f 91/12/91 90/8/90 89/10/89
f 91/12/91 94/13/94 92/11/92
f 95/14/95 94/13/94 93/15/93
f 95/14/95 98/19/98 96/17/96
f 99/20/99 98/19/98 97/16/97
f 99/20/99 102/21/102 100/18/100
f 103/22/103 102/21/102 101/23/101
f 105/27/105 104/25/104 103/22/103
f 105/27/105 108/29/108 106/24/106
f 109/28/109 108/29/108 107/26/107
f 111/30/111 110/31/110 109/28/109
f 111/30/111 114/35/114 112/33/112
f 113/32/113 116/37/116 114/35/114
f 115/34/115 118/36/118 116/37/116
f 98/38/98 114/39/114 82/40/82
f 117/42/117 120/44/120 118/36/118
f 81/48/81 120/44/120 119/41/119
f 107/45/107 91/46/91 83/47/83
f 3/1/3 4/5/4 2/2/2
f 5/4/5 6/7/6 4/5/4
f 7/6/7 8/9/8 6/7/6
f 7/6/7 9/10/9 10/8/10
f 9/10/9 11/12/11 12/11/12
f 11/12/11 13/15/13 14/13/14
f 15/14/15 16/17/16 14/13/14
f 17/16/17 18/19/18 16/17/16
f 17/16/17 19/20/19 20/18/20
f 19/20/19 21/23/21 22/21/22
f 23/22/23 24/25/24 22/21/22
f 23/22/23 25/27/25 26/24/26
f 27/26/27 28/29/28 26/24/26
f 29/28/29 30/31/30 28/29/28
f 31/30/31 32/33/32 30/31/30
f 33/32/33 34/35/34 32/33/32
f 35/34/35 36/37/36 34/35/34
f 35/34/35 37/42/37 38/36/38
f 2/40/2 4/49/4 6/50/6
f 6/50/6 8/51/8 10/52/10
f 10/52/10 12/53/12 14/54/14
f 14/54/14 16/55/16 18/38/18
f 18/38/18 20/56/20 22/57/22
f 22/57/22 24/58/24 26/59/26
f 26/59/26 28/60/28 30/61/30
f 30/61/30 32/62/32 34/39/34
f 34/39/34 36/63/36 38/64/38
f 38/64/38 40/65/40 2/40/2
f 2/40/2 6/50/6 10/52/10
f 10/52/10 14/54/14 18/38/18
f 18/38/18 22/57/22 26/59/26
f 26/59/26 30/61/30 34/39/34
f 34/39/34 38/64/38 2/40/2
f 2/40/2 10/52/10 18/38/18
f 18/38/18 26/59/26 34/39/34
f 39/41/39 40/44/40 38/36/38
f 39/41/39 1/48/1 2/43/2
f 3/47/3 1/66/1 39/67/39
f 39/67/39 37/68/37 35/69/35
f 35/69/35 33/70/33 31/71/31
f 31/71/31 29/72/29 27/45/27
f 27/45/27 25/73/25 23/74/23
f 23/74/23 21/75/21 19/76/19
f 19/76/19 17/77/17 15/78/15
f 15/78/15 13/79/13 11/46/11
f 11/46/11 9/80/9 7/81/7
f 7/81/7 5/82/5 3/47/3
f 3/47/3 39/67/39 35/69/35
f 35/69/35 31/71/31 27/45/27
f 27/45/27 23/74/23 19/76/19
f 19/76/19 15/78/15 11/46/11
f 11/46/11 7/81/7 3/47/3
f 3/47/3 35/69/35 27/45/27
f 27/45/27 19/76/19 11/46/11
f 81/3/81 83/1/83 84/5/84
f 85/4/85 86/7/86 84/5/84
f 85/4/85 87/6/87 88/9/88
f 89/10/89 90/8/90 88/9/88
f 91/12/91 92/11/92 90/8/90
f 91/12/91 93/15/93 94/13/94
f 95/14/95 96/17/96 94/13/94
f 95/14/95 97/16/97 98/19/98
f 99/20/99 100/18/100 98/19/98
f 99/20/99 101/23/101 102/21/102
f 103/22/103 104/25/104 102/21/102
f 105/27/105 106/24/106 104/25/104
f 105/27/105 107/26/107 108/29/108
f 109/28/109 110/31/110 108/29/108
f 111/30/111 112/33/112 110/31/110
f 111/30/111 113/32/113 114/35/114
f 113/32/113 115/34/115 116/37/116
f 115/34/115 117/42/117 118/36/118
f 82/40/82 84/49/84 86/50/86
f 86/50/86 88/51/88 90/52/90
f 90/52/90 92/53/92 94/54/94
f 94/54/94 96/55/96 98/38/98
f 98/38/98 100/56/100 102/57/102
f 102/57/102 104/58/104 106/59/106
f 106/59/106 108/60/108 110/61/110
f 110/61/110 112/62/112 114/39/114
f 114/39/114 116/63/116 118/64/118
f 118/64/118 120/65/120 82/40/82
f 82/40/82 86/50/86 90/52/90
f 90/52/90 94/54/94 98/38/98
f 98/38/98 102/57/102 106/59/106
f 106/59/106 110/61/110 114/39/114
f 114/39/114 118/64/118 82/40/82
f 82/40/82 90/52/90 98/38/98
f 98/38/98 106/59/106 114/39/114
f 117/42/117 119/41/119 120/44/120
f 81/48/81 82/43/82 120/44/120
f 83/47/83 81/66/81 119/67/119
f 119/67/119 117/68/117 115/69/115
f 115/69/115 113/70/113 111/71/111
f 111/71/111 109/72/109 107/45/107
f 107/45/107 105/73/105 103/74/103
f 103/74/103 101/75/101 99/76/99
f 99/76/99 97/77/97 95/78/95
f 95/78/95 93/79/93 91/46/91
f 91/46/91 89/80/89 87/81/87
f 87/81/87 85/82/85 83/47/83
f 83/47/83 119/67/119 115/69/115
f 115/69/115 111/71/111 107/45/107
f 107/45/107 103/74/103 99/76/99
f 99/76/99 95/78/95 91/46/91
f 91/46/91 87/81/87 83/47/83
f 83/47/83 115/69/115 107/45/107
f 107/45/107 99/76/99 91/46/91
usemtl DeepRed
f 43/1/43 42/2/42 41/3/41
f 43/1/43 46/7/46 44/5/44
f 47/6/47 46/7/46 45/4/45
f 47/6/47 50/8/50 48/9/48
f 49/10/49 52/11/52 50/8/50
f 51/12/51 54/13/54 52/11/52
f 55/14/55 54/13/54 53/15/53
f 57/16/57 56/17/56 55/14/55
f 59/20/59 58/19/58 57/16/57
f 59/20/59 62/21/62 60/18/60
f 63/22/63 62/21/62 61/23/61
f 65/27/65 64/25/64 63/22/63
f 65/27/65 68/29/68 66/24/66
f 69/28/69 68/29/68 67/26/67
f 69/28/69 72/33/72 70/31/70
f 73/32/73 72/33/72 71/30/71
f 75/34/75 74/35/74 73/32/73
f 77/42/77 76/37/76 75/34/75
f 58/38/58 74/39/74 42/40/42
f 77/42/77 80/44/80 78/36/78
f 79/41/79 42/43/42 80/44/80
f 67/45/67 51/46/51 43/47/43
f 43/1/43 44/5/44 42/2/42
f 43/1/43 45/4/45 46/7/46
f 47/6/47 48/9/48 46/7/46
f 47/6/47 49/10/49 50/8/50
f 49/10/49 51/12/51 52/11/52
f 51/12/51 53/15/53 54/13/54
f 55/14/55 56/17/56 54/13/54
f 57/16/57 58/19/58 56/17/56
f 59/20/59 60/18/60 58/19/58
f 59/20/59 61/23/61 62/21/62
f 63/22/63 64/25/64 62/21/62
f 65/27/65 66/24/66 64/25/64
f 65/27/65 67/26/67 68/29/68
f 69/28/69 70/31/70 68/29/68
f 69/28/69 71/30/71 72/33/72
f 73/32/73 74/35/74 72/33/72
f 75/34/75 76/37/76 74/35/74
f 77/42/77 78/36/78 76/37/76
f 42/40/42 44/49/44 46/50/46
f 46/50/46 48/51/48 50/52/50
f 50/52/50 52/53/52 54/54/54
f 54/54/54 56/55/56 58/38/58
f 58/38/58 60/56/60 62/57/62
f 62/57/62 64/58/64 66/59/66
f 66/59/66 68/60/68 70/61/70
f 70/61/70 72/62/72 74/39/74
f 74/39/74 76/63/76 78/64/78
f 78/64/78 80/65/80 42/40/42
f 42/40/42 46/50/46 50/52/50
f 50/52/50 54/54/54 58/38/58
f 58/38/58 62/57/62 66/59/66
f 66/59/66 70/61/70 74/39/74
f 74/39/74 78/64/78 42/40/42
f 42/40/42 50/52/50 58/38/58
f 58/38/58 66/59/66 74/39/74
f 77/42/77 79/41/79 80/44/80
f 79/41/79 41/48/41 42/43/42
f 43/47/43 41/66/41 79/67/79
f 79/67/79 77/68/77 75/69/75
f 75/69/75 73/70/73 71/71/71
f 71/71/71 69/72/69 67/45/67
f 67/45/67 65/73/65 63/74/63
f 63/74/63 61/75/61 59/76/59
f 59/76/59 57/77/57 55/78/55
f 55/78/55 53/79/53 51/46/51
f 51/46/51 49/80/49 47/81/47
f 47/81/47 45/82/45 43/47/43
f 43/47/43 79/67/79 75/69/75
f 75/69/75 71/71/71 67/45/67
f 67/45/67 63/74/63 59/76/59
f 59/76/59 55/78/55 51/46/51
f 51/46/51 47/81/47 43/47/43
f 43/47/43 75/69/75 67/45/67
f 67/45/67 59/76/59 51/46/51
