# Blender 5.2.1 LTS
# www.blender.org
mtllib SM_LT_Lantern_Rope.mtl
o SM_LT_Lantern_Rope
v 0.000000 -0.695015 -50.000000
v 0.000000 -0.900000 -49.802002
v 0.000000 -0.839961 -49.942009
v -0.000000 -0.695015 0.000000
v 0.000000 -0.900000 -0.198000
v -0.000000 -0.839961 -0.057991
v 0.347508 -0.601901 -50.000000
v 0.450000 -0.779423 -49.802002
v 0.419981 -0.727428 -49.942009
v 0.347508 -0.601901 0.000000
v 0.450000 -0.779423 -0.198000
v 0.419981 -0.727428 -0.057991
v 0.601901 -0.347508 -50.000000
v 0.779423 -0.450000 -49.802002
v 0.727428 -0.419981 -49.942009
v 0.601901 -0.347508 0.000000
v 0.779423 -0.450000 -0.198000
v 0.727428 -0.419981 -0.057991
v 0.695015 0.000000 -50.000000
v 0.900000 0.000000 -49.802002
v 0.839961 0.000000 -49.942009
v 0.695015 -0.000000 0.000000
v 0.900000 0.000000 -0.198000
v 0.839961 -0.000000 -0.057991
v 0.601901 0.347508 -50.000000
v 0.779423 0.450000 -49.802002
v 0.727428 0.419981 -49.942009
v 0.601901 0.347508 0.000000
v 0.779423 0.450000 -0.198000
v 0.727428 0.419981 -0.057991
v 0.347508 0.601901 -50.000000
v 0.450000 0.779423 -49.802002
v 0.419981 0.727428 -49.942009
v 0.347508 0.601901 0.000000
v 0.450000 0.779423 -0.198000
v 0.419981 0.727428 -0.057991
v -0.000000 0.695015 -50.000000
v 0.000000 0.900000 -49.802002
v -0.000000 0.839961 -49.942009
v 0.000000 0.695015 0.000000
v 0.000000 0.900000 -0.198000
v 0.000000 0.839961 -0.057991
v -0.347508 0.601901 -50.000000
v -0.450000 0.779423 -49.802002
v -0.419981 0.727428 -49.942009
v -0.347508 0.601901 0.000000
v -0.450000 0.779423 -0.198000
v -0.419981 0.727428 -0.057991
v -0.601901 0.347508 -50.000000
v -0.779423 0.450000 -49.802002
v -0.727428 0.419981 -49.942009
v -0.601901 0.347508 0.000000
v -0.779423 0.450000 -0.198000
v -0.727428 0.419981 -0.057991
v -0.695015 -0.000000 -50.000000
v -0.900000 0.000000 -49.802002
v -0.839961 -0.000000 -49.942009
v -0.695015 0.000000 0.000000
v -0.900000 0.000000 -0.198000
v -0.839961 0.000000 -0.057991
v -0.601901 -0.347508 -50.000000
v -0.779423 -0.450000 -49.802002
v -0.727428 -0.419981 -49.942009
v -0.601901 -0.347508 0.000000
v -0.779423 -0.450000 -0.198000
v -0.727428 -0.419981 -0.057991
v -0.347508 -0.601901 -50.000000
v -0.450000 -0.779423 -49.802002
v -0.419981 -0.727428 -49.942009
v -0.347508 -0.601901 0.000000
v -0.450000 -0.779423 -0.198000
v -0.419981 -0.727428 -0.057991
vn -0.0000 -0.2191 -0.9757
vn -0.0000 -0.9808 -0.1949
vn -0.0000 -0.7282 -0.6854
vn -0.0000 -0.2191 0.9757
vn -0.0000 -0.9808 0.1949
vn -0.0000 -0.7282 0.6854
vn 0.1096 -0.1898 -0.9757
vn 0.4904 -0.8494 -0.1949
vn 0.3641 -0.6306 -0.6854
vn 0.1096 -0.1898 0.9757
vn 0.4904 -0.8494 0.1949
vn 0.3641 -0.6306 0.6854
vn 0.1898 -0.1096 -0.9757
vn 0.8494 -0.4904 -0.1949
vn 0.6306 -0.3641 -0.6854
vn 0.1898 -0.1096 0.9757
vn 0.8494 -0.4904 0.1949
vn 0.6306 -0.3641 0.6854
vn 0.2192 -0.0000 -0.9757
vn 0.9808 -0.0000 -0.1949
vn 0.7282 -0.0000 -0.6854
vn 0.2191 -0.0000 0.9757
vn 0.9808 -0.0000 0.1949
vn 0.7282 -0.0000 0.6854
vn 0.1898 0.1096 -0.9757
vn 0.8494 0.4904 -0.1949
vn 0.6306 0.3641 -0.6854
vn 0.1898 0.1096 0.9757
vn 0.8494 0.4904 0.1949
vn 0.6306 0.3641 0.6854
vn 0.1096 0.1898 -0.9757
vn 0.4904 0.8494 -0.1949
vn 0.3641 0.6306 -0.6854
vn 0.1096 0.1898 0.9757
vn 0.4904 0.8494 0.1949
vn 0.3641 0.6306 0.6854
vn -0.0000 0.2191 -0.9757
vn -0.0000 0.9808 -0.1949
vn -0.0000 0.7282 -0.6854
vn -0.0000 0.2191 0.9757
vn -0.0000 0.9808 0.1949
vn -0.0000 0.7282 0.6854
vn -0.1096 0.1898 -0.9757
vn -0.4904 0.8494 -0.1949
vn -0.3641 0.6306 -0.6854
vn -0.1096 0.1898 0.9757
vn -0.4904 0.8494 0.1949
vn -0.3641 0.6306 0.6854
vn -0.1898 0.1096 -0.9757
vn -0.8494 0.4904 -0.1949
vn -0.6306 0.3641 -0.6854
vn -0.1898 0.1096 0.9757
vn -0.8494 0.4904 0.1949
vn -0.6306 0.3641 0.6854
vn -0.2192 -0.0000 -0.9757
vn -0.9808 -0.0000 -0.1949
vn -0.7282 -0.0000 -0.6854
vn -0.2191 -0.0000 0.9757
vn -0.9808 -0.0000 0.1949
vn -0.7282 -0.0000 0.6854
vn -0.1898 -0.1096 -0.9757
vn -0.8494 -0.4904 -0.1949
vn -0.6306 -0.3641 -0.6854
vn -0.1898 -0.1096 0.9757
vn -0.8494 -0.4904 0.1949
vn -0.6306 -0.3641 0.6854
vn -0.1096 -0.1898 -0.9757
vn -0.4904 -0.8494 -0.1949
vn -0.3641 -0.6306 -0.6854
vn -0.1096 -0.1898 0.9757
vn -0.4904 -0.8494 0.1949
vn -0.3641 -0.6306 0.6854
vt 0.997220 0.500000
vt 0.916667 0.501980
vt 1.000000 0.501980
vt 0.750000 0.435338
vt 0.869464 0.456917
vt 0.750000 0.488928
vt 0.916667 1.000000
vt 1.000000 0.998020
vt 0.916667 0.998020
vt 0.369464 0.456917
vt 0.250000 0.435337
vt 0.250000 0.488928
vt 0.916667 0.500000
vt 0.833333 0.501980
vt 0.910507 0.342669
vt 0.956917 0.369464
vt 0.833333 1.000000
vt 0.833333 0.998020
vt 0.410507 0.342669
vt 0.456917 0.369464
vt 0.833333 0.500000
vt 0.750000 0.501980
vt 0.935337 0.250000
vt 0.988927 0.250000
vt 0.750000 1.000000
vt 0.750000 0.998020
vt 0.435337 0.250000
vt 0.488928 0.250000
vt 0.750000 0.500000
vt 0.666667 0.501980
vt 0.956917 0.130536
vt 0.666667 1.000000
vt 0.666667 0.998020
vt 0.456917 0.130536
vt 0.666667 0.500000
vt 0.583333 0.501980
vt 0.842669 0.089493
vt 0.869464 0.043083
vt 0.583333 1.000000
vt 0.583333 0.998020
vt 0.342669 0.089493
vt 0.369464 0.043083
vt 0.583333 0.500000
vt 0.500000 0.501980
vt 0.750000 0.064663
vt 0.750000 0.011072
vt 0.500000 1.000000
vt 0.500000 0.998020
vt 0.250000 0.064663
vt 0.250000 0.011072
vt 0.500000 0.500000
vt 0.416667 0.501980
vt 0.630536 0.043083
vt 0.416667 1.000000
vt 0.416667 0.998020
vt 0.130536 0.043083
vt 0.416667 0.500000
vt 0.333333 0.501980
vt 0.589493 0.157331
vt 0.543083 0.130536
vt 0.333333 1.000000
vt 0.333333 0.998020
vt 0.089493 0.157331
vt 0.043083 0.130536
vt 0.333333 0.500000
vt 0.250000 0.501980
vt 0.564663 0.250000
vt 0.511072 0.250000
vt 0.250000 1.000000
vt 0.250000 0.998020
vt 0.064663 0.250000
vt 0.011072 0.250000
vt 0.250000 0.500000
vt 0.166667 0.501980
vt 0.543083 0.369464
vt 0.166667 1.000000
vt 0.166667 0.998020
vt 0.043083 0.369464
vt 0.166667 0.500000
vt 0.083333 0.501980
vt 0.657331 0.410507
vt 0.630536 0.456917
vt 0.083333 1.000000
vt 0.083333 0.998020
vt 0.157331 0.410507
vt 0.130536 0.456917
vt 0.083333 0.500000
vt 0.000000 0.501980
vt 0.002780 1.000000
vt 0.000000 0.998020
vt 0.842669 0.410507
vt 0.410507 0.157331
vt 0.997220 1.000000
vt 0.342669 0.410507
vt 0.910507 0.157331
vt 0.657331 0.089493
vt 0.157331 0.089493
vt 0.589493 0.342669
vt 0.089493 0.342669
vt 0.002780 0.500000
s 1
usemtl Rope
f 3/1/3 8/2/8 2/3/2
f 1/4/1 9/5/9 3/6/3
f 12/7/12 5/8/5 11/9/11
f 12/10/12 4/11/4 6/12/6
f 9/13/9 14/14/14 8/2/8
f 9/5/9 13/15/13 15/16/15
f 18/17/18 11/9/11 17/18/17
f 16/19/16 12/10/12 18/20/18
f 15/21/15 20/22/20 14/14/14
f 15/16/15 19/23/19 21/24/21
f 24/25/24 17/18/17 23/26/23
f 22/27/22 18/20/18 24/28/24
f 21/29/21 26/30/26 20/22/20
f 19/23/19 27/31/27 21/24/21
f 30/32/30 23/26/23 29/33/29
f 30/34/30 22/27/22 24/28/24
f 27/35/27 32/36/32 26/30/26
f 27/31/27 31/37/31 33/38/33
f 36/39/36 29/33/29 35/40/35
f 34/41/34 30/34/30 36/42/36
f 33/43/33 38/44/38 32/36/32
f 33/38/33 37/45/37 39/46/39
f 42/47/42 35/40/35 41/48/41
f 40/49/40 36/42/36 42/50/42
f 39/51/39 44/52/44 38/44/38
f 37/45/37 45/53/45 39/46/39
f 48/54/48 41/48/41 47/55/47
f 48/56/48 40/49/40 42/50/42
f 45/57/45 50/58/50 44/52/44
f 45/53/45 49/59/49 51/60/51
f 54/61/54 47/55/47 53/62/53
f 52/63/52 48/56/48 54/64/54
f 51/65/51 56/66/56 50/58/50
f 51/60/51 55/67/55 57/68/57
f 60/69/60 53/62/53 59/70/59
f 58/71/58 54/64/54 60/72/60
f 57/73/57 62/74/62 56/66/56
f 55/67/55 63/75/63 57/68/57
f 66/76/66 59/70/59 65/77/65
f 66/78/66 58/71/58 60/72/60
f 63/79/63 68/80/68 62/74/62
f 63/75/63 67/81/67 69/82/69
f 72/83/72 65/77/65 71/84/71
f 70/85/70 66/78/66 72/86/72
f 69/87/69 2/88/2 68/80/68
f 69/82/69 1/4/1 3/6/3
f 6/89/6 71/84/71 5/90/5
f 4/11/4 72/86/72 6/12/6
f 55/67/55 31/37/31 7/91/7
f 8/2/8 5/8/5 2/3/2
f 2/88/2 71/84/71 68/80/68
f 28/92/28 52/63/52 4/11/4
f 14/14/14 11/9/11 8/2/8
f 20/22/20 17/18/17 14/14/14
f 26/30/26 23/26/23 20/22/20
f 32/36/32 29/33/29 26/30/26
f 38/44/38 35/40/35 32/36/32
f 44/52/44 41/48/41 38/44/38
f 50/58/50 47/55/47 44/52/44
f 56/66/56 53/62/53 50/58/50
f 62/74/62 59/70/59 56/66/56
f 68/80/68 65/77/65 62/74/62
f 3/1/3 9/13/9 8/2/8
f 1/4/1 7/91/7 9/5/9
f 12/7/12 6/93/6 5/8/5
f 12/10/12 10/94/10 4/11/4
f 9/13/9 15/21/15 14/14/14
f 9/5/9 7/91/7 13/15/13
f 18/17/18 12/7/12 11/9/11
f 16/19/16 10/94/10 12/10/12
f 15/21/15 21/29/21 20/22/20
f 15/16/15 13/15/13 19/23/19
f 24/25/24 18/17/18 17/18/17
f 22/27/22 16/19/16 18/20/18
f 21/29/21 27/35/27 26/30/26
f 19/23/19 25/95/25 27/31/27
f 30/32/30 24/25/24 23/26/23
f 30/34/30 28/92/28 22/27/22
f 27/35/27 33/43/33 32/36/32
f 27/31/27 25/95/25 31/37/31
f 36/39/36 30/32/30 29/33/29
f 34/41/34 28/92/28 30/34/30
f 33/43/33 39/51/39 38/44/38
f 33/38/33 31/37/31 37/45/37
f 42/47/42 36/39/36 35/40/35
f 40/49/40 34/41/34 36/42/36
f 39/51/39 45/57/45 44/52/44
f 37/45/37 43/96/43 45/53/45
f 48/54/48 42/47/42 41/48/41
f 48/56/48 46/97/46 40/49/40
f 45/57/45 51/65/51 50/58/50
f 45/53/45 43/96/43 49/59/49
f 54/61/54 48/54/48 47/55/47
f 52/63/52 46/97/46 48/56/48
f 51/65/51 57/73/57 56/66/56
f 51/60/51 49/59/49 55/67/55
f 60/69/60 54/61/54 53/62/53
f 58/71/58 52/63/52 54/64/54
f 57/73/57 63/79/63 62/74/62
f 55/67/55 61/98/61 63/75/63
f 66/76/66 60/69/60 59/70/59
f 66/78/66 64/99/64 58/71/58
f 63/79/63 69/87/69 68/80/68
f 63/75/63 61/98/61 67/81/67
f 72/83/72 66/76/66 65/77/65
f 70/85/70 64/99/64 66/78/66
f 69/87/69 3/100/3 2/88/2
f 69/82/69 67/81/67 1/4/1
f 6/89/6 72/83/72 71/84/71
f 4/11/4 70/85/70 72/86/72
f 7/91/7 1/4/1 67/81/67
f 67/81/67 61/98/61 55/67/55
f 55/67/55 49/59/49 43/96/43
f 43/96/43 37/45/37 31/37/31
f 31/37/31 25/95/25 19/23/19
f 19/23/19 13/15/13 7/91/7
f 7/91/7 67/81/67 55/67/55
f 55/67/55 43/96/43 31/37/31
f 31/37/31 19/23/19 7/91/7
f 8/2/8 11/9/11 5/8/5
f 2/88/2 5/90/5 71/84/71
f 4/11/4 10/94/10 16/19/16
f 16/19/16 22/27/22 28/92/28
f 28/92/28 34/41/34 40/49/40
f 40/49/40 46/97/46 52/63/52
f 52/63/52 58/71/58 64/99/64
f 64/99/64 70/85/70 4/11/4
f 4/11/4 16/19/16 28/92/28
f 28/92/28 40/49/40 52/63/52
f 52/63/52 64/99/64 4/11/4
f 14/14/14 17/18/17 11/9/11
f 20/22/20 23/26/23 17/18/17
f 26/30/26 29/33/29 23/26/23
f 32/36/32 35/40/35 29/33/29
f 38/44/38 41/48/41 35/40/35
f 44/52/44 47/55/47 41/48/41
f 50/58/50 53/62/53 47/55/47
f 56/66/56 59/70/59 53/62/53
f 62/74/62 65/77/65 59/70/59
f 68/80/68 71/84/71 65/77/65
