# Blender 5.2.1 LTS
# www.blender.org
mtllib SM_LT_Parrot_Perch.mtl
o SM_LT_Parrot_Perch
v -41.000000 -3.423647 7.000002
v -40.032001 -4.400000 7.000002
v -40.716476 -4.114033 7.000002
v 41.000000 -3.423647 6.999998
v 40.032001 -4.400000 6.999998
v 40.716476 -4.114033 6.999998
v -41.000000 -3.306989 6.113896
v -40.032001 -4.250073 5.861198
v -40.716476 -3.973850 5.935212
v 41.000000 -3.306989 6.113893
v 40.032001 -4.250073 5.861195
v 40.716476 -3.973850 5.935208
v -41.000000 -2.964965 5.288178
v -40.032001 -3.810512 4.800002
v -40.716476 -3.562857 4.942985
v 41.000000 -2.964965 5.288175
v 40.032001 -3.810512 4.799998
v 40.716476 -3.562857 4.942982
v -41.000000 -2.420884 4.579118
v -40.032001 -3.111270 3.888732
v -40.716476 -2.909060 4.090941
v 41.000000 -2.420884 4.579114
v 40.032001 -3.111270 3.888728
v 40.716476 -2.909060 4.090938
v -41.000000 -1.711824 4.035037
v -40.032001 -2.200000 3.189490
v -40.716476 -2.057017 3.437145
v 41.000000 -1.711824 4.035033
v 40.032001 -2.200000 3.189487
v 40.716476 -2.057017 3.437141
v -41.000000 -0.886105 3.693013
v -40.032001 -1.138804 2.749928
v -40.716476 -1.064790 3.026151
v 41.000000 -0.886105 3.693009
v 40.032001 -1.138804 2.749925
v 40.716476 -1.064790 3.026148
v -41.000000 0.000000 3.576355
v -40.032001 0.000000 2.600002
v -40.716476 0.000000 2.885969
v 41.000000 0.000000 3.576351
v 40.032001 0.000000 2.599998
v 40.716476 0.000000 2.885965
v -41.000000 0.886105 3.693013
v -40.032001 1.138804 2.749928
v -40.716476 1.064790 3.026151
v 41.000000 0.886105 3.693009
v 40.032001 1.138804 2.749925
v 40.716476 1.064790 3.026148
v -41.000000 1.711824 4.035037
v -40.032001 2.200000 3.189490
v -40.716476 2.057017 3.437145
v 41.000000 1.711824 4.035033
v 40.032001 2.200000 3.189487
v 40.716476 2.057017 3.437141
v -41.000000 2.420884 4.579118
v -40.032001 3.111270 3.888732
v -40.716476 2.909060 4.090941
v 41.000000 2.420884 4.579114
v 40.032001 3.111270 3.888728
v 40.716476 2.909060 4.090938
v -41.000000 2.964965 5.288178
v -40.032001 3.810512 4.800002
v -40.716476 3.562857 4.942985
v 41.000000 2.964965 5.288175
v 40.032001 3.810512 4.799998
v 40.716476 3.562857 4.942982
v -41.000000 3.306989 6.113896
v -40.032001 4.250073 5.861198
v -40.716476 3.973850 5.935212
v 41.000000 3.306989 6.113893
v 40.032001 4.250073 5.861195
v 40.716476 3.973850 5.935208
v -41.000000 3.423647 7.000002
v -40.032001 4.400000 7.000002
v -40.716476 4.114033 7.000002
v 41.000000 3.423647 6.999998
v 40.032001 4.400000 6.999998
v 40.716476 4.114033 6.999998
v -41.000000 3.306989 7.886107
v -40.032001 4.250073 8.138805
v -40.716476 3.973850 8.064792
v 41.000000 3.306989 7.886104
v 40.032001 4.250073 8.138802
v 40.716476 3.973850 8.064789
v -41.000000 2.964965 8.711825
v -40.032001 3.810512 9.200002
v -40.716476 3.562857 9.057018
v 41.000000 2.964965 8.711823
v 40.032001 3.810512 9.199999
v 40.716476 3.562857 9.057014
v -41.000000 2.420884 9.420886
v -40.032001 3.111270 10.111272
v -40.716476 2.909060 9.909062
v 41.000000 2.420884 9.420882
v 40.032001 3.111270 10.111268
v 40.716476 2.909060 9.909059
v -41.000000 1.711824 9.964968
v -40.032001 2.200000 10.810513
v -40.716476 2.057017 10.562859
v 41.000000 1.711824 9.964964
v 40.032001 2.200000 10.810511
v 40.716476 2.057017 10.562856
v -41.000000 0.886105 10.306991
v -40.032001 1.138804 11.250075
v -40.716476 1.064790 10.973852
v 41.000000 0.886105 10.306987
v 40.032001 1.138804 11.250072
v 40.716476 1.064790 10.973848
v -41.000000 0.000000 10.423649
v -40.032001 0.000000 11.400002
v -40.716476 0.000000 11.114035
v 41.000000 0.000000 10.423645
v 40.032001 0.000000 11.399998
v 40.716476 0.000000 11.114031
v -41.000000 -0.886105 10.306991
v -40.032001 -1.138804 11.250075
v -40.716476 -1.064790 10.973852
v 41.000000 -0.886105 10.306987
v 40.032001 -1.138804 11.250072
v 40.716476 -1.064790 10.973848
v -41.000000 -1.711824 9.964968
v -40.032001 -2.200000 10.810513
v -40.716476 -2.057017 10.562859
v 41.000000 -1.711824 9.964964
v 40.032001 -2.200000 10.810511
v 40.716476 -2.057017 10.562856
v -41.000000 -2.420884 9.420886
v -40.032001 -3.111270 10.111272
v -40.716476 -2.909060 9.909062
v 41.000000 -2.420884 9.420882
v 40.032001 -3.111270 10.111268
v 40.716476 -2.909060 9.909059
v -41.000000 -2.964965 8.711825
v -40.032001 -3.810512 9.200002
v -40.716476 -3.562857 9.057018
v 41.000000 -2.964965 8.711823
v 40.032001 -3.810512 9.199999
v 40.716476 -3.562857 9.057014
v -41.000000 -3.306989 7.886107
v -40.032001 -4.250073 8.138805
v -40.716476 -3.973850 8.064792
v 41.000000 -3.306989 7.886104
v 40.032001 -4.250073 8.138802
v 40.716476 -3.973850 8.064789
v -18.183613 -1.939225 6.683111
v -18.558514 -2.500000 7.085540
v -18.293417 -2.335753 6.800980
v -31.816387 -1.939225 21.316889
v -31.441486 -2.500000 20.914459
v -31.706583 -2.335753 21.199020
v -17.640619 -1.791610 7.188962
v -17.858500 -2.309699 7.737670
v -17.639395 -2.157954 7.410265
v -31.273396 -1.791610 21.822739
v -30.741474 -2.309699 21.566589
v -31.052559 -2.157954 21.808306
v -17.180292 -1.371239 7.617801
v -17.265057 -1.767767 8.290519
v -17.084940 -1.651627 7.926793
v -30.813068 -1.371239 22.251579
v -30.148031 -1.767767 22.119438
v -30.498106 -1.651627 22.324833
v -16.872711 -0.742109 7.904342
v -16.868532 -0.956709 8.659921
v -16.714466 -0.893854 8.271925
v -30.505487 -0.742109 22.538120
v -29.751507 -0.956709 22.488840
v -30.127632 -0.893854 22.669966
v -16.764702 -0.000000 8.004962
v -16.729290 0.000000 8.789638
v -16.584373 -0.000000 8.393120
v -30.397480 0.000000 22.638741
v -29.612265 0.000000 22.618557
v -29.997538 0.000000 22.791161
v -16.872711 0.742109 7.904342
v -16.868532 0.956709 8.659921
v -16.714466 0.893854 8.271925
v -30.505487 0.742109 22.538120
v -29.751507 0.956709 22.488840
v -30.127632 0.893854 22.669966
v -17.180292 1.371239 7.617801
v -17.265057 1.767767 8.290519
v -17.084940 1.651627 7.926793
v -30.813068 1.371239 22.251579
v -30.148031 1.767767 22.119438
v -30.498106 1.651627 22.324833
v -17.640619 1.791610 7.188962
v -17.858500 2.309699 7.737670
v -17.639395 2.157954 7.410265
v -31.273396 1.791610 21.822739
v -30.741474 2.309699 21.566589
v -31.052559 2.157954 21.808306
v -18.183613 1.939225 6.683111
v -18.558514 2.500000 7.085540
v -18.293417 2.335753 6.800980
v -31.816387 1.939225 21.316889
v -31.441486 2.500000 20.914459
v -31.706583 2.335753 21.199020
v -18.726604 1.791610 6.177261
v -19.258526 2.309699 6.433411
v -18.947441 2.157954 6.191694
v -32.359383 1.791610 20.811039
v -32.141499 2.309699 20.262329
v -32.360603 2.157954 20.589735
v -19.186932 1.371239 5.748422
v -19.851969 1.767767 5.880562
v -19.501894 1.651627 5.675167
v -32.819710 1.371239 20.382200
v -32.734943 1.767767 19.709482
v -32.915058 1.651627 20.073208
v -19.494513 0.742109 5.461880
v -20.248493 0.956709 5.511160
v -19.872368 0.893854 5.330034
v -33.127289 0.742109 20.095659
v -33.131470 0.956709 19.340080
v -33.285534 0.893854 19.728077
v -19.602520 0.000000 5.361260
v -20.387735 0.000000 5.381443
v -20.002462 0.000000 5.208839
v -33.235298 -0.000000 19.995039
v -33.270710 0.000000 19.210363
v -33.415627 -0.000000 19.606880
v -19.494513 -0.742109 5.461880
v -20.248493 -0.956709 5.511160
v -19.872368 -0.893854 5.330034
v -33.127289 -0.742109 20.095659
v -33.131470 -0.956709 19.340080
v -33.285534 -0.893854 19.728077
v -19.186932 -1.371239 5.748422
v -19.851969 -1.767767 5.880562
v -19.501894 -1.651627 5.675167
v -32.819710 -1.371239 20.382200
v -32.734943 -1.767767 19.709482
v -32.915058 -1.651627 20.073208
v -18.726604 -1.791610 6.177261
v -19.258526 -2.309699 6.433411
v -18.947441 -2.157954 6.191694
v -32.359383 -1.791610 20.811039
v -32.141499 -2.309699 20.262329
v -32.360603 -2.157954 20.589735
v -8.999999 0.000000 1.500000
v -8.469669 0.000000 1.719670
v -8.249999 0.000000 2.250000
v -8.469669 0.000000 2.780330
v -9.000000 0.000000 3.000000
v -9.530330 0.000000 2.780330
v -9.749999 0.000000 2.250000
v -9.530330 0.000000 1.719670
v -8.999999 -1.423504 1.687408
v -8.469669 -1.366650 1.899593
v -8.249999 -1.229390 2.411852
v -8.469669 -1.092131 2.924112
v -9.000000 -1.035276 3.136297
v -9.530330 -1.092131 2.924112
v -9.749999 -1.229390 2.411852
v -9.530330 -1.366650 1.899593
v -8.999999 -2.750001 2.236861
v -8.469669 -2.640166 2.427100
v -8.250000 -2.375000 2.886380
v -8.469669 -2.109835 3.345659
v -9.000000 -2.000000 3.535899
v -9.530330 -2.109835 3.345659
v -9.750000 -2.375000 2.886380
v -9.530330 -2.640166 2.427100
v -9.000000 -3.889088 3.110913
v -8.469669 -3.733757 3.266243
v -8.250000 -3.358757 3.641243
v -8.469669 -2.983757 4.016243
v -9.000000 -2.828427 4.171573
v -9.530330 -2.983757 4.016243
v -9.750000 -3.358757 3.641243
v -9.530330 -3.733757 3.266243
v -9.000000 -4.763140 4.250000
v -8.469669 -4.572900 4.359835
v -8.250000 -4.113621 4.625000
v -8.469669 -3.654341 4.890165
v -9.000000 -3.464102 5.000000
v -9.530330 -3.654341 4.890165
v -9.750000 -4.113621 4.625000
v -9.530330 -4.572900 4.359835
v -9.000000 -5.312592 5.576495
v -8.469669 -5.100407 5.633350
v -8.250000 -4.588148 5.770609
v -8.469669 -4.075888 5.907869
v -9.000000 -3.863703 5.964724
v -9.530330 -4.075888 5.907869
v -9.750000 -4.588148 5.770609
v -9.530330 -5.100407 5.633349
v -9.000000 -5.500000 7.000000
v -8.469670 -5.280330 7.000000
v -8.250000 -4.750000 7.000000
v -8.469670 -4.219670 7.000000
v -9.000000 -4.000000 7.000000
v -9.530330 -4.219670 7.000000
v -9.750000 -4.750000 7.000000
v -9.530330 -5.280330 7.000000
v -9.000000 -5.312593 8.423504
v -8.469670 -5.100408 8.366650
v -8.250000 -4.588148 8.229390
v -8.469670 -4.075888 8.092131
v -9.000000 -3.863703 8.035275
v -9.530331 -4.075888 8.092131
v -9.750000 -4.588148 8.229390
v -9.530331 -5.100408 8.366650
v -9.000000 -4.763140 9.749999
v -8.469670 -4.572901 9.640164
v -8.250000 -4.113621 9.374999
v -8.469670 -3.654342 9.109835
v -9.000000 -3.464102 8.999999
v -9.530331 -3.654342 9.109835
v -9.750000 -4.113621 9.374999
v -9.530331 -4.572901 9.640164
v -9.000000 -3.889086 10.889088
v -8.469670 -3.733756 10.733758
v -8.250000 -3.358756 10.358758
v -8.469670 -2.983756 9.983758
v -9.000000 -2.828426 9.828428
v -9.530331 -2.983756 9.983758
v -9.750000 -3.358756 10.358758
v -9.530331 -3.733756 10.733758
v -9.000001 -2.750001 11.763139
v -8.469670 -2.640166 11.572899
v -8.250000 -2.375001 11.113620
v -8.469670 -2.109836 10.654341
v -9.000000 -2.000001 10.464101
v -9.530331 -2.109836 10.654341
v -9.750000 -2.375001 11.113620
v -9.530331 -2.640166 11.572899
v -9.000001 -1.423504 12.312593
v -8.469670 -1.366649 12.100408
v -8.250001 -1.229390 11.588148
v -8.469670 -1.092130 11.075888
v -9.000000 -1.035276 10.863704
v -9.530331 -1.092130 11.075888
v -9.750001 -1.229390 11.588148
v -9.530331 -1.366649 12.100408
v -9.000001 -0.000000 12.500000
v -8.469670 -0.000000 12.280331
v -8.250001 -0.000000 11.750000
v -8.469670 -0.000000 11.219669
v -9.000000 -0.000000 11.000000
v -9.530331 -0.000000 11.219669
v -9.750001 -0.000000 11.750000
v -9.530331 -0.000000 12.280331
v -9.000001 1.423504 12.312593
v -8.469670 1.366649 12.100408
v -8.250001 1.229390 11.588148
v -8.469670 1.092130 11.075888
v -9.000000 1.035276 10.863704
v -9.530331 1.092130 11.075888
v -9.750001 1.229390 11.588148
v -9.530331 1.366649 12.100408
v -9.000001 2.749999 11.763140
v -8.469670 2.640164 11.572901
v -8.250000 2.374999 11.113621
v -8.469670 2.109834 10.654342
v -9.000000 1.999999 10.464102
v -9.530331 2.109834 10.654342
v -9.750000 2.374999 11.113621
v -9.530331 2.640164 11.572901
v -9.000000 3.889086 10.889088
v -8.469670 3.733756 10.733758
v -8.250000 3.358756 10.358758
v -8.469670 2.983756 9.983758
v -9.000000 2.828426 9.828428
v -9.530331 2.983756 9.983758
v -9.750000 3.358756 10.358758
v -9.530331 3.733756 10.733758
v -9.000000 4.763140 9.749999
v -8.469670 4.572901 9.640164
v -8.250000 4.113621 9.374999
v -8.469670 3.654342 9.109835
v -9.000000 3.464102 8.999999
v -9.530331 3.654342 9.109835
v -9.750000 4.113621 9.374999
v -9.530331 4.572901 9.640164
v -9.000000 5.312592 8.423507
v -8.469670 5.100407 8.366652
v -8.250000 4.588147 8.229392
v -8.469670 4.075888 8.092133
v -9.000000 3.863703 8.035277
v -9.530331 4.075888 8.092133
v -9.750000 4.588147 8.229392
v -9.530331 5.100407 8.366652
v -9.000000 5.500000 7.000000
v -8.469670 5.280330 7.000000
v -8.250000 4.750000 7.000000
v -8.469670 4.219670 7.000000
v -9.000000 4.000000 7.000000
v -9.530330 4.219670 7.000000
v -9.750000 4.750000 7.000000
v -9.530330 5.280330 7.000000
v -9.000000 5.312593 5.576498
v -8.469669 5.100408 5.633352
v -8.250000 4.588148 5.770612
v -8.469669 4.075889 5.907871
v -9.000000 3.863704 5.964725
v -9.530330 4.075889 5.907871
v -9.750000 4.588148 5.770612
v -9.530330 5.100408 5.633352
v -9.000000 4.763140 4.250000
v -8.469669 4.572900 4.359835
v -8.250000 4.113621 4.625000
v -8.469669 3.654341 4.890165
v -9.000000 3.464102 5.000000
v -9.530330 3.654341 4.890165
v -9.750000 4.113621 4.625000
v -9.530330 4.572900 4.359835
v -9.000000 3.889090 3.110915
v -8.469669 3.733759 3.266245
v -8.250000 3.358759 3.641245
v -8.469669 2.983759 4.016244
v -9.000000 2.828429 4.171575
v -9.530330 2.983759 4.016244
v -9.750000 3.358759 3.641245
v -9.530330 3.733759 3.266245
v -8.999999 2.750001 2.236861
v -8.469669 2.640166 2.427100
v -8.250000 2.375000 2.886380
v -8.469669 2.109835 3.345659
v -9.000000 2.000000 3.535899
v -9.530330 2.109835 3.345659
v -9.750000 2.375000 2.886380
v -9.530330 2.640166 2.427100
v -8.999999 1.423503 1.687407
v -8.469669 1.366649 1.899592
v -8.249999 1.229389 2.411852
v -8.469669 1.092130 2.924112
v -9.000000 1.035275 3.136297
v -9.530330 1.092130 2.924112
v -9.749999 1.229389 2.411852
v -9.530330 1.366649 1.899592
v 9.000001 0.000000 1.500000
v 9.530331 0.000000 1.719670
v 9.750001 0.000000 2.250000
v 9.530331 0.000000 2.780330
v 9.000000 0.000000 3.000000
v 8.469670 0.000000 2.780330
v 8.250001 0.000000 2.250000
v 8.469670 0.000000 1.719670
v 9.000001 -1.423504 1.687408
v 9.530331 -1.366650 1.899593
v 9.750001 -1.229390 2.411852
v 9.530331 -1.092131 2.924112
v 9.000000 -1.035276 3.136297
v 8.469670 -1.092131 2.924112
v 8.250001 -1.229390 2.411852
v 8.469670 -1.366650 1.899593
v 9.000001 -2.750001 2.236861
v 9.530331 -2.640166 2.427100
v 9.750000 -2.375000 2.886380
v 9.530331 -2.109835 3.345659
v 9.000000 -2.000000 3.535899
v 8.469670 -2.109835 3.345659
v 8.250000 -2.375000 2.886380
v 8.469670 -2.640166 2.427100
v 9.000000 -3.889088 3.110913
v 9.530331 -3.733757 3.266243
v 9.750000 -3.358757 3.641243
v 9.530331 -2.983757 4.016243
v 9.000000 -2.828427 4.171573
v 8.469670 -2.983757 4.016243
v 8.250000 -3.358757 3.641243
v 8.469670 -3.733757 3.266243
v 9.000000 -4.763140 4.250000
v 9.530331 -4.572900 4.359835
v 9.750000 -4.113621 4.625000
v 9.530331 -3.654341 4.890165
v 9.000000 -3.464102 5.000000
v 8.469670 -3.654341 4.890165
v 8.250000 -4.113621 4.625000
v 8.469670 -4.572900 4.359835
v 9.000000 -5.312592 5.576495
v 9.530331 -5.100407 5.633350
v 9.750000 -4.588148 5.770609
v 9.530331 -4.075888 5.907869
v 9.000000 -3.863703 5.964724
v 8.469670 -4.075888 5.907869
v 8.250000 -4.588148 5.770609
v 8.469670 -5.100407 5.633349
v 9.000000 -5.500000 7.000000
v 9.530330 -5.280330 7.000000
v 9.750000 -4.750000 7.000000
v 9.530330 -4.219670 7.000000
v 9.000000 -4.000000 7.000000
v 8.469670 -4.219670 7.000000
v 8.250000 -4.750000 7.000000
v 8.469670 -5.280330 7.000000
v 9.000000 -5.312593 8.423504
v 9.530330 -5.100408 8.366650
v 9.750000 -4.588148 8.229390
v 9.530330 -4.075888 8.092131
v 9.000000 -3.863703 8.035275
v 8.469669 -4.075888 8.092131
v 8.250000 -4.588148 8.229390
v 8.469669 -5.100408 8.366650
v 9.000000 -4.763140 9.749999
v 9.530330 -4.572901 9.640164
v 9.750000 -4.113621 9.374999
v 9.530330 -3.654342 9.109835
v 9.000000 -3.464102 8.999999
v 8.469669 -3.654342 9.109835
v 8.250000 -4.113621 9.374999
v 8.469669 -4.572901 9.640164
v 9.000000 -3.889086 10.889088
v 9.530330 -3.733756 10.733758
v 9.750000 -3.358756 10.358758
v 9.530330 -2.983756 9.983758
v 9.000000 -2.828426 9.828428
v 8.469669 -2.983756 9.983758
v 8.250000 -3.358756 10.358758
v 8.469669 -3.733756 10.733758
v 8.999999 -2.750001 11.763139
v 9.530330 -2.640166 11.572899
v 9.750000 -2.375001 11.113620
v 9.530330 -2.109836 10.654341
v 9.000000 -2.000001 10.464101
v 8.469669 -2.109836 10.654341
v 8.250000 -2.375001 11.113620
v 8.469669 -2.640166 11.572899
v 8.999999 -1.423504 12.312593
v 9.530330 -1.366649 12.100408
v 9.749999 -1.229390 11.588148
v 9.530330 -1.092130 11.075888
v 9.000000 -1.035276 10.863704
v 8.469669 -1.092130 11.075888
v 8.249999 -1.229390 11.588148
v 8.469669 -1.366649 12.100408
v 8.999999 -0.000000 12.500000
v 9.530330 -0.000000 12.280331
v 9.749999 -0.000000 11.750000
v 9.530330 -0.000000 11.219669
v 9.000000 -0.000000 11.000000
v 8.469669 -0.000000 11.219669
v 8.249999 -0.000000 11.750000
v 8.469669 -0.000000 12.280331
v 8.999999 1.423504 12.312593
v 9.530330 1.366649 12.100408
v 9.749999 1.229390 11.588148
v 9.530330 1.092130 11.075888
v 9.000000 1.035276 10.863704
v 8.469669 1.092130 11.075888
v 8.249999 1.229390 11.588148
v 8.469669 1.366649 12.100408
v 8.999999 2.749999 11.763140
v 9.530330 2.640164 11.572901
v 9.750000 2.374999 11.113621
v 9.530330 2.109834 10.654342
v 9.000000 1.999999 10.464102
v 8.469669 2.109834 10.654342
v 8.250000 2.374999 11.113621
v 8.469669 2.640164 11.572901
v 9.000000 3.889086 10.889088
v 9.530330 3.733756 10.733758
v 9.750000 3.358756 10.358758
v 9.530330 2.983756 9.983758
v 9.000000 2.828426 9.828428
v 8.469669 2.983756 9.983758
v 8.250000 3.358756 10.358758
v 8.469669 3.733756 10.733758
v 9.000000 4.763140 9.749999
v 9.530330 4.572901 9.640164
v 9.750000 4.113621 9.374999
v 9.530330 3.654342 9.109835
v 9.000000 3.464102 8.999999
v 8.469669 3.654342 9.109835
v 8.250000 4.113621 9.374999
v 8.469669 4.572901 9.640164
v 9.000000 5.312592 8.423507
v 9.530330 5.100407 8.366652
v 9.750000 4.588147 8.229392
v 9.530330 4.075888 8.092133
v 9.000000 3.863703 8.035277
v 8.469669 4.075888 8.092133
v 8.250000 4.588147 8.229392
v 8.469669 5.100407 8.366652
v 9.000000 5.500000 7.000000
v 9.530330 5.280330 7.000000
v 9.750000 4.750000 7.000000
v 9.530330 4.219670 7.000000
v 9.000000 4.000000 7.000000
v 8.469670 4.219670 7.000000
v 8.250000 4.750000 7.000000
v 8.469670 5.280330 7.000000
v 9.000000 5.312593 5.576498
v 9.530331 5.100408 5.633352
v 9.750000 4.588148 5.770612
v 9.530331 4.075889 5.907871
v 9.000000 3.863704 5.964725
v 8.469670 4.075889 5.907871
v 8.250000 4.588148 5.770612
v 8.469670 5.100408 5.633352
v 9.000000 4.763140 4.250000
v 9.530331 4.572900 4.359835
v 9.750000 4.113621 4.625000
v 9.530331 3.654341 4.890165
v 9.000000 3.464102 5.000000
v 8.469670 3.654341 4.890165
v 8.250000 4.113621 4.625000
v 8.469670 4.572900 4.359835
v 9.000000 3.889090 3.110915
v 9.530331 3.733759 3.266245
v 9.750000 3.358759 3.641245
v 9.530331 2.983759 4.016244
v 9.000000 2.828429 4.171575
v 8.469670 2.983759 4.016244
v 8.250000 3.358759 3.641245
v 8.469670 3.733759 3.266245
v 9.000001 2.750001 2.236861
v 9.530331 2.640166 2.427100
v 9.750000 2.375000 2.886380
v 9.530331 2.109835 3.345659
v 9.000000 2.000000 3.535899
v 8.469670 2.109835 3.345659
v 8.250000 2.375000 2.886380
v 8.469670 2.640166 2.427100
v 9.000001 1.423503 1.687407
v 9.530331 1.366649 1.899592
v 9.750001 1.229389 2.411852
v 9.530331 1.092130 2.924112
v 9.000000 1.035275 3.136297
v 8.469670 1.092130 2.924112
v 8.250001 1.229389 2.411852
v 8.469670 1.366649 1.899592
vn -0.9779 -0.2090 -0.0000
vn -0.1935 -0.9811 -0.0000
vn -0.6937 -0.7203 -0.0000
vn 0.9779 -0.2090 -0.0000
vn 0.1935 -0.9811 -0.0000
vn 0.6937 -0.7203 -0.0000
vn -0.9779 -0.2019 -0.0541
vn -0.1935 -0.9477 -0.2539
vn -0.6937 -0.6957 -0.1864
vn 0.9779 -0.2019 -0.0541
vn 0.1935 -0.9477 -0.2539
vn 0.6937 -0.6957 -0.1864
vn -0.9779 -0.1810 -0.1045
vn -0.1935 -0.8497 -0.4905
vn -0.6937 -0.6238 -0.3601
vn 0.9779 -0.1810 -0.1045
vn 0.1935 -0.8497 -0.4905
vn 0.6937 -0.6238 -0.3601
vn -0.9779 -0.1478 -0.1478
vn -0.1935 -0.6937 -0.6937
vn -0.6937 -0.5093 -0.5093
vn 0.9779 -0.1478 -0.1478
vn 0.1935 -0.6937 -0.6937
vn 0.6937 -0.5093 -0.5093
vn -0.9779 -0.1045 -0.1810
vn -0.1935 -0.4905 -0.8497
vn -0.6937 -0.3601 -0.6238
vn 0.9779 -0.1045 -0.1810
vn 0.1935 -0.4905 -0.8497
vn 0.6937 -0.3601 -0.6238
vn -0.9779 -0.0541 -0.2019
vn -0.1935 -0.2539 -0.9477
vn -0.6937 -0.1864 -0.6957
vn 0.9779 -0.0541 -0.2019
vn 0.1935 -0.2539 -0.9477
vn 0.6937 -0.1864 -0.6957
vn -0.9779 -0.0000 -0.2090
vn -0.1935 -0.0000 -0.9811
vn -0.6937 -0.0000 -0.7203
vn 0.9779 -0.0000 -0.2090
vn 0.1935 -0.0000 -0.9811
vn 0.6937 -0.0000 -0.7203
vn -0.9779 0.0541 -0.2019
vn -0.1935 0.2539 -0.9477
vn -0.6937 0.1864 -0.6957
vn 0.9779 0.0541 -0.2019
vn 0.1935 0.2539 -0.9477
vn 0.6937 0.1864 -0.6957
vn -0.9779 0.1045 -0.1810
vn -0.1935 0.4905 -0.8497
vn -0.6937 0.3601 -0.6238
vn 0.9779 0.1045 -0.1810
vn 0.1935 0.4905 -0.8497
vn 0.6937 0.3601 -0.6238
vn -0.9779 0.1478 -0.1478
vn -0.1935 0.6937 -0.6937
vn -0.6937 0.5093 -0.5093
vn 0.9779 0.1478 -0.1478
vn 0.1935 0.6937 -0.6937
vn 0.6937 0.5093 -0.5093
vn -0.9779 0.1810 -0.1045
vn -0.1935 0.8497 -0.4905
vn -0.6937 0.6238 -0.3601
vn 0.9779 0.1810 -0.1045
vn 0.1935 0.8497 -0.4905
vn 0.6937 0.6238 -0.3601
vn -0.9779 0.2019 -0.0541
vn -0.1935 0.9477 -0.2539
vn -0.6937 0.6957 -0.1864
vn 0.9779 0.2019 -0.0541
vn 0.1935 0.9477 -0.2539
vn 0.6937 0.6957 -0.1864
vn -0.9779 0.2090 -0.0000
vn -0.1935 0.9811 -0.0000
vn -0.6937 0.7203 -0.0000
vn 0.9779 0.2090 -0.0000
vn 0.1935 0.9811 -0.0000
vn 0.6937 0.7203 -0.0000
vn -0.9779 0.2019 0.0541
vn -0.1935 0.9477 0.2539
vn -0.6937 0.6957 0.1864
vn 0.9779 0.2019 0.0541
vn 0.1935 0.9477 0.2539
vn 0.6937 0.6957 0.1864
vn -0.9779 0.1810 0.1045
vn -0.1935 0.8497 0.4905
vn -0.6937 0.6238 0.3601
vn 0.9779 0.1810 0.1045
vn 0.1935 0.8497 0.4905
vn 0.6937 0.6238 0.3601
vn -0.9779 0.1478 0.1478
vn -0.1935 0.6937 0.6937
vn -0.6937 0.5093 0.5093
vn 0.9779 0.1478 0.1478
vn 0.1935 0.6937 0.6937
vn 0.6937 0.5093 0.5093
vn -0.9779 0.1045 0.1810
vn -0.1935 0.4905 0.8497
vn -0.6937 0.3601 0.6238
vn 0.9779 0.1045 0.1810
vn 0.1935 0.4905 0.8497
vn 0.6937 0.3601 0.6238
vn -0.9779 0.0541 0.2019
vn -0.1935 0.2539 0.9477
vn -0.6937 0.1864 0.6957
vn 0.9779 0.0541 0.2019
vn 0.1935 0.2539 0.9477
vn 0.6937 0.1864 0.6957
vn -0.9779 -0.0000 0.2090
vn -0.1935 -0.0000 0.9811
vn -0.6937 -0.0000 0.7203
vn 0.9779 -0.0000 0.2090
vn 0.1935 -0.0000 0.9811
vn 0.6937 -0.0000 0.7203
vn -0.9779 -0.0541 0.2019
vn -0.1935 -0.2539 0.9477
vn -0.6937 -0.1864 0.6957
vn 0.9779 -0.0541 0.2019
vn 0.1935 -0.2539 0.9477
vn 0.6937 -0.1864 0.6957
vn -0.9779 -0.1045 0.1810
vn -0.1935 -0.4905 0.8497
vn -0.6937 -0.3601 0.6238
vn 0.9779 -0.1045 0.1810
vn 0.1935 -0.4905 0.8497
vn 0.6937 -0.3601 0.6238
vn -0.9779 -0.1478 0.1478
vn -0.1935 -0.6937 0.6937
vn -0.6937 -0.5093 0.5093
vn 0.9779 -0.1478 0.1478
vn 0.1935 -0.6937 0.6937
vn 0.6937 -0.5093 0.5093
vn -0.9779 -0.1810 0.1045
vn -0.1935 -0.8497 0.4905
vn -0.6937 -0.6238 0.3601
vn 0.9779 -0.1810 0.1045
vn 0.1935 -0.8497 0.4905
vn 0.6937 -0.6238 0.3601
vn -0.9779 -0.2019 0.0541
vn -0.1935 -0.9477 0.2539
vn -0.6937 -0.6957 0.1864
vn 0.9779 -0.2019 0.0541
vn 0.1935 -0.9477 0.2539
vn 0.6937 -0.6957 0.1864
vn 0.6658 -0.2146 -0.7146
vn 0.1321 -0.9810 -0.1418
vn 0.4696 -0.7249 -0.5040
vn -0.6658 -0.2146 0.7146
vn -0.1321 -0.9810 0.1418
vn -0.4696 -0.7249 0.5040
vn 0.7258 -0.1983 -0.6587
vn 0.4068 -0.9064 0.1141
vn 0.6725 -0.6697 -0.3150
vn -0.6057 -0.1983 0.7706
vn 0.1426 -0.9064 0.3977
vn -0.2666 -0.6697 0.6931
vn 0.7768 -0.1518 -0.6112
vn 0.6397 -0.6937 0.3310
vn 0.8446 -0.5126 -0.1547
vn -0.5547 -0.1518 0.8181
vn 0.3754 -0.6937 0.6147
vn -0.0945 -0.5126 0.8534
vn 0.8108 -0.0821 -0.5795
vn 0.7953 -0.3754 0.4760
vn 0.9596 -0.2774 -0.0476
vn -0.5207 -0.0821 0.8498
vn 0.5310 -0.3754 0.7596
vn 0.0204 -0.2774 0.9605
vn 0.8228 -0.0000 -0.5684
vn 0.8499 -0.0000 0.5269
vn 1.0000 -0.0000 -0.0099
vn -0.5087 -0.0000 0.8609
vn 0.5857 -0.0000 0.8105
vn 0.0608 -0.0000 0.9981
vn 0.8108 0.0821 -0.5795
vn 0.7953 0.3754 0.4760
vn 0.9596 0.2774 -0.0476
vn -0.5207 0.0821 0.8498
vn 0.5310 0.3754 0.7596
vn 0.0204 0.2774 0.9605
vn 0.7768 0.1518 -0.6112
vn 0.6397 0.6937 0.3310
vn 0.8446 0.5126 -0.1547
vn -0.5547 0.1518 0.8181
vn 0.3754 0.6937 0.6147
vn -0.0945 0.5126 0.8534
vn 0.7258 0.1983 -0.6587
vn 0.4068 0.9064 0.1141
vn 0.6725 0.6697 -0.3150
vn -0.6057 0.1983 0.7706
vn 0.1426 0.9064 0.3977
vn -0.2666 0.6697 0.6931
vn 0.6658 0.2146 -0.7146
vn 0.1321 0.9810 -0.1418
vn 0.4696 0.7249 -0.5040
vn -0.6658 0.2146 0.7146
vn -0.1321 0.9810 0.1418
vn -0.4696 0.7249 0.5040
vn 0.6057 0.1983 -0.7706
vn -0.1426 0.9064 -0.3977
vn 0.2666 0.6697 -0.6931
vn -0.7258 0.1983 0.6587
vn -0.4068 0.9064 -0.1141
vn -0.6725 0.6697 0.3150
vn 0.5547 0.1518 -0.8181
vn -0.3754 0.6937 -0.6147
vn 0.0945 0.5126 -0.8534
vn -0.7768 0.1518 0.6112
vn -0.6397 0.6937 -0.3310
vn -0.8446 0.5126 0.1547
vn 0.5207 0.0821 -0.8498
vn -0.5310 0.3754 -0.7596
vn -0.0204 0.2774 -0.9605
vn -0.8108 0.0821 0.5795
vn -0.7953 0.3754 -0.4760
vn -0.9596 0.2774 0.0476
vn 0.5087 -0.0000 -0.8609
vn -0.5857 -0.0000 -0.8105
vn -0.0608 -0.0000 -0.9981
vn -0.8228 -0.0000 0.5684
vn -0.8499 -0.0000 -0.5269
vn -1.0000 -0.0000 0.0099
vn 0.5207 -0.0821 -0.8498
vn -0.5310 -0.3754 -0.7596
vn -0.0204 -0.2774 -0.9605
vn -0.8108 -0.0821 0.5795
vn -0.7953 -0.3754 -0.4760
vn -0.9596 -0.2774 0.0476
vn 0.5547 -0.1518 -0.8181
vn -0.3754 -0.6937 -0.6147
vn 0.0945 -0.5126 -0.8534
vn -0.7768 -0.1518 0.6112
vn -0.6397 -0.6937 -0.3310
vn -0.8446 -0.5126 0.1547
vn 0.6057 -0.1983 -0.7706
vn -0.1426 -0.9064 -0.3977
vn 0.2666 -0.6697 -0.6931
vn -0.7258 -0.1983 0.6587
vn -0.4068 -0.9064 -0.1141
vn -0.6725 -0.6697 0.3150
vn -0.0000 -0.0000 -1.0000
vn 0.6915 -0.0000 -0.7223
vn 0.9995 -0.0000 -0.0318
vn 0.7234 -0.0000 0.6905
vn -0.0000 -0.0000 1.0000
vn -0.7234 -0.0000 0.6905
vn -0.9995 -0.0000 -0.0319
vn -0.6915 -0.0000 -0.7223
vn -0.0000 -0.2588 -0.9659
vn 0.6915 -0.1870 -0.6977
vn 0.9995 -0.0082 -0.0308
vn 0.7234 0.1787 0.6669
vn -0.0000 0.2588 0.9659
vn -0.7234 0.1787 0.6669
vn -0.9995 -0.0082 -0.0308
vn -0.6915 -0.1870 -0.6977
vn -0.0000 -0.5000 -0.8660
vn 0.6915 -0.3612 -0.6256
vn 0.9995 -0.0159 -0.0276
vn 0.7234 0.3452 0.5980
vn -0.0000 0.5000 0.8660
vn -0.7234 0.3452 0.5980
vn -0.9995 -0.0159 -0.0276
vn -0.6915 -0.3612 -0.6256
vn -0.0000 -0.7071 -0.7071
vn 0.6915 -0.5108 -0.5108
vn 0.9995 -0.0225 -0.0225
vn 0.7234 0.4882 0.4882
vn -0.0000 0.7071 0.7071
vn -0.7234 0.4882 0.4882
vn -0.9995 -0.0225 -0.0225
vn -0.6915 -0.5108 -0.5108
vn -0.0000 -0.8660 -0.5000
vn 0.6915 -0.6256 -0.3612
vn 0.9995 -0.0276 -0.0159
vn 0.7234 0.5980 0.3452
vn -0.0000 0.8660 0.5000
vn -0.7234 0.5980 0.3452
vn -0.9995 -0.0276 -0.0159
vn -0.6915 -0.6256 -0.3612
vn -0.0000 -0.9659 -0.2588
vn 0.6915 -0.6977 -0.1870
vn 0.9995 -0.0308 -0.0082
vn 0.7234 0.6669 0.1787
vn -0.0000 0.9659 0.2588
vn -0.7234 0.6669 0.1787
vn -0.9995 -0.0308 -0.0082
vn -0.6915 -0.6977 -0.1870
vn -0.0000 -1.0000 -0.0000
vn 0.6915 -0.7223 -0.0000
vn 0.9995 -0.0319 -0.0000
vn 0.7234 0.6905 -0.0000
vn -0.0000 1.0000 -0.0000
vn -0.7234 0.6905 -0.0000
vn -0.9995 -0.0319 -0.0000
vn -0.6915 -0.7223 -0.0000
vn -0.0000 -0.9659 0.2588
vn 0.6915 -0.6977 0.1870
vn 0.9995 -0.0308 0.0082
vn 0.7234 0.6669 -0.1787
vn -0.0000 0.9659 -0.2588
vn -0.7234 0.6669 -0.1787
vn -0.9995 -0.0308 0.0082
vn -0.6915 -0.6977 0.1870
vn -0.0000 -0.8660 0.5000
vn 0.6915 -0.6256 0.3612
vn 0.9995 -0.0276 0.0159
vn 0.7234 0.5980 -0.3452
vn -0.0000 0.8660 -0.5000
vn -0.7234 0.5980 -0.3452
vn -0.9995 -0.0276 0.0159
vn -0.6915 -0.6256 0.3612
vn -0.0000 -0.7071 0.7071
vn 0.6915 -0.5108 0.5108
vn 0.9995 -0.0225 0.0225
vn 0.7234 0.4882 -0.4882
vn -0.0000 0.7071 -0.7071
vn -0.7234 0.4882 -0.4882
vn -0.9995 -0.0225 0.0225
vn -0.6915 -0.5108 0.5108
vn -0.0000 -0.5000 0.8660
vn 0.6915 -0.3612 0.6256
vn 0.9995 -0.0159 0.0276
vn 0.7234 0.3452 -0.5980
vn -0.0000 0.5000 -0.8660
vn -0.7234 0.3452 -0.5980
vn -0.9995 -0.0159 0.0276
vn -0.6915 -0.3612 0.6256
vn -0.0000 -0.2588 0.9659
vn 0.6915 -0.1870 0.6977
vn 0.9995 -0.0082 0.0308
vn 0.7234 0.1787 -0.6669
vn -0.0000 0.2588 -0.9659
vn -0.7234 0.1787 -0.6669
vn -0.9995 -0.0082 0.0308
vn -0.6915 -0.1870 0.6977
vn 0.6915 -0.0000 0.7223
vn 0.9995 -0.0000 0.0318
vn 0.7234 -0.0000 -0.6905
vn -0.7234 -0.0000 -0.6905
vn -0.9995 -0.0000 0.0319
vn -0.6915 -0.0000 0.7223
vn 0.6915 0.1870 0.6977
vn 0.9995 0.0082 0.0308
vn 0.7234 -0.1787 -0.6669
vn -0.7234 -0.1787 -0.6669
vn -0.9995 0.0082 0.0308
vn -0.6915 0.1870 0.6977
vn 0.6915 0.3612 0.6256
vn 0.9995 0.0159 0.0276
vn 0.7234 -0.3452 -0.5980
vn -0.7234 -0.3452 -0.5980
vn -0.9995 0.0159 0.0276
vn -0.6915 0.3612 0.6256
vn 0.6915 0.5108 0.5108
vn 0.9995 0.0225 0.0225
vn 0.7234 -0.4882 -0.4882
vn -0.7234 -0.4882 -0.4882
vn -0.9995 0.0225 0.0225
vn -0.6915 0.5108 0.5108
vn 0.6915 0.6256 0.3612
vn 0.9995 0.0276 0.0159
vn 0.7234 -0.5980 -0.3452
vn -0.7234 -0.5980 -0.3452
vn -0.9995 0.0276 0.0159
vn -0.6915 0.6256 0.3612
vn 0.6915 0.6977 0.1870
vn 0.9995 0.0308 0.0082
vn 0.7234 -0.6669 -0.1787
vn -0.7234 -0.6669 -0.1787
vn -0.9995 0.0308 0.0082
vn -0.6915 0.6977 0.1870
vn 0.6915 0.7223 -0.0000
vn 0.9995 0.0319 -0.0000
vn 0.7234 -0.6905 -0.0000
vn -0.7234 -0.6905 -0.0000
vn -0.9995 0.0318 -0.0000
vn -0.6915 0.7223 -0.0000
vn 0.6915 0.6977 -0.1870
vn 0.9995 0.0308 -0.0082
vn 0.7234 -0.6669 0.1787
vn -0.7234 -0.6669 0.1787
vn -0.9995 0.0308 -0.0082
vn -0.6915 0.6977 -0.1870
vn 0.6915 0.6256 -0.3612
vn 0.9995 0.0276 -0.0159
vn 0.7234 -0.5980 0.3452
vn -0.7234 -0.5980 0.3452
vn -0.9995 0.0276 -0.0159
vn -0.6915 0.6256 -0.3612
vn 0.6915 0.5108 -0.5108
vn 0.9995 0.0225 -0.0225
vn 0.7234 -0.4882 0.4882
vn -0.7234 -0.4882 0.4882
vn -0.9995 0.0225 -0.0225
vn -0.6915 0.5108 -0.5108
vn 0.6915 0.3612 -0.6256
vn 0.9995 0.0159 -0.0276
vn 0.7234 -0.3452 0.5980
vn -0.7234 -0.3452 0.5980
vn -0.9995 0.0159 -0.0276
vn -0.6915 0.3612 -0.6256
vn 0.6915 0.1870 -0.6977
vn 0.9995 0.0082 -0.0308
vn 0.7234 -0.1787 0.6669
vn -0.7234 -0.1787 0.6669
vn -0.9995 0.0082 -0.0308
vn -0.6915 0.1870 -0.6977
vn -0.9995 -0.0000 -0.0318
vn 0.9995 -0.0000 0.0319
vn -0.9995 0.0319 -0.0000
vt 1.000000 0.505902
vt 0.958333 0.500000
vt 0.958333 0.505902
vt 0.750000 0.436744
vt 0.812048 0.481565
vt 0.750000 0.489734
vt 0.958333 0.994098
vt 0.998646 1.000000
vt 1.000000 0.994098
vt 0.312048 0.481566
vt 0.250000 0.436744
vt 0.250000 0.489734
vt 0.916667 0.500000
vt 0.916667 0.505902
vt 0.798333 0.430381
vt 0.869867 0.457616
vt 0.916667 0.994098
vt 0.958333 1.000000
vt 0.343372 0.411725
vt 0.369867 0.457616
vt 0.875000 0.500000
vt 0.875000 0.505902
vt 0.843372 0.411725
vt 0.919518 0.419518
vt 0.875000 1.000000
vt 0.875000 0.994098
vt 0.382048 0.382048
vt 0.419518 0.419518
vt 0.833333 0.500000
vt 0.833333 0.505902
vt 0.882048 0.382048
vt 0.957616 0.369867
vt 0.833333 1.000000
vt 0.833333 0.994098
vt 0.411725 0.343372
vt 0.457616 0.369867
vt 0.791667 0.505902
vt 0.911726 0.343372
vt 0.981566 0.312048
vt 0.791667 1.000000
vt 0.791667 0.994098
vt 0.430381 0.298333
vt 0.481565 0.312048
vt 0.750000 0.500000
vt 0.750000 0.505902
vt 0.936744 0.250000
vt 0.989734 0.250000
vt 0.750000 1.000000
vt 0.750000 0.994098
vt 0.436744 0.250000
vt 0.489734 0.250000
vt 0.708333 0.500000
vt 0.708333 0.505902
vt 0.981565 0.187952
vt 0.708333 1.000000
vt 0.708333 0.994098
vt 0.430381 0.201667
vt 0.481566 0.187952
vt 0.666667 0.500000
vt 0.666667 0.505902
vt 0.930381 0.201667
vt 0.957616 0.130133
vt 0.666667 0.994098
vt 0.411725 0.156628
vt 0.457616 0.130133
vt 0.625000 0.500000
vt 0.625000 0.505902
vt 0.911725 0.156628
vt 0.919518 0.080482
vt 0.625000 1.000000
vt 0.625000 0.994098
vt 0.382048 0.117952
vt 0.419518 0.080482
vt 0.583333 0.505902
vt 0.843372 0.088275
vt 0.869867 0.042384
vt 0.583333 0.994098
vt 0.343372 0.088275
vt 0.369867 0.042384
vt 0.583333 0.500000
vt 0.541666 0.505902
vt 0.798333 0.069619
vt 0.812048 0.018435
vt 0.541667 1.000000
vt 0.541666 0.994098
vt 0.312048 0.018435
vt 0.541666 0.500000
vt 0.500000 0.505902
vt 0.750000 0.063256
vt 0.750000 0.010266
vt 0.500000 1.000000
vt 0.500000 0.994098
vt 0.250000 0.063256
vt 0.250000 0.010266
vt 0.500000 0.500000
vt 0.458333 0.505902
vt 0.687952 0.018435
vt 0.458333 0.994098
vt 0.187952 0.018435
vt 0.416667 0.500000
vt 0.416666 0.505902
vt 0.656628 0.088275
vt 0.630133 0.042384
vt 0.416666 0.994098
vt 0.458333 1.000000
vt 0.130133 0.042384
vt 0.201667 0.069619
vt 0.375000 0.500000
vt 0.375000 0.505902
vt 0.580482 0.080482
vt 0.375000 1.000000
vt 0.375000 0.994098
vt 0.080482 0.080482
vt 0.156628 0.088275
vt 0.333333 0.505902
vt 0.588275 0.156628
vt 0.542384 0.130133
vt 0.333333 0.994098
vt 0.088275 0.156628
vt 0.042384 0.130133
vt 0.291667 0.500000
vt 0.291667 0.505902
vt 0.518435 0.187952
vt 0.291667 0.994098
vt 0.333333 1.000000
vt 0.069619 0.201667
vt 0.018435 0.187952
vt 0.250000 0.505902
vt 0.569619 0.201667
vt 0.510266 0.250000
vt 0.250000 0.994098
vt 0.291667 1.000000
vt 0.010266 0.250000
vt 0.208333 0.500000
vt 0.208333 0.505902
vt 0.569619 0.298333
vt 0.518434 0.312048
vt 0.208333 1.000000
vt 0.208333 0.994098
vt 0.069619 0.298333
vt 0.018435 0.312048
vt 0.166666 0.505902
vt 0.542384 0.369867
vt 0.166666 0.994098
vt 0.042384 0.369867
vt 0.125000 0.500000
vt 0.125000 0.505902
vt 0.588275 0.343372
vt 0.580482 0.419518
vt 0.125000 1.000000
vt 0.125000 0.994098
vt 0.080482 0.419518
vt 0.088275 0.343372
vt 0.083333 0.505902
vt 0.656628 0.411725
vt 0.630133 0.457616
vt 0.083333 0.994098
vt 0.156628 0.411725
vt 0.130133 0.457616
vt 0.083333 0.500000
vt 0.041666 0.505902
vt 0.701667 0.430381
vt 0.687952 0.481566
vt 0.041666 1.000000
vt 0.041666 0.994098
vt 0.201667 0.430381
vt 0.187952 0.481565
vt 0.001354 0.500000
vt -0.000000 0.505902
vt 0.001354 1.000000
vt -0.000000 0.994098
vt 0.882048 0.117952
vt 0.997947 0.500000
vt 0.937500 0.513750
vt 1.000000 0.513750
vt 0.750000 0.489400
vt 0.821242 0.421995
vt 0.841614 0.471177
vt 0.937500 0.986250
vt 0.997947 1.000000
vt 1.000000 0.986250
vt 0.341614 0.471177
vt 0.250000 0.436166
vt 0.250000 0.489400
vt 0.937500 0.500000
vt 0.875000 0.513750
vt 0.881639 0.381639
vt 0.919281 0.419281
vt 0.875000 1.000000
vt 0.875000 0.986250
vt 0.419281 0.419281
vt 0.321242 0.421995
vt 0.812500 0.513750
vt 0.921994 0.321243
vt 0.971177 0.341614
vt 0.812500 0.986250
vt 0.421995 0.321242
vt 0.471177 0.341614
vt 0.812500 0.500000
vt 0.750000 0.513750
vt 0.936166 0.250000
vt 0.989400 0.250000
vt 0.750000 1.000000
vt 0.750000 0.986250
vt 0.489400 0.250000
vt 0.750000 0.500000
vt 0.687500 0.513750
vt 0.971177 0.158386
vt 0.687500 1.000000
vt 0.687500 0.986250
vt 0.421995 0.178758
vt 0.471177 0.158386
vt 0.687500 0.500000
vt 0.625000 0.513750
vt 0.921995 0.178758
vt 0.919281 0.080719
vt 0.625000 1.000000
vt 0.625000 0.986250
vt 0.381639 0.118361
vt 0.419281 0.080719
vt 0.562500 0.500000
vt 0.562500 0.513750
vt 0.881639 0.118361
vt 0.841614 0.028823
vt 0.562500 1.000000
vt 0.562500 0.986250
vt 0.321243 0.078005
vt 0.341614 0.028823
vt 0.500000 0.513750
vt 0.821242 0.078005
vt 0.750000 0.010600
vt 0.500000 1.000000
vt 0.500000 0.986250
vt 0.250000 0.063834
vt 0.250000 0.010600
vt 0.500000 0.500000
vt 0.437500 0.513750
vt 0.750000 0.063834
vt 0.658386 0.028823
vt 0.437500 1.000000
vt 0.437500 0.986250
vt 0.158386 0.028823
vt 0.375000 0.500000
vt 0.375000 0.513750
vt 0.618361 0.118361
vt 0.580719 0.080719
vt 0.375000 1.000000
vt 0.375000 0.986250
vt 0.080719 0.080719
vt 0.178757 0.078005
vt 0.312500 0.513750
vt 0.528823 0.158386
vt 0.312500 1.000000
vt 0.312500 0.986250
vt 0.028823 0.158386
vt 0.118361 0.118361
vt 0.250000 0.500000
vt 0.250000 0.513750
vt 0.563835 0.250000
vt 0.510600 0.250000
vt 0.250000 1.000000
vt 0.250000 0.986250
vt 0.063834 0.250000
vt 0.010600 0.250000
vt 0.187500 0.513750
vt 0.528823 0.341614
vt 0.187500 0.986250
vt 0.028823 0.341614
vt 0.125000 0.500000
vt 0.125000 0.513750
vt 0.618361 0.381639
vt 0.580719 0.419281
vt 0.125000 0.986250
vt 0.187500 1.000000
vt 0.118361 0.381639
vt 0.080719 0.419281
vt 0.062500 0.513750
vt 0.658386 0.471177
vt 0.062500 0.986250
vt 0.125000 1.000000
vt 0.178758 0.421995
vt 0.158386 0.471177
vt 0.002053 0.500000
vt 0.000000 0.513750
vt 0.750000 0.436166
vt 0.000000 0.986250
vt 0.062500 1.000000
vt 0.678758 0.078005
vt 0.500000 0.625000
vt 0.541667 0.500000
vt 0.500000 0.750000
vt 0.541667 0.625000
vt 0.500000 0.875000
vt 0.541667 0.750000
vt 0.541667 1.000000
vt 0.541667 0.875000
vt 0.500000 0.125000
vt 0.541667 0.000000
vt 0.500000 0.000000
vt 0.500000 0.250000
vt 0.541667 0.125000
vt 0.500000 0.375000
vt 0.541667 0.250000
vt 0.541667 0.375000
vt 0.583333 0.500000
vt 0.583333 0.750000
vt 0.583333 0.625000
vt 0.583333 1.000000
vt 0.583333 0.875000
vt 0.583333 0.125000
vt 0.583333 0.000000
vt 0.583333 0.250000
vt 0.583333 0.375000
vt 0.625000 0.625000
vt 0.625000 0.500000
vt 0.625000 0.750000
vt 0.625000 0.875000
vt 0.625000 0.000000
vt 0.625000 0.250000
vt 0.625000 0.125000
vt 0.625000 0.375000
vt 0.666667 0.500000
vt 0.666667 0.750000
vt 0.666667 0.625000
vt 0.666667 1.000000
vt 0.666667 0.875000
vt 0.666667 0.000000
vt 0.666667 0.125000
vt 0.666667 0.250000
vt 0.666667 0.375000
vt 0.708333 0.500000
vt 0.708333 0.625000
vt 0.708333 0.750000
vt 0.708333 1.000000
vt 0.708333 0.875000
vt 0.708333 0.000000
vt 0.708333 0.250000
vt 0.708333 0.125000
vt 0.708333 0.375000
vt 0.750000 0.625000
vt 0.750000 0.750000
vt 0.750000 0.875000
vt 0.750000 0.000000
vt 0.750000 0.125000
vt 0.750000 0.375000
vt 0.750000 0.250000
vt 0.791667 0.500000
vt 0.791667 0.625000
vt 0.791667 0.750000
vt 0.791667 1.000000
vt 0.791667 0.875000
vt 0.791667 0.000000
vt 0.791667 0.125000
vt 0.791667 0.250000
vt 0.791667 0.375000
vt 0.833333 0.625000
vt 0.833333 0.500000
vt 0.833333 0.750000
vt 0.833333 1.000000
vt 0.833333 0.875000
vt 0.833333 0.000000
vt 0.833333 0.250000
vt 0.833333 0.125000
vt 0.833333 0.375000
vt 0.875000 0.750000
vt 0.875000 0.625000
vt 0.875000 0.875000
vt 0.875000 0.000000
vt 0.875000 0.250000
vt 0.875000 0.125000
vt 0.875000 0.375000
vt 0.916667 0.625000
vt 0.916667 0.500000
vt 0.916667 0.750000
vt 0.916667 0.875000
vt 0.916667 0.000000
vt 0.916667 0.250000
vt 0.916667 0.125000
vt 0.916667 0.375000
vt 0.958333 0.500000
vt 0.958333 0.750000
vt 0.958333 0.625000
vt 0.958333 0.875000
vt 0.958333 0.000000
vt 0.958333 0.125000
vt 0.958333 0.250000
vt 0.958333 0.375000
vt 1.000000 0.625000
vt 1.000000 0.500000
vt 1.000000 0.875000
vt 1.000000 0.750000
vt 1.000000 0.000000
vt 1.000000 0.250000
vt 1.000000 0.125000
vt 1.000000 0.375000
vt -0.000000 0.625000
vt 0.041667 0.500000
vt -0.000000 0.500000
vt -0.000000 0.750000
vt 0.041667 0.625000
vt -0.000000 0.875000
vt 0.041667 0.750000
vt 0.041667 1.000000
vt 0.041667 0.875000
vt -0.000000 0.000000
vt 0.041667 0.125000
vt 0.041667 0.000000
vt -0.000000 0.250000
vt -0.000000 0.125000
vt -0.000000 0.375000
vt 0.041667 0.250000
vt 0.041667 0.375000
vt 0.083333 0.500000
vt 0.083333 0.625000
vt 0.083333 0.875000
vt 0.083333 0.750000
vt 0.083333 1.000000
vt 0.083333 0.125000
vt 0.083333 0.000000
vt 0.083333 0.250000
vt 0.083333 0.375000
vt 0.125000 0.625000
vt 0.125000 0.750000
vt 0.125000 0.875000
vt 0.125000 0.000000
vt 0.125000 0.125000
vt 0.125000 0.250000
vt 0.125000 0.375000
vt 0.166667 0.500000
vt 0.166667 0.625000
vt 0.166667 0.875000
vt 0.166667 0.750000
vt 0.166667 1.000000
vt 0.166667 0.125000
vt 0.166667 0.000000
vt 0.166667 0.375000
vt 0.166667 0.250000
vt 0.208333 0.625000
vt 0.208333 0.500000
vt 0.208333 0.875000
vt 0.208333 0.750000
vt 0.208333 0.125000
vt 0.208333 0.000000
vt 0.208333 0.250000
vt 0.208333 0.375000
vt 0.250000 0.625000
vt 0.250000 0.875000
vt 0.250000 0.750000
vt 0.208333 1.000000
vt 0.250000 0.000000
vt 0.250000 0.125000
vt 0.250000 0.250000
vt 0.250000 0.375000
vt 0.291667 0.500000
vt 0.291667 0.750000
vt 0.291667 0.625000
vt 0.291667 0.875000
vt 0.291667 1.000000
vt 0.291667 0.125000
vt 0.291667 0.000000
vt 0.291667 0.250000
vt 0.291667 0.375000
vt 0.333333 0.500000
vt 0.333333 0.750000
vt 0.333333 0.625000
vt 0.333333 0.875000
vt 0.333333 0.125000
vt 0.333333 0.000000
vt 0.333333 0.375000
vt 0.333333 0.250000
vt 0.375000 0.625000
vt 0.375000 0.750000
vt 0.375000 0.875000
vt 0.333333 1.000000
vt 0.375000 0.125000
vt 0.375000 0.000000
vt 0.375000 0.375000
vt 0.375000 0.250000
vt 0.416667 0.500000
vt 0.416667 0.750000
vt 0.416667 0.625000
vt 0.416667 0.875000
vt 0.416667 0.000000
vt 0.416667 0.125000
vt 0.416667 0.250000
vt 0.416667 0.375000
vt 0.458333 0.500000
vt 0.458333 0.625000
vt 0.458333 0.875000
vt 0.458333 0.750000
vt 0.416667 1.000000
vt 0.458333 0.000000
vt 0.458333 0.250000
vt 0.458333 0.125000
vt 0.458333 0.375000
vt 0.916667 1.000000
vt -0.000000 1.000000
vt 0.458333 1.000000
vt 0.998646 0.500000
vt 0.298333 0.430381
vt 0.916667 1.000000
vt 0.791667 0.500000
vt 0.930381 0.298333
vt 0.666667 1.000000
vt 0.583333 1.000000
vt 0.298333 0.069619
vt 0.458333 0.500000
vt 0.701667 0.069619
vt 0.416666 1.000000
vt 0.617952 0.117952
vt 0.117952 0.117952
vt 0.333333 0.500000
vt 0.250000 0.500000
vt 0.563256 0.250000
vt 0.250000 1.000000
vt 0.063256 0.250000
vt 0.166667 0.500000
vt 0.166666 1.000000
vt 0.617952 0.382048
vt 0.117952 0.382048
vt 0.083333 1.000000
vt 0.041666 0.500000
vt 0.937500 1.000000
vt 0.381639 0.381639
vt 0.812500 1.000000
vt 0.436166 0.250000
vt 0.437500 0.500000
vt 0.312500 0.500000
vt 0.578005 0.178758
vt 0.078005 0.178758
vt 0.187500 0.500000
vt 0.578005 0.321243
vt 0.078005 0.321243
vt 0.062500 0.500000
vt 0.678758 0.421995
vt 0.002053 1.000000
vt 1.000000 1.000000
s 1
usemtl Wood
f 2/1/2 9/2/9 8/3/8
f 1/4/1 9/5/9 3/6/3
f 11/7/11 6/8/6 5/9/5
f 12/10/12 4/11/4 6/12/6
f 8/3/8 15/13/15 14/14/14
f 7/15/7 15/16/15 9/5/9
f 17/17/17 12/18/12 11/7/11
f 16/19/16 12/10/12 18/20/18
f 14/14/14 21/21/21 20/22/20
f 13/23/13 21/24/21 15/16/15
f 24/25/24 17/17/17 23/26/23
f 22/27/22 18/20/18 24/28/24
f 20/22/20 27/29/27 26/30/26
f 19/31/19 27/32/27 21/24/21
f 30/33/30 23/26/23 29/34/29
f 28/35/28 24/28/24 30/36/30
f 27/29/27 32/37/32 26/30/26
f 25/38/25 33/39/33 27/32/27
f 36/40/36 29/34/29 35/41/35
f 34/42/34 30/36/30 36/43/36
f 32/37/32 39/44/39 38/45/38
f 33/39/33 37/46/37 39/47/39
f 42/48/42 35/41/35 41/49/41
f 40/50/40 36/43/36 42/51/42
f 38/45/38 45/52/45 44/53/44
f 37/46/37 45/54/45 39/47/39
f 48/55/48 41/49/41 47/56/47
f 46/57/46 42/51/42 48/58/48
f 44/53/44 51/59/51 50/60/50
f 43/61/43 51/62/51 45/54/45
f 53/63/53 48/55/48 47/56/47
f 52/64/52 48/58/48 54/65/54
f 50/60/50 57/66/57 56/67/56
f 49/68/49 57/69/57 51/62/51
f 60/70/60 53/63/53 59/71/59
f 58/72/58 54/65/54 60/73/60
f 57/66/57 62/74/62 56/67/56
f 57/69/57 61/75/61 63/76/63
f 65/77/65 60/70/60 59/71/59
f 64/78/64 60/73/60 66/79/66
f 63/80/63 68/81/68 62/74/62
f 63/76/63 67/82/67 69/83/69
f 72/84/72 65/77/65 71/85/71
f 72/86/72 64/78/64 66/79/66
f 69/87/69 74/88/74 68/81/68
f 69/83/69 73/89/73 75/90/75
f 78/91/78 71/85/71 77/92/77
f 76/93/76 72/86/72 78/94/78
f 75/95/75 80/96/80 74/88/74
f 73/89/73 81/97/81 75/90/75
f 83/98/83 78/91/78 77/92/77
f 84/99/84 76/93/76 78/94/78
f 80/96/80 87/100/87 86/101/86
f 81/97/81 85/102/85 87/103/87
f 89/104/89 84/105/84 83/98/83
f 90/106/90 82/107/82 84/99/84
f 86/101/86 93/108/93 92/109/92
f 85/102/85 93/110/93 87/103/87
f 96/111/96 89/104/89 95/112/95
f 96/113/96 88/114/88 90/106/90
f 93/108/93 98/115/98 92/109/92
f 93/110/93 97/116/97 99/117/99
f 101/118/101 96/111/96 95/112/95
f 100/119/100 96/113/96 102/120/102
f 98/115/98 105/121/105 104/122/104
f 97/116/97 105/123/105 99/117/99
f 107/124/107 102/125/102 101/118/101
f 106/126/106 102/120/102 108/127/108
f 105/121/105 110/128/110 104/122/104
f 103/129/103 111/130/111 105/123/105
f 113/131/113 108/132/108 107/124/107
f 114/133/114 106/126/106 108/127/108
f 110/128/110 117/134/117 116/135/116
f 111/130/111 115/136/115 117/137/117
f 120/138/120 113/131/113 119/139/119
f 118/140/118 114/133/114 120/141/120
f 117/134/117 122/142/122 116/135/116
f 115/136/115 123/143/123 117/137/117
f 125/144/125 120/138/120 119/139/119
f 126/145/126 118/140/118 120/141/120
f 122/142/122 129/146/129 128/147/128
f 121/148/121 129/149/129 123/143/123
f 132/150/132 125/144/125 131/151/131
f 132/152/132 124/153/124 126/145/126
f 129/146/129 134/154/134 128/147/128
f 129/149/129 133/155/133 135/156/135
f 137/157/137 132/150/132 131/151/131
f 136/158/136 132/152/132 138/159/138
f 135/160/135 140/161/140 134/154/134
f 135/156/135 139/162/139 141/163/141
f 144/164/144 137/157/137 143/165/143
f 142/166/142 138/159/138 144/167/144
f 140/161/140 3/168/3 2/169/2
f 141/163/141 1/4/1 3/6/3
f 6/170/6 143/165/143 5/171/5
f 4/11/4 144/167/144 6/12/6
f 103/129/103 55/172/55 7/15/7
f 8/3/8 5/9/5 2/1/2
f 2/169/2 143/165/143 140/161/140
f 52/64/52 100/119/100 4/11/4
f 14/14/14 11/7/11 8/3/8
f 20/22/20 17/17/17 14/14/14
f 26/30/26 23/26/23 20/22/20
f 32/37/32 29/34/29 26/30/26
f 38/45/38 35/41/35 32/37/32
f 38/45/38 47/56/47 41/49/41
f 50/60/50 47/56/47 44/53/44
f 50/60/50 59/71/59 53/63/53
f 62/74/62 59/71/59 56/67/56
f 68/81/68 65/77/65 62/74/62
f 74/88/74 71/85/71 68/81/68
f 80/96/80 77/92/77 74/88/74
f 86/101/86 83/98/83 80/96/80
f 92/109/92 89/104/89 86/101/86
f 98/115/98 95/112/95 92/109/92
f 104/122/104 101/118/101 98/115/98
f 104/122/104 113/131/113 107/124/107
f 110/128/110 119/139/119 113/131/113
f 122/142/122 119/139/119 116/135/116
f 128/147/128 125/144/125 122/142/122
f 134/154/134 131/151/131 128/147/128
f 140/161/140 137/157/137 134/154/134
f 147/173/147 152/174/152 146/175/146
f 147/176/147 151/177/151 153/178/153
f 155/179/155 150/180/150 149/181/149
f 156/182/156 148/183/148 150/184/150
f 153/185/153 158/186/158 152/174/152
f 153/178/153 157/187/157 159/188/159
f 162/189/162 155/179/155 161/190/161
f 162/191/162 154/192/154 156/182/156
f 159/21/159 164/193/164 158/186/158
f 159/188/159 163/194/163 165/195/165
f 167/196/167 162/189/162 161/190/161
f 166/197/166 162/191/162 168/198/168
f 165/199/165 170/200/170 164/193/164
f 165/195/165 169/201/169 171/202/171
f 174/203/174 167/196/167 173/204/173
f 174/205/174 166/197/166 168/198/168
f 171/206/171 176/207/176 170/200/170
f 169/201/169 177/208/177 171/202/171
f 180/209/180 173/204/173 179/210/179
f 178/211/178 174/205/174 180/212/180
f 177/213/177 182/214/182 176/207/176
f 175/215/175 183/216/183 177/208/177
f 186/217/186 179/210/179 185/218/185
f 184/219/184 180/212/180 186/220/186
f 182/214/182 189/221/189 188/222/188
f 181/223/181 189/224/189 183/216/183
f 192/225/192 185/218/185 191/226/191
f 190/227/190 186/220/186 192/228/192
f 189/221/189 194/229/194 188/222/188
f 187/230/187 195/231/195 189/224/189
f 198/232/198 191/226/191 197/233/197
f 196/234/196 192/228/192 198/235/198
f 195/236/195 200/237/200 194/229/194
f 193/238/193 201/239/201 195/231/195
f 204/240/204 197/233/197 203/241/203
f 204/242/204 196/234/196 198/235/198
f 200/237/200 207/243/207 206/244/206
f 201/239/201 205/245/205 207/246/207
f 210/247/210 203/241/203 209/248/209
f 210/249/210 202/250/202 204/242/204
f 207/243/207 212/251/212 206/244/206
f 205/245/205 213/252/213 207/246/207
f 216/253/216 209/248/209 215/254/215
f 216/255/216 208/256/208 210/249/210
f 212/251/212 219/257/219 218/258/218
f 213/252/213 217/259/217 219/260/219
f 222/261/222 215/254/215 221/262/221
f 220/263/220 216/255/216 222/264/222
f 219/257/219 224/265/224 218/258/218
f 217/259/217 225/266/225 219/260/219
f 227/267/227 222/261/222 221/262/221
f 228/268/228 220/263/220 222/264/222
f 224/265/224 231/269/231 230/270/230
f 225/266/225 229/271/229 231/272/231
f 233/273/233 228/274/228 227/267/227
f 232/275/232 228/268/228 234/276/234
f 231/269/231 236/277/236 230/270/230
f 229/271/229 237/278/237 231/272/231
f 239/279/239 234/280/234 233/273/233
f 238/281/238 234/276/234 240/282/240
f 236/277/236 147/283/147 146/284/146
f 237/278/237 145/285/145 147/176/147
f 149/286/149 240/287/240 239/279/239
f 148/183/148 240/282/240 150/184/150
f 199/288/199 175/215/175 151/177/151
f 146/175/146 155/179/155 149/181/149
f 146/284/146 239/279/239 236/277/236
f 196/234/196 220/263/220 148/183/148
f 152/174/152 161/190/161 155/179/155
f 164/193/164 161/190/161 158/186/158
f 170/200/170 167/196/167 164/193/164
f 176/207/176 173/204/173 170/200/170
f 176/207/176 185/218/185 179/210/179
f 188/222/188 185/218/185 182/214/182
f 194/229/194 191/226/191 188/222/188
f 200/237/200 197/233/197 194/229/194
f 206/244/206 203/241/203 200/237/200
f 212/251/212 209/248/209 206/244/206
f 218/258/218 215/254/215 212/251/212
f 218/258/218 227/267/227 221/262/221
f 224/265/224 233/273/233 227/267/227
f 230/270/230 239/279/239 233/273/233
f 2/1/2 3/499/3 9/2/9
f 1/4/1 7/15/7 9/5/9
f 11/7/11 12/18/12 6/8/6
f 12/10/12 10/500/10 4/11/4
f 8/3/8 9/2/9 15/13/15
f 7/15/7 13/23/13 15/16/15
f 17/17/17 18/501/18 12/18/12
f 16/19/16 10/500/10 12/10/12
f 14/14/14 15/13/15 21/21/21
f 13/23/13 19/31/19 21/24/21
f 24/25/24 18/501/18 17/17/17
f 22/27/22 16/19/16 18/20/18
f 20/22/20 21/21/21 27/29/27
f 19/31/19 25/38/25 27/32/27
f 30/33/30 24/25/24 23/26/23
f 28/35/28 22/27/22 24/28/24
f 27/29/27 33/502/33 32/37/32
f 25/38/25 31/503/31 33/39/33
f 36/40/36 30/33/30 29/34/29
f 34/42/34 28/35/28 30/36/30
f 32/37/32 33/502/33 39/44/39
f 33/39/33 31/503/31 37/46/37
f 42/48/42 36/40/36 35/41/35
f 40/50/40 34/42/34 36/43/36
f 38/45/38 39/44/39 45/52/45
f 37/46/37 43/61/43 45/54/45
f 48/55/48 42/48/42 41/49/41
f 46/57/46 40/50/40 42/51/42
f 44/53/44 45/52/45 51/59/51
f 43/61/43 49/68/49 51/62/51
f 53/63/53 54/504/54 48/55/48
f 52/64/52 46/57/46 48/58/48
f 50/60/50 51/59/51 57/66/57
f 49/68/49 55/172/55 57/69/57
f 60/70/60 54/504/54 53/63/53
f 58/72/58 52/64/52 54/65/54
f 57/66/57 63/80/63 62/74/62
f 57/69/57 55/172/55 61/75/61
f 65/77/65 66/505/66 60/70/60
f 64/78/64 58/72/58 60/73/60
f 63/80/63 69/87/69 68/81/68
f 63/76/63 61/75/61 67/82/67
f 72/84/72 66/505/66 65/77/65
f 72/86/72 70/506/70 64/78/64
f 69/87/69 75/95/75 74/88/74
f 69/83/69 67/82/67 73/89/73
f 78/91/78 72/84/72 71/85/71
f 76/93/76 70/506/70 72/86/72
f 75/95/75 81/507/81 80/96/80
f 73/89/73 79/508/79 81/97/81
f 83/98/83 84/105/84 78/91/78
f 84/99/84 82/107/82 76/93/76
f 80/96/80 81/507/81 87/100/87
f 81/97/81 79/508/79 85/102/85
f 89/104/89 90/509/90 84/105/84
f 90/106/90 88/114/88 82/107/82
f 86/101/86 87/100/87 93/108/93
f 85/102/85 91/510/91 93/110/93
f 96/111/96 90/509/90 89/104/89
f 96/113/96 94/511/94 88/114/88
f 93/108/93 99/512/99 98/115/98
f 93/110/93 91/510/91 97/116/97
f 101/118/101 102/125/102 96/111/96
f 100/119/100 94/511/94 96/113/96
f 98/115/98 99/512/99 105/121/105
f 97/116/97 103/129/103 105/123/105
f 107/124/107 108/132/108 102/125/102
f 106/126/106 100/119/100 102/120/102
f 105/121/105 111/513/111 110/128/110
f 103/129/103 109/514/109 111/130/111
f 113/131/113 114/515/114 108/132/108
f 114/133/114 112/516/112 106/126/106
f 110/128/110 111/513/111 117/134/117
f 111/130/111 109/514/109 115/136/115
f 120/138/120 114/515/114 113/131/113
f 118/140/118 112/516/112 114/133/114
f 117/134/117 123/517/123 122/142/122
f 115/136/115 121/148/121 123/143/123
f 125/144/125 126/518/126 120/138/120
f 126/145/126 124/153/124 118/140/118
f 122/142/122 123/517/123 129/146/129
f 121/148/121 127/519/127 129/149/129
f 132/150/132 126/518/126 125/144/125
f 132/152/132 130/520/130 124/153/124
f 129/146/129 135/160/135 134/154/134
f 129/149/129 127/519/127 133/155/133
f 137/157/137 138/521/138 132/150/132
f 136/158/136 130/520/130 132/152/132
f 135/160/135 141/522/141 140/161/140
f 135/156/135 133/155/133 139/162/139
f 144/164/144 138/521/138 137/157/137
f 142/166/142 136/158/136 138/159/138
f 140/161/140 141/522/141 3/168/3
f 141/163/141 139/162/139 1/4/1
f 6/170/6 144/164/144 143/165/143
f 4/11/4 142/166/142 144/167/144
f 7/15/7 1/4/1 139/162/139
f 139/162/139 133/155/133 127/519/127
f 127/519/127 121/148/121 115/136/115
f 115/136/115 109/514/109 103/129/103
f 103/129/103 97/116/97 91/510/91
f 91/510/91 85/102/85 79/508/79
f 79/508/79 73/89/73 67/82/67
f 67/82/67 61/75/61 55/172/55
f 55/172/55 49/68/49 43/61/43
f 43/61/43 37/46/37 31/503/31
f 31/503/31 25/38/25 19/31/19
f 19/31/19 13/23/13 7/15/7
f 7/15/7 139/162/139 127/519/127
f 127/519/127 115/136/115 103/129/103
f 103/129/103 91/510/91 79/508/79
f 79/508/79 67/82/67 55/172/55
f 55/172/55 43/61/43 31/503/31
f 31/503/31 19/31/19 7/15/7
f 7/15/7 127/519/127 103/129/103
f 103/129/103 79/508/79 55/172/55
f 55/172/55 31/503/31 7/15/7
f 8/3/8 11/7/11 5/9/5
f 2/169/2 5/171/5 143/165/143
f 4/11/4 10/500/10 16/19/16
f 16/19/16 22/27/22 28/35/28
f 28/35/28 34/42/34 40/50/40
f 40/50/40 46/57/46 52/64/52
f 52/64/52 58/72/58 64/78/64
f 64/78/64 70/506/70 76/93/76
f 76/93/76 82/107/82 88/114/88
f 88/114/88 94/511/94 100/119/100
f 100/119/100 106/126/106 112/516/112
f 112/516/112 118/140/118 124/153/124
f 124/153/124 130/520/130 136/158/136
f 136/158/136 142/166/142 4/11/4
f 4/11/4 16/19/16 28/35/28
f 28/35/28 40/50/40 52/64/52
f 52/64/52 64/78/64 76/93/76
f 76/93/76 88/114/88 100/119/100
f 100/119/100 112/516/112 124/153/124
f 124/153/124 136/158/136 4/11/4
f 4/11/4 28/35/28 52/64/52
f 52/64/52 76/93/76 100/119/100
f 100/119/100 124/153/124 4/11/4
f 14/14/14 17/17/17 11/7/11
f 20/22/20 23/26/23 17/17/17
f 26/30/26 29/34/29 23/26/23
f 32/37/32 35/41/35 29/34/29
f 38/45/38 41/49/41 35/41/35
f 38/45/38 44/53/44 47/56/47
f 50/60/50 53/63/53 47/56/47
f 50/60/50 56/67/56 59/71/59
f 62/74/62 65/77/65 59/71/59
f 68/81/68 71/85/71 65/77/65
f 74/88/74 77/92/77 71/85/71
f 80/96/80 83/98/83 77/92/77
f 86/101/86 89/104/89 83/98/83
f 92/109/92 95/112/95 89/104/89
f 98/115/98 101/118/101 95/112/95
f 104/122/104 107/124/107 101/118/101
f 104/122/104 110/128/110 113/131/113
f 110/128/110 116/135/116 119/139/119
f 122/142/122 125/144/125 119/139/119
f 128/147/128 131/151/131 125/144/125
f 134/154/134 137/157/137 131/151/131
f 140/161/140 143/165/143 137/157/137
f 147/173/147 153/185/153 152/174/152
f 147/176/147 145/285/145 151/177/151
f 155/179/155 156/523/156 150/180/150
f 156/182/156 154/192/154 148/183/148
f 153/185/153 159/21/159 158/186/158
f 153/178/153 151/177/151 157/187/157
f 162/189/162 156/523/156 155/179/155
f 162/191/162 160/524/160 154/192/154
f 159/21/159 165/199/165 164/193/164
f 159/188/159 157/187/157 163/194/163
f 167/196/167 168/525/168 162/189/162
f 166/197/166 160/524/160 162/191/162
f 165/199/165 171/206/171 170/200/170
f 165/195/165 163/194/163 169/201/169
f 174/203/174 168/525/168 167/196/167
f 174/205/174 172/526/172 166/197/166
f 171/206/171 177/213/177 176/207/176
f 169/201/169 175/215/175 177/208/177
f 180/209/180 174/203/174 173/204/173
f 178/211/178 172/526/172 174/205/174
f 177/213/177 183/315/183 182/214/182
f 175/215/175 181/223/181 183/216/183
f 186/217/186 180/209/180 179/210/179
f 184/219/184 178/211/178 180/212/180
f 182/214/182 183/315/183 189/221/189
f 181/223/181 187/230/187 189/224/189
f 192/225/192 186/217/186 185/218/185
f 190/227/190 184/219/184 186/220/186
f 189/221/189 195/236/195 194/229/194
f 187/230/187 193/238/193 195/231/195
f 198/232/198 192/225/192 191/226/191
f 196/234/196 190/227/190 192/228/192
f 195/236/195 201/527/201 200/237/200
f 193/238/193 199/288/199 201/239/201
f 204/240/204 198/232/198 197/233/197
f 204/242/204 202/250/202 196/234/196
f 200/237/200 201/527/201 207/243/207
f 201/239/201 199/288/199 205/245/205
f 210/247/210 204/240/204 203/241/203
f 210/249/210 208/256/208 202/250/202
f 207/243/207 213/528/213 212/251/212
f 205/245/205 211/529/211 213/252/213
f 216/253/216 210/247/210 209/248/209
f 216/255/216 214/530/214 208/256/208
f 212/251/212 213/528/213 219/257/219
f 213/252/213 211/529/211 217/259/217
f 222/261/222 216/253/216 215/254/215
f 220/263/220 214/530/214 216/255/216
f 219/257/219 225/531/225 224/265/224
f 217/259/217 223/532/223 225/266/225
f 227/267/227 228/274/228 222/261/222
f 228/268/228 226/533/226 220/263/220
f 224/265/224 225/531/225 231/269/231
f 225/266/225 223/532/223 229/271/229
f 233/273/233 234/280/234 228/274/228
f 232/275/232 226/533/226 228/268/228
f 231/269/231 237/534/237 236/277/236
f 229/271/229 235/535/235 237/278/237
f 239/279/239 240/287/240 234/280/234
f 238/281/238 232/275/232 234/276/234
f 236/277/236 237/534/237 147/283/147
f 237/278/237 235/535/235 145/285/145
f 149/286/149 150/536/150 240/287/240
f 148/183/148 238/281/238 240/282/240
f 151/177/151 145/285/145 235/535/235
f 235/535/235 229/271/229 223/532/223
f 223/532/223 217/259/217 211/529/211
f 211/529/211 205/245/205 199/288/199
f 199/288/199 193/238/193 187/230/187
f 187/230/187 181/223/181 175/215/175
f 175/215/175 169/201/169 163/194/163
f 163/194/163 157/187/157 151/177/151
f 151/177/151 235/535/235 223/532/223
f 223/532/223 211/529/211 199/288/199
f 199/288/199 187/230/187 175/215/175
f 175/215/175 163/194/163 151/177/151
f 151/177/151 223/532/223 199/288/199
f 146/175/146 152/174/152 155/179/155
f 146/284/146 149/286/149 239/279/239
f 148/183/148 154/192/154 160/524/160
f 160/524/160 166/197/166 172/526/172
f 172/526/172 178/211/178 184/219/184
f 184/219/184 190/227/190 196/234/196
f 196/234/196 202/250/202 208/256/208
f 208/256/208 214/530/214 220/263/220
f 220/263/220 226/533/226 232/275/232
f 232/275/232 238/281/238 148/183/148
f 148/183/148 160/524/160 172/526/172
f 172/526/172 184/219/184 196/234/196
f 196/234/196 208/256/208 220/263/220
f 220/263/220 232/275/232 148/183/148
f 148/183/148 172/526/172 196/234/196
f 152/174/152 158/186/158 161/190/161
f 164/193/164 167/196/167 161/190/161
f 170/200/170 173/204/173 167/196/167
f 176/207/176 179/210/179 173/204/173
f 176/207/176 182/214/182 185/218/185
f 188/222/188 191/226/191 185/218/185
f 194/229/194 197/233/197 191/226/191
f 200/237/200 203/241/203 197/233/197
f 206/244/206 209/248/209 203/241/203
f 212/251/212 215/254/215 209/248/209
f 218/258/218 221/262/221 215/254/215
f 218/258/218 224/265/224 227/267/227
f 224/265/224 230/270/230 233/273/233
f 230/270/230 236/277/236 239/279/239
usemtl Rope
f 242/289/242 249/290/249 241/236/241
f 243/291/243 250/292/250 242/289/242
f 244/293/244 251/294/251 243/291/243
f 244/293/244 253/295/253 252/296/252
f 246/297/246 253/298/253 245/299/245
f 247/300/247 254/301/254 246/297/246
f 248/302/248 255/303/255 247/300/247
f 248/302/248 249/290/249 256/304/256
f 250/292/250 257/305/257 249/290/249
f 250/292/250 259/306/259 258/307/258
f 252/296/252 259/306/259 251/294/251
f 252/296/252 261/308/261 260/309/260
f 253/298/253 262/310/262 261/311/261
f 254/301/254 263/312/263 262/310/262
f 256/304/256 263/312/263 255/303/255
f 249/290/249 264/313/264 256/304/256
f 257/305/257 266/314/266 265/315/265
f 258/307/258 267/316/267 266/314/266
f 260/309/260 267/316/267 259/306/259
f 261/308/261 268/317/268 260/309/260
f 262/310/262 269/318/269 261/311/261
f 262/310/262 271/319/271 270/320/270
f 263/312/263 272/321/272 271/319/271
f 257/305/257 272/321/272 264/313/264
f 266/314/266 273/322/273 265/315/265
f 266/314/266 275/323/275 274/324/274
f 268/317/268 275/323/275 267/316/267
f 268/317/268 277/325/277 276/326/276
f 270/320/270 277/327/277 269/318/269
f 271/319/271 278/328/278 270/320/270
f 272/321/272 279/329/279 271/319/271
f 272/321/272 273/322/273 280/330/280
f 274/324/274 281/331/281 273/322/273
f 275/323/275 282/332/282 274/324/274
f 276/326/276 283/333/283 275/323/275
f 276/326/276 285/334/285 284/335/284
f 278/328/278 285/336/285 277/327/277
f 278/328/278 287/337/287 286/338/286
f 280/330/280 287/337/287 279/329/279
f 273/322/273 288/339/288 280/330/280
f 281/331/281 290/340/290 289/206/289
f 282/332/282 291/341/291 290/340/290
f 284/335/284 291/341/291 283/333/283
f 285/334/285 292/342/292 284/335/284
f 286/338/286 293/343/293 285/336/285
f 287/337/287 294/344/294 286/338/286
f 287/337/287 296/345/296 295/346/295
f 281/331/281 296/345/296 288/339/288
f 290/340/290 297/347/297 289/206/289
f 291/341/291 298/348/298 290/340/290
f 292/342/292 299/349/299 291/341/291
f 292/342/292 301/350/301 300/351/300
f 294/344/294 301/352/301 293/343/293
f 295/346/295 302/353/302 294/344/294
f 296/345/296 303/354/303 295/346/295
f 296/345/296 297/347/297 304/355/304
f 297/347/297 306/356/306 305/357/305
f 299/349/299 306/356/306 298/348/298
f 300/351/300 307/358/307 299/349/299
f 300/351/300 309/359/309 308/360/308
f 302/353/302 309/361/309 301/352/301
f 302/353/302 311/362/311 310/363/310
f 304/355/304 311/362/311 303/354/303
f 304/355/304 305/357/305 312/364/312
f 306/356/306 313/21/313 305/357/305
f 306/356/306 315/365/315 314/366/314
f 308/360/308 315/365/315 307/358/307
f 308/360/308 317/189/317 316/367/316
f 310/363/310 317/368/317 309/361/309
f 310/363/310 319/369/319 318/370/318
f 312/364/312 319/369/319 311/362/311
f 305/357/305 320/371/320 312/364/312
f 313/21/313 322/372/322 321/373/321
f 314/366/314 323/374/323 322/372/322
f 316/367/316 323/374/323 315/365/315
f 317/189/317 324/375/324 316/367/316
f 318/370/318 325/376/325 317/368/317
f 318/370/318 327/377/327 326/378/326
f 320/371/320 327/377/327 319/369/319
f 313/21/313 328/379/328 320/371/320
f 322/372/322 329/380/329 321/373/321
f 322/372/322 331/381/331 330/382/330
f 324/375/324 331/381/331 323/374/323
f 324/375/324 333/18/333 332/383/332
f 326/378/326 333/384/333 325/376/325
f 327/377/327 334/385/334 326/378/326
f 328/379/328 335/386/335 327/377/327
f 321/373/321 336/387/336 328/379/328
f 329/380/329 338/388/337 337/389/245
f 331/381/331 338/388/337 330/382/330
f 331/381/331 340/390/339 339/391/338
f 333/18/333 340/390/339 332/383/332
f 334/385/334 341/392/241 333/384/333
f 334/385/334 343/393/341 342/394/340
f 336/387/336 343/393/341 335/386/335
f 329/380/329 344/395/342 336/387/336
f 338/396/337 345/397/253 337/398/245
f 339/399/338 346/400/343 338/396/337
f 340/401/339 347/402/344 339/399/338
f 340/401/339 349/403/249 348/404/345
f 341/405/241 350/406/346 349/407/249
f 343/408/341 350/406/346 342/409/340
f 344/410/342 351/411/347 343/408/341
f 337/398/245 352/412/348 344/410/342
f 346/400/343 353/413/261 345/397/253
f 347/402/344 354/414/349 346/400/343
f 347/402/344 356/415/351 355/416/350
f 348/404/345 357/417/257 356/415/351
f 349/407/249 358/418/352 357/419/257
f 350/406/346 359/420/353 358/418/352
f 351/411/347 360/421/354 359/420/353
f 345/397/253 360/421/354 352/412/348
f 353/413/261 362/422/355 361/269/269
f 354/414/349 363/423/356 362/422/355
f 355/416/350 364/424/357 363/423/356
f 356/415/351 365/280/265 364/424/357
f 358/418/352 365/425/265 357/419/257
f 359/420/353 366/426/358 358/418/352
f 360/421/354 367/427/359 359/420/353
f 353/413/261 368/428/360 360/421/354
f 362/422/355 369/429/277 361/269/269
f 363/423/356 370/430/361 362/422/355
f 363/423/356 372/431/363 371/432/362
f 364/424/357 373/433/273 372/431/363
f 365/425/265 374/434/364 373/435/273
f 367/427/359 374/434/364 366/426/358
f 367/427/359 376/436/366 375/437/365
f 361/269/269 376/436/366 368/428/360
f 369/429/277 378/438/367 377/439/285
f 371/432/362 378/438/367 370/430/361
f 371/432/362 380/440/369 379/441/368
f 373/433/273 380/440/369 372/431/363
f 373/435/273 382/442/370 381/443/281
f 375/437/365 382/442/370 374/434/364
f 376/436/366 383/444/371 375/437/365
f 369/429/277 384/445/372 376/436/366
f 378/438/367 385/257/293 377/439/285
f 379/441/368 386/446/373 378/438/367
f 379/441/368 388/447/375 387/448/374
f 381/449/281 388/447/375 380/440/369
f 382/442/370 389/450/289 381/443/281
f 383/444/371 390/451/376 382/442/370
f 384/445/372 391/452/377 383/444/371
f 377/439/285 392/453/378 384/445/372
f 386/446/373 393/454/301 385/257/293
f 386/446/373 395/455/380 394/456/379
f 387/448/374 396/457/381 395/455/380
f 388/447/375 397/458/297 396/457/381
f 389/450/289 398/459/382 397/460/297
f 390/451/376 399/461/383 398/459/382
f 392/453/378 399/461/383 391/452/377
f 385/257/293 400/462/384 392/453/378
f 394/456/379 401/463/309 393/454/301
f 394/456/379 403/464/386 402/465/385
f 395/455/380 404/466/387 403/464/386
f 397/458/297 404/466/387 396/457/381
f 397/460/297 406/467/388 405/468/305
f 399/461/383 406/467/388 398/459/382
f 399/461/383 408/469/390 407/470/389
f 393/454/301 408/469/390 400/462/384
f 401/463/309 410/471/391 409/243/317
f 402/465/385 411/472/392 410/471/391
f 403/464/386 412/473/393 411/472/392
f 405/474/305 412/473/393 404/466/387
f 405/468/305 414/475/394 413/476/313
f 407/470/389 414/475/394 406/467/388
f 407/470/389 416/477/396 415/478/395
f 401/463/309 416/477/396 408/469/390
f 410/471/391 417/479/325 409/243/317
f 410/471/391 419/480/398 418/481/397
f 411/472/392 420/482/399 419/480/398
f 413/247/313 420/482/399 412/473/393
f 414/475/394 421/483/321 413/476/313
f 415/478/395 422/484/400 414/475/394
f 416/477/396 423/485/401 415/478/395
f 416/477/396 417/479/325 424/486/402
f 418/481/397 425/487/333 417/479/325
f 419/480/398 426/488/403 418/481/397
f 419/480/398 428/489/405 427/490/404
f 421/491/321 428/489/405 420/482/399
f 422/484/400 429/492/329 421/483/321
f 422/484/400 431/493/407 430/494/406
f 424/486/402 431/493/407 423/485/401
f 424/486/402 425/487/333 432/495/408
f 426/488/403 241/236/241 425/487/333
f 427/490/404 242/289/242 426/488/403
f 427/490/404 244/293/244 243/291/243
f 428/489/405 245/232/245 244/293/244
f 429/492/329 246/297/246 245/299/245
f 430/494/406 247/300/247 246/297/246
f 431/493/407 248/302/248 247/300/247
f 432/495/408 241/236/241 248/302/248
f 434/289/242 441/290/249 433/236/241
f 435/291/243 442/292/250 434/289/242
f 436/293/244 443/294/251 435/291/243
f 437/232/245 444/296/252 436/293/244
f 438/297/246 445/298/253 437/299/245
f 438/297/246 447/303/255 446/301/254
f 439/300/409 448/304/256 447/303/255
f 433/236/241 448/304/256 440/302/248
f 442/292/250 449/305/257 441/290/249
f 442/292/250 451/306/259 450/307/258
f 444/296/252 451/306/259 443/294/251
f 444/296/252 453/308/261 452/309/260
f 445/298/253 454/310/262 453/311/261
f 447/303/255 454/310/262 446/301/254
f 448/304/256 455/312/263 447/303/255
f 448/304/256 449/305/257 456/313/264
f 449/305/257 458/314/266 457/315/265
f 451/306/259 458/314/266 450/307/258
f 451/306/259 460/317/268 459/316/267
f 453/308/261 460/317/268 452/309/260
f 453/311/261 462/320/270 461/318/269
f 454/310/262 463/319/271 462/320/270
f 456/313/264 463/319/271 455/312/263
f 456/313/264 457/315/265 464/321/272
f 458/314/266 465/322/273 457/315/265
f 459/316/267 466/324/274 458/314/266
f 460/317/268 467/323/275 459/316/267
f 461/217/269 468/326/276 460/317/268
f 461/318/269 470/328/278 469/327/277
f 463/319/271 470/328/278 462/320/270
f 464/321/272 471/329/279 463/319/271
f 457/315/265 472/330/280 464/321/272
f 466/324/274 473/331/281 465/322/273
f 466/324/274 475/333/283 474/332/282
f 468/326/276 475/333/283 467/323/275
f 468/326/276 477/334/285 476/335/284
f 470/328/278 477/336/285 469/327/277
f 470/328/278 479/337/287 478/338/286
f 472/330/280 479/337/287 471/329/279
f 472/330/280 473/331/281 480/339/288
f 473/331/281 482/340/290 481/206/289
f 474/332/282 483/341/291 482/340/290
f 476/335/284 483/341/291 475/333/283
f 477/334/285 484/342/292 476/335/284
f 478/338/286 485/343/293 477/336/285
f 478/338/286 487/346/295 486/344/294
f 479/337/287 488/345/296 487/346/295
f 473/331/281 488/345/296 480/339/288
f 482/340/290 489/347/297 481/206/289
f 482/340/290 491/349/299 490/348/298
f 484/342/292 491/349/299 483/341/291
f 484/342/292 493/350/301 492/351/300
f 486/344/294 493/352/301 485/343/293
f 487/346/295 494/353/302 486/344/294
f 488/345/296 495/354/303 487/346/295
f 488/345/296 489/347/297 496/355/304
f 490/348/298 497/357/305 489/347/297
f 490/348/298 499/358/307 498/356/306
f 492/351/300 499/358/307 491/349/299
f 493/350/301 500/360/308 492/351/300
f 494/353/302 501/361/309 493/352/301
f 494/353/302 503/362/311 502/363/310
f 496/355/304 503/362/311 495/354/303
f 496/355/304 497/357/305 504/364/312
f 498/356/306 505/21/313 497/357/305
f 498/356/306 507/365/315 506/366/314
f 500/360/308 507/365/315 499/358/307
f 500/360/308 509/189/317 508/367/316
f 502/363/310 509/368/317 501/361/309
f 502/363/310 511/369/319 510/370/318
f 503/362/311 512/371/320 511/369/319
f 504/364/312 505/21/313 512/371/320
f 505/21/313 514/372/322 513/373/321
f 507/365/315 514/372/322 506/366/314
f 508/367/316 515/374/323 507/365/315
f 508/367/316 517/496/325 516/375/324
f 509/368/317 518/378/326 517/376/325
f 510/370/318 519/377/327 518/378/326
f 512/371/320 519/377/327 511/369/319
f 505/21/313 520/379/328 512/371/320
f 514/372/322 521/380/329 513/373/321
f 514/372/322 523/381/331 522/382/330
f 516/375/324 523/381/331 515/374/323
f 517/496/325 524/383/332 516/375/324
f 518/378/326 525/384/333 517/376/325
f 519/377/327 526/385/334 518/378/326
f 520/379/328 527/386/335 519/377/327
f 520/379/328 521/380/329 528/387/336
f 522/382/330 529/389/245 521/380/329
f 522/382/330 531/391/410 530/388/337
f 523/381/331 532/390/339 531/391/410
f 525/18/333 532/390/339 524/383/332
f 526/385/334 533/392/241 525/384/333
f 526/385/334 535/393/341 534/394/340
f 528/387/336 535/393/341 527/386/335
f 528/387/336 529/389/245 536/395/342
f 530/396/337 537/397/253 529/398/245
f 531/399/410 538/400/343 530/396/337
f 531/399/410 540/404/345 539/402/344
f 533/497/241 540/404/345 532/401/339
f 534/409/340 541/407/249 533/405/241
f 535/408/341 542/406/346 534/409/340
f 535/408/341 544/412/348 543/411/347
f 529/398/245 544/412/348 536/410/342
f 538/400/343 545/413/261 537/397/253
f 539/402/344 546/414/349 538/400/343
f 540/404/345 547/416/350 539/402/344
f 541/403/249 548/415/351 540/404/345
f 542/406/346 549/419/257 541/407/249
f 542/406/346 551/420/353 550/418/352
f 543/411/347 552/421/354 551/420/353
f 537/397/253 552/421/354 544/412/348
f 546/414/349 553/269/269 545/413/261
f 546/414/349 555/423/356 554/422/355
f 548/415/351 555/423/356 547/416/350
f 548/415/351 557/280/265 556/424/357
f 549/419/257 558/426/358 557/425/265
f 551/420/353 558/426/358 550/418/352
f 552/421/354 559/427/359 551/420/353
f 545/413/261 560/428/360 552/421/354
f 553/269/269 562/430/361 561/429/277
f 555/423/356 562/430/361 554/422/355
f 555/423/356 564/431/363 563/432/362
f 557/280/265 564/431/363 556/424/357
f 557/425/265 566/434/364 565/435/273
f 559/427/359 566/434/364 558/426/358
f 560/428/360 567/437/365 559/427/359
f 553/269/269 568/436/366 560/428/360
f 561/429/277 570/438/367 569/439/285
f 563/432/362 570/438/367 562/430/361
f 563/432/362 572/440/369 571/441/368
f 565/433/273 572/440/369 564/431/363
f 565/435/273 574/442/370 573/443/281
f 567/437/365 574/442/370 566/434/364
f 568/436/366 575/444/371 567/437/365
f 561/429/277 576/445/372 568/436/366
f 570/438/367 577/257/293 569/439/285
f 571/441/368 578/446/373 570/438/367
f 571/441/368 580/447/375 579/448/374
f 572/440/369 581/261/289 580/447/375
f 573/443/281 582/451/376 581/450/289
f 575/444/371 582/451/376 574/442/370
f 576/445/372 583/452/411 575/444/371
f 569/439/285 584/453/378 576/445/372
f 578/446/373 585/454/301 577/257/293
f 578/446/373 587/455/380 586/456/379
f 579/448/374 588/457/381 587/455/380
f 581/261/289 588/457/381 580/447/375
f 582/451/376 589/460/297 581/450/289
f 583/452/411 590/459/382 582/451/376
f 584/453/378 591/461/383 583/452/411
f 577/257/293 592/462/384 584/453/378
f 586/456/379 593/463/309 585/454/301
f 586/456/379 595/464/386 594/465/385
f 587/455/380 596/466/387 595/464/386
f 589/458/297 596/466/387 588/457/381
f 589/460/297 598/467/388 597/468/305
f 590/459/382 599/470/389 598/467/388
f 592/462/384 599/470/389 591/461/383
f 592/462/384 593/463/309 600/469/390
f 593/463/309 602/471/391 601/243/317
f 594/465/385 603/472/392 602/471/391
f 595/464/386 604/473/393 603/472/392
f 597/474/305 604/473/393 596/466/387
f 598/467/388 605/476/313 597/468/305
f 599/470/389 606/475/394 598/467/388
f 599/470/389 608/477/396 607/478/395
f 593/463/309 608/477/396 600/469/390
f 602/471/391 609/479/325 601/243/317
f 603/472/392 610/481/397 602/471/391
f 604/473/393 611/480/398 603/472/392
f 604/473/393 613/491/321 612/482/399
f 606/475/394 613/483/321 605/476/313
f 606/475/394 615/485/401 614/484/400
f 608/477/396 615/485/401 607/478/395
f 601/243/317 616/486/402 608/477/396
f 610/481/397 617/487/333 609/479/325
f 611/480/398 618/488/403 610/481/397
f 611/480/398 620/489/405 619/490/404
f 613/491/321 620/489/405 612/482/399
f 614/484/400 621/492/329 613/483/321
f 615/485/401 622/494/406 614/484/400
f 615/485/401 624/495/408 623/493/407
f 609/479/325 624/495/408 616/486/402
f 617/487/333 434/289/242 433/236/241
f 619/490/404 434/289/242 618/488/403
f 619/490/404 436/293/244 435/291/243
f 621/498/329 436/293/244 620/489/405
f 622/494/406 437/299/245 621/492/329
f 623/493/407 438/297/246 622/494/406
f 624/495/408 439/300/409 623/493/407
f 617/487/333 440/302/248 624/495/408
f 242/289/242 250/292/250 249/290/249
f 243/291/243 251/294/251 250/292/250
f 244/293/244 252/296/252 251/294/251
f 244/293/244 245/232/245 253/295/253
f 246/297/246 254/301/254 253/298/253
f 247/300/247 255/303/255 254/301/254
f 248/302/248 256/304/256 255/303/255
f 248/302/248 241/236/241 249/290/249
f 250/292/250 258/307/258 257/305/257
f 250/292/250 251/294/251 259/306/259
f 252/296/252 260/309/260 259/306/259
f 252/296/252 253/295/253 261/308/261
f 253/298/253 254/301/254 262/310/262
f 254/301/254 255/303/255 263/312/263
f 256/304/256 264/313/264 263/312/263
f 249/290/249 257/305/257 264/313/264
f 257/305/257 258/307/258 266/314/266
f 258/307/258 259/306/259 267/316/267
f 260/309/260 268/317/268 267/316/267
f 261/308/261 269/217/269 268/317/268
f 262/310/262 270/320/270 269/318/269
f 262/310/262 263/312/263 271/319/271
f 263/312/263 264/313/264 272/321/272
f 257/305/257 265/315/265 272/321/272
f 266/314/266 274/324/274 273/322/273
f 266/314/266 267/316/267 275/323/275
f 268/317/268 276/326/276 275/323/275
f 268/317/268 269/217/269 277/325/277
f 270/320/270 278/328/278 277/327/277
f 271/319/271 279/329/279 278/328/278
f 272/321/272 280/330/280 279/329/279
f 272/321/272 265/315/265 273/322/273
f 274/324/274 282/332/282 281/331/281
f 275/323/275 283/333/283 282/332/282
f 276/326/276 284/335/284 283/333/283
f 276/326/276 277/325/277 285/334/285
f 278/328/278 286/338/286 285/336/285
f 278/328/278 279/329/279 287/337/287
f 280/330/280 288/339/288 287/337/287
f 273/322/273 281/331/281 288/339/288
f 281/331/281 282/332/282 290/340/290
f 282/332/282 283/333/283 291/341/291
f 284/335/284 292/342/292 291/341/291
f 285/334/285 293/203/293 292/342/292
f 286/338/286 294/344/294 293/343/293
f 287/337/287 295/346/295 294/344/294
f 287/337/287 288/339/288 296/345/296
f 281/331/281 289/206/289 296/345/296
f 290/340/290 298/348/298 297/347/297
f 291/341/291 299/349/299 298/348/298
f 292/342/292 300/351/300 299/349/299
f 292/342/292 293/203/293 301/350/301
f 294/344/294 302/353/302 301/352/301
f 295/346/295 303/354/303 302/353/302
f 296/345/296 304/355/304 303/354/303
f 296/345/296 289/206/289 297/347/297
f 297/347/297 298/348/298 306/356/306
f 299/349/299 307/358/307 306/356/306
f 300/351/300 308/360/308 307/358/307
f 300/351/300 301/350/301 309/359/309
f 302/353/302 310/363/310 309/361/309
f 302/353/302 303/354/303 311/362/311
f 304/355/304 312/364/312 311/362/311
f 304/355/304 297/347/297 305/357/305
f 306/356/306 314/366/314 313/21/313
f 306/356/306 307/358/307 315/365/315
f 308/360/308 316/367/316 315/365/315
f 308/360/308 309/359/309 317/189/317
f 310/363/310 318/370/318 317/368/317
f 310/363/310 311/362/311 319/369/319
f 312/364/312 320/371/320 319/369/319
f 305/357/305 313/21/313 320/371/320
f 313/21/313 314/366/314 322/372/322
f 314/366/314 315/365/315 323/374/323
f 316/367/316 324/375/324 323/374/323
f 317/189/317 325/496/325 324/375/324
f 318/370/318 326/378/326 325/376/325
f 318/370/318 319/369/319 327/377/327
f 320/371/320 328/379/328 327/377/327
f 313/21/313 321/373/321 328/379/328
f 322/372/322 330/382/330 329/380/329
f 322/372/322 323/374/323 331/381/331
f 324/375/324 332/383/332 331/381/331
f 324/375/324 325/496/325 333/18/333
f 326/378/326 334/385/334 333/384/333
f 327/377/327 335/386/335 334/385/334
f 328/379/328 336/387/336 335/386/335
f 321/373/321 329/380/329 336/387/336
f 329/380/329 330/382/330 338/388/337
f 331/381/331 339/391/338 338/388/337
f 331/381/331 332/383/332 340/390/339
f 333/18/333 341/537/241 340/390/339
f 334/385/334 342/394/340 341/392/241
f 334/385/334 335/386/335 343/393/341
f 336/387/336 344/395/342 343/393/341
f 329/380/329 337/389/245 344/395/342
f 338/396/337 346/400/343 345/397/253
f 339/399/338 347/402/344 346/400/343
f 340/401/339 348/404/345 347/402/344
f 340/401/339 341/497/241 349/403/249
f 341/405/241 342/409/340 350/406/346
f 343/408/341 351/411/347 350/406/346
f 344/410/342 352/412/348 351/411/347
f 337/398/245 345/397/253 352/412/348
f 346/400/343 354/414/349 353/413/261
f 347/402/344 355/416/350 354/414/349
f 347/402/344 348/404/345 356/415/351
f 348/404/345 349/403/249 357/417/257
f 349/407/249 350/406/346 358/418/352
f 350/406/346 351/411/347 359/420/353
f 351/411/347 352/412/348 360/421/354
f 345/397/253 353/413/261 360/421/354
f 353/413/261 354/414/349 362/422/355
f 354/414/349 355/416/350 363/423/356
f 355/416/350 356/415/351 364/424/357
f 356/415/351 357/417/257 365/280/265
f 358/418/352 366/426/358 365/425/265
f 359/420/353 367/427/359 366/426/358
f 360/421/354 368/428/360 367/427/359
f 353/413/261 361/269/269 368/428/360
f 362/422/355 370/430/361 369/429/277
f 363/423/356 371/432/362 370/430/361
f 363/423/356 364/424/357 372/431/363
f 364/424/357 365/280/265 373/433/273
f 365/425/265 366/426/358 374/434/364
f 367/427/359 375/437/365 374/434/364
f 367/427/359 368/428/360 376/436/366
f 361/269/269 369/429/277 376/436/366
f 369/429/277 370/430/361 378/438/367
f 371/432/362 379/441/368 378/438/367
f 371/432/362 372/431/363 380/440/369
f 373/433/273 381/449/281 380/440/369
f 373/435/273 374/434/364 382/442/370
f 375/437/365 383/444/371 382/442/370
f 376/436/366 384/445/372 383/444/371
f 369/429/277 377/439/285 384/445/372
f 378/438/367 386/446/373 385/257/293
f 379/441/368 387/448/374 386/446/373
f 379/441/368 380/440/369 388/447/375
f 381/449/281 389/261/289 388/447/375
f 382/442/370 390/451/376 389/450/289
f 383/444/371 391/452/377 390/451/376
f 384/445/372 392/453/378 391/452/377
f 377/439/285 385/257/293 392/453/378
f 386/446/373 394/456/379 393/454/301
f 386/446/373 387/448/374 395/455/380
f 387/448/374 388/447/375 396/457/381
f 388/447/375 389/261/289 397/458/297
f 389/450/289 390/451/376 398/459/382
f 390/451/376 391/452/377 399/461/383
f 392/453/378 400/462/384 399/461/383
f 385/257/293 393/454/301 400/462/384
f 394/456/379 402/465/385 401/463/309
f 394/456/379 395/455/380 403/464/386
f 395/455/380 396/457/381 404/466/387
f 397/458/297 405/474/305 404/466/387
f 397/460/297 398/459/382 406/467/388
f 399/461/383 407/470/389 406/467/388
f 399/461/383 400/462/384 408/469/390
f 393/454/301 401/463/309 408/469/390
f 401/463/309 402/465/385 410/471/391
f 402/465/385 403/464/386 411/472/392
f 403/464/386 404/466/387 412/473/393
f 405/474/305 413/247/313 412/473/393
f 405/468/305 406/467/388 414/475/394
f 407/470/389 415/478/395 414/475/394
f 407/470/389 408/469/390 416/477/396
f 401/463/309 409/243/317 416/477/396
f 410/471/391 418/481/397 417/479/325
f 410/471/391 411/472/392 419/480/398
f 411/472/392 412/473/393 420/482/399
f 413/247/313 421/491/321 420/482/399
f 414/475/394 422/484/400 421/483/321
f 415/478/395 423/485/401 422/484/400
f 416/477/396 424/486/402 423/485/401
f 416/477/396 409/243/317 417/479/325
f 418/481/397 426/488/403 425/487/333
f 419/480/398 427/490/404 426/488/403
f 419/480/398 420/482/399 428/489/405
f 421/491/321 429/498/329 428/489/405
f 422/484/400 430/494/406 429/492/329
f 422/484/400 423/485/401 431/493/407
f 424/486/402 432/495/408 431/493/407
f 424/486/402 417/479/325 425/487/333
f 426/488/403 242/289/242 241/236/241
f 427/490/404 243/291/243 242/289/242
f 427/490/404 428/489/405 244/293/244
f 428/489/405 429/498/329 245/232/245
f 429/492/329 430/494/406 246/297/246
f 430/494/406 431/493/407 247/300/247
f 431/493/407 432/495/408 248/302/248
f 432/495/408 425/487/333 241/236/241
f 434/289/242 442/292/250 441/290/249
f 435/291/243 443/294/251 442/292/250
f 436/293/244 444/296/252 443/294/251
f 437/232/245 445/295/253 444/296/252
f 438/297/246 446/301/254 445/298/253
f 438/297/246 439/300/409 447/303/255
f 439/300/409 440/302/248 448/304/256
f 433/236/241 441/290/249 448/304/256
f 442/292/250 450/307/258 449/305/257
f 442/292/250 443/294/251 451/306/259
f 444/296/252 452/309/260 451/306/259
f 444/296/252 445/295/253 453/308/261
f 445/298/253 446/301/254 454/310/262
f 447/303/255 455/312/263 454/310/262
f 448/304/256 456/313/264 455/312/263
f 448/304/256 441/290/249 449/305/257
f 449/305/257 450/307/258 458/314/266
f 451/306/259 459/316/267 458/314/266
f 451/306/259 452/309/260 460/317/268
f 453/308/261 461/217/269 460/317/268
f 453/311/261 454/310/262 462/320/270
f 454/310/262 455/312/263 463/319/271
f 456/313/264 464/321/272 463/319/271
f 456/313/264 449/305/257 457/315/265
f 458/314/266 466/324/274 465/322/273
f 459/316/267 467/323/275 466/324/274
f 460/317/268 468/326/276 467/323/275
f 461/217/269 469/325/277 468/326/276
f 461/318/269 462/320/270 470/328/278
f 463/319/271 471/329/279 470/328/278
f 464/321/272 472/330/280 471/329/279
f 457/315/265 465/322/273 472/330/280
f 466/324/274 474/332/282 473/331/281
f 466/324/274 467/323/275 475/333/283
f 468/326/276 476/335/284 475/333/283
f 468/326/276 469/325/277 477/334/285
f 470/328/278 478/338/286 477/336/285
f 470/328/278 471/329/279 479/337/287
f 472/330/280 480/339/288 479/337/287
f 472/330/280 465/322/273 473/331/281
f 473/331/281 474/332/282 482/340/290
f 474/332/282 475/333/283 483/341/291
f 476/335/284 484/342/292 483/341/291
f 477/334/285 485/203/293 484/342/292
f 478/338/286 486/344/294 485/343/293
f 478/338/286 479/337/287 487/346/295
f 479/337/287 480/339/288 488/345/296
f 473/331/281 481/206/289 488/345/296
f 482/340/290 490/348/298 489/347/297
f 482/340/290 483/341/291 491/349/299
f 484/342/292 492/351/300 491/349/299
f 484/342/292 485/203/293 493/350/301
f 486/344/294 494/353/302 493/352/301
f 487/346/295 495/354/303 494/353/302
f 488/345/296 496/355/304 495/354/303
f 488/345/296 481/206/289 489/347/297
f 490/348/298 498/356/306 497/357/305
f 490/348/298 491/349/299 499/358/307
f 492/351/300 500/360/308 499/358/307
f 493/350/301 501/359/309 500/360/308
f 494/353/302 502/363/310 501/361/309
f 494/353/302 495/354/303 503/362/311
f 496/355/304 504/364/312 503/362/311
f 496/355/304 489/347/297 497/357/305
f 498/356/306 506/366/314 505/21/313
f 498/356/306 499/358/307 507/365/315
f 500/360/308 508/367/316 507/365/315
f 500/360/308 501/359/309 509/189/317
f 502/363/310 510/370/318 509/368/317
f 502/363/310 503/362/311 511/369/319
f 503/362/311 504/364/312 512/371/320
f 504/364/312 497/357/305 505/21/313
f 505/21/313 506/366/314 514/372/322
f 507/365/315 515/374/323 514/372/322
f 508/367/316 516/375/324 515/374/323
f 508/367/316 509/189/317 517/496/325
f 509/368/317 510/370/318 518/378/326
f 510/370/318 511/369/319 519/377/327
f 512/371/320 520/379/328 519/377/327
f 505/21/313 513/373/321 520/379/328
f 514/372/322 522/382/330 521/380/329
f 514/372/322 515/374/323 523/381/331
f 516/375/324 524/383/332 523/381/331
f 517/496/325 525/18/333 524/383/332
f 518/378/326 526/385/334 525/384/333
f 519/377/327 527/386/335 526/385/334
f 520/379/328 528/387/336 527/386/335
f 520/379/328 513/373/321 521/380/329
f 522/382/330 530/388/337 529/389/245
f 522/382/330 523/381/331 531/391/410
f 523/381/331 524/383/332 532/390/339
f 525/18/333 533/537/241 532/390/339
f 526/385/334 534/394/340 533/392/241
f 526/385/334 527/386/335 535/393/341
f 528/387/336 536/395/342 535/393/341
f 528/387/336 521/380/329 529/389/245
f 530/396/337 538/400/343 537/397/253
f 531/399/410 539/402/344 538/400/343
f 531/399/410 532/401/339 540/404/345
f 533/497/241 541/403/249 540/404/345
f 534/409/340 542/406/346 541/407/249
f 535/408/341 543/411/347 542/406/346
f 535/408/341 536/410/342 544/412/348
f 529/398/245 537/397/253 544/412/348
f 538/400/343 546/414/349 545/413/261
f 539/402/344 547/416/350 546/414/349
f 540/404/345 548/415/351 547/416/350
f 541/403/249 549/417/257 548/415/351
f 542/406/346 550/418/352 549/419/257
f 542/406/346 543/411/347 551/420/353
f 543/411/347 544/412/348 552/421/354
f 537/397/253 545/413/261 552/421/354
f 546/414/349 554/422/355 553/269/269
f 546/414/349 547/416/350 555/423/356
f 548/415/351 556/424/357 555/423/356
f 548/415/351 549/417/257 557/280/265
f 549/419/257 550/418/352 558/426/358
f 551/420/353 559/427/359 558/426/358
f 552/421/354 560/428/360 559/427/359
f 545/413/261 553/269/269 560/428/360
f 553/269/269 554/422/355 562/430/361
f 555/423/356 563/432/362 562/430/361
f 555/423/356 556/424/357 564/431/363
f 557/280/265 565/433/273 564/431/363
f 557/425/265 558/426/358 566/434/364
f 559/427/359 567/437/365 566/434/364
f 560/428/360 568/436/366 567/437/365
f 553/269/269 561/429/277 568/436/366
f 561/429/277 562/430/361 570/438/367
f 563/432/362 571/441/368 570/438/367
f 563/432/362 564/431/363 572/440/369
f 565/433/273 573/449/281 572/440/369
f 565/435/273 566/434/364 574/442/370
f 567/437/365 575/444/371 574/442/370
f 568/436/366 576/445/372 575/444/371
f 561/429/277 569/439/285 576/445/372
f 570/438/367 578/446/373 577/257/293
f 571/441/368 579/448/374 578/446/373
f 571/441/368 572/440/369 580/447/375
f 572/440/369 573/449/281 581/261/289
f 573/443/281 574/442/370 582/451/376
f 575/444/371 583/452/411 582/451/376
f 576/445/372 584/453/378 583/452/411
f 569/439/285 577/257/293 584/453/378
f 578/446/373 586/456/379 585/454/301
f 578/446/373 579/448/374 587/455/380
f 579/448/374 580/447/375 588/457/381
f 581/261/289 589/458/297 588/457/381
f 582/451/376 590/459/382 589/460/297
f 583/452/411 591/461/383 590/459/382
f 584/453/378 592/462/384 591/461/383
f 577/257/293 585/454/301 592/462/384
f 586/456/379 594/465/385 593/463/309
f 586/456/379 587/455/380 595/464/386
f 587/455/380 588/457/381 596/466/387
f 589/458/297 597/474/305 596/466/387
f 589/460/297 590/459/382 598/467/388
f 590/459/382 591/461/383 599/470/389
f 592/462/384 600/469/390 599/470/389
f 592/462/384 585/454/301 593/463/309
f 593/463/309 594/465/385 602/471/391
f 594/465/385 595/464/386 603/472/392
f 595/464/386 596/466/387 604/473/393
f 597/474/305 605/247/313 604/473/393
f 598/467/388 606/475/394 605/476/313
f 599/470/389 607/478/395 606/475/394
f 599/470/389 600/469/390 608/477/396
f 593/463/309 601/243/317 608/477/396
f 602/471/391 610/481/397 609/479/325
f 603/472/392 611/480/398 610/481/397
f 604/473/393 612/482/399 611/480/398
f 604/473/393 605/247/313 613/491/321
f 606/475/394 614/484/400 613/483/321
f 606/475/394 607/478/395 615/485/401
f 608/477/396 616/486/402 615/485/401
f 601/243/317 609/479/325 616/486/402
f 610/481/397 618/488/403 617/487/333
f 611/480/398 619/490/404 618/488/403
f 611/480/398 612/482/399 620/489/405
f 613/491/321 621/498/329 620/489/405
f 614/484/400 622/494/406 621/492/329
f 615/485/401 623/493/407 622/494/406
f 615/485/401 616/486/402 624/495/408
f 609/479/325 617/487/333 624/495/408
f 617/487/333 618/488/403 434/289/242
f 619/490/404 435/291/243 434/289/242
f 619/490/404 620/489/405 436/293/244
f 621/498/329 437/232/245 436/293/244
f 622/494/406 438/297/246 437/299/245
f 623/493/407 439/300/409 438/297/246
f 624/495/408 440/302/248 439/300/409
f 617/487/333 433/236/241 440/302/248
