# Blender 5.2.1 LTS
# www.blender.org
mtllib SM_LT_HubSlice_MaritimeDetails.mtl
o SM_LT_HubSlice_MaritimeDetails.001
v 919.166504 2709.090332 125.000000
v 918.817871 2713.075195 129.000000
v 915.181702 2708.741699 129.000000
v 918.817871 2713.075195 391.000000
v 919.166504 2709.090332 395.000000
v 915.181702 2708.741699 391.000000
v 920.909607 2689.166504 125.000000
v 916.924805 2688.817871 129.000000
v 921.258240 2685.181641 129.000000
v 920.909607 2689.166504 395.000000
v 921.258240 2685.181641 391.000000
v 916.924805 2688.817871 391.000000
v 939.090393 2710.833496 125.000000
v 943.075195 2711.182129 129.000000
v 938.741760 2714.818359 129.000000
v 939.090393 2710.833496 395.000000
v 938.741760 2714.818359 391.000000
v 943.075195 2711.182129 391.000000
v 940.833496 2690.909668 125.000000
v 941.182129 2686.924805 129.000000
v 944.818298 2691.258301 129.000000
v 940.833496 2690.909668 395.000000
v 944.818298 2691.258301 391.000000
v 941.182129 2686.924805 391.000000
v 1359.166504 2709.090576 125.000000
v 1358.817871 2713.075195 129.000000
v 1355.181763 2708.741943 129.000000
v 1358.817871 2713.075195 391.000000
v 1359.166504 2709.090576 395.000000
v 1355.181763 2708.741943 391.000000
v 1360.909668 2689.166748 125.000000
v 1356.924805 2688.818115 129.000000
v 1361.258301 2685.181885 129.000000
v 1360.909668 2689.166748 395.000000
v 1361.258301 2685.181885 391.000000
v 1356.924805 2688.818115 391.000000
v 1379.090454 2710.833740 125.000000
v 1383.075195 2711.182373 129.000000
v 1378.741821 2714.818359 129.000000
v 1379.090454 2710.833740 395.000000
v 1378.741821 2714.818359 391.000000
v 1383.075195 2711.182373 391.000000
v 1380.833496 2690.909668 125.000000
v 1381.182129 2686.925049 129.000000
v 1384.818359 2691.258301 129.000000
v 1380.833496 2690.909668 395.000000
v 1384.818359 2691.258301 391.000000
v 1381.182129 2686.925049 391.000000
v 919.181763 2687.836670 373.000000
v 918.833130 2691.821533 377.000000
v 915.197021 2687.488037 377.000000
v 918.833130 2691.821533 393.000000
v 919.181763 2687.836670 397.000000
v 915.197021 2687.488037 393.000000
v 920.576233 2671.897705 373.000000
v 916.591492 2671.549072 377.000000
v 920.924866 2667.912842 377.000000
v 920.576233 2671.897705 397.000000
v 920.924866 2667.912842 393.000000
v 916.591492 2671.549072 393.000000
v 1379.423706 2728.102783 373.000000
v 1383.408447 2728.451416 377.000000
v 1379.075195 2732.087402 377.000000
v 1379.423706 2728.102783 397.000000
v 1379.075195 2732.087402 393.000000
v 1383.408447 2728.451416 393.000000
v 1380.818237 2712.163574 373.000000
v 1381.166870 2708.178711 377.000000
v 1384.802979 2712.512207 377.000000
v 1380.818237 2712.163574 397.000000
v 1384.802979 2712.512207 393.000000
v 1381.166870 2708.178711 393.000000
v 956.647949 2695.059814 370.401855
v 954.859070 2695.954102 370.401855
v 953.211182 2694.894531 370.000000
v 953.352234 2692.940186 369.598145
v 955.141113 2692.045898 369.598145
v 956.788879 2693.105469 370.000000
v 964.664307 2711.109131 294.984619
v 962.872620 2711.995117 295.056122
v 961.208435 2710.885986 295.071503
v 961.335938 2708.890869 295.015381
v 963.127625 2708.004883 294.943878
v 964.791687 2709.114014 294.928497
v 952.625610 2699.081787 219.566833
v 950.840515 2699.972412 219.709930
v 949.215088 2698.890625 220.143097
v 949.374634 2696.918457 220.433167
v 951.159607 2696.027832 220.290070
v 952.785156 2697.109375 219.856903
v 1012.648010 2695.060059 370.401855
v 1010.859009 2695.954346 370.401855
v 1009.211243 2694.894531 370.000000
v 1009.352173 2692.940430 369.598145
v 1011.141052 2692.046143 369.598145
v 1012.789001 2693.105469 370.000000
v 1020.664246 2711.108887 294.984619
v 1018.872559 2711.995361 295.056122
v 1017.208374 2710.885986 295.071503
v 1017.335876 2708.890869 295.015381
v 1019.127563 2708.004883 294.943878
v 1020.791748 2709.114258 294.928497
v 1008.625549 2699.081787 219.566833
v 1006.840576 2699.972412 219.709930
v 1005.215088 2698.890625 220.143097
v 1005.374634 2696.918213 220.433167
v 1007.159607 2696.027588 220.290070
v 1008.785156 2697.109375 219.856903
v 1068.647949 2695.059814 370.401855
v 1066.859131 2695.954102 370.401855
v 1065.211182 2694.894287 370.000000
v 1065.352173 2692.940186 369.598145
v 1067.140991 2692.045898 369.598145
v 1068.788940 2693.105469 370.000000
v 1076.664185 2711.109131 294.984619
v 1074.872681 2711.995117 295.056122
v 1073.208496 2710.885986 295.071503
v 1073.335815 2708.890869 295.015381
v 1075.127563 2708.004883 294.943878
v 1076.791748 2709.114014 294.928497
v 1064.625610 2699.081787 219.566833
v 1062.840576 2699.972412 219.709930
v 1061.215088 2698.890625 220.143097
v 1061.374634 2696.918213 220.433167
v 1063.159546 2696.027832 220.290070
v 1064.785278 2697.109375 219.856903
v 1124.648071 2695.059814 370.401855
v 1122.859131 2695.954346 370.401855
v 1121.211304 2694.894531 370.000000
v 1121.352051 2692.940430 369.598145
v 1123.140991 2692.045898 369.598145
v 1124.788940 2693.105469 370.000000
v 1132.664307 2711.108887 294.984619
v 1130.872559 2711.995117 295.056122
v 1129.208496 2710.885986 295.071503
v 1129.335815 2708.890869 295.015381
v 1131.127563 2708.004883 294.943878
v 1132.791748 2709.114258 294.928497
v 1120.625610 2699.081787 219.566833
v 1118.840576 2699.972412 219.709930
v 1117.214966 2698.890869 220.143097
v 1117.374512 2696.918457 220.433167
v 1119.159668 2696.027588 220.290070
v 1120.785156 2697.109375 219.856903
v 1180.647949 2695.060059 370.401855
v 1178.859131 2695.954102 370.401855
v 1177.211182 2694.894531 370.000000
v 1177.352173 2692.940186 369.598145
v 1179.141113 2692.046143 369.598145
v 1180.788818 2693.105469 370.000000
v 1188.664307 2711.109131 294.984619
v 1186.872681 2711.995117 295.056122
v 1185.208496 2710.886230 295.071503
v 1185.335938 2708.890869 295.015381
v 1187.127563 2708.005127 294.943878
v 1188.791748 2709.114014 294.928497
v 1176.625610 2699.082031 219.566833
v 1174.840576 2699.972412 219.709930
v 1173.215088 2698.890625 220.143097
v 1173.374634 2696.918213 220.433167
v 1175.159668 2696.027832 220.290070
v 1176.785156 2697.109619 219.856903
v 1236.647949 2695.059814 370.401855
v 1234.859131 2695.954346 370.401855
v 1233.211182 2694.894531 370.000000
v 1233.352173 2692.940430 369.598145
v 1235.140991 2692.045898 369.598145
v 1236.788940 2693.105469 370.000000
v 1244.664307 2711.108887 294.984619
v 1242.872681 2711.995117 295.056122
v 1241.208496 2710.885986 295.071503
v 1241.335815 2708.890869 295.015381
v 1243.127563 2708.004883 294.943878
v 1244.791748 2709.114258 294.928497
v 1232.625732 2699.081787 219.566833
v 1230.840576 2699.972412 219.709930
v 1229.214966 2698.890625 220.143097
v 1229.374634 2696.918457 220.433167
v 1231.159546 2696.027588 220.290070
v 1232.785156 2697.109375 219.856903
v 1292.647949 2695.060059 370.401855
v 1290.859131 2695.954102 370.401855
v 1289.211304 2694.894531 370.000000
v 1289.352173 2692.940186 369.598145
v 1291.140991 2692.046143 369.598145
v 1292.788940 2693.105469 370.000000
v 1300.664307 2711.109131 294.984619
v 1298.872559 2711.995361 295.056122
v 1297.208496 2710.885986 295.071503
v 1297.335815 2708.890869 295.015381
v 1299.127441 2708.005127 294.943878
v 1300.791748 2709.114258 294.928497
v 1288.625610 2699.081787 219.566833
v 1286.840698 2699.972412 219.709930
v 1285.214966 2698.890625 220.143097
v 1285.374512 2696.918213 220.433167
v 1287.159668 2696.027588 220.290070
v 1288.785156 2697.109619 219.856903
v 1348.648071 2695.059814 370.401855
v 1346.859131 2695.954102 370.401855
v 1345.211304 2694.894531 370.000000
v 1345.352173 2692.940430 369.598145
v 1347.141113 2692.045898 369.598145
v 1348.788818 2693.105469 370.000000
v 1356.664307 2711.109131 294.984619
v 1354.872681 2711.995117 295.056122
v 1353.208496 2710.885986 295.071503
v 1353.335938 2708.890869 295.015381
v 1355.127563 2708.004883 294.943878
v 1356.791748 2709.114014 294.928497
v 1344.625610 2699.081787 219.566833
v 1342.840576 2699.972412 219.709930
v 1341.215088 2698.890625 220.143097
v 1341.374634 2696.918457 220.433167
v 1343.159668 2696.027832 220.290070
v 1344.785156 2697.109375 219.856903
v 950.194885 2697.015381 236.729919
v 949.976257 2699.003418 236.729919
v 949.781372 2699.988281 235.000000
v 949.805237 2698.984375 233.270081
v 950.023987 2696.996582 233.270081
v 950.218811 2696.012207 235.000000
v 1150.008911 2719.004395 226.734756
v 1149.998901 2721.004639 226.729324
v 1149.990234 2722.000000 224.994568
v 1149.991211 2720.995361 223.265244
v 1150.001221 2718.995361 223.270676
v 1150.010010 2718.000000 225.005432
v 1369.822754 2697.013672 236.730743
v 1370.021851 2699.003662 236.729813
v 1370.199219 2699.989990 234.999069
v 1370.177490 2698.986328 233.269257
v 1369.978394 2696.996338 233.270187
v 1369.801025 2696.010010 235.000931
v 950.224670 2697.022461 270.730347
v 949.927856 2699.000000 270.730347
v 949.703369 2699.978027 269.000000
v 949.775574 2698.977783 267.269653
v 950.072266 2696.999756 267.269653
v 950.296692 2696.022461 269.000000
v 1150.010254 2727.005859 261.735352
v 1149.996826 2729.005859 261.728729
v 1149.986816 2730.000000 259.993378
v 1149.989990 2728.994141 258.264648
v 1150.003418 2726.994385 258.271271
v 1150.013428 2726.000000 260.006622
v 1369.795654 2697.019531 270.731201
v 1370.065918 2699.000977 270.730072
v 1370.270386 2699.981689 268.998871
v 1370.204590 2698.980713 267.268799
v 1369.934326 2696.998535 267.269928
v 1369.729980 2696.018311 269.001129
v 950.177917 2697.013428 304.730682
v 949.959106 2699.001465 304.730682
v 949.781372 2699.988281 303.000000
v 949.822327 2698.986572 301.269318
v 950.041016 2696.998535 301.269318
v 950.218811 2696.012207 303.000000
v 1150.008179 2719.003906 296.734222
v 1149.998291 2721.003662 296.729858
v 1149.990234 2722.000000 294.995636
v 1149.991943 2720.996094 293.265778
v 1150.001831 2718.996582 293.270142
v 1150.010010 2718.000000 295.004364
v 1369.838379 2697.011963 304.731293
v 1370.037354 2699.001953 304.730530
v 1370.199219 2699.989990 302.999237
v 1370.161865 2698.988037 301.268707
v 1369.962891 2696.997803 301.269470
v 1369.801025 2696.010010 303.000763
v 950.207703 2697.020020 338.731018
v 949.910950 2698.997559 338.731018
v 949.703369 2699.978027 337.000000
v 949.792480 2698.980225 335.268982
v 950.089172 2697.002197 335.268982
v 950.296692 2696.022461 337.000000
v 1150.009521 2727.004395 331.734619
v 1149.995972 2729.004395 331.729462
v 1149.986816 2730.000000 329.994843
v 1149.990723 2728.995605 328.265381
v 1150.004150 2726.995605 328.270538
v 1150.013428 2726.000000 330.005157
v 1369.811035 2697.017334 338.731628
v 1370.081299 2698.999023 338.730743
v 1370.270386 2699.981689 336.999115
v 1370.189209 2698.982666 335.268372
v 1369.918945 2697.000977 335.269257
v 1369.729980 2696.018311 337.000885
v 1020.000122 2685.000000 315.000000
v 1016.545166 2689.755127 315.000000
v 1010.955017 2687.938721 315.000000
v 1010.955017 2682.061035 315.000000
v 1016.545166 2680.244629 315.000000
v 1018.019470 2685.000000 323.677673
v 1014.906738 2689.755127 322.178650
v 1009.870117 2687.938721 319.753174
v 1009.870117 2682.061035 319.753174
v 1014.906738 2680.244629 322.178650
v 1012.469910 2685.000000 330.636627
v 1010.315796 2689.755127 327.935486
v 1006.830383 2687.938721 323.564911
v 1006.830383 2682.061035 323.564911
v 1010.315796 2680.244629 327.935486
v 1004.450562 2685.000000 334.498566
v 1003.681763 2689.755127 331.130249
v 1002.437805 2687.938721 325.680237
v 1002.437805 2682.061035 325.680237
v 1003.681763 2680.244629 331.130249
v 995.549683 2685.000000 334.498566
v 996.318481 2689.755127 331.130249
v 997.562439 2687.938721 325.680237
v 997.562439 2682.061035 325.680237
v 996.318481 2680.244629 331.130249
v 987.530334 2685.000000 330.636627
v 989.684387 2689.755127 327.935486
v 993.169800 2687.938721 323.564880
v 993.169861 2682.061035 323.564880
v 989.684387 2680.244629 327.935486
v 981.980713 2685.000000 323.677673
v 985.093506 2689.755127 322.178650
v 990.130066 2687.938721 319.753174
v 990.130066 2682.061035 319.753174
v 985.093506 2680.244629 322.178650
v 980.000122 2685.000000 315.000000
v 983.455017 2689.755127 315.000000
v 989.045166 2687.938721 315.000000
v 989.045166 2682.061035 315.000000
v 983.455017 2680.244629 315.000000
v 981.980713 2685.000000 306.322327
v 985.093506 2689.755127 307.821350
v 990.130066 2687.938721 310.246857
v 990.130066 2682.061035 310.246857
v 985.093506 2680.244629 307.821350
v 987.530334 2685.000000 299.363373
v 989.684387 2689.755127 302.064545
v 993.169800 2687.938721 306.435120
v 993.169861 2682.061035 306.435120
v 989.684387 2680.244629 302.064545
v 995.549683 2685.000000 295.501434
v 996.318481 2689.755127 298.869751
v 997.562439 2687.938721 304.319763
v 997.562439 2682.061035 304.319763
v 996.318481 2680.244629 298.869751
v 1004.450562 2685.000000 295.501434
v 1003.681763 2689.755127 298.869751
v 1002.437805 2687.938721 304.319763
v 1002.437805 2682.061035 304.319763
v 1003.681763 2680.244629 298.869751
v 1012.469910 2685.000000 299.363373
v 1010.315796 2689.755127 302.064514
v 1006.830383 2687.938721 306.435089
v 1006.830383 2682.061035 306.435089
v 1010.315796 2680.244629 302.064514
v 1018.019470 2685.000000 306.322327
v 1014.906738 2689.755127 307.821350
v 1009.870117 2687.938721 310.246826
v 1009.870117 2682.061035 310.246826
v 1014.906738 2680.244629 307.821350
v 1280.000122 2685.000000 315.000000
v 1276.545166 2689.755371 315.000000
v 1270.955078 2687.938965 315.000000
v 1270.955078 2682.061035 315.000000
v 1276.545166 2680.244629 315.000000
v 1278.019531 2685.000000 323.677673
v 1274.906738 2689.755371 322.178650
v 1269.870117 2687.938965 319.753174
v 1269.870117 2682.061035 319.753174
v 1274.906738 2680.244629 322.178650
v 1272.469849 2685.000000 330.636627
v 1270.315796 2689.755371 327.935486
v 1266.830322 2687.938965 323.564911
v 1266.830444 2682.061035 323.564911
v 1270.315796 2680.244629 327.935486
v 1264.450562 2685.000000 334.498566
v 1263.681641 2689.755371 331.130249
v 1262.437744 2687.938965 325.680237
v 1262.437744 2682.061035 325.680237
v 1263.681763 2680.244629 331.130249
v 1255.549683 2685.000000 334.498566
v 1256.318481 2689.755371 331.130249
v 1257.562378 2687.938965 325.680237
v 1257.562378 2682.061035 325.680237
v 1256.318481 2680.244629 331.130249
v 1247.530273 2685.000000 330.636627
v 1249.684326 2689.755371 327.935486
v 1253.169800 2687.938965 323.564880
v 1253.169800 2682.061035 323.564880
v 1249.684326 2680.244629 327.935486
v 1241.980713 2685.000000 323.677673
v 1245.093506 2689.755371 322.178650
v 1250.130127 2687.938965 319.753174
v 1250.130127 2682.061035 319.753174
v 1245.093506 2680.244629 322.178650
v 1240.000122 2685.000000 315.000000
v 1243.455078 2689.755371 315.000000
v 1249.045166 2687.938965 315.000000
v 1249.045166 2682.061035 315.000000
v 1243.455078 2680.244629 315.000000
v 1241.980713 2685.000000 306.322327
v 1245.093506 2689.755371 307.821350
v 1250.130127 2687.938965 310.246857
v 1250.130127 2682.061035 310.246857
v 1245.093506 2680.244629 307.821350
v 1247.530273 2685.000000 299.363373
v 1249.684326 2689.755371 302.064545
v 1253.169800 2687.938965 306.435120
v 1253.169800 2682.061035 306.435120
v 1249.684326 2680.244629 302.064545
v 1255.549683 2685.000000 295.501434
v 1256.318481 2689.755371 298.869751
v 1257.562378 2687.938965 304.319763
v 1257.562378 2682.061035 304.319763
v 1256.318481 2680.244629 298.869751
v 1264.450562 2685.000000 295.501434
v 1263.681641 2689.755371 298.869751
v 1262.437744 2687.938965 304.319763
v 1262.437744 2682.061035 304.319763
v 1263.681763 2680.244629 298.869751
v 1272.469849 2685.000000 299.363373
v 1270.315796 2689.755371 302.064514
v 1266.830322 2687.938965 306.435089
v 1266.830322 2682.061035 306.435089
v 1270.315796 2680.244629 302.064514
v 1278.019531 2685.000000 306.322327
v 1274.906738 2689.755371 307.821350
v 1269.870117 2687.938965 310.246826
v 1269.870117 2682.061035 310.246826
v 1274.906738 2680.244629 307.821350
v -426.808838 1519.035522 125.000000
v -426.252075 1522.996460 129.000000
v -430.769775 1519.592163 129.000000
v -426.252075 1522.996460 371.000000
v -426.808838 1519.035522 375.000000
v -430.769775 1519.592163 371.000000
v -429.035645 1503.191162 125.000000
v -432.996582 1503.747803 129.000000
v -429.592285 1499.230103 129.000000
v -429.035645 1503.191162 375.000000
v -429.592285 1499.230103 371.000000
v -432.996582 1503.747803 371.000000
v -410.964478 1516.808716 125.000000
v -407.003296 1516.252075 129.000000
v -410.407715 1520.769653 129.000000
v -410.964478 1516.808716 375.000000
v -410.407715 1520.769653 371.000000
v -407.003296 1516.252075 371.000000
v -413.191284 1500.964355 125.000000
v -413.747925 1497.003296 129.000000
v -409.230103 1500.407715 129.000000
v -413.191284 1500.964355 375.000000
v -409.230103 1500.407715 371.000000
v -413.747925 1497.003296 371.000000
v -423.868042 1507.854248 372.331268
v -419.395874 1505.618164 372.331268
v -415.527832 1507.763916 370.000000
v -416.132080 1512.145752 367.668732
v -420.604126 1514.381714 367.668732
v -424.472168 1512.236084 370.000000
v -433.951782 1487.041382 335.793518
v -429.399780 1485.578735 337.256531
v -425.447998 1488.537231 336.463043
v -426.048218 1492.958618 334.206482
v -430.599976 1494.421387 332.743469
v -434.551880 1491.462646 333.536957
v -417.368164 1476.372559 309.295288
v -413.371582 1475.546265 312.183746
v -410.003174 1479.173584 312.888458
v -410.631592 1483.627441 310.704712
v -414.628418 1484.453613 307.816254
v -417.996704 1480.826294 307.111542
v -570.032959 1709.390381 131.000000
v -567.999390 1713.958252 136.000000
v -574.600830 1711.424072 136.000000
v -567.999390 1713.958252 154.000000
v -570.032959 1709.390381 159.000000
v -574.600830 1711.424072 154.000000
v -576.134033 1695.687256 131.000000
v -580.701782 1697.720947 136.000000
v -578.167725 1691.119629 136.000000
v -576.134033 1695.687256 159.000000
v -578.167725 1691.119629 154.000000
v -580.701782 1697.720947 154.000000
v -423.865845 1644.312622 131.000000
v -419.298096 1642.278931 136.000000
v -421.832153 1648.880371 136.000000
v -423.865845 1644.312622 159.000000
v -421.832153 1648.880371 154.000000
v -419.298096 1642.278931 154.000000
v -429.966797 1630.609375 131.000000
v -432.000488 1626.041626 136.000000
v -425.399048 1628.575806 136.000000
v -429.966797 1630.609375 159.000000
v -425.399048 1628.575806 154.000000
v -432.000488 1626.041626 154.000000
v -523.489624 1709.193726 131.000000
v -522.880249 1714.156494 136.000000
v -528.452393 1709.802979 136.000000
v -522.880249 1714.156494 154.000000
v -523.489624 1709.193726 159.000000
v -528.452393 1709.802979 154.000000
v -525.317627 1694.305420 131.000000
v -530.280396 1694.914795 136.000000
v -525.927002 1689.342773 136.000000
v -525.317627 1694.305420 159.000000
v -525.927002 1689.342773 154.000000
v -530.280396 1694.914795 154.000000
v -364.682251 1689.694580 131.000000
v -359.719482 1689.085205 136.000000
v -364.072876 1694.657349 136.000000
v -364.682251 1689.694580 159.000000
v -364.072876 1694.657349 154.000000
v -359.719482 1689.085205 154.000000
v -366.510254 1674.806396 131.000000
v -367.119507 1669.843628 136.000000
v -361.547485 1674.197021 136.000000
v -366.510254 1674.806396 159.000000
v -361.547485 1674.197021 154.000000
v -367.119507 1669.843628 154.000000
v -470.086914 1707.494141 131.000000
v -470.955200 1712.418213 136.000000
v -475.010986 1706.625977 136.000000
v -470.955200 1712.418213 154.000000
v -470.086914 1707.494141 159.000000
v -475.010986 1706.625977 154.000000
v -467.482178 1692.722168 131.000000
v -472.406128 1691.853882 136.000000
v -466.613892 1687.798096 136.000000
v -467.482178 1692.722168 159.000000
v -466.613892 1687.798096 154.000000
v -472.406128 1691.853882 154.000000
v -312.517822 1735.277832 131.000000
v -307.593750 1736.146240 136.000000
v -313.385986 1740.201904 136.000000
v -312.517822 1735.277832 159.000000
v -313.385986 1740.201904 154.000000
v -307.593750 1736.146240 154.000000
v -309.912964 1720.505737 131.000000
v -309.044678 1715.581787 136.000000
v -304.989014 1721.374023 136.000000
v -309.912964 1720.505737 159.000000
v -304.989014 1721.374023 154.000000
v -309.044678 1715.581787 154.000000
v -410.000122 1650.000000 146.000000
v -412.764038 1653.804199 146.000000
v -417.236084 1652.351074 146.000000
v -417.236084 1647.648804 146.000000
v -412.763916 1646.195801 146.000000
v -413.044800 1650.000000 161.307343
v -415.598389 1653.804199 160.249634
v -419.730225 1652.351196 158.538208
v -419.730103 1647.648926 158.538208
v -415.598267 1646.195801 160.249634
v -421.715820 1650.000000 174.284271
v -423.670044 1653.804199 172.329880
v -426.832397 1652.351074 169.167603
v -426.832397 1647.648804 169.167603
v -423.670288 1646.195801 172.329880
v -434.692627 1650.000000 182.955170
v -435.750366 1653.804199 180.401642
v -437.461792 1652.351074 176.269928
v -437.461670 1647.648804 176.269928
v -435.750366 1646.195801 180.401642
v -450.000000 1650.000000 186.000000
v -450.000122 1653.804199 183.236069
v -450.000000 1652.351074 178.763931
v -450.000122 1647.648804 178.763931
v -450.000000 1646.195801 183.236069
v -465.307373 1650.000000 182.955185
v -464.249634 1653.804199 180.401642
v -462.538208 1652.351196 176.269928
v -462.538330 1647.648926 176.269928
v -464.249756 1646.195801 180.401642
v -478.284302 1650.000000 174.284271
v -476.329834 1653.804199 172.329865
v -473.167603 1652.351074 169.167587
v -473.167603 1647.648804 169.167587
v -476.329834 1646.195801 172.329865
v -486.955200 1650.000000 161.307343
v -484.401611 1653.804199 160.249634
v -480.270020 1652.351196 158.538208
v -480.269897 1647.648926 158.538208
v -484.401733 1646.195801 160.249634
v -490.000000 1650.000000 146.000000
v -487.236084 1653.804199 146.000000
v -482.763916 1652.351074 146.000000
v -482.763916 1647.648804 146.000000
v -487.236084 1646.195801 146.000000
v -486.955322 1650.000000 130.692673
v -484.401611 1653.804199 131.750381
v -480.270020 1652.351196 133.461792
v -480.269897 1647.648926 133.461792
v -484.401733 1646.195801 131.750381
v -478.284302 1650.000000 117.715729
v -476.329834 1653.804199 119.670135
v -473.167603 1652.351074 122.832413
v -473.167603 1647.648804 122.832413
v -476.329834 1646.195801 119.670135
v -465.307373 1650.000000 109.044815
v -464.249634 1653.804199 111.598358
v -462.538208 1652.351196 115.730072
v -462.538330 1647.648926 115.730072
v -464.249756 1646.195801 111.598358
v -450.000000 1650.000000 106.000000
v -450.000122 1653.804199 108.763931
v -450.000000 1652.351196 113.236069
v -450.000122 1647.648926 113.236069
v -450.000000 1646.195801 108.763931
v -434.692627 1650.000000 109.044830
v -435.750366 1653.804199 111.598358
v -437.461792 1652.351074 115.730072
v -437.461670 1647.648804 115.730072
v -435.750366 1646.195801 111.598358
v -421.715820 1650.000000 117.715714
v -423.670044 1653.804199 119.670105
v -426.832397 1652.351074 122.832382
v -426.832397 1647.648804 122.832382
v -423.670288 1646.195801 119.670105
v -413.044800 1650.000000 130.692642
v -415.598389 1653.804199 131.750366
v -419.730225 1652.351196 133.461777
v -419.730103 1647.648926 133.461777
v -415.598267 1646.195801 131.750366
v -410.000122 1650.000000 165.000000
v -412.764038 1653.804199 165.000000
v -417.236084 1652.351074 165.000000
v -417.236084 1647.648804 165.000000
v -412.763916 1646.195801 165.000000
v -413.044800 1650.000000 180.307343
v -415.598389 1653.804199 179.249634
v -419.730225 1652.351196 177.538208
v -419.730103 1647.648926 177.538208
v -415.598267 1646.195801 179.249634
v -421.715820 1650.000000 193.284271
v -423.670044 1653.804199 191.329880
v -426.832397 1652.351074 188.167603
v -426.832397 1647.648804 188.167603
v -423.670288 1646.195801 191.329880
v -434.692627 1650.000000 201.955170
v -435.750366 1653.804199 199.401642
v -437.461792 1652.351074 195.269928
v -437.461670 1647.648804 195.269928
v -435.750366 1646.195801 199.401642
v -450.000000 1650.000000 205.000000
v -450.000122 1653.804199 202.236069
v -450.000000 1652.351074 197.763931
v -450.000122 1647.648804 197.763931
v -450.000000 1646.195801 202.236069
v -465.307373 1650.000000 201.955185
v -464.249634 1653.804199 199.401642
v -462.538208 1652.351196 195.269928
v -462.538330 1647.648926 195.269928
v -464.249756 1646.195801 199.401642
v -478.284302 1650.000000 193.284271
v -476.329834 1653.804199 191.329865
v -473.167603 1652.351074 188.167587
v -473.167603 1647.648804 188.167587
v -476.329834 1646.195801 191.329865
v -486.955200 1650.000000 180.307343
v -484.401611 1653.804199 179.249634
v -480.270020 1652.351196 177.538208
v -480.269897 1647.648926 177.538208
v -484.401733 1646.195801 179.249634
v -490.000000 1650.000000 165.000000
v -487.236084 1653.804199 165.000000
v -482.763916 1652.351074 165.000000
v -482.763916 1647.648804 165.000000
v -487.236084 1646.195801 165.000000
v -486.955322 1650.000000 149.692688
v -484.401611 1653.804199 150.750397
v -480.270020 1652.351196 152.461792
v -480.269897 1647.648926 152.461792
v -484.401733 1646.195801 150.750397
v -478.284302 1650.000000 136.715729
v -476.329834 1653.804199 138.670135
v -473.167603 1652.351074 141.832413
v -473.167603 1647.648804 141.832413
v -476.329834 1646.195801 138.670135
v -465.307373 1650.000000 128.044815
v -464.249634 1653.804199 130.598358
v -462.538208 1652.351196 134.730072
v -462.538330 1647.648926 134.730072
v -464.249756 1646.195801 130.598358
v -450.000000 1650.000000 125.000000
v -450.000122 1653.804199 127.763931
v -450.000000 1652.351196 132.236069
v -450.000122 1647.648926 132.236069
v -450.000000 1646.195801 127.763931
v -434.692627 1650.000000 128.044830
v -435.750366 1653.804199 130.598358
v -437.461792 1652.351074 134.730072
v -437.461670 1647.648804 134.730072
v -435.750366 1646.195801 130.598358
v -421.715820 1650.000000 136.715714
v -423.670044 1653.804199 138.670105
v -426.832397 1652.351074 141.832397
v -426.832397 1647.648804 141.832397
v -423.670288 1646.195801 138.670105
v -413.044800 1650.000000 149.692657
v -415.598389 1653.804199 150.750366
v -419.730225 1652.351196 152.461777
v -419.730103 1647.648926 152.461777
v -415.598267 1646.195801 150.750366
vn -0.6255 0.5248 -0.5774
vn -0.6255 0.5248 0.5774
vn -0.5248 -0.6254 -0.5774
vn -0.5248 -0.6254 0.5774
vn 0.5248 0.6255 -0.5773
vn 0.5248 0.6255 0.5773
vn 0.6255 -0.5248 -0.5774
vn 0.6255 -0.5248 0.5774
vn -0.7044 -0.0616 -0.7071
vn -0.7660 0.6428 -0.0000
vn -0.7044 -0.0616 0.7071
vn -0.6428 -0.7660 -0.0000
vn 0.0616 -0.7044 -0.7071
vn 0.0616 -0.7044 0.7071
vn 0.7661 -0.6428 -0.0000
vn 0.7044 0.0616 -0.7071
vn 0.7044 0.0616 0.7071
vn 0.6428 0.7660 -0.0000
vn -0.0616 0.7044 -0.7071
vn -0.0616 0.7044 0.7071
vn -0.0000 -0.0000 -1.0000
vn -0.9962 -0.0871 -0.0000
vn -0.0872 0.9962 -0.0000
vn -0.0000 -0.0000 1.0000
vn 0.0872 -0.9962 -0.0000
vn 0.9962 0.0871 -0.0000
vn -0.6254 0.5248 -0.5774
vn -0.6254 0.5248 0.5774
vn -0.5248 -0.6255 -0.5774
vn -0.5248 -0.6255 0.5774
vn 0.5248 0.6254 -0.5774
vn 0.5248 0.6254 0.5774
vn 0.6255 -0.5249 -0.5773
vn 0.6255 -0.5249 0.5773
vn 0.0616 -0.7045 -0.7071
vn 0.7660 -0.6428 -0.0000
vn 0.9962 0.0872 -0.0000
vn -0.6255 0.5248 -0.5773
vn -0.6255 0.5248 0.5773
vn -0.5248 -0.6255 -0.5773
vn -0.5248 -0.6255 0.5773
vn 0.5249 0.6255 -0.5773
vn 0.5249 0.6255 0.5773
vn -0.7661 0.6428 -0.0000
vn 0.0616 -0.7044 -0.7072
vn 0.0616 -0.7044 0.7072
vn -0.9962 -0.0872 -0.0000
vn 0.8239 0.5300 0.2006
vn 0.9243 -0.3800 -0.0349
vn 0.8192 0.5735 -0.0069
vn -0.0222 0.9994 0.0270
vn -0.0703 0.9771 0.2007
vn -0.8617 0.5061 0.0365
vn -0.8944 0.4472 -0.0002
vn -0.8474 -0.5309 0.0087
vn -0.8238 -0.5298 -0.2015
vn 0.0704 -0.9770 -0.2014
vn 0.1127 -0.9932 -0.0293
vn 0.8944 -0.4472 -0.0002
vn 0.8127 0.5411 -0.2162
vn -0.0796 0.9863 -0.1448
vn -0.8926 0.4452 0.0718
vn -0.8126 -0.5409 0.2171
vn 0.0796 -0.9861 0.1455
vn 0.8925 -0.4453 -0.0714
vn 0.8238 0.5301 0.2006
vn 0.9243 -0.3800 -0.0348
vn 0.8192 0.5734 -0.0068
vn -0.0704 0.9771 0.2007
vn -0.8618 0.5060 0.0365
vn -0.8945 0.4471 -0.0002
vn -0.8474 -0.5310 0.0087
vn 0.8944 -0.4472 -0.0001
vn -0.8925 0.4453 0.0718
vn -0.8126 -0.5408 0.2171
vn 0.0797 -0.9861 0.1455
vn 0.9244 -0.3799 -0.0349
vn 0.8191 0.5736 -0.0068
vn 0.0703 -0.9770 -0.2014
vn 0.1128 -0.9932 -0.0293
vn 0.8944 -0.4473 -0.0002
vn 0.8127 0.5411 -0.2163
vn 0.8925 -0.4454 -0.0714
vn 0.8240 0.5299 0.2006
vn 0.9244 -0.3799 -0.0348
vn 0.8191 0.5735 -0.0068
vn -0.8617 0.5060 0.0365
vn -0.8239 -0.5298 -0.2015
vn 0.8127 0.5410 -0.2163
vn -0.0795 0.9863 -0.1448
vn -0.8925 0.4453 0.0717
vn -0.8473 -0.5310 0.0087
vn 0.8944 -0.4474 -0.0002
vn 0.0798 -0.9861 0.1455
vn 0.8192 0.5735 -0.0068
vn -0.0221 0.9994 0.0270
vn 0.1128 -0.9932 -0.0292
vn -0.8925 0.4452 0.0718
vn -0.8945 0.4472 -0.0002
vn 0.8943 -0.4474 -0.0002
vn -0.8239 -0.5297 -0.2015
vn 0.0974 -0.4923 0.8650
vn 0.0049 -0.9999 -0.0132
vn 0.0043 -0.4783 0.8782
vn -0.0119 0.5014 0.8651
vn -0.0007 0.5332 0.8460
vn -0.1093 0.9940 0.0001
vn -0.0050 0.9998 -0.0170
vn -0.0045 0.5152 -0.8571
vn -0.0974 0.4922 -0.8650
vn 0.0003 -0.4704 -0.8824
vn 0.0120 -0.5018 -0.8649
vn 0.1094 -0.9940 0.0001
vn -0.0887 -0.4932 0.8654
vn 0.0109 0.5019 0.8649
vn 0.0995 0.9950 -0.0006
vn 0.0886 0.4932 -0.8654
vn -0.0109 -0.5018 -0.8649
vn -0.0996 -0.9950 0.0005
vn 0.1123 -0.4888 0.8651
vn 0.0067 -0.9999 -0.0109
vn 0.0049 -0.4671 0.8842
vn -0.0360 0.5000 0.8653
vn -0.0019 0.5413 0.8408
vn -0.1483 0.9889 0.0001
vn -0.0067 0.9999 -0.0159
vn -0.0052 0.5236 -0.8520
vn -0.1122 0.4887 -0.8652
vn 0.0013 -0.4621 -0.8868
vn 0.0361 -0.5003 -0.8651
vn 0.1484 -0.9889 -0.0000
vn -0.1023 -0.4903 0.8655
vn 0.0328 0.5006 0.8651
vn 0.1351 0.9908 -0.0004
vn 0.1022 0.4903 -0.8655
vn -0.0329 -0.5007 -0.8650
vn -0.1352 -0.9908 0.0005
vn 0.0889 -0.4932 0.8653
vn 0.0049 -0.9999 -0.0105
vn 0.0039 -0.4774 0.8787
vn -0.0204 0.5006 0.8654
vn -0.0011 0.5314 0.8471
vn -0.1093 0.9940 -0.0000
vn -0.0050 0.9999 -0.0137
vn -0.0041 0.5169 -0.8560
vn -0.0888 0.4931 -0.8654
vn 0.0007 -0.4712 -0.8820
vn 0.0205 -0.5009 -0.8653
vn -0.0809 -0.4941 0.8657
vn 0.0186 0.5010 0.8653
vn 0.0995 0.9950 -0.0005
vn 0.0809 0.4941 -0.8657
vn -0.0187 -0.5010 -0.8652
vn 0.1039 -0.4900 0.8655
vn 0.0067 -0.9999 -0.0087
vn 0.0045 -0.4666 0.8845
vn -0.0445 0.4989 0.8655
vn -0.0023 0.5393 0.8421
vn -0.1483 0.9889 -0.0000
vn -0.0067 0.9999 -0.0122
vn -0.0048 0.5256 -0.8507
vn -0.1038 0.4900 -0.8655
vn 0.0017 -0.4625 -0.8866
vn 0.0446 -0.4990 -0.8655
vn 0.1484 -0.9889 0.0001
vn -0.0946 -0.4914 0.8658
vn 0.0406 0.4994 0.8654
vn 0.1351 0.9908 -0.0005
vn 0.0945 0.4913 -0.8658
vn -0.0406 -0.4995 -0.8653
vn -0.1352 -0.9908 0.0004
vn 0.7956 0.5780 0.1816
vn -0.3083 0.9487 -0.0703
vn -0.9749 -0.0000 -0.2225
vn -0.3082 -0.9487 -0.0704
vn 0.7956 -0.5780 0.1816
vn 0.6380 0.5781 0.5087
vn -0.2472 0.9487 -0.1972
vn -0.7818 -0.0000 -0.6235
vn -0.2472 -0.9487 -0.1971
vn 0.6380 -0.5780 0.5088
vn 0.3541 0.5780 0.7352
vn -0.1372 0.9487 -0.2849
vn -0.4339 -0.0000 -0.9010
vn -0.1372 -0.9487 -0.2849
vn 0.3541 -0.5780 0.7352
vn -0.0000 0.5780 0.8160
vn -0.0000 0.9487 -0.3163
vn -0.0000 -0.9487 -0.3162
vn -0.0000 -0.5780 0.8160
vn -0.3541 0.5780 0.7352
vn 0.1372 0.9487 -0.2849
vn 0.4339 -0.0000 -0.9010
vn 0.1372 -0.9487 -0.2849
vn -0.3541 -0.5780 0.7352
vn -0.6380 0.5780 0.5087
vn 0.2472 0.9487 -0.1972
vn 0.7818 -0.0000 -0.6235
vn 0.2472 -0.9487 -0.1972
vn -0.6380 -0.5780 0.5088
vn -0.7956 0.5780 0.1816
vn 0.3083 0.9487 -0.0704
vn 0.9749 -0.0000 -0.2225
vn 0.3083 -0.9487 -0.0704
vn -0.7956 -0.5780 0.1816
vn -0.7956 0.5780 -0.1816
vn 0.3083 0.9487 0.0704
vn 0.9749 -0.0000 0.2225
vn 0.3083 -0.9487 0.0704
vn -0.7956 -0.5780 -0.1816
vn -0.6380 0.5781 -0.5087
vn 0.2472 0.9487 0.1971
vn 0.7818 -0.0000 0.6235
vn 0.2472 -0.9487 0.1972
vn -0.6380 -0.5780 -0.5088
vn -0.3541 0.5780 -0.7352
vn 0.1372 0.9487 0.2849
vn 0.4339 -0.0000 0.9010
vn 0.1372 -0.9487 0.2849
vn -0.3541 -0.5780 -0.7352
vn -0.0000 0.5780 -0.8160
vn -0.0000 0.9487 0.3163
vn -0.0000 -0.9487 0.3162
vn -0.0000 -0.5780 -0.8160
vn 0.3541 0.5780 -0.7352
vn -0.1372 0.9487 0.2849
vn -0.4339 -0.0000 0.9010
vn -0.1372 -0.9487 0.2849
vn 0.3541 -0.5780 -0.7352
vn 0.6380 0.5780 -0.5087
vn -0.2472 0.9487 0.1972
vn -0.7818 -0.0000 0.6235
vn -0.2472 -0.9487 0.1971
vn 0.6380 -0.5780 -0.5088
vn 0.7956 0.5780 -0.1815
vn -0.3083 0.9487 0.0704
vn -0.9749 -0.0000 0.2225
vn -0.3082 -0.9487 0.0704
vn 0.7956 -0.5780 -0.1816
vn -0.3083 0.9487 -0.0704
vn 0.6380 0.5780 0.5088
vn -0.1372 0.9487 -0.2848
vn -0.0000 0.9487 -0.3162
vn 0.1372 0.9487 -0.2848
vn -0.3540 -0.5780 0.7353
vn -0.6380 0.5780 0.5088
vn 0.2472 -0.9487 -0.1971
vn 0.3083 -0.9487 0.0703
vn -0.6380 0.5780 -0.5088
vn 0.2472 0.9487 0.1972
vn 0.2472 -0.9487 0.1971
vn 0.1372 0.9487 0.2848
vn -0.3540 -0.5780 -0.7352
vn -0.0000 0.9487 0.3162
vn -0.1372 0.9487 0.2848
vn 0.6380 0.5780 -0.5088
vn 0.7956 0.5780 -0.1816
vn -0.3082 -0.9487 0.0703
vn -0.4914 0.6521 -0.5773
vn -0.4914 0.6521 0.5773
vn -0.6521 -0.4914 -0.5773
vn -0.6521 -0.4914 0.5773
vn 0.6521 0.4914 -0.5773
vn 0.6521 0.4914 0.5773
vn 0.4914 -0.6521 -0.5773
vn 0.4914 -0.6521 0.5773
vn -0.7002 0.0984 -0.7071
vn -0.6018 0.7986 -0.0000
vn -0.7002 0.0984 0.7071
vn -0.7986 -0.6018 -0.0000
vn -0.0984 -0.7002 -0.7071
vn -0.0984 -0.7002 0.7071
vn 0.6018 -0.7986 -0.0000
vn 0.7002 -0.0984 -0.7071
vn 0.7002 -0.0984 0.7071
vn 0.7986 0.6018 -0.0000
vn 0.0984 0.7002 -0.7071
vn 0.0984 0.7002 0.7071
vn -0.9903 0.1392 -0.0000
vn 0.1392 0.9903 -0.0000
vn -0.1392 -0.9903 -0.0000
vn 0.9903 -0.1392 -0.0000
vn -0.7761 -0.4296 0.4617
vn -0.9308 0.2447 -0.2715
vn -0.8182 -0.5579 0.1388
vn -0.0002 -0.8985 0.4390
vn 0.1214 -0.8774 0.4642
vn 0.8755 -0.3611 0.3211
vn 0.8933 -0.4495 -0.0068
vn 0.7456 0.6392 -0.1883
vn 0.7725 0.4245 -0.4723
vn -0.1199 0.8752 -0.4687
vn -0.2407 0.8563 -0.4570
vn -0.8964 0.4433 -0.0024
vn -0.6784 -0.7216 -0.1378
vn 0.1255 -0.8894 0.4396
vn 0.7951 -0.1603 0.5849
vn 0.6693 0.7277 0.1501
vn -0.1256 0.8924 -0.4334
vn -0.8033 0.1642 -0.5725
vn -0.2926 0.7623 -0.5773
vn -0.2926 0.7623 0.5773
vn -0.7623 -0.2926 -0.5774
vn -0.7623 -0.2926 0.5774
vn 0.7623 0.2926 -0.5773
vn 0.7623 0.2926 0.5773
vn 0.2926 -0.7623 -0.5773
vn 0.2926 -0.7623 0.5773
vn -0.6460 0.2876 -0.7071
vn -0.3584 0.9336 -0.0000
vn -0.6460 0.2876 0.7071
vn -0.9336 -0.3584 -0.0000
vn -0.2876 -0.6460 -0.7071
vn -0.2876 -0.6460 0.7071
vn 0.3584 -0.9336 -0.0000
vn 0.6460 -0.2876 -0.7071
vn 0.6460 -0.2876 0.7071
vn 0.9336 0.3584 -0.0000
vn 0.2876 0.6460 -0.7071
vn 0.2876 0.6460 0.7071
vn -0.9135 0.4067 -0.0000
vn 0.4067 0.9135 -0.0000
vn -0.4067 -0.9135 -0.0000
vn 0.9135 -0.4067 -0.0000
vn -0.5027 0.6434 -0.5773
vn -0.5027 0.6434 0.5773
vn -0.6434 -0.5027 -0.5774
vn -0.6434 -0.5027 0.5774
vn 0.6434 0.5027 -0.5774
vn 0.6434 0.5027 0.5774
vn 0.5027 -0.6434 -0.5774
vn 0.5027 -0.6434 0.5774
vn -0.7018 0.0862 -0.7071
vn -0.6157 0.7880 -0.0000
vn -0.7018 0.0862 0.7071
vn -0.7880 -0.6157 -0.0000
vn -0.0862 -0.7018 -0.7071
vn -0.0862 -0.7018 0.7071
vn 0.6157 -0.7880 -0.0000
vn 0.7018 -0.0862 -0.7071
vn 0.7018 -0.0862 0.7071
vn 0.7880 0.6157 -0.0000
vn 0.0862 0.7018 -0.7071
vn 0.0862 0.7018 0.7071
vn -0.9925 0.1219 -0.0000
vn 0.1219 0.9925 -0.0000
vn -0.1219 -0.9925 -0.0000
vn 0.9925 -0.1219 -0.0000
vn -0.6688 0.4683 -0.5774
vn -0.6688 0.4683 0.5774
vn -0.4683 -0.6688 -0.5774
vn -0.4683 -0.6688 0.5774
vn 0.4683 0.6688 -0.5774
vn 0.4683 0.6688 0.5774
vn 0.6688 -0.4683 -0.5774
vn 0.6688 -0.4683 0.5774
vn -0.6964 -0.1228 -0.7071
vn -0.8192 0.5736 -0.0000
vn -0.6964 -0.1228 0.7071
vn -0.5736 -0.8191 -0.0000
vn 0.1228 -0.6963 -0.7071
vn 0.1228 -0.6963 0.7071
vn 0.8192 -0.5736 -0.0000
vn 0.6964 0.1228 -0.7071
vn 0.6964 0.1228 0.7071
vn 0.5736 0.8192 -0.0000
vn -0.1228 0.6963 -0.7071
vn -0.1228 0.6963 0.7071
vn -0.9848 -0.1737 -0.0000
vn -0.1736 0.9848 -0.0000
vn 0.1736 -0.9848 -0.0000
vn 0.9848 0.1736 -0.0000
vn 0.7987 0.5803 0.1589
vn -0.3084 0.9493 -0.0614
vn -0.9808 -0.0000 -0.1951
vn -0.3084 -0.9493 -0.0614
vn 0.7988 -0.5803 0.1589
vn 0.6771 0.5803 0.4525
vn -0.2615 0.9493 -0.1747
vn -0.8315 -0.0000 -0.5555
vn -0.2615 -0.9493 -0.1747
vn 0.6771 -0.5803 0.4524
vn 0.4525 0.5803 0.6771
vn -0.1747 0.9493 -0.2615
vn -0.5556 -0.0000 -0.8315
vn -0.1747 -0.9493 -0.2614
vn 0.4525 -0.5803 0.6771
vn 0.1589 0.5803 0.7987
vn -0.0614 0.9492 -0.3085
vn -0.1951 -0.0000 -0.9808
vn -0.0613 -0.9493 -0.3084
vn 0.1589 -0.5803 0.7987
vn -0.1589 0.5803 0.7987
vn 0.0613 0.9493 -0.3084
vn 0.1951 -0.0000 -0.9808
vn 0.0613 -0.9493 -0.3084
vn -0.1589 -0.5803 0.7987
vn -0.4525 0.5803 0.6771
vn 0.1747 0.9493 -0.2615
vn 0.5556 -0.0000 -0.8315
vn 0.1747 -0.9493 -0.2614
vn -0.4525 -0.5803 0.6771
vn -0.6771 0.5803 0.4524
vn 0.2615 0.9493 -0.1747
vn 0.8315 -0.0000 -0.5556
vn 0.2615 -0.9493 -0.1747
vn -0.6771 -0.5803 0.4525
vn -0.7987 0.5803 0.1589
vn 0.3084 0.9493 -0.0613
vn 0.9808 -0.0000 -0.1951
vn 0.3084 -0.9493 -0.0614
vn -0.7987 -0.5803 0.1589
vn -0.7987 0.5803 -0.1589
vn 0.3084 0.9493 0.0613
vn 0.9808 -0.0000 0.1951
vn 0.3084 -0.9493 0.0614
vn -0.7987 -0.5803 -0.1589
vn -0.6771 0.5803 -0.4524
vn 0.2615 0.9493 0.1747
vn 0.8315 -0.0000 0.5556
vn 0.2615 -0.9493 0.1747
vn -0.6771 -0.5803 -0.4525
vn -0.4524 0.5803 -0.6772
vn 0.1747 0.9493 0.2615
vn 0.5556 -0.0000 0.8315
vn 0.1747 -0.9493 0.2614
vn -0.4525 -0.5803 -0.6771
vn -0.1589 0.5803 -0.7987
vn 0.0613 0.9493 0.3085
vn 0.1951 -0.0000 0.9808
vn 0.0614 -0.9493 0.3084
vn -0.1589 -0.5803 -0.7987
vn 0.1589 0.5803 -0.7987
vn -0.0613 0.9492 0.3085
vn -0.1951 -0.0000 0.9808
vn -0.0614 -0.9493 0.3084
vn 0.1589 -0.5803 -0.7987
vn 0.4524 0.5803 -0.6771
vn -0.1747 0.9493 0.2615
vn -0.5556 -0.0000 0.8315
vn -0.1747 -0.9493 0.2614
vn 0.4525 -0.5803 -0.6771
vn 0.6771 0.5803 -0.4525
vn -0.2615 0.9493 0.1747
vn -0.8315 -0.0000 0.5555
vn -0.2615 -0.9493 0.1748
vn 0.6771 -0.5803 -0.4524
vn 0.7987 0.5803 -0.1589
vn -0.3085 0.9493 0.0613
vn -0.9808 -0.0000 0.1951
vn -0.3084 -0.9493 0.0614
vn 0.7988 -0.5803 -0.1589
vn 0.6428 0.7661 -0.0000
vn -0.0616 0.7045 0.7071
vn 0.0616 -0.7045 0.7071
vn -0.0616 0.7044 0.7072
vn -0.3082 0.9487 -0.0704
vn -0.3083 -0.9487 -0.0703
vn -0.2472 0.9487 -0.1971
vn -0.2472 -0.9487 -0.1972
vn 0.3540 0.5780 0.7352
vn -0.0000 0.9487 -0.3161
vn -0.3540 0.5780 0.7352
vn 0.2472 0.9487 -0.1971
vn -0.3540 0.5780 -0.7352
vn 0.1372 -0.9487 0.2848
vn -0.0000 0.9487 0.3161
vn 0.3540 0.5780 -0.7352
vn -0.2472 0.9487 0.1971
vn -0.2472 -0.9487 0.1972
vn -0.3082 0.9487 0.0704
vn -0.3083 -0.9487 0.0703
vn -0.1372 -0.9487 -0.2848
vn 0.3083 0.9487 -0.0703
vn 0.3083 -0.9487 -0.0703
vn -0.3082 0.9487 0.0703
vn -0.5736 -0.8192 -0.0000
vn 0.1228 -0.6964 -0.7071
vn 0.1228 -0.6964 0.7071
vn -0.1228 0.6964 -0.7071
vn -0.1228 0.6964 0.7071
vn -0.3084 -0.9493 -0.0613
vn 0.7987 -0.5803 0.1589
vn -0.8315 -0.0000 -0.5556
vn -0.2615 -0.9493 -0.1748
vn 0.6771 -0.5803 0.4525
vn 0.4524 0.5803 0.6772
vn -0.1747 -0.9493 -0.2615
vn 0.4524 -0.5803 0.6771
vn -0.0614 0.9493 -0.3084
vn -0.0613 -0.9493 -0.3085
vn 0.1589 -0.5803 0.7988
vn 0.0614 0.9493 -0.3084
vn -0.4524 0.5803 0.6771
vn 0.1747 -0.9493 -0.2615
vn -0.6771 0.5803 0.4525
vn 0.2615 -0.9493 -0.1748
vn -0.6771 -0.5803 0.4524
vn 0.3084 0.9493 -0.0614
vn 0.3084 0.9493 0.0614
vn 0.3084 -0.9493 0.0613
vn -0.6771 0.5803 -0.4525
vn -0.4525 0.5803 -0.6771
vn 0.1747 -0.9493 0.2615
vn 0.0613 0.9493 0.3084
vn -0.0613 0.9493 0.3084
vn -0.0613 -0.9493 0.3084
vn 0.1589 -0.5803 -0.7988
vn 0.4524 0.5803 -0.6772
vn -0.1747 -0.9493 0.2615
vn 0.4524 -0.5803 -0.6771
vn 0.6771 0.5803 -0.4524
vn -0.8315 -0.0000 0.5556
vn -0.2615 -0.9493 0.1747
vn 0.6771 -0.5803 -0.4525
vn -0.3084 0.9493 0.0614
vn 0.2615 0.9493 0.1748
vn 0.2615 -0.9493 0.1748
vn -0.6771 -0.5803 -0.4524
vn -0.4524 -0.5803 -0.6771
vt 0.160714 0.714286
vt 0.125000 0.714286
vt 0.160714 0.750000
vt 0.621296 0.000000
vt 0.621296 0.035714
vt 0.625000 0.035714
vt 0.160714 0.535714
vt 0.160714 0.500000
vt 0.125000 0.535714
vt 0.625000 0.238095
vt 0.621296 0.214286
vt 0.621296 0.276786
vt 0.339286 0.714286
vt 0.358995 0.767857
vt 0.377778 0.714286
vt 0.642857 0.750000
vt 0.621296 0.723214
vt 0.621296 0.785714
vt 0.339286 0.535714
vt 0.377778 0.535714
vt 0.358995 0.482143
vt 0.642857 0.500000
vt 0.621296 0.464286
vt 0.621296 0.526786
vt 0.378704 0.035714
vt 0.378704 0.000000
vt 0.378704 0.285714
vt 0.625000 0.964286
vt 0.378704 0.214286
vt 0.378704 0.964286
vt 0.839286 0.714286
vt 0.839286 0.535714
vt 0.621296 0.276786
vt 0.127128 0.708333
vt 0.125000 0.708333
vt 0.127128 0.750000
vt 0.583333 0.000000
vt 0.583333 0.041667
vt 0.625000 0.041667
vt 0.127128 0.541667
vt 0.127128 0.500000
vt 0.125000 0.541667
vt 0.625000 0.222931
vt 0.583333 0.208333
vt 0.583333 0.251596
vt 0.372872 0.708333
vt 0.394770 0.751064
vt 0.406250 0.708333
vt 0.626064 0.730231
vt 0.583333 0.718750
vt 0.583333 0.752128
vt 0.372872 0.541667
vt 0.406250 0.541667
vt 0.394769 0.498936
vt 0.626064 0.519770
vt 0.583333 0.497872
vt 0.583333 0.531250
vt 0.416667 0.041667
vt 0.416667 0.000000
vt 0.416667 0.252128
vt 0.583333 0.997872
vt 0.625000 0.997872
vt 0.416667 0.208333
vt 0.416667 0.997872
vt 0.872872 0.541667
vt 0.000000 1.000000
vt 0.500000 0.833333
vt 0.500000 1.000000
vt 0.000000 0.000000
vt 0.500000 0.166667
vt 0.000000 0.166667
vt 0.500000 0.333333
vt 0.000000 0.333333
vt 0.500000 0.500000
vt 0.000000 0.500000
vt 0.000000 0.666667
vt 0.500000 0.666667
vt 0.000000 0.833333
vt 1.000000 1.000000
vt 1.000000 0.000000
vt 1.000000 0.166667
vt 1.000000 0.333333
vt 1.000000 0.500000
vt 1.000000 0.666667
vt 1.000000 0.833333
vt 0.500000 0.000000
vt 0.500000 0.600000
vt 0.571429 0.800000
vt 0.571429 0.600000
vt 0.500000 0.800000
vt 0.500000 0.200000
vt 0.571429 0.000000
vt 0.571429 0.400000
vt 0.571429 0.200000
vt 0.500000 0.400000
vt 0.642857 0.800000
vt 0.642857 0.600000
vt 0.642857 1.000000
vt 0.642857 0.000000
vt 0.642857 0.400000
vt 0.642857 0.200000
vt 0.714286 0.600000
vt 0.714286 1.000000
vt 0.714286 0.800000
vt 0.714286 0.000000
vt 0.714286 0.200000
vt 0.714286 0.400000
vt 0.785714 0.600000
vt 0.785714 0.800000
vt 0.785714 0.000000
vt 0.785714 0.200000
vt 0.785714 0.400000
vt 0.857143 0.600000
vt 0.785714 1.000000
vt 0.857143 0.800000
vt 0.857143 0.000000
vt 0.857143 0.200000
vt 0.857143 0.400000
vt 0.928571 0.600000
vt 0.928571 1.000000
vt 0.928571 0.800000
vt 0.928571 0.000000
vt 0.928571 0.400000
vt 0.928571 0.200000
vt 1.000000 0.800000
vt 1.000000 0.600000
vt 1.000000 0.400000
vt 1.000000 0.200000
vt -0.000000 0.800000
vt 0.071429 0.600000
vt -0.000000 0.600000
vt -0.000000 1.000000
vt 0.071429 0.800000
vt -0.000000 0.200000
vt 0.071429 0.000000
vt -0.000000 0.000000
vt 0.071429 0.400000
vt 0.071429 0.200000
vt -0.000000 0.400000
vt 0.142857 0.800000
vt 0.142857 0.600000
vt 0.071429 1.000000
vt 0.142857 0.200000
vt 0.142857 0.000000
vt 0.142857 0.400000
vt 0.214286 0.600000
vt 0.142857 1.000000
vt 0.214286 0.800000
vt 0.214286 0.000000
vt 0.214286 0.400000
vt 0.214286 0.200000
vt 0.285714 0.600000
vt 0.214286 1.000000
vt 0.285714 0.800000
vt 0.285714 0.000000
vt 0.285714 0.200000
vt 0.285714 0.400000
vt 0.357143 0.800000
vt 0.357143 0.600000
vt 0.285714 1.000000
vt 0.357143 0.000000
vt 0.357143 0.400000
vt 0.357143 0.200000
vt 0.428571 0.800000
vt 0.428571 0.600000
vt 0.357143 1.000000
vt 0.428571 0.000000
vt 0.428571 0.200000
vt 0.428571 0.400000
vt 0.857143 1.000000
vt 0.166667 0.708333
vt 0.166667 0.750000
vt 0.621000 0.000000
vt 0.621000 0.041667
vt 0.166667 0.541667
vt 0.166667 0.500000
vt 0.625000 0.236111
vt 0.621000 0.208333
vt 0.621000 0.281250
vt 0.333333 0.708333
vt 0.356167 0.770833
vt 0.378000 0.708333
vt 0.645833 0.750000
vt 0.621000 0.718750
vt 0.621000 0.791667
vt 0.333333 0.541667
vt 0.378000 0.541667
vt 0.356167 0.479167
vt 0.645833 0.500000
vt 0.621000 0.458333
vt 0.621000 0.531250
vt 0.379000 0.041667
vt 0.379000 0.000000
vt 0.379000 0.291667
vt 0.621000 0.958333
vt 0.625000 0.958333
vt 0.379000 0.208333
vt 0.379000 0.958333
vt 0.833333 0.541667
vt 0.132353 0.700000
vt 0.125000 0.700000
vt 0.132353 0.750000
vt 0.580357 0.000000
vt 0.580357 0.050000
vt 0.625000 0.050000
vt 0.132353 0.550000
vt 0.132353 0.500000
vt 0.125000 0.550000
vt 0.625000 0.219118
vt 0.580357 0.200000
vt 0.580357 0.255515
vt 0.367647 0.700000
vt 0.393645 0.753677
vt 0.408482 0.700000
vt 0.628676 0.728676
vt 0.580357 0.712500
vt 0.580357 0.757353
vt 0.367647 0.550000
vt 0.408482 0.550000
vt 0.393645 0.496324
vt 0.628676 0.521324
vt 0.580357 0.492647
vt 0.580357 0.537500
vt 0.419643 0.050000
vt 0.419643 0.000000
vt 0.419643 0.257353
vt 0.625000 0.992647
vt 0.419643 0.200000
vt 0.419643 0.992647
vt 0.867647 0.550000
vt 0.580357 0.255515
vt 0.408482 0.700000
vt 0.408482 0.550000
vt 0.580357 0.537500
vt 0.580357 0.992647
vt 0.408482 0.700000
vt 0.393645 0.496324
vt 0.562500 0.800000
vt 0.562500 0.600000
vt 0.562500 0.200000
vt 0.562500 0.000000
vt 0.562500 0.400000
vt 0.625000 0.800000
vt 0.625000 0.600000
vt 0.562500 1.000000
vt 0.625000 0.000000
vt 0.625000 0.200000
vt 0.625000 0.400000
vt 0.687500 0.800000
vt 0.687500 0.600000
vt 0.625000 1.000000
vt 0.687500 0.200000
vt 0.687500 0.000000
vt 0.687500 0.400000
vt 0.750000 0.600000
vt 0.750000 1.000000
vt 0.750000 0.800000
vt 0.750000 0.000000
vt 0.750000 0.400000
vt 0.750000 0.200000
vt 0.812500 0.600000
vt 0.812500 1.000000
vt 0.812500 0.800000
vt 0.812500 0.000000
vt 0.812500 0.400000
vt 0.812500 0.200000
vt 0.875000 0.800000
vt 0.875000 0.600000
vt 0.875000 1.000000
vt 0.875000 0.000000
vt 0.875000 0.400000
vt 0.875000 0.200000
vt 0.937500 0.600000
vt 0.937500 1.000000
vt 0.937500 0.800000
vt 0.937500 0.200000
vt 0.937500 0.000000
vt 0.937500 0.400000
vt 0.000000 0.800000
vt 0.062500 0.600000
vt 0.000000 0.600000
vt 0.062500 1.000000
vt 0.062500 0.800000
vt 0.062500 0.200000
vt 0.062500 0.000000
vt 0.000000 0.200000
vt 0.062500 0.400000
vt 0.000000 0.400000
vt 0.125000 0.600000
vt 0.125000 0.800000
vt 0.125000 0.000000
vt 0.125000 0.400000
vt 0.125000 0.200000
vt 0.187500 0.800000
vt 0.187500 0.600000
vt 0.187500 1.000000
vt 0.187500 0.200000
vt 0.187500 0.000000
vt 0.187500 0.400000
vt 0.250000 0.800000
vt 0.250000 0.600000
vt 0.250000 0.200000
vt 0.250000 0.000000
vt 0.250000 0.400000
vt 0.312500 0.800000
vt 0.312500 0.600000
vt 0.250000 1.000000
vt 0.312500 0.000000
vt 0.312500 0.200000
vt 0.312500 0.400000
vt 0.375000 0.600000
vt 0.375000 1.000000
vt 0.375000 0.800000
vt 0.375000 0.000000
vt 0.375000 0.400000
vt 0.375000 0.200000
vt 0.437500 0.600000
vt 0.437500 1.000000
vt 0.437500 0.800000
vt 0.437500 0.200000
vt 0.437500 0.000000
vt 0.437500 0.400000
vt 0.125000 1.000000
vt 0.621296 0.964286
vt 0.872872 0.708333
vt 0.571429 1.000000
vt 0.428571 1.000000
vt 0.833333 0.708333
vt 0.867647 0.700000
vt 0.687500 1.000000
vt 0.312500 1.000000
s 0
usemtl DarkWood
f 1/1/1 3/2/1 2/3/1
f 4/4/2 6/5/2 5/6/2
f 7/7/3 9/8/3 8/9/3
f 10/10/4 12/11/4 11/12/4
f 13/13/5 15/14/5 14/15/5
f 16/16/6 18/17/6 17/18/6
f 19/19/7 21/20/7 20/21/7
f 22/22/8 24/23/8 23/24/8
f 7/7/9 3/2/9 1/1/9
f 3/25/10 4/4/10 2/26/10
f 6/5/11 10/10/11 5/6/11
f 12/11/12 9/27/12 11/12/12
f 19/19/13 9/8/13 7/7/13
f 11/12/14 22/22/14 10/10/14
f 24/23/15 21/20/15 23/24/15
f 13/13/16 21/20/16 19/19/16
f 23/24/17 16/16/17 22/22/17
f 18/17/18 15/14/18 17/18/18
f 1/1/19 15/14/19 13/13/19
f 17/18/20 5/28/20 16/16/20
f 1/1/21 19/19/21 7/7/21
f 8/29/22 6/5/22 3/25/22
f 2/30/23 17/18/23 15/14/23
f 22/22/24 5/31/24 10/32/24
f 20/21/25 11/12/25 9/27/25
f 14/15/26 23/24/26 21/20/26
f 25/1/27 27/2/27 26/3/27
f 28/4/28 30/5/28 29/6/28
f 31/7/29 33/8/29 32/9/29
f 34/10/30 36/11/30 35/33/30
f 37/13/31 39/14/31 38/15/31
f 40/16/32 42/17/32 41/18/32
f 43/19/33 45/20/33 44/21/33
f 46/22/34 48/23/34 47/24/34
f 31/7/9 27/2/9 25/1/9
f 27/25/10 28/4/10 26/26/10
f 30/5/11 34/10/11 29/6/11
f 36/11/12 33/27/12 35/33/12
f 43/19/35 33/8/35 31/7/35
f 35/33/14 46/22/14 34/10/14
f 48/23/36 45/20/36 47/24/36
f 37/13/16 45/20/16 43/19/16
f 47/24/17 40/16/17 46/22/17
f 42/17/18 39/14/18 41/18/18
f 25/1/19 39/14/19 37/13/19
f 41/18/20 29/28/20 40/16/20
f 31/7/21 37/13/21 43/19/21
f 32/29/22 30/5/22 27/25/22
f 26/30/23 41/18/23 39/14/23
f 40/16/24 34/32/24 46/22/24
f 44/21/25 35/33/25 33/27/25
f 38/15/37 47/24/37 45/20/37
f 7/7/9 8/9/9 3/2/9
f 3/25/44 6/5/44 4/4/44
f 6/5/11 12/11/11 10/10/11
f 12/11/12 8/29/12 9/27/12
f 19/19/13 20/21/13 9/8/13
f 11/12/14 24/23/14 22/22/14
f 24/23/36 20/21/36 21/20/36
f 13/13/16 14/15/16 21/20/16
f 23/24/17 18/17/17 16/16/17
f 18/17/18 14/15/18 15/14/18
f 1/1/19 2/3/19 15/14/19
f 17/18/20 4/324/20 5/28/20
f 1/1/21 13/13/21 19/19/21
f 8/29/47 12/11/47 6/5/47
f 2/30/23 4/324/23 17/18/23
f 22/22/24 16/16/24 5/31/24
f 20/21/25 24/23/25 11/12/25
f 14/15/37 18/17/37 23/24/37
f 31/7/9 32/9/9 27/2/9
f 27/25/10 30/5/10 28/4/10
f 30/5/11 36/11/11 34/10/11
f 36/11/12 32/29/12 33/27/12
f 43/19/13 44/21/13 33/8/13
f 35/33/14 48/23/14 46/22/14
f 48/23/36 44/21/36 45/20/36
f 37/13/16 38/15/16 45/20/16
f 47/24/17 42/17/17 40/16/17
f 42/17/453 38/15/453 39/14/453
f 25/1/19 26/3/19 39/14/19
f 41/18/454 28/324/454 29/28/454
f 31/7/21 25/1/21 37/13/21
f 32/29/47 36/11/47 30/5/47
f 26/30/23 28/324/23 41/18/23
f 40/16/24 29/31/24 34/32/24
f 44/21/25 48/23/25 35/33/25
f 38/15/37 42/17/37 47/24/37
usemtl WarmWood
f 49/34/38 51/35/38 50/36/38
f 52/37/39 54/38/39 53/39/39
f 55/40/40 57/41/40 56/42/40
f 58/43/41 60/44/41 59/45/41
f 61/46/42 63/47/42 62/48/42
f 64/49/43 66/50/43 65/51/43
f 67/52/7 69/53/7 68/54/7
f 70/55/8 72/56/8 71/57/8
f 56/42/9 49/34/9 55/40/9
f 51/58/44 52/37/44 50/59/44
f 54/38/11 58/43/11 53/39/11
f 60/44/12 57/60/12 59/45/12
f 68/54/45 55/40/45 67/52/45
f 59/45/46 70/55/46 58/43/46
f 72/56/36 69/53/36 71/57/36
f 62/48/16 67/52/16 61/46/16
f 70/55/17 66/50/17 64/49/17
f 66/50/18 63/47/18 65/51/18
f 50/36/19 61/46/19 49/34/19
f 64/49/20 52/61/20 53/62/20
f 55/40/21 61/46/21 67/52/21
f 56/63/47 54/38/47 51/58/47
f 50/64/23 65/51/23 63/47/23
f 64/49/24 58/65/24 70/55/24
f 68/54/25 59/45/25 57/60/25
f 62/48/37 71/57/37 69/53/37
f 471/200/301 473/201/301 472/202/301
f 474/203/302 476/204/302 475/205/302
f 477/206/303 479/207/303 478/208/303
f 480/209/304 482/210/304 481/211/304
f 483/212/305 485/213/305 484/214/305
f 486/215/306 488/216/306 487/217/306
f 489/218/307 491/219/307 490/220/307
f 492/221/308 494/222/308 493/223/308
f 477/206/309 473/201/309 471/200/309
f 473/224/310 474/203/310 472/225/310
f 476/204/311 480/209/311 475/205/311
f 482/210/312 479/226/312 481/211/312
f 490/220/313 477/206/313 489/218/313
f 481/211/314 492/221/314 480/209/314
f 494/222/315 491/219/315 493/223/315
f 484/214/316 489/218/316 483/212/316
f 492/221/317 488/216/317 486/215/317
f 488/216/318 485/213/318 487/217/318
f 471/200/319 485/213/319 483/212/319
f 487/217/320 475/227/320 486/215/320
f 477/206/21 483/212/21 489/218/21
f 478/228/321 476/204/321 473/224/321
f 472/229/322 487/217/322 485/213/322
f 486/215/24 480/230/24 492/221/24
f 490/220/323 481/211/323 479/226/323
f 484/214/324 493/223/324 491/219/324
f 495/200/325 497/201/325 496/202/325
f 498/203/326 500/204/326 499/205/326
f 501/206/327 503/207/327 502/208/327
f 504/209/328 506/210/328 505/231/328
f 507/212/329 509/213/329 508/232/329
f 510/215/330 512/216/330 511/217/330
f 513/218/331 515/233/331 514/220/331
f 516/221/332 518/222/332 517/234/332
f 501/206/333 497/201/333 495/200/333
f 497/224/334 498/203/334 496/225/334
f 500/204/335 504/209/335 499/205/335
f 506/210/336 503/226/336 505/231/336
f 513/218/337 503/207/337 501/206/337
f 505/231/338 516/221/338 504/209/338
f 518/222/339 515/233/339 517/234/339
f 508/232/340 513/218/340 507/212/340
f 516/221/341 512/216/341 510/215/341
f 512/216/342 509/213/342 511/217/342
f 496/202/343 507/212/343 495/200/343
f 510/215/344 498/235/344 499/227/344
f 501/206/21 507/212/21 513/218/21
f 502/228/345 500/204/345 497/224/345
f 496/229/346 511/217/346 509/213/346
f 510/215/24 504/230/24 516/221/24
f 514/220/347 505/231/347 503/226/347
f 508/232/348 517/234/348 515/233/348
f 519/200/349 521/201/349 520/202/349
f 522/203/350 524/204/350 523/205/350
f 525/206/351 527/207/351 526/208/351
f 528/209/352 530/210/352 529/211/352
f 531/212/353 533/213/353 532/236/353
f 534/215/354 536/216/354 535/217/354
f 537/218/355 539/219/355 538/237/355
f 540/221/356 542/222/356 541/223/356
f 526/208/357 519/200/357 525/206/357
f 521/224/358 522/203/358 520/225/358
f 523/205/359 530/210/359 528/209/359
f 530/210/360 527/226/360 529/211/360
f 537/218/361 527/207/361 525/206/361
f 529/211/362 540/221/362 528/209/362
f 542/222/363 539/219/363 541/223/363
f 531/212/364 539/219/364 537/218/364
f 541/223/365 534/215/365 540/221/365
f 536/216/366 533/213/366 535/217/366
f 520/202/367 531/212/367 519/200/367
f 534/215/368 522/235/368 523/227/368
f 525/206/21 531/212/21 537/218/21
f 526/228/369 524/204/369 521/224/369
f 520/229/370 535/217/370 533/213/370
f 534/215/24 528/230/24 540/221/24
f 538/237/371 529/211/371 527/226/371
f 532/236/372 541/223/372 539/219/372
f 56/42/9 51/35/9 49/34/9
f 51/58/44 54/38/44 52/37/44
f 54/38/11 60/44/11 58/43/11
f 60/44/12 56/63/12 57/60/12
f 68/54/13 57/41/13 55/40/13
f 59/45/455 72/56/455 70/55/455
f 72/56/15 68/54/15 69/53/15
f 62/48/16 69/53/16 67/52/16
f 70/55/17 71/57/17 66/50/17
f 66/50/18 62/48/18 63/47/18
f 50/36/19 63/47/19 61/46/19
f 64/49/456 65/51/456 52/61/456
f 55/40/21 49/34/21 61/46/21
f 56/63/47 60/44/47 54/38/47
f 50/64/23 52/61/23 65/51/23
f 64/49/24 53/325/24 58/65/24
f 68/54/25 72/56/25 59/45/25
f 62/48/37 66/50/37 71/57/37
f 477/206/309 478/208/309 473/201/309
f 473/224/310 476/204/310 474/203/310
f 476/204/311 482/210/311 480/209/311
f 482/210/312 478/228/312 479/226/312
f 490/220/313 479/207/313 477/206/313
f 481/211/314 494/222/314 492/221/314
f 494/222/315 490/220/315 491/219/315
f 484/214/316 491/219/316 489/218/316
f 492/221/317 493/223/317 488/216/317
f 488/216/318 484/214/318 485/213/318
f 471/200/319 472/202/319 485/213/319
f 487/217/320 474/235/320 475/227/320
f 477/206/21 471/200/21 483/212/21
f 478/228/321 482/210/321 476/204/321
f 472/229/322 474/235/322 487/217/322
f 486/215/24 475/329/24 480/230/24
f 490/220/323 494/222/323 481/211/323
f 484/214/324 488/216/324 493/223/324
f 501/206/333 502/208/333 497/201/333
f 497/224/334 500/204/334 498/203/334
f 500/204/335 506/210/335 504/209/335
f 506/210/336 502/228/336 503/226/336
f 513/218/337 514/220/337 503/207/337
f 505/231/338 518/222/338 516/221/338
f 518/222/339 514/220/339 515/233/339
f 508/232/340 515/233/340 513/218/340
f 516/221/341 517/234/341 512/216/341
f 512/216/342 508/232/342 509/213/342
f 496/202/343 509/213/343 507/212/343
f 510/215/344 511/217/344 498/235/344
f 501/206/21 495/200/21 507/212/21
f 502/228/345 506/210/345 500/204/345
f 496/229/346 498/235/346 511/217/346
f 510/215/24 499/329/24 504/230/24
f 514/220/347 518/222/347 505/231/347
f 508/232/348 512/216/348 517/234/348
f 526/208/357 521/201/357 519/200/357
f 521/224/358 524/204/358 522/203/358
f 523/205/359 524/204/359 530/210/359
f 530/210/477 526/228/477 527/226/477
f 537/218/478 538/237/478 527/207/478
f 529/211/479 542/222/479 540/221/479
f 542/222/363 538/237/363 539/219/363
f 531/212/364 532/236/364 539/219/364
f 541/223/365 536/216/365 534/215/365
f 536/216/366 532/236/366 533/213/366
f 520/202/480 533/213/480 531/212/480
f 534/215/481 535/217/481 522/235/481
f 525/206/21 519/200/21 531/212/21
f 526/228/369 530/210/369 524/204/369
f 520/229/370 522/235/370 535/217/370
f 534/215/24 523/329/24 528/230/24
f 538/237/371 542/222/371 529/211/371
f 532/236/372 536/216/372 541/223/372
s 1
usemtl Rope
f 73/66/48 84/67/49 79/68/50
f 73/69/48 80/70/51 74/71/52
f 74/71/52 81/72/53 75/73/54
f 75/73/54 82/74/55 76/75/56
f 77/76/57 82/74/55 83/77/58
f 78/78/59 83/77/58 84/67/49
f 84/67/49 85/79/60 79/68/50
f 80/70/51 85/80/60 86/81/61
f 81/72/53 86/81/61 87/82/62
f 82/74/55 87/82/62 88/83/63
f 82/74/55 89/84/64 83/77/58
f 83/77/58 90/85/65 84/67/49
f 91/66/66 102/67/67 97/68/68
f 91/69/66 98/70/51 92/71/69
f 92/71/69 99/72/70 93/73/71
f 93/73/71 100/74/72 94/75/56
f 95/76/57 100/74/72 101/77/58
f 96/78/73 101/77/58 102/67/67
f 102/67/67 103/79/60 97/68/68
f 98/70/51 103/80/60 104/81/61
f 99/72/70 104/81/61 105/82/74
f 100/74/72 105/82/74 106/83/75
f 100/74/72 107/84/76 101/77/58
f 101/77/58 108/85/65 102/67/67
f 109/66/48 120/67/77 115/68/78
f 109/69/48 116/70/51 110/71/52
f 110/71/52 117/72/53 111/73/71
f 111/73/71 118/74/55 112/75/56
f 113/76/79 118/74/55 119/77/80
f 114/78/81 119/77/80 120/67/77
f 120/67/77 121/79/82 115/68/78
f 116/70/51 121/80/82 122/81/61
f 117/72/53 122/81/61 123/82/62
f 118/74/55 123/82/62 124/83/63
f 118/74/55 125/84/76 119/77/80
f 119/77/80 126/85/83 120/67/77
f 127/66/84 138/67/85 133/68/86
f 127/69/84 134/70/51 128/71/52
f 128/71/52 135/72/87 129/73/71
f 129/73/71 136/74/55 130/75/88
f 131/76/79 136/74/55 137/77/80
f 132/78/81 137/77/80 138/67/85
f 138/67/85 139/79/89 133/68/86
f 134/70/51 139/80/89 140/81/90
f 135/72/87 140/81/90 141/82/91
f 136/74/55 141/82/91 142/83/75
f 136/74/55 143/84/76 137/77/80
f 137/77/80 144/85/83 138/67/85
f 145/66/48 156/67/49 151/68/86
f 145/69/48 152/70/51 146/71/52
f 146/71/52 153/72/53 147/73/54
f 147/73/54 154/74/92 148/75/56
f 149/76/57 154/74/92 155/77/58
f 150/78/93 155/77/58 156/67/49
f 156/67/49 157/79/89 151/68/86
f 152/70/51 157/80/89 158/81/61
f 153/72/53 158/81/61 159/82/74
f 154/74/92 159/82/74 160/83/63
f 154/74/92 161/84/94 155/77/58
f 155/77/58 162/85/83 156/67/49
f 163/66/48 174/67/85 169/68/95
f 163/69/48 170/70/96 164/71/52
f 164/71/52 171/72/53 165/73/71
f 165/73/71 172/74/72 166/75/56
f 167/76/79 172/74/72 173/77/97
f 168/78/81 173/77/97 174/67/85
f 174/67/85 175/79/89 169/68/95
f 170/70/96 175/80/89 176/81/61
f 171/72/53 176/81/61 177/82/98
f 172/74/72 177/82/98 178/83/75
f 172/74/72 179/84/76 173/77/97
f 173/77/97 180/85/83 174/67/85
f 181/66/48 192/67/85 187/68/95
f 181/69/48 188/70/51 182/71/69
f 182/71/69 189/72/87 183/73/99
f 183/73/99 190/74/72 184/75/56
f 185/76/79 190/74/72 191/77/80
f 186/78/100 191/77/80 192/67/85
f 192/67/85 193/79/89 187/68/95
f 188/70/51 193/80/89 194/81/90
f 189/72/87 194/81/90 195/82/98
f 190/74/72 195/82/98 196/83/63
f 190/74/72 197/84/94 191/77/80
f 191/77/80 198/85/65 192/67/85
f 199/66/48 210/67/49 205/68/50
f 199/69/48 206/70/51 200/71/52
f 200/71/52 207/72/53 201/73/54
f 201/73/54 208/74/55 202/75/101
f 203/76/57 208/74/55 209/77/58
f 204/78/81 209/77/58 210/67/49
f 210/67/49 211/79/89 205/68/50
f 206/70/51 211/80/89 212/81/61
f 207/72/53 212/81/61 213/82/74
f 208/74/55 213/82/74 214/83/75
f 208/74/55 215/84/76 209/77/58
f 209/77/58 216/85/83 210/67/49
f 217/66/102 228/67/103 223/68/104
f 218/71/105 223/86/104 224/70/106
f 219/73/107 224/70/106 225/72/108
f 219/73/107 226/74/109 220/75/110
f 220/75/110 227/77/111 221/76/112
f 221/76/112 228/67/103 222/78/113
f 228/67/103 229/79/114 223/68/104
f 223/86/104 230/81/115 224/70/106
f 224/70/106 231/82/116 225/72/108
f 226/74/109 231/82/116 232/83/117
f 227/77/111 232/83/117 233/84/118
f 228/67/103 233/84/118 234/85/119
f 235/66/120 246/67/121 241/68/122
f 236/71/123 241/86/122 242/70/124
f 237/73/125 242/70/124 243/72/126
f 237/73/125 244/74/127 238/75/128
f 238/75/128 245/77/129 239/76/130
f 239/76/130 246/67/121 240/78/131
f 246/67/121 247/79/132 241/68/122
f 241/86/122 248/81/133 242/70/124
f 242/70/124 249/82/134 243/72/126
f 244/74/127 249/82/134 250/83/135
f 245/77/129 250/83/135 251/84/136
f 246/67/121 251/84/136 252/85/137
f 253/66/138 264/67/139 259/68/140
f 254/71/141 259/86/140 260/70/142
f 255/73/143 260/70/142 261/72/144
f 255/73/143 262/74/145 256/75/146
f 256/75/146 263/77/147 257/76/148
f 257/76/148 264/67/139 258/78/113
f 264/67/139 265/79/149 259/68/140
f 259/86/140 266/81/150 260/70/142
f 260/70/142 267/82/151 261/72/144
f 262/74/145 267/82/151 268/83/152
f 263/77/147 268/83/152 269/84/153
f 264/67/139 269/84/153 270/85/119
f 271/66/154 282/67/155 277/68/156
f 272/71/157 277/86/156 278/70/158
f 273/73/159 278/70/158 279/72/160
f 273/73/159 280/74/161 274/75/162
f 274/75/162 281/77/163 275/76/164
f 275/76/164 282/67/155 276/78/165
f 282/67/155 283/79/166 277/68/156
f 277/86/156 284/81/167 278/70/158
f 278/70/158 285/82/168 279/72/160
f 280/74/161 285/82/168 286/83/169
f 281/77/163 286/83/169 287/84/170
f 282/67/155 287/84/170 288/85/171
s 0
f 543/87/373 549/238/373 548/239/373
f 545/68/374 549/238/374 544/90/374
f 545/86/375 551/240/375 550/241/375
f 546/91/376 552/242/376 551/240/376
f 543/87/377 552/242/377 547/95/377
f 548/239/378 554/243/378 553/244/378
f 550/245/379 554/243/379 549/238/379
f 551/240/380 555/246/380 550/241/380
f 552/242/381 556/247/381 551/240/381
f 552/242/382 553/244/382 557/248/382
f 553/244/383 559/249/383 558/250/383
f 555/251/384 559/249/384 554/243/384
f 555/246/385 561/252/385 560/253/385
f 557/248/386 561/252/386 556/247/386
f 553/244/387 562/254/387 557/248/387
f 559/249/388 563/255/388 558/250/388
f 559/249/389 565/256/389 564/257/389
f 561/252/390 565/258/390 560/253/390
f 561/252/391 567/259/391 566/260/391
f 558/250/392 567/259/392 562/254/392
f 564/257/393 568/261/393 563/255/393
f 564/257/394 570/262/394 569/263/394
f 566/260/395 570/264/395 565/258/395
f 566/260/396 572/265/396 571/266/396
f 567/259/397 568/261/397 572/265/397
f 568/261/398 574/267/398 573/268/398
f 569/263/399 575/269/399 574/267/399
f 571/266/400 575/270/400 570/264/400
f 571/266/401 577/271/401 576/272/401
f 572/265/402 573/268/402 577/271/402
f 574/267/403 578/273/403 573/268/403
f 574/267/404 580/274/404 579/275/404
f 575/270/405 581/276/405 580/277/405
f 576/272/406 582/278/406 581/276/406
f 577/271/407 578/273/407 582/278/407
f 579/275/408 583/126/408 578/273/408
f 580/274/409 584/125/409 579/275/409
f 581/276/410 585/80/410 580/277/410
f 582/278/411 586/128/411 581/276/411
f 582/278/412 583/126/412 587/127/412
f 584/279/413 588/280/413 583/281/413
f 584/279/414 590/282/414 589/283/414
f 585/69/415 591/284/415 590/285/415
f 586/286/416 592/287/416 591/284/416
f 583/281/417 592/287/417 587/288/417
f 589/283/418 593/289/418 588/280/418
f 590/282/419 594/290/419 589/283/419
f 591/284/420 595/291/420 590/285/420
f 591/284/421 597/292/421 596/293/421
f 592/287/422 593/289/422 597/292/422
f 593/289/423 599/294/423 598/295/423
f 594/290/424 600/296/424 599/294/424
f 595/291/425 601/297/425 600/298/425
f 597/292/426 601/297/426 596/293/426
f 593/289/427 602/299/427 597/292/427
f 598/295/428 604/300/428 603/301/428
f 600/296/429 604/300/429 599/294/429
f 600/298/430 606/302/430 605/303/430
f 602/299/431 606/302/431 601/297/431
f 598/295/432 607/304/432 602/299/432
f 603/301/433 609/305/433 608/306/433
f 605/307/434 609/305/434 604/300/434
f 606/302/435 610/308/435 605/303/435
f 607/304/436 611/309/436 606/302/436
f 607/304/437 608/306/437 612/310/437
f 609/305/438 613/311/438 608/306/438
f 609/305/439 615/312/439 614/313/439
f 611/309/440 615/314/440 610/308/440
f 611/309/441 617/315/441 616/316/441
f 612/310/442 613/311/442 617/315/442
f 614/313/443 618/317/443 613/311/443
f 614/313/444 620/318/444 619/319/444
f 615/314/445 621/320/445 620/321/445
f 617/315/446 621/320/446 616/316/446
f 613/311/447 622/322/447 617/315/447
f 619/319/448 543/87/448 618/317/448
f 619/319/449 545/68/449 544/90/449
f 621/320/450 545/86/450 620/321/450
f 622/322/451 546/91/451 621/320/451
f 622/322/452 543/87/452 547/95/452
f 623/87/373 629/238/373 628/239/373
f 625/68/374 629/238/374 624/90/374
f 625/86/375 631/240/375 630/241/375
f 626/91/376 632/242/376 631/240/376
f 623/87/377 632/242/377 627/95/377
f 628/239/378 634/243/378 633/244/378
f 630/245/379 634/243/379 629/238/379
f 631/240/380 635/246/380 630/241/380
f 632/242/381 636/247/381 631/240/381
f 632/242/382 633/244/382 637/248/382
f 633/244/383 639/249/383 638/250/383
f 635/251/384 639/249/384 634/243/384
f 635/246/385 641/252/385 640/253/385
f 637/248/386 641/252/386 636/247/386
f 633/244/387 642/254/387 637/248/387
f 639/249/388 643/255/388 638/250/388
f 639/249/389 645/256/389 644/257/389
f 641/252/390 645/258/390 640/253/390
f 641/252/391 647/259/391 646/260/391
f 638/250/392 647/259/392 642/254/392
f 644/257/393 648/261/393 643/255/393
f 644/257/394 650/262/394 649/263/394
f 646/260/395 650/264/395 645/258/395
f 646/260/396 652/265/396 651/266/396
f 647/259/397 648/261/397 652/265/397
f 648/261/398 654/267/398 653/268/398
f 649/263/399 655/269/399 654/267/399
f 651/266/400 655/270/400 650/264/400
f 651/266/401 657/271/401 656/272/401
f 652/265/402 653/268/402 657/271/402
f 654/267/403 658/273/403 653/268/403
f 654/267/404 660/274/404 659/275/404
f 655/270/405 661/276/405 660/277/405
f 656/272/406 662/278/406 661/276/406
f 657/271/407 658/273/407 662/278/407
f 659/275/408 663/126/408 658/273/408
f 660/274/409 664/125/409 659/275/409
f 661/276/410 665/80/410 660/277/410
f 662/278/411 666/128/411 661/276/411
f 662/278/412 663/126/412 667/127/412
f 664/279/413 668/280/413 663/281/413
f 664/279/414 670/282/414 669/283/414
f 665/69/415 671/284/415 670/285/415
f 666/286/416 672/287/416 671/284/416
f 663/281/417 672/287/417 667/288/417
f 669/283/418 673/289/418 668/280/418
f 669/283/419 675/323/419 674/290/419
f 671/284/420 675/291/420 670/285/420
f 672/287/421 676/293/421 671/284/421
f 672/287/422 673/289/422 677/292/422
f 673/289/423 679/294/423 678/295/423
f 674/290/424 680/296/424 679/294/424
f 675/291/425 681/297/425 680/298/425
f 677/292/426 681/297/426 676/293/426
f 673/289/427 682/299/427 677/292/427
f 678/295/428 684/300/428 683/301/428
f 680/296/429 684/300/429 679/294/429
f 680/298/430 686/302/430 685/303/430
f 682/299/431 686/302/431 681/297/431
f 678/295/432 687/304/432 682/299/432
f 683/301/433 689/305/433 688/306/433
f 685/307/434 689/305/434 684/300/434
f 686/302/435 690/308/435 685/303/435
f 687/304/436 691/309/436 686/302/436
f 683/301/437 692/310/437 687/304/437
f 689/305/438 693/311/438 688/306/438
f 689/305/439 695/312/439 694/313/439
f 691/309/440 695/314/440 690/308/440
f 691/309/441 697/315/441 696/316/441
f 692/310/442 693/311/442 697/315/442
f 694/313/443 698/317/443 693/311/443
f 694/313/444 700/318/444 699/319/444
f 695/314/445 701/320/445 700/321/445
f 697/315/446 701/320/446 696/316/446
f 693/311/447 702/322/447 697/315/447
f 699/319/448 623/87/448 698/317/448
f 699/319/449 625/68/449 624/90/449
f 701/320/450 625/86/450 700/321/450
f 702/322/451 626/91/451 701/320/451
f 702/322/452 623/87/452 627/95/452
s 1
f 73/66/48 78/78/59 84/67/49
f 73/69/48 79/86/50 80/70/51
f 74/71/52 80/70/51 81/72/53
f 75/73/54 81/72/53 82/74/55
f 77/76/57 76/75/56 82/74/55
f 78/78/59 77/76/57 83/77/58
f 84/67/49 90/85/65 85/79/60
f 80/70/51 79/86/50 85/80/60
f 81/72/53 80/70/51 86/81/61
f 82/74/55 81/72/53 87/82/62
f 82/74/55 88/83/63 89/84/64
f 83/77/58 89/84/64 90/85/65
f 91/66/66 96/78/73 102/67/67
f 91/69/66 97/86/68 98/70/51
f 92/71/69 98/70/51 99/72/70
f 93/73/71 99/72/70 100/74/72
f 95/76/57 94/75/56 100/74/72
f 96/78/73 95/76/57 101/77/58
f 102/67/67 108/85/65 103/79/60
f 98/70/51 97/86/68 103/80/60
f 99/72/70 98/70/51 104/81/61
f 100/74/72 99/72/70 105/82/74
f 100/74/72 106/83/75 107/84/76
f 101/77/58 107/84/76 108/85/65
f 109/66/48 114/78/81 120/67/77
f 109/69/48 115/86/78 116/70/51
f 110/71/52 116/70/51 117/72/53
f 111/73/71 117/72/53 118/74/55
f 113/76/79 112/75/56 118/74/55
f 114/78/81 113/76/79 119/77/80
f 120/67/77 126/85/83 121/79/82
f 116/70/51 115/86/78 121/80/82
f 117/72/53 116/70/51 122/81/61
f 118/74/55 117/72/53 123/82/62
f 118/74/55 124/83/63 125/84/76
f 119/77/80 125/84/76 126/85/83
f 127/66/84 132/78/81 138/67/85
f 127/69/84 133/86/86 134/70/51
f 128/71/52 134/70/51 135/72/87
f 129/73/71 135/72/87 136/74/55
f 131/76/79 130/75/88 136/74/55
f 132/78/81 131/76/79 137/77/80
f 138/67/85 144/85/83 139/79/89
f 134/70/51 133/86/86 139/80/89
f 135/72/87 134/70/51 140/81/90
f 136/74/55 135/72/87 141/82/91
f 136/74/55 142/83/75 143/84/76
f 137/77/80 143/84/76 144/85/83
f 145/66/48 150/78/93 156/67/49
f 145/69/48 151/86/86 152/70/51
f 146/71/52 152/70/51 153/72/53
f 147/73/54 153/72/53 154/74/92
f 149/76/57 148/75/56 154/74/92
f 150/78/93 149/76/57 155/77/58
f 156/67/49 162/85/83 157/79/89
f 152/70/51 151/86/86 157/80/89
f 153/72/53 152/70/51 158/81/61
f 154/74/92 153/72/53 159/82/74
f 154/74/92 160/83/63 161/84/94
f 155/77/58 161/84/94 162/85/83
f 163/66/48 168/78/81 174/67/85
f 163/69/48 169/86/95 170/70/96
f 164/71/52 170/70/96 171/72/53
f 165/73/71 171/72/53 172/74/72
f 167/76/79 166/75/56 172/74/72
f 168/78/81 167/76/79 173/77/97
f 174/67/85 180/85/83 175/79/89
f 170/70/96 169/86/95 175/80/89
f 171/72/53 170/70/96 176/81/61
f 172/74/72 171/72/53 177/82/98
f 172/74/72 178/83/75 179/84/76
f 173/77/97 179/84/76 180/85/83
f 181/66/48 186/78/100 192/67/85
f 181/69/48 187/86/95 188/70/51
f 182/71/69 188/70/51 189/72/87
f 183/73/99 189/72/87 190/74/72
f 185/76/79 184/75/56 190/74/72
f 186/78/100 185/76/79 191/77/80
f 192/67/85 198/85/65 193/79/89
f 188/70/51 187/86/95 193/80/89
f 189/72/87 188/70/51 194/81/90
f 190/74/72 189/72/87 195/82/98
f 190/74/72 196/83/63 197/84/94
f 191/77/80 197/84/94 198/85/65
f 199/66/48 204/78/81 210/67/49
f 199/69/48 205/86/50 206/70/51
f 200/71/52 206/70/51 207/72/53
f 201/73/54 207/72/53 208/74/55
f 203/76/57 202/75/101 208/74/55
f 204/78/81 203/76/57 209/77/58
f 210/67/49 216/85/83 211/79/89
f 206/70/51 205/86/50 211/80/89
f 207/72/53 206/70/51 212/81/61
f 208/74/55 207/72/53 213/82/74
f 208/74/55 214/83/75 215/84/76
f 209/77/58 215/84/76 216/85/83
f 217/66/102 222/78/113 228/67/103
f 218/71/105 217/69/102 223/86/104
f 219/73/107 218/71/105 224/70/106
f 219/73/107 225/72/108 226/74/109
f 220/75/110 226/74/109 227/77/111
f 221/76/112 227/77/111 228/67/103
f 228/67/103 234/85/119 229/79/114
f 223/86/104 229/80/114 230/81/115
f 224/70/106 230/81/115 231/82/116
f 226/74/109 225/72/108 231/82/116
f 227/77/111 226/74/109 232/83/117
f 228/67/103 227/77/111 233/84/118
f 235/66/120 240/78/131 246/67/121
f 236/71/123 235/69/120 241/86/122
f 237/73/125 236/71/123 242/70/124
f 237/73/125 243/72/126 244/74/127
f 238/75/128 244/74/127 245/77/129
f 239/76/130 245/77/129 246/67/121
f 246/67/121 252/85/137 247/79/132
f 241/86/122 247/80/132 248/81/133
f 242/70/124 248/81/133 249/82/134
f 244/74/127 243/72/126 249/82/134
f 245/77/129 244/74/127 250/83/135
f 246/67/121 245/77/129 251/84/136
f 253/66/138 258/78/113 264/67/139
f 254/71/141 253/69/138 259/86/140
f 255/73/143 254/71/141 260/70/142
f 255/73/143 261/72/144 262/74/145
f 256/75/146 262/74/145 263/77/147
f 257/76/148 263/77/147 264/67/139
f 264/67/139 270/85/119 265/79/149
f 259/86/140 265/80/149 266/81/150
f 260/70/142 266/81/150 267/82/151
f 262/74/145 261/72/144 267/82/151
f 263/77/147 262/74/145 268/83/152
f 264/67/139 263/77/147 269/84/153
f 271/66/154 276/78/165 282/67/155
f 272/71/157 271/69/154 277/86/156
f 273/73/159 272/71/157 278/70/158
f 273/73/159 279/72/160 280/74/161
f 274/75/162 280/74/161 281/77/163
f 275/76/164 281/77/163 282/67/155
f 282/67/155 288/85/171 283/79/166
f 277/86/156 283/80/166 284/81/167
f 278/70/158 284/81/167 285/82/168
f 280/74/161 279/72/160 285/82/168
f 281/77/163 280/74/161 286/83/169
f 282/67/155 281/77/163 287/84/170
s 0
f 543/87/373 544/90/373 549/238/373
f 545/68/374 550/245/374 549/238/374
f 545/86/375 546/91/375 551/240/375
f 546/91/482 547/95/482 552/242/482
f 543/87/483 548/239/483 552/242/483
f 548/239/378 549/238/378 554/243/378
f 550/245/379 555/251/379 554/243/379
f 551/240/484 556/247/484 555/246/484
f 552/242/485 557/248/485 556/247/485
f 552/242/486 548/239/486 553/244/486
f 553/244/487 554/243/487 559/249/487
f 555/251/384 560/330/384 559/249/384
f 555/246/385 556/247/385 561/252/385
f 557/248/488 562/254/488 561/252/488
f 553/244/489 558/250/489 562/254/489
f 559/249/388 564/257/388 563/255/388
f 559/249/490 560/330/490 565/256/490
f 561/252/390 566/260/390 565/258/390
f 561/252/491 562/254/491 567/259/491
f 558/250/492 563/255/492 567/259/492
f 564/257/393 569/263/393 568/261/393
f 564/257/493 565/256/493 570/262/493
f 566/260/395 571/266/395 570/264/395
f 566/260/396 567/259/396 572/265/396
f 567/259/397 563/255/397 568/261/397
f 568/261/494 569/263/494 574/267/494
f 569/263/399 570/262/399 575/269/399
f 571/266/400 576/272/400 575/270/400
f 571/266/495 572/265/495 577/271/495
f 572/265/402 568/261/402 573/268/402
f 574/267/496 579/275/496 578/273/496
f 574/267/404 575/269/404 580/274/404
f 575/270/405 576/272/405 581/276/405
f 576/272/497 577/271/497 582/278/497
f 577/271/498 573/268/498 578/273/498
f 579/275/408 584/125/408 583/126/408
f 580/274/499 585/79/499 584/125/499
f 581/276/410 586/128/410 585/80/410
f 582/278/411 587/127/411 586/128/411
f 582/278/412 578/273/412 583/126/412
f 584/279/413 589/283/413 588/280/413
f 584/279/500 585/66/500 590/282/500
f 585/69/415 586/286/415 591/284/415
f 586/286/501 587/288/501 592/287/501
f 583/281/417 588/280/417 592/287/417
f 589/283/502 594/290/502 593/289/502
f 590/282/419 595/323/419 594/290/419
f 591/284/420 596/293/420 595/291/420
f 591/284/421 592/287/421 597/292/421
f 592/287/422 588/280/422 593/289/422
f 593/289/503 594/290/503 599/294/503
f 594/290/424 595/323/424 600/296/424
f 595/291/425 596/293/425 601/297/425
f 597/292/504 602/299/504 601/297/504
f 593/289/427 598/295/427 602/299/427
f 598/295/428 599/294/428 604/300/428
f 600/296/505 605/307/505 604/300/505
f 600/298/430 601/297/430 606/302/430
f 602/299/431 607/304/431 606/302/431
f 598/295/432 603/301/432 607/304/432
f 603/301/433 604/300/433 609/305/433
f 605/307/506 610/331/506 609/305/506
f 606/302/435 611/309/435 610/308/435
f 607/304/507 612/310/507 611/309/507
f 607/304/508 603/301/508 608/306/508
f 609/305/509 614/313/509 613/311/509
f 609/305/439 610/331/439 615/312/439
f 611/309/440 616/316/440 615/314/440
f 611/309/510 612/310/510 617/315/510
f 612/310/511 608/306/511 613/311/511
f 614/313/512 619/319/512 618/317/512
f 614/313/444 615/312/444 620/318/444
f 615/314/513 616/316/513 621/320/513
f 617/315/514 622/322/514 621/320/514
f 613/311/515 618/317/515 622/322/515
f 619/319/448 544/90/448 543/87/448
f 619/319/516 620/318/516 545/68/516
f 621/320/450 546/91/450 545/86/450
f 622/322/451 547/95/451 546/91/451
f 622/322/452 618/317/452 543/87/452
f 623/87/373 624/90/373 629/238/373
f 625/68/374 630/245/374 629/238/374
f 625/86/375 626/91/375 631/240/375
f 626/91/482 627/95/482 632/242/482
f 623/87/483 628/239/483 632/242/483
f 628/239/378 629/238/378 634/243/378
f 630/245/379 635/251/379 634/243/379
f 631/240/484 636/247/484 635/246/484
f 632/242/485 637/248/485 636/247/485
f 632/242/486 628/239/486 633/244/486
f 633/244/487 634/243/487 639/249/487
f 635/251/384 640/330/384 639/249/384
f 635/246/385 636/247/385 641/252/385
f 637/248/488 642/254/488 641/252/488
f 633/244/489 638/250/489 642/254/489
f 639/249/388 644/257/388 643/255/388
f 639/249/490 640/330/490 645/256/490
f 641/252/390 646/260/390 645/258/390
f 641/252/491 642/254/491 647/259/491
f 638/250/492 643/255/492 647/259/492
f 644/257/393 649/263/393 648/261/393
f 644/257/493 645/256/493 650/262/493
f 646/260/395 651/266/395 650/264/395
f 646/260/396 647/259/396 652/265/396
f 647/259/397 643/255/397 648/261/397
f 648/261/494 649/263/494 654/267/494
f 649/263/399 650/262/399 655/269/399
f 651/266/400 656/272/400 655/270/400
f 651/266/495 652/265/495 657/271/495
f 652/265/402 648/261/402 653/268/402
f 654/267/496 659/275/496 658/273/496
f 654/267/404 655/269/404 660/274/404
f 655/270/405 656/272/405 661/276/405
f 656/272/497 657/271/497 662/278/497
f 657/271/498 653/268/498 658/273/498
f 659/275/408 664/125/408 663/126/408
f 660/274/499 665/79/499 664/125/499
f 661/276/410 666/128/410 665/80/410
f 662/278/411 667/127/411 666/128/411
f 662/278/412 658/273/412 663/126/412
f 664/279/413 669/283/413 668/280/413
f 664/279/500 665/66/500 670/282/500
f 665/69/415 666/286/415 671/284/415
f 666/286/501 667/288/501 672/287/501
f 663/281/417 668/280/417 672/287/417
f 669/283/502 674/290/502 673/289/502
f 669/283/517 670/282/517 675/323/517
f 671/284/420 676/293/420 675/291/420
f 672/287/518 677/292/518 676/293/518
f 672/287/519 668/280/519 673/289/519
f 673/289/503 674/290/503 679/294/503
f 674/290/424 675/323/424 680/296/424
f 675/291/425 676/293/425 681/297/425
f 677/292/504 682/299/504 681/297/504
f 673/289/520 678/295/520 682/299/520
f 678/295/428 679/294/428 684/300/428
f 680/296/505 685/307/505 684/300/505
f 680/298/430 681/297/430 686/302/430
f 682/299/431 687/304/431 686/302/431
f 678/295/432 683/301/432 687/304/432
f 683/301/433 684/300/433 689/305/433
f 685/307/506 690/331/506 689/305/506
f 686/302/435 691/309/435 690/308/435
f 687/304/507 692/310/507 691/309/507
f 683/301/508 688/306/508 692/310/508
f 689/305/509 694/313/509 693/311/509
f 689/305/439 690/331/439 695/312/439
f 691/309/440 696/316/440 695/314/440
f 691/309/510 692/310/510 697/315/510
f 692/310/511 688/306/511 693/311/511
f 694/313/512 699/319/512 698/317/512
f 694/313/444 695/312/444 700/318/444
f 695/314/513 696/316/513 701/320/513
f 697/315/514 702/322/514 701/320/514
f 693/311/515 698/317/515 702/322/515
f 699/319/448 624/90/448 623/87/448
f 699/319/516 700/318/516 625/68/516
f 701/320/450 626/91/450 625/86/450
f 702/322/451 627/95/451 626/91/451
f 702/322/452 698/317/452 623/87/452
usemtl Cream
f 289/87/172 295/88/172 294/89/172
f 291/68/173 295/88/173 290/90/173
f 292/91/174 296/92/174 291/86/174
f 292/91/175 298/93/175 297/94/175
f 293/95/176 294/89/176 298/93/176
f 294/89/177 300/96/177 299/97/177
f 295/88/178 301/98/178 300/96/178
f 297/94/179 301/99/179 296/92/179
f 297/94/180 303/100/180 302/101/180
f 298/93/181 299/97/181 303/100/181
f 300/96/182 304/102/182 299/97/182
f 300/96/183 306/103/183 305/104/183
f 302/101/184 306/105/184 301/99/184
f 303/100/185 307/106/185 302/101/185
f 299/97/186 308/107/186 303/100/186
f 305/104/187 309/108/187 304/102/187
f 306/103/188 310/109/188 305/104/188
f 307/106/21 311/110/21 306/105/21
f 308/107/189 312/111/189 307/106/189
f 304/102/190 313/112/190 308/107/190
f 310/109/191 314/113/191 309/108/191
f 311/114/192 315/115/192 310/109/192
f 312/111/193 316/116/193 311/110/193
f 313/112/194 317/117/194 312/111/194
f 309/108/195 318/118/195 313/112/195
f 315/115/196 319/119/196 314/113/196
f 315/115/197 321/120/197 320/121/197
f 317/117/198 321/122/198 316/116/198
f 317/117/199 323/123/199 322/124/199
f 314/113/200 323/123/200 318/118/200
f 319/119/201 325/125/201 324/126/201
f 320/121/202 326/79/202 325/125/202
f 322/124/203 326/80/203 321/122/203
f 322/124/204 328/127/204 327/128/204
f 323/123/205 324/126/205 328/127/205
f 325/129/206 329/130/206 324/131/206
f 326/132/207 330/133/207 325/129/207
f 327/134/208 331/135/208 326/136/208
f 327/134/209 333/137/209 332/138/209
f 328/139/210 329/130/210 333/137/210
f 329/130/211 335/140/211 334/141/211
f 331/142/212 335/140/212 330/133/212
f 331/135/213 337/143/213 336/144/213
f 333/137/214 337/143/214 332/138/214
f 329/130/215 338/145/215 333/137/215
f 335/140/216 339/146/216 334/141/216
f 336/147/217 340/148/217 335/140/217
f 337/143/218 341/149/218 336/144/218
f 337/143/219 343/150/219 342/151/219
f 334/141/220 343/150/220 338/145/220
f 340/148/221 344/152/221 339/146/221
f 341/153/222 345/154/222 340/148/222
f 342/151/24 346/155/24 341/149/24
f 343/150/223 347/156/223 342/151/223
f 339/146/224 348/157/224 343/150/224
f 344/152/225 350/158/225 349/159/225
f 346/160/226 350/158/226 345/154/226
f 347/156/227 351/161/227 346/155/227
f 347/156/228 353/162/228 352/163/228
f 348/157/229 349/159/229 353/162/229
f 349/159/230 355/164/230 354/165/230
f 351/166/231 355/164/231 350/158/231
f 352/163/232 356/167/232 351/161/232
f 353/162/233 357/168/233 352/163/233
f 349/159/234 358/169/234 353/162/234
f 354/165/235 290/90/235 289/87/235
f 355/164/236 291/68/236 290/90/236
f 357/168/237 291/86/237 356/167/237
f 358/169/238 292/91/238 357/168/238
f 354/165/239 293/95/239 358/169/239
f 360/90/172 364/89/172 359/87/172
f 361/68/240 365/88/240 360/90/240
f 362/91/174 366/92/174 361/86/174
f 362/91/175 368/93/175 367/94/175
f 363/95/176 364/89/176 368/93/176
f 365/88/241 369/97/241 364/89/241
f 365/88/178 371/98/178 370/96/178
f 367/94/179 371/99/179 366/92/179
f 368/93/180 372/101/180 367/94/180
f 368/93/181 369/97/181 373/100/181
f 370/96/182 374/102/182 369/97/182
f 371/98/242 375/104/242 370/96/242
f 371/99/184 377/106/184 376/105/184
f 372/101/185 378/107/185 377/106/185
f 369/97/186 378/107/186 373/100/186
f 375/104/187 379/108/187 374/102/187
f 376/103/243 380/109/243 375/104/243
f 377/106/21 381/110/21 376/105/21
f 377/106/189 383/112/189 382/111/189
f 374/102/190 383/112/190 378/107/190
f 379/108/191 385/115/191 384/113/191
f 381/114/244 385/115/244 380/109/244
f 382/111/193 386/116/193 381/110/193
f 383/112/194 387/117/194 382/111/194
f 383/112/245 384/113/245 388/118/245
f 384/113/246 390/121/246 389/119/246
f 386/170/197 390/121/197 385/115/197
f 387/117/198 391/122/198 386/116/198
f 388/118/247 392/124/247 387/117/247
f 388/118/200 389/119/200 393/123/200
f 389/119/201 395/125/201 394/126/201
f 390/121/202 396/79/202 395/125/202
f 392/124/203 396/80/203 391/122/203
f 392/124/204 398/127/204 397/128/204
f 393/123/205 394/126/205 398/127/205
f 394/131/206 400/133/206 399/130/206
f 396/132/207 400/133/207 395/129/207
f 397/134/208 401/135/208 396/136/208
f 398/139/248 402/138/248 397/134/248
f 394/131/210 403/137/210 398/139/210
f 400/133/249 404/141/249 399/130/249
f 400/133/250 406/147/250 405/140/250
f 402/138/213 406/144/213 401/135/213
f 402/138/251 408/145/251 407/143/251
f 399/130/215 408/145/215 403/137/215
f 404/141/216 410/148/216 409/146/216
f 406/147/252 410/148/252 405/140/252
f 407/143/218 411/149/218 406/144/218
f 407/143/219 413/150/219 412/151/219
f 408/145/253 409/146/253 413/150/253
f 409/146/221 415/154/221 414/152/221
f 411/153/254 415/154/254 410/148/254
f 412/151/24 416/155/24 411/149/24
f 413/150/223 417/156/223 412/151/223
f 409/146/224 418/157/224 413/150/224
f 414/152/225 420/158/225 419/159/225
f 415/154/255 421/166/255 420/158/255
f 417/156/227 421/161/227 416/155/227
f 418/157/228 422/163/228 417/156/228
f 418/157/229 419/159/229 423/162/229
f 419/159/256 425/164/256 424/165/256
f 421/166/231 425/164/231 420/158/231
f 422/163/232 426/167/232 421/161/232
f 423/162/233 427/168/233 422/163/233
f 419/159/234 428/169/234 423/162/234
f 425/164/257 359/87/257 424/165/257
f 425/164/236 361/68/236 360/90/236
f 427/168/237 361/86/237 426/167/237
f 428/169/258 362/91/258 427/168/258
f 424/165/239 363/95/239 428/169/239
f 289/87/172 290/90/172 295/88/172
f 291/68/457 296/326/457 295/88/457
f 292/91/174 297/94/174 296/92/174
f 292/91/458 293/95/458 298/93/458
f 293/95/176 289/87/176 294/89/176
f 294/89/241 295/88/241 300/96/241
f 295/88/459 296/326/459 301/98/459
f 297/94/179 302/101/179 301/99/179
f 297/94/460 298/93/460 303/100/460
f 298/93/181 294/89/181 299/97/181
f 300/96/461 305/104/461 304/102/461
f 300/96/183 301/98/183 306/103/183
f 302/101/184 307/106/184 306/105/184
f 303/100/185 308/107/185 307/106/185
f 299/97/186 304/102/186 308/107/186
f 305/104/187 310/109/187 309/108/187
f 306/103/462 311/114/462 310/109/462
f 307/106/21 312/111/21 311/110/21
f 308/107/189 313/112/189 312/111/189
f 304/102/190 309/108/190 313/112/190
f 310/109/463 315/115/463 314/113/463
f 311/114/192 316/170/192 315/115/192
f 312/111/193 317/117/193 316/116/193
f 313/112/194 318/118/194 317/117/194
f 309/108/195 314/113/195 318/118/195
f 315/115/246 320/121/246 319/119/246
f 315/115/464 316/170/464 321/120/464
f 317/117/198 322/124/198 321/122/198
f 317/117/247 318/118/247 323/123/247
f 314/113/200 319/119/200 323/123/200
f 319/119/201 320/121/201 325/125/201
f 320/121/202 321/120/202 326/79/202
f 322/124/203 327/128/203 326/80/203
f 322/124/204 323/123/204 328/127/204
f 323/123/205 319/119/205 324/126/205
f 325/129/206 330/133/206 329/130/206
f 326/132/207 331/142/207 330/133/207
f 327/134/208 332/138/208 331/135/208
f 327/134/209 328/139/209 333/137/209
f 328/139/210 324/131/210 329/130/210
f 329/130/249 330/133/249 335/140/249
f 331/142/212 336/147/212 335/140/212
f 331/135/213 332/138/213 337/143/213
f 333/137/251 338/145/251 337/143/251
f 329/130/215 334/141/215 338/145/215
f 335/140/465 340/148/465 339/146/465
f 336/147/217 341/153/217 340/148/217
f 337/143/218 342/151/218 341/149/218
f 337/143/466 338/145/466 343/150/466
f 334/141/220 339/146/220 343/150/220
f 340/148/221 345/154/221 344/152/221
f 341/153/467 346/160/467 345/154/467
f 342/151/24 347/156/24 346/155/24
f 343/150/223 348/157/223 347/156/223
f 339/146/224 344/152/224 348/157/224
f 344/152/468 345/154/468 350/158/468
f 346/160/226 351/166/226 350/158/226
f 347/156/227 352/163/227 351/161/227
f 347/156/228 348/157/228 353/162/228
f 348/157/229 344/152/229 349/159/229
f 349/159/256 350/158/256 355/164/256
f 351/166/469 356/327/469 355/164/469
f 352/163/232 357/168/232 356/167/232
f 353/162/470 358/169/470 357/168/470
f 349/159/234 354/165/234 358/169/234
f 354/165/257 355/164/257 290/90/257
f 355/164/471 356/327/471 291/68/471
f 357/168/237 292/91/237 291/86/237
f 358/169/472 293/95/472 292/91/472
f 354/165/239 289/87/239 293/95/239
f 360/90/172 365/88/172 364/89/172
f 361/68/457 366/326/457 365/88/457
f 362/91/174 367/94/174 366/92/174
f 362/91/458 363/95/458 368/93/458
f 363/95/176 359/87/176 364/89/176
f 365/88/241 370/96/241 369/97/241
f 365/88/459 366/326/459 371/98/459
f 367/94/179 372/101/179 371/99/179
f 368/93/460 373/100/460 372/101/460
f 368/93/181 364/89/181 369/97/181
f 370/96/182 375/104/182 374/102/182
f 371/98/183 376/103/183 375/104/183
f 371/99/184 372/101/184 377/106/184
f 372/101/473 373/100/473 378/107/473
f 369/97/186 374/102/186 378/107/186
f 375/104/187 380/109/187 379/108/187
f 376/103/243 381/114/243 380/109/243
f 377/106/21 382/111/21 381/110/21
f 377/106/189 378/107/189 383/112/189
f 374/102/190 379/108/190 383/112/190
f 379/108/463 380/109/463 385/115/463
f 381/114/192 386/170/192 385/115/192
f 382/111/193 387/117/193 386/116/193
f 383/112/194 388/118/194 387/117/194
f 383/112/195 379/108/195 384/113/195
f 384/113/246 385/115/246 390/121/246
f 386/170/464 391/120/464 390/121/464
f 387/117/198 392/124/198 391/122/198
f 388/118/199 393/123/199 392/124/199
f 388/118/200 384/113/200 389/119/200
f 389/119/201 390/121/201 395/125/201
f 390/121/474 391/120/474 396/79/474
f 392/124/203 397/128/203 396/80/203
f 392/124/475 393/123/475 398/127/475
f 393/123/205 389/119/205 394/126/205
f 394/131/206 395/129/206 400/133/206
f 396/132/207 401/142/207 400/133/207
f 397/134/208 402/138/208 401/135/208
f 398/139/209 403/137/209 402/138/209
f 394/131/210 399/130/210 403/137/210
f 400/133/249 405/140/249 404/141/249
f 400/133/212 401/142/212 406/147/212
f 402/138/213 407/143/213 406/144/213
f 402/138/214 403/137/214 408/145/214
f 399/130/215 404/141/215 408/145/215
f 404/141/216 405/140/216 410/148/216
f 406/147/217 411/153/217 410/148/217
f 407/143/218 412/151/218 411/149/218
f 407/143/219 408/145/219 413/150/219
f 408/145/220 404/141/220 409/146/220
f 409/146/221 410/148/221 415/154/221
f 411/153/254 416/160/254 415/154/254
f 412/151/24 417/156/24 416/155/24
f 413/150/223 418/157/223 417/156/223
f 409/146/224 414/152/224 418/157/224
f 414/152/225 415/154/225 420/158/225
f 415/154/226 416/160/226 421/166/226
f 417/156/227 422/163/227 421/161/227
f 418/157/228 423/162/228 422/163/228
f 418/157/229 414/152/229 419/159/229
f 419/159/256 420/158/256 425/164/256
f 421/166/469 426/327/469 425/164/469
f 422/163/232 427/168/232 426/167/232
f 423/162/470 428/169/470 427/168/470
f 419/159/234 424/165/234 428/169/234
f 425/164/257 360/90/257 359/87/257
f 425/164/476 426/327/476 361/68/476
f 427/168/237 362/91/237 361/86/237
f 428/169/472 363/95/472 362/91/472
f 424/165/239 359/87/239 363/95/239
usemtl TealPaint
f 429/171/259 431/35/259 430/172/259
f 432/173/260 434/174/260 433/39/260
f 435/175/261 437/176/261 436/42/261
f 438/177/262 440/178/262 439/179/262
f 441/180/263 443/181/263 442/182/263
f 444/183/264 446/184/264 445/185/264
f 447/186/265 449/187/265 448/188/265
f 450/189/266 452/190/266 451/191/266
f 436/42/267 429/171/267 435/175/267
f 431/192/268 432/173/268 430/193/268
f 434/174/269 438/177/269 433/39/269
f 440/178/270 437/194/270 439/179/270
f 447/186/271 437/176/271 435/175/271
f 439/179/272 450/189/272 438/177/272
f 452/190/273 449/187/273 451/191/273
f 441/180/274 449/187/274 447/186/274
f 451/191/275 444/183/275 450/189/275
f 446/184/276 443/181/276 445/185/276
f 430/172/277 441/180/277 429/171/277
f 444/183/278 432/195/278 433/196/278
f 429/171/21 447/186/21 435/175/21
f 436/197/279 434/174/279 431/192/279
f 430/198/280 445/185/280 443/181/280
f 444/183/24 438/199/24 450/189/24
f 448/188/281 439/179/281 437/194/281
f 442/182/282 451/191/282 449/187/282
f 436/42/267 431/35/267 429/171/267
f 431/192/268 434/174/268 432/173/268
f 434/174/269 440/178/269 438/177/269
f 440/178/270 436/197/270 437/194/270
f 447/186/271 448/188/271 437/176/271
f 439/179/272 452/190/272 450/189/272
f 452/190/273 448/188/273 449/187/273
f 441/180/274 442/182/274 449/187/274
f 451/191/275 446/184/275 444/183/275
f 446/184/276 442/182/276 443/181/276
f 430/172/277 443/181/277 441/180/277
f 444/183/278 445/185/278 432/195/278
f 429/171/21 441/180/21 447/186/21
f 436/197/279 440/178/279 434/174/279
f 430/198/280 432/195/280 445/185/280
f 444/183/24 433/328/24 438/199/24
f 448/188/281 452/190/281 439/179/281
f 442/182/282 446/184/282 451/191/282
s 1
usemtl Brass
f 453/66/283 464/67/284 459/68/285
f 453/69/283 460/70/286 454/71/287
f 454/71/287 461/72/288 455/73/289
f 455/73/289 462/74/290 456/75/291
f 457/76/292 462/74/290 463/77/293
f 458/78/294 463/77/293 464/67/284
f 464/67/284 465/79/295 459/68/285
f 460/70/286 465/80/295 466/81/296
f 461/72/288 466/81/296 467/82/297
f 462/74/290 467/82/297 468/83/298
f 462/74/290 469/84/299 463/77/293
f 463/77/293 470/85/300 464/67/284
f 453/66/283 458/78/294 464/67/284
f 453/69/283 459/86/285 460/70/286
f 454/71/287 460/70/286 461/72/288
f 455/73/289 461/72/288 462/74/290
f 457/76/292 456/75/291 462/74/290
f 458/78/294 457/76/292 463/77/293
f 464/67/284 470/85/300 465/79/295
f 460/70/286 459/86/285 465/80/295
f 461/72/288 460/70/286 466/81/296
f 462/74/290 461/72/288 467/82/297
f 462/74/290 468/83/298 469/84/299
f 463/77/293 469/84/299 470/85/300
